<svg xmlns="http://www.w3.org/2000/svg" viewBox="0 0 500 500"><g id="freepik--background-simple--inject-66"><path d="M437,132.51C399.23,82.66,337.7,47.08,277.75,37.3,184,22,133,70,106,130S22,199,20,269s43,91,94,110,66,48,127,61,124.21-4.48,151-41,59-65,75-118C483.6,226,468.63,174.27,437,132.51Z" style="fill:#2BD4BD"></path><path d="M437,132.51C399.23,82.66,337.7,47.08,277.75,37.3,184,22,133,70,106,130S22,199,20,269s43,91,94,110,66,48,127,61,124.21-4.48,151-41,59-65,75-118C483.6,226,468.63,174.27,437,132.51Z" style="fill:#fff;opacity:0.7000000000000001"></path></g><g id="freepik--Plants--inject-66"><path d="M29.4,328.36c2.26,1,7.79.86,7.79.86S36,325.6,35.9,325.38c-1.21-2.54-5-6.73-8.17-6.31a3.74,3.74,0,0,0-3,4.67C25.25,325.91,27.47,327.52,29.4,328.36Z" style="fill:#263238"></path><path d="M101.85,309.53c-3.13-.34-6.86,4-8,6.53-.1.22-1.25,3.87-1.19,3.87h.07c-.6.67-1.22,1.4-1.89,2.21-1.23,1.51-2.6,3.22-4,5.18a65.58,65.58,0,0,0-4.1,6.55,47.44,47.44,0,0,0-3.51,7.9.38.38,0,0,0,0,.1c0-.92,0-3.5,0-3.7-.37-2.79-2.7-8-5.8-8.54a3.72,3.72,0,0,0-4.3,3.5c-.18,2.22,1.42,4.44,3,5.84,1.77,1.58,6.67,3.11,7.07,3.23a66,66,0,0,0-2.08,8.56c-.3,1.68-.55,3.39-.78,5.11,0-.8,0-1.52,0-1.62-.36-2.79-2.7-8-5.8-8.54a3.73,3.73,0,0,0-4.3,3.51c-.18,2.22,1.43,4.43,3,5.83s5.75,2.81,6.86,3.17c-.09.65-.17,1.31-.25,2-.38,3.16-.74,6.32-1.2,9.41-.15,1.08-.35,2.15-.54,3.21,0-.7,0-1.3,0-1.39-.36-2.79-2.7-8-5.8-8.54a3.72,3.72,0,0,0-4.3,3.5c-.18,2.22,1.43,4.44,3,5.84s5.35,2.67,6.66,3.1c-.23,1.08-.46,2.17-.73,3.21-.2.71-.35,1.4-.59,2.1s-.45,1.39-.67,2.08c-.47,1.3-1,2.64-1.45,3.9-.33.88-.67,1.71-1,2.54.17-1.08.46-3.2.47-3.38a14.51,14.51,0,0,0-2-7,3.82,3.82,0,0,0,0-.83A3.72,3.72,0,0,0,63,374.74c-3,.81-5,6.15-5.12,9,0,.17.1,2,.19,3.12-.15-.66-.3-1.31-.46-2-.32-1.35-.68-2.68-1.06-4.12l-.63-2.08c-.2-.7-.49-1.42-.74-2.13-.6-1.65-1.29-3.29-2-4.92,1.18-.29,5.35-1.35,7-2.63s3.44-3.38,3.42-5.6a3.73,3.73,0,0,0-4-3.82c-3.14.34-5.85,5.33-6.42,8.09,0,.17-.22,2.19-.3,3.31-.45-1-.89-2-1.38-2.94-1.4-2.82-2.9-5.63-4.39-8.44-.46-.86-.9-1.73-1.35-2.59.42-.09,5.4-1.25,7.28-2.69,1.67-1.28,3.43-3.37,3.42-5.6a3.73,3.73,0,0,0-4-3.81c-3.13.34-5.85,5.33-6.42,8.08,0,.21-.3,3.12-.34,3.86-1-1.89-1.95-3.8-2.82-5.71a64.89,64.89,0,0,1-3.08-7.94c.2,0,5.41-1.23,7.33-2.71,1.66-1.28,3.43-3.37,3.42-5.59a3.73,3.73,0,0,0-4-3.82c-3.13.34-5.85,5.33-6.42,8.09-.05.21-.33,3.35-.34,3.92,0-.16-.11-.32-.16-.48a47.23,47.23,0,0,1-1.59-8.38c-.18-1.57-.26-3.07-.31-4.54,1-.12,5.53-.72,7.4-1.86s3.79-3,4-5.19a3.73,3.73,0,0,0-3.59-4.23c-3.15,0-6.4,4.65-7.27,7.33,0,.14-.36,1.68-.57,2.8,0-.67,0-1.35,0-2,0-2.39.15-4.57.3-6.5.09-1.1.2-2.09.31-3,.91-.63,4.56-3.2,5.68-5s2-4.39,1.17-6.46a3.72,3.72,0,0,0-5.13-2.1c-2.8,1.44-3.54,7.08-3.08,9.85,0,.24,1.1,3.92,1.15,3.89l.05,0c-.12.89-.24,1.85-.35,2.89-.19,1.93-.39,4.12-.45,6.51a66.12,66.12,0,0,0,.19,7.73,47.54,47.54,0,0,0,1.43,8.52l0,.1c-.5-.78-2-2.91-2.09-3.06-1.84-2.13-6.65-5.16-9.55-3.93a3.73,3.73,0,0,0-1.65,5.3c1.07,1.95,3.64,2.91,5.72,3.22,2.34.34,7.28-1.09,7.67-1.21a66,66,0,0,0,3,8.29c.68,1.57,1.42,3.13,2.17,4.69-.45-.66-.86-1.25-.92-1.32-1.84-2.13-6.65-5.16-9.55-3.93A3.73,3.73,0,0,0,32,356.2c1.07,1.95,3.63,2.91,5.71,3.21s6.34-.82,7.46-1.14l.88,1.78c1.43,2.85,2.87,5.69,4.2,8.51.46,1,.89,2,1.32,3-.4-.59-.75-1.08-.81-1.15-1.84-2.13-6.64-5.16-9.55-3.93a3.74,3.74,0,0,0-1.65,5.3c1.07,2,3.64,2.92,5.72,3.22s5.93-.72,7.26-1.09c.4,1,.81,2.07,1.16,3.09.22.7.49,1.36.67,2.07s.39,1.41.59,2.1c.32,1.35.66,2.73.94,4.06.21.91.38,1.79.56,2.68-.45-1-1.38-2.93-1.48-3.08-1.49-2.39-5.79-6.11-8.84-5.33a3.73,3.73,0,0,0-2.44,5c.77,2.09,3.16,3.43,5.17,4,2.21.68,7.11.06,7.72,0,.29,1.46.56,2.89.8,4.24.82,4.68,1.33,8.61,1.65,11.36.06.49.1.92.15,1.33H49.73L53.19,473H69.35l3.46-67.57H64l.19-.4c1.21-2.53,2.9-6.16,4.71-10.6.58-1.4,1.17-2.91,1.76-4.47.59.13,5.44,1.11,7.7.6,2-.46,4.53-1.62,5.45-3.65a3.73,3.73,0,0,0-2.06-5.15c-3-1-7.54,2.39-9.21,4.65-.1.14-1,1.7-1.57,2.7.24-.63.48-1.25.72-1.91.47-1.3.91-2.61,1.39-4l.62-2.08c.22-.69.37-1.45.56-2.18.41-1.71.74-3.46,1-5.23,1.14.42,5.2,1.83,7.31,1.68s4.72-.91,5.94-2.78a3.72,3.72,0,0,0-1.26-5.4c-2.8-1.45-7.82,1.21-9.81,3.2-.13.12-1.4,1.71-2.08,2.59.17-1.06.34-2.12.48-3.21.38-3.12.68-6.29,1-9.46.09-1,.2-1.94.3-2.9.4.15,5.2,1.94,7.56,1.77,2.09-.15,4.72-.92,5.94-2.78A3.73,3.73,0,0,0,89.38,351c-2.8-1.44-7.82,1.22-9.81,3.21-.15.14-2,2.43-2.41,3,.22-2.13.47-4.25.79-6.33a66.28,66.28,0,0,1,1.82-8.32c.18.07,5.18,2,7.6,1.79,2.09-.15,4.72-.92,5.94-2.78a3.73,3.73,0,0,0-1.26-5.41c-2.8-1.44-7.82,1.22-9.81,3.21-.16.15-2.12,2.61-2.44,3.08,0-.16.07-.33.12-.48a48.39,48.39,0,0,1,3.3-7.88c.72-1.4,1.48-2.7,2.25-3.95.89.45,5,2.44,7.2,2.53s4.8-.39,6.21-2.11a3.73,3.73,0,0,0-.65-5.51c-2.63-1.74-7.91.35-10.11,2.1-.12.1-1.23,1.2-2,2,.36-.56.72-1.14,1.07-1.67,1.32-2,2.65-3.72,3.84-5.25.68-.86,1.31-1.63,1.92-2.34,1.1,0,5.56-.16,7.51-1.07s4.08-2.56,4.54-4.74A3.73,3.73,0,0,0,101.85,309.53ZM67.16,393.7c-1.89,4.36-3.63,7.92-4.89,10.39-.25.5-.48.94-.69,1.34h-.21c-.06-.48-.13-1-.21-1.6-.38-2.77-1-6.73-1.92-11.43-.29-1.49-.63-3.07-1-4.7a39.4,39.4,0,0,0,4.31-2c1.62,1.74,5.75,3.79,6.28,4.05C68.27,391.11,67.71,392.45,67.16,393.7Z" style="fill:#263238"></path><path d="M85.34,329.57s1-3.67,1-3.91c.39-2.79-.5-8.4-3.34-9.77A3.72,3.72,0,0,0,78,318.13c-.76,2.09.2,4.66,1.35,6.42C80.66,326.62,85.34,329.57,85.34,329.57Z" style="fill:#263238"></path><path d="M403.47,328.36c2.26,1,7.79.86,7.79.86s-1.19-3.62-1.29-3.84c-1.21-2.54-5.05-6.73-8.18-6.31a3.73,3.73,0,0,0-3,4.67C399.32,325.91,401.54,327.52,403.47,328.36Z" style="fill:#263238"></path><path d="M475.92,309.53c-3.13-.34-6.86,4-8,6.53-.1.22-1.25,3.87-1.19,3.87h.07c-.6.67-1.22,1.4-1.9,2.21-1.22,1.51-2.59,3.22-4,5.18a67.47,67.47,0,0,0-4.11,6.55,49.14,49.14,0,0,0-3.51,7.9.38.38,0,0,1,0,.1c0-.92,0-3.5-.05-3.7-.36-2.79-2.7-8-5.8-8.54a3.72,3.72,0,0,0-4.3,3.5c-.18,2.22,1.43,4.44,3,5.84,1.77,1.58,6.67,3.11,7.06,3.23a66,66,0,0,0-2.07,8.56c-.3,1.68-.55,3.39-.78,5.11,0-.8,0-1.52,0-1.62-.36-2.79-2.7-8-5.8-8.54a3.73,3.73,0,0,0-4.3,3.51c-.18,2.22,1.42,4.43,3,5.83s5.75,2.81,6.85,3.17c-.08.65-.17,1.31-.24,2-.38,3.16-.75,6.32-1.2,9.41-.16,1.08-.35,2.15-.54,3.21,0-.7,0-1.3,0-1.39-.36-2.79-2.7-8-5.8-8.54a3.72,3.72,0,0,0-4.3,3.5c-.18,2.22,1.42,4.44,3,5.84s5.34,2.67,6.66,3.1c-.23,1.08-.46,2.17-.73,3.21-.21.71-.35,1.4-.59,2.1s-.45,1.39-.67,2.08c-.48,1.3-1,2.64-1.45,3.9-.34.88-.67,1.71-1,2.54.17-1.08.46-3.2.46-3.38a14.38,14.38,0,0,0-1.94-7,4.57,4.57,0,0,0,0-.83,3.73,3.73,0,0,0-4.56-3.16c-3,.81-5,6.15-5.12,9,0,.17.1,2,.19,3.12-.16-.66-.3-1.31-.46-2-.32-1.35-.68-2.68-1.06-4.12l-.63-2.08c-.2-.7-.49-1.42-.74-2.13-.6-1.65-1.29-3.29-2-4.92,1.18-.29,5.35-1.35,7-2.63s3.44-3.38,3.42-5.6a3.73,3.73,0,0,0-4-3.82c-3.13.34-5.85,5.33-6.42,8.09,0,.17-.22,2.19-.3,3.31-.44-1-.89-2-1.37-2.94-1.4-2.82-2.91-5.63-4.4-8.44L419.77,357c.43-.09,5.41-1.25,7.29-2.69,1.66-1.28,3.43-3.37,3.42-5.6a3.73,3.73,0,0,0-4-3.81c-3.13.34-5.85,5.33-6.42,8.08,0,.21-.31,3.12-.34,3.86-1-1.89-1.95-3.8-2.83-5.71a66.47,66.47,0,0,1-3.07-7.94c.19,0,5.4-1.23,7.32-2.71,1.67-1.28,3.44-3.37,3.42-5.59a3.72,3.72,0,0,0-4-3.82c-3.14.34-5.85,5.33-6.42,8.09,0,.21-.33,3.35-.34,3.92-.05-.16-.12-.32-.16-.48a48.2,48.2,0,0,1-1.6-8.38c-.17-1.57-.25-3.07-.3-4.54,1-.12,5.53-.72,7.4-1.86s3.79-3,4-5.19a3.73,3.73,0,0,0-3.59-4.23c-3.15,0-6.4,4.65-7.27,7.33,0,.14-.36,1.68-.58,2.8,0-.67,0-1.35,0-2,0-2.39.16-4.57.31-6.5.09-1.1.2-2.09.31-3,.91-.63,4.55-3.2,5.68-5s2-4.39,1.17-6.46a3.73,3.73,0,0,0-5.14-2.1c-2.8,1.44-3.53,7.08-3.07,9.85,0,.24,1.1,3.92,1.15,3.89l.05,0c-.12.89-.24,1.85-.35,2.89-.2,1.93-.4,4.12-.45,6.51a68.27,68.27,0,0,0,.18,7.73,49.39,49.39,0,0,0,1.43,8.52l0,.1c-.5-.78-2-2.91-2.09-3.06-1.84-2.13-6.65-5.16-9.55-3.93a3.73,3.73,0,0,0-1.65,5.3c1.07,1.95,3.64,2.91,5.71,3.22,2.35.34,7.29-1.09,7.68-1.21a66,66,0,0,0,3,8.29c.68,1.57,1.41,3.13,2.17,4.69-.45-.66-.86-1.25-.92-1.32-1.85-2.13-6.65-5.16-9.55-3.93a3.73,3.73,0,0,0-1.66,5.3c1.07,1.95,3.64,2.91,5.72,3.21s6.34-.82,7.46-1.14c.29.6.58,1.19.88,1.78,1.43,2.85,2.87,5.69,4.19,8.51.47,1,.9,2,1.33,3-.41-.59-.75-1.08-.81-1.15-1.84-2.13-6.65-5.16-9.55-3.93a3.73,3.73,0,0,0-1.65,5.3c1.07,2,3.64,2.92,5.72,3.22s5.93-.72,7.25-1.09c.41,1,.82,2.07,1.17,3.09.22.7.49,1.36.67,2.07s.39,1.41.58,2.1c.33,1.35.67,2.73.95,4.06.2.91.38,1.79.56,2.68-.45-1-1.38-2.93-1.48-3.08-1.5-2.39-5.79-6.11-8.84-5.33a3.73,3.73,0,0,0-2.44,5c.76,2.09,3.15,3.43,5.16,4,2.22.68,7.12.06,7.73,0,.29,1.46.56,2.89.8,4.24.82,4.68,1.33,8.61,1.65,11.36.05.49.1.92.15,1.33h-9.49L427.26,473h16.16l3.46-67.57H438l.2-.4c1.21-2.53,2.89-6.16,4.71-10.6.58-1.4,1.17-2.91,1.75-4.47.6.13,5.45,1.11,7.71.6,2-.46,4.53-1.62,5.45-3.65a3.73,3.73,0,0,0-2.06-5.15c-3-1-7.55,2.39-9.22,4.65-.1.14-1,1.7-1.56,2.7.24-.63.48-1.25.71-1.91.48-1.3.92-2.61,1.39-4,.21-.68.42-1.38.63-2.08s.37-1.45.56-2.18c.4-1.71.73-3.46,1-5.23,1.14.42,5.21,1.83,7.32,1.68s4.72-.91,5.94-2.78a3.73,3.73,0,0,0-1.26-5.4c-2.8-1.45-7.82,1.21-9.81,3.2-.13.12-1.4,1.71-2.08,2.59.17-1.06.34-2.12.47-3.21.39-3.12.69-6.29,1-9.46.09-1,.19-1.94.3-2.9.4.15,5.2,1.94,7.55,1.77,2.1-.15,4.73-.92,5.94-2.78a3.73,3.73,0,0,0-1.25-5.41c-2.8-1.44-7.82,1.22-9.81,3.21-.15.14-2,2.43-2.42,3,.23-2.13.47-4.25.8-6.33a66.27,66.27,0,0,1,1.81-8.32c.19.07,5.19,2,7.61,1.79,2.09-.15,4.72-.92,5.94-2.78a3.74,3.74,0,0,0-1.26-5.41c-2.8-1.44-7.82,1.22-9.81,3.21-.16.15-2.12,2.61-2.45,3.08.05-.16.08-.33.13-.48a47.52,47.52,0,0,1,3.3-7.88c.71-1.4,1.48-2.7,2.25-3.95.89.45,5,2.44,7.19,2.53s4.8-.39,6.21-2.11a3.72,3.72,0,0,0-.65-5.51c-2.62-1.74-7.9.35-10.11,2.1-.11.1-1.22,1.2-2,2,.36-.56.71-1.14,1.07-1.67,1.31-2,2.64-3.72,3.83-5.25.69-.86,1.32-1.63,1.92-2.34,1.11,0,5.57-.16,7.52-1.07s4.08-2.56,4.54-4.74A3.73,3.73,0,0,0,475.92,309.53ZM441.23,393.7c-1.89,4.36-3.64,7.92-4.89,10.39-.25.5-.48.94-.69,1.34h-.21c-.06-.48-.13-1-.21-1.6-.38-2.77-1-6.73-1.92-11.43-.29-1.49-.63-3.07-1-4.7a39.4,39.4,0,0,0,4.31-2c1.61,1.74,5.75,3.79,6.28,4.05C442.34,391.11,441.78,392.45,441.23,393.7Z" style="fill:#263238"></path><path d="M459.41,329.57s1-3.67,1-3.91c.39-2.79-.5-8.4-3.34-9.77a3.72,3.72,0,0,0-5.07,2.24c-.76,2.09.2,4.66,1.34,6.42C454.72,326.62,459.41,329.57,459.41,329.57Z" style="fill:#263238"></path></g><g id="freepik--character-2--inject-66"><path d="M278.1,168.18,275,162.69s-2.57-6.51-3.94-8.22-4.11-2.57-6.68-2.74a11.82,11.82,0,0,1-5.15-1.72c-1-.51-2.91-.86-2.91.69s.34,4.45,2.4,5a40.07,40.07,0,0,1,5.14,1.88s-7.2,1.54-8.91,1.89-8.74,1.2-9.6,1.88,0,2.57,0,2.57-1.88,1.2.17,2.75,10.29,4.28,10.29,4.28-.35.17,3.6,2.4,13.19,4.28,13.19,4.28Z" style="fill:#ccc;stroke:#263238;stroke-linecap:round;stroke-miterlimit:10"></path><path d="M260.44,175s-5-3.94-5.65-5.82-2.23-8.74-.34-9.09,3.77,5.32,3.42,6,1.72,3.43,1.89,3.94a7.9,7.9,0,0,0,1.54,1.72" style="fill:#ccc;stroke:#263238;stroke-linecap:round;stroke-miterlimit:10"></path><path d="M271.07,169.89s-2.57-.34-3.43-.34a42.56,42.56,0,0,0-5,1.2s-.86-8.74-2.91-8.91-2.57,2.22-1.89,4.28.86,8.91,2.23,9.6,11,1.71,11,1.71" style="fill:#ccc;stroke:#263238;stroke-linecap:round;stroke-miterlimit:10"></path><line x1="245.36" y1="163.89" x2="253.07" y2="164.06" style="fill:none;stroke:#263238;stroke-linecap:round;stroke-miterlimit:10"></line><polygon points="281.73 169.52 277.31 166.21 270.13 180.02 277.59 184.16 281.73 169.52" style="fill:#fff;stroke:#263238;stroke-linecap:round;stroke-miterlimit:10"></polygon><path d="M357.14,129.75l-32.87,10.49L304.1,187.48l-23.48-18.79-7.45,19.62s41.43,30.38,43.09,30.38,10.22-10.22,10.22-10.22l.55,7.18-5,16.85h67.12l3.59-29.28,2.76-9.39,3.87,20.44s6.9,4.14,13.26,3,10.49-12.71,10.49-12.71l-13.26-55.24s-2.48-3-3.59-3.59-29.75-16-29.75-16Z" style="fill:#696969;stroke:#263238;stroke-linecap:round;stroke-miterlimit:10"></path><path d="M345.85,133.91l-9.43,17.66,7.73,5.52s-6.07,2.21-7.18,2.77.83,16,3.59,23.2a131,131,0,0,0,8,16L345,203.22l1.94,28.18" style="fill:none;stroke:#263238;stroke-linecap:round;stroke-miterlimit:10"></path><path d="M348.85,200.74s17.13-9.67,22.65-18.23,8.84-19.89,8.84-19.89l-5.53-3.32,8.29-3s-1.66-13.53-1.66-19.88c0-1.46,0-2.65-.07-3.6" style="fill:none;stroke:#263238;stroke-linecap:round;stroke-miterlimit:10"></path><path d="M353.82,127.54S349.4,141.35,349.4,148s1.94,45.85,1.94,45.85,16.57-33.42,19.33-39a54,54,0,0,0,5-15.19,143.09,143.09,0,0,0,1.11-14.64,81.46,81.46,0,0,1-12.43,2.76A45.71,45.71,0,0,1,353.82,127.54Z" style="fill:#fff;stroke:#263238;stroke-linecap:round;stroke-miterlimit:10"></path><path d="M362.38,136.65l-7.73,7.46,1.93,9.67-6.22,19.51c.49,10.68,1,20.54,1,20.54L363.16,170l-3.26-16.5,7.46-8.28Z" style="fill:#2BD4BD;stroke:#263238;stroke-linecap:round;stroke-miterlimit:10"></path><path d="M353.82,127.54S349.4,141.35,349.4,148c0,.24,0,.55,0,.88l10.76-6.41,1.66.56,9.52,10.44a53.63,53.63,0,0,0,4.29-13.76,143.09,143.09,0,0,0,1.11-14.64,81.46,81.46,0,0,1-12.43,2.76A45.71,45.71,0,0,1,353.82,127.54Z" style="fill:#fff;stroke:#263238;stroke-linecap:round;stroke-miterlimit:10"></path><path d="M376.55,129.76c.14-2.66.2-4.71.2-4.71a81.46,81.46,0,0,1-12.43,2.76,45.71,45.71,0,0,1-10.5-.27s4.42,14.36,6.35,14.91C362,143,371.21,138.08,376.55,129.76Z" style="fill:#ccc;stroke:#263238;stroke-linecap:round;stroke-miterlimit:10"></path><path d="M353.39,78.14S350.72,77.41,349,82s-.49,20.63-.49,20.63-1.21-4.12-3.15-.24.73,9.47,1.45,10.2a19.84,19.84,0,0,0,1.7,1.45h1s0,9.23,1.46,11.17,5.34,8.49,7.28,8.74,7,.24,7.77.24,10.19-6.31,11.89-8.74,3.16-8.25,3.16-8.25,6.55-3.4,7-8-2.67-6.8-3.4-6.8a5.37,5.37,0,0,0-1.46.24s3.4-12.37,1.94-18.93-18-9.71-23.54-9.22A12.54,12.54,0,0,0,353.39,78.14Z" style="fill:#ccc;stroke:#263238;stroke-linecap:round;stroke-miterlimit:10"></path><path d="M347.09,100.76l1.44,1.89S348,100.87,347.09,100.76Z" style="fill:none;stroke:#263238;stroke-linecap:round;stroke-miterlimit:10"></path><path d="M384.15,102.45a5.85,5.85,0,0,0-.91.2s3.4-12.37,1.94-18.93-13.49-12.18-22-10.28a26.65,26.65,0,0,0-9.78,4.7S350.72,77.41,349,82s-.49,20.63-.49,20.63l.25-7.76s1-5.59,2.18-8,5.34-5.1,5.34-5.1a40.85,40.85,0,0,0,7.77,2.91c3.39.73,10.68-1.7,10.68-1.7s2.42,1.46,2.67,3.64-1.22,5.59-1,8,4.12,5.83,4.12,5.83-1.7,5.1.73,5.1C382.19,105.57,383.21,104.19,384.15,102.45Z" style="fill:#263238;stroke:#263238;stroke-linecap:round;stroke-miterlimit:10"></path><path d="M359,107s-3.88,8.5-2.43,9.47,5.58,1.21,7.28,1a4.44,4.44,0,0,0,2.43-1l3.4,5.58" style="fill:none;stroke:#263238;stroke-linecap:round;stroke-miterlimit:10"></path><path d="M355.33,115.76a8.78,8.78,0,0,0-1.22,4.13" style="fill:none;stroke:#263238;stroke-linecap:round;stroke-miterlimit:10"></path><path d="M356.54,123.29s9-.25,9.71.72" style="fill:none;stroke:#263238;stroke-linecap:round;stroke-miterlimit:10"></path><ellipse cx="369.03" cy="105.63" rx="1.1" ry="1.77" style="fill:#263238"></ellipse><path d="M356.29,103.77c0,1-.49,1.77-1.09,1.77s-1.1-.79-1.1-1.77.49-1.77,1.1-1.77S356.29,102.79,356.29,103.77Z" style="fill:#263238"></path><path d="M363.72,101.16a45.25,45.25,0,0,1,9.44-.68" style="fill:none;stroke:#263238;stroke-linecap:round;stroke-miterlimit:10"></path><path d="M358,101a12.14,12.14,0,0,0-6.24-1.69" style="fill:none;stroke:#263238;stroke-linecap:round;stroke-miterlimit:10"></path><polygon points="382.27 173.11 392.77 173.67 390.01 170.63 382.27 173.11" style="fill:#fff;stroke:#263238;stroke-linecap:round;stroke-miterlimit:10"></polygon><line x1="395.53" y1="193.83" x2="399.4" y2="162.62" style="fill:none;stroke:#263238;stroke-linecap:round;stroke-miterlimit:10"></line><path d="M393.32,221.45,390,225.32l11,6.35,4.7-5.25S396.63,220.9,393.32,221.45Z" style="fill:#fff;stroke:#263238;stroke-linecap:round;stroke-miterlimit:10"></path><path d="M416.25,207.92s-9.95-.56-11.6,0-11.33,13.53-11.33,13.53,2.49-.55,7.46,2.76,7.73,5.25,7.73,5.25,14.09-8.56,16.3-11.32,1.93-8.29,0-12.16-2.49-4.69-2.49-4.69" style="fill:#696969;stroke:#263238;stroke-linecap:round;stroke-miterlimit:10"></path><path d="M400.47,230.11s-9.26-6.05-11.13-6.85-3.21-.89-4.37-.36-6.85,9-6.85,9h24Z" style="fill:#ccc;stroke:#263238;stroke-linecap:round;stroke-miterlimit:10"></path><path d="M382.48,232s5-6.59,6.15-7.48,1.87-.71,1.87-.71" style="fill:none;stroke:#263238;stroke-linecap:round;stroke-miterlimit:10"></path><path d="M388.8,231.63s3-5.79,4.81-5.88" style="fill:none;stroke:#263238;stroke-linecap:round;stroke-miterlimit:10"></path><line x1="393.61" y1="231.81" x2="396.64" y2="227.62" style="fill:none;stroke:#263238;stroke-linecap:round;stroke-miterlimit:10"></line><path d="M326.48,208.47s-5.25-39.78.27-55.8" style="fill:none;stroke:#263238;stroke-linecap:round;stroke-miterlimit:10"></path><polygon points="403.88 473.67 306.28 473.67 294.08 229 416.08 229 403.88 473.67" style="fill:#fff;stroke:#263238;stroke-linecap:round;stroke-miterlimit:10"></polygon><polygon points="412.14 308 415.53 240 294.63 240 298.02 308 412.14 308" style="fill:#263238"></polygon><path d="M363.47,219a2,2,0,0,0-1-1.71c-.22-10-.93-19.85-1.48-26.21a3,3,0,0,0,1.75-3c-.3-3.22-.51-5.15-.51-5.15a3,3,0,1,0-6,.65s.21,1.9.49,5a3,3,0,0,0,2.24,2.62c.54,6.34,1.25,16.16,1.47,26.08a2,2,0,0,0-1,1.74c.1,6.38,0,12-.39,16.62a2,2,0,0,0,1.85,2.15h.15a2,2,0,0,0,2-1.85C363.45,231.25,363.58,225.53,363.47,219Z" style="fill:#263238"></path><rect x="282.08" y="229" width="146" height="69.33" style="fill:#fff;stroke:#263238;stroke-linecap:round;stroke-miterlimit:10"></rect><rect x="281.59" y="229" width="146" height="18.21" style="fill:#263238"></rect><rect x="278.75" y="229" width="152.67" height="11.33" style="fill:#fff;stroke:#263238;stroke-linecap:round;stroke-miterlimit:10"></rect></g><g id="freepik--character-1--inject-66"><path d="M119.8,133.78a78.91,78.91,0,0,1-11,7.5c-6.25,3.5-20.5,10-21,12.75S81,217.48,81.29,218.48s12,1.75,13,1.75,6.26-27.7,6.26-27.7,5,11.25,5.25,12-5,26.95-5,26.95h61.75l.51-29.95,1.25-3.25,1.24,19.7,16-2s-5-43.7-5-46.95.5-18.25-.5-19.75S144.3,137,144.3,137l-6.76-5.72-18.24.22Z" style="fill:#2BD4BD;stroke:#263238;stroke-linecap:round;stroke-miterlimit:10"></path><path d="M144.3,137l-6.76-5.72-18.24.22.5,2.25a78.91,78.91,0,0,1-11,7.5c-1.59.89-3.69,2-6,3.14,1.81,2.38,9.3,10.67,27.45,13.61,13.18-1.21,22.91-12.47,26.11-16.67C149.91,139,144.3,137,144.3,137Z" style="fill:#b2b2b2;stroke:#263238;stroke-linecap:round;stroke-miterlimit:10"></path><line x1="113.05" y1="145.5" x2="129.55" y2="148.5" style="fill:#fff;stroke:#263238;stroke-linecap:round;stroke-miterlimit:10"></line><line x1="137.05" y1="147" x2="148.55" y2="144.5" style="fill:#fff;stroke:#263238;stroke-linecap:round;stroke-miterlimit:10"></line><line x1="151.03" y1="201.94" x2="155.55" y2="201" style="fill:#fff;stroke:#263238;stroke-linecap:round;stroke-miterlimit:10"></line><line x1="117.05" y1="209" x2="145.94" y2="203" style="fill:#fff;stroke:#263238;stroke-linecap:round;stroke-miterlimit:10"></line><path d="M164.3,198.28a23.82,23.82,0,0,0,1.75-9.25c0-5.5-.75-17.25-.75-17.25l1.75-6.75" style="fill:none;stroke:#263238;stroke-linecap:round;stroke-miterlimit:10"></path><path d="M94.8,174.28,99.55,178s-.5,11.5,1,14.5" style="fill:none;stroke:#263238;stroke-linecap:round;stroke-miterlimit:10"></path><path d="M180.29,214.48s-6.5-1-11,.75-13.5,14-13.5,14h11.75s13.5-4,14.75-8S180.29,214.48,180.29,214.48Z" style="fill:#b2b2b2;stroke:#263238;stroke-linecap:round;stroke-miterlimit:10"></path><path d="M83.57,214.48s6.5-1,11,.75,13.5,14,13.5,14H96.32s-13.5-4-14.75-8S83.57,214.48,83.57,214.48Z" style="fill:#b2b2b2;stroke:#263238;stroke-linecap:round;stroke-miterlimit:10"></path><path d="M155.32,103.65a57.64,57.64,0,0,1-.32,6.14c-.32,2.26,1.77,6.94,2.9,8.88s-2.58,3.55-2.58,3.55l-.64.64s-.42,1.51-.91,3.21c-.13.44-4.38.07-4.38.07a34.14,34.14,0,0,1,3.65,2.49c-.55,2-.88,3.09-.95,3.6-.16,1.13-3.71,1.93-5.16,1.77s-11.19-1.06-11.19-1.06l.72,3.06-5-3.77s-4.68-23.57-3.55-25.51,9-7.91,9.85-8.07S146.6,97,147.41,97s3.23.33,3.23.33S155.32,100.26,155.32,103.65Z" style="fill:#b2b2b2;stroke:#263238;stroke-linecap:round;stroke-miterlimit:10"></path><path d="M151.77,109.14a3.64,3.64,0,0,0-3.66-1.3,5.3,5.3,0,0,0-1.8.73" style="fill:none;stroke:#263238;stroke-linecap:round;stroke-miterlimit:10"></path><path d="M151.19,112.26c0,1-.46,1.73-1,1.73s-1-.77-1-1.73.46-1.74,1-1.74S151.19,111.3,151.19,112.26Z" style="fill:#263238"></path><path d="M154.24,126a12.36,12.36,0,0,1-4.87.11,34.62,34.62,0,0,1,4,2.72" style="fill:none;stroke:#263238;stroke-linecap:round;stroke-linejoin:round"></path><path d="M155.32,122.22s-4.78.82-4.55-1" style="fill:none;stroke:#263238;stroke-linecap:round;stroke-miterlimit:10"></path><line x1="147.95" y1="111.31" x2="151.26" y2="110.84" style="fill:none;stroke:#263238;stroke-linecap:round;stroke-miterlimit:10"></line><path d="M134.62,106.13s.8,23.22,1.33,25.62,3.47,6.94,3.47,6.94-11.47-1.33-19.21-1.6a68.11,68.11,0,0,1-15.48-2.67s.81-17,1.06-27.75c.44-18.76,10.72-22.89,15.79-25.3s14.91-1.93,21.58-.59,14.15,14.94,15.21,18.41a19.78,19.78,0,0,1,1.07,5.07Z" style="fill:#515b60;stroke:#263238;stroke-linecap:round;stroke-miterlimit:10"></path><line x1="109.48" y1="120.53" x2="109.67" y2="117.61" style="fill:none;stroke:#263238;stroke-linecap:round;stroke-miterlimit:10"></line><line x1="108.55" y1="135.54" x2="109.23" y2="124.64" style="fill:none;stroke:#263238;stroke-linecap:round;stroke-miterlimit:10"></line><line x1="118.63" y1="136.28" x2="119" y2="129.94" style="fill:none;stroke:#263238;stroke-linecap:round;stroke-miterlimit:10"></line><line x1="133.19" y1="137.78" x2="129.83" y2="131.06" style="fill:none;stroke:#263238;stroke-linecap:round;stroke-miterlimit:10"></line><path d="M122.6,83.88s-7.1,2.29-8.93,9.39" style="fill:none;stroke:#263238;stroke-linecap:round;stroke-miterlimit:10"></path><path d="M124.43,111.36v4.35" style="fill:none;stroke:#263238;stroke-linecap:round;stroke-miterlimit:10"></path><path d="M126.72,90.75s-2.29,2.52-2.29,10.08v6.64" style="fill:none;stroke:#263238;stroke-linecap:round;stroke-miterlimit:10"></path><line x1="134.62" y1="106.13" x2="136.11" y2="96.71" style="fill:none;stroke:#263238;stroke-linecap:round;stroke-miterlimit:10"></line><line x1="144.18" y1="105.27" x2="143.05" y2="100.1" style="fill:none;stroke:#263238;stroke-linecap:round;stroke-miterlimit:10"></line><line x1="154.68" y1="104.46" x2="153.38" y2="101.39" style="fill:none;stroke:#263238;stroke-linecap:round;stroke-miterlimit:10"></line><polygon points="182.53 473.67 84.93 473.67 72.73 229 194.73 229 182.53 473.67" style="fill:#fff;stroke:#263238;stroke-linecap:round;stroke-miterlimit:10"></polygon><polygon points="190.79 308 194.18 240 73.28 240 76.67 308 190.79 308" style="fill:#263238"></polygon><path d="M139.94,219a2,2,0,0,0-1-1.71c-.22-10-.94-19.85-1.48-26.21a3,3,0,0,0,1.74-3c-.29-3.22-.5-5.15-.5-5.15a3,3,0,0,0-6,.65s.21,1.9.5,5a3,3,0,0,0,2.24,2.62c.54,6.34,1.25,16.16,1.47,26.08a2,2,0,0,0-1,1.74c.11,6.38,0,12-.38,16.62a2,2,0,0,0,1.84,2.15h.16a2,2,0,0,0,2-1.85C139.92,231.25,140.05,225.53,139.94,219Z" style="fill:#263238"></path><rect x="60.73" y="229" width="146" height="69.33" style="fill:#fff;stroke:#263238;stroke-linecap:round;stroke-miterlimit:10"></rect><rect x="60.73" y="229" width="146" height="18.21" style="fill:#263238"></rect><rect x="57.39" y="229" width="152.67" height="11.33" style="fill:#fff;stroke:#263238;stroke-linecap:round;stroke-miterlimit:10"></rect></g><g id="freepik--speech-bubble--inject-66"><path d="M192.52,126.91,198,113.57a13.7,13.7,0,0,1-3-8.56V78.81a13.73,13.73,0,0,1,13.72-13.73h53.74a13.73,13.73,0,0,1,13.73,13.73V105a13.73,13.73,0,0,1-13.73,13.73H208.75a13.44,13.44,0,0,1-1.69-.12Z" style="fill:#fff;stroke:#263238;stroke-linecap:round;stroke-linejoin:round"></path><circle cx="252.05" cy="91.91" r="3.55" style="fill:#2BD4BD;stroke:#263238;stroke-linecap:round;stroke-linejoin:round"></circle><path d="M232.07,91.91a3.55,3.55,0,1,1,3.55,3.55A3.55,3.55,0,0,1,232.07,91.91Z" style="fill:#2BD4BD;stroke:#263238;stroke-linecap:round;stroke-linejoin:round"></path><circle cx="219.19" cy="91.91" r="3.55" style="fill:#2BD4BD;stroke:#263238;stroke-linecap:round;stroke-linejoin:round"></circle></g><g id="freepik--Floor--inject-66"><line x1="20" y1="473.67" x2="483" y2="473.67" style="fill:#fff;stroke:#263238;stroke-linecap:round;stroke-miterlimit:10"></line></g></svg>
