<svg xmlns="http://www.w3.org/2000/svg" viewBox="0 0 500 500"><g id="freepik--background-complete--inject-16"><path d="M231.71,169.75l-78.62-1.05-23.83-.2H121.1l-.58,0a2.39,2.39,0,0,0,.58,0l1.68.05,6.48.11,23.83.21,78.62.35c30.69.11,58.48.25,78.59.48,10.06.11,18.2.23,23.83.36,2.81.07,5,.13,6.47.19a13.4,13.4,0,0,1,2.26.18,10.75,10.75,0,0,1-2.26.14c-1.48,0-3.67.07-6.48.08-5.63,0-13.77,0-23.83-.06C290.18,170.53,262.39,170.18,231.71,169.75Z" style="fill:#ebebeb"></path><path d="M231.07,176.68l-77.5-13.26-23.51-3.91-6.39-1-1.67-.24-.57-.06a4,4,0,0,0,.56.13l1.65.31,6.39,1.11,23.5,3.92,77.62,12.55c30.29,4.87,57.72,9.33,77.56,12.68,9.92,1.67,17.94,3.06,23.48,4.06,2.76.5,4.91.91,6.36,1.2a13.14,13.14,0,0,1,2.21.53,11.53,11.53,0,0,1-2.26-.21c-1.47-.19-3.63-.5-6.41-.93-5.56-.84-13.6-2.12-23.53-3.75C288.71,186.54,261.31,181.88,231.07,176.68Z" style="fill:#ebebeb"></path><path d="M229.35,183.42l-74.44-25.31-22.6-7.55-6.16-2-1.6-.5a4.16,4.16,0,0,0-.56-.15l.53.22,1.59.56,6.13,2.11,22.59,7.57L229.5,183c29.15,9.59,55.54,18.31,74.6,24.74,9.53,3.21,17.24,5.85,22.55,7.71,2.65.93,4.71,1.67,6.1,2.19a13.06,13.06,0,0,1,2.09.87,11.94,11.94,0,0,1-2.2-.56c-1.42-.42-3.51-1.07-6.19-1.93-5.36-1.7-13.09-4.24-22.64-7.41C284.72,202.24,258.4,193.32,229.35,183.42Z" style="fill:#ebebeb"></path><path d="M226.6,189.8l-69.54-36.7-21.12-11-5.77-3-1.51-.75a3.9,3.9,0,0,0-.52-.24,2.05,2.05,0,0,0,.49.3l1.48.81,5.72,3,21.12,11,69.86,36.07c27.28,14.05,52,26.82,69.78,36.17,8.91,4.67,16.1,8.48,21.05,11.16,2.48,1.33,4.39,2.39,5.68,3.12a12,12,0,0,1,1.93,1.18,11.57,11.57,0,0,1-2.08-.9c-1.33-.64-3.29-1.61-5.8-2.88-5-2.53-12.27-6.25-21.2-10.88C278.32,217.09,253.73,204.14,226.6,189.8Z" style="fill:#ebebeb"></path><path d="M222.88,195.67l-62.94-47.12-19.15-14.18-5.23-3.82-1.38-1a2.71,2.71,0,0,0-.48-.31,4.9,4.9,0,0,0,.44.37l1.34,1,5.17,3.9,19.14,14.19,63.37,46.54c24.75,18.15,47.13,34.62,63.26,46.63,8.07,6,14.58,10.9,19.05,14.32,2.24,1.71,4,3.05,5.12,4a12.49,12.49,0,0,1,1.72,1.47,11.28,11.28,0,0,1-1.91-1.21c-1.22-.84-3-2.11-5.29-3.75-4.56-3.29-11.13-8.09-19.23-14.07C269.7,230.71,247.43,214.07,222.88,195.67Z" style="fill:#ebebeb"></path><path d="M218.29,200.88l-54.85-56.33c-7-7.16-12.75-13-16.7-17L142.16,123,141,121.8l-.43-.39a3.08,3.08,0,0,0,.38.44l1.15,1.22,4.51,4.66,16.69,17,55.36,55.83c21.63,21.77,41.18,41.52,55.25,55.9,7,7.19,12.7,13,16.58,17.11,1.95,2,3.45,3.62,4.45,4.71a11.67,11.67,0,0,1,1.47,1.73,11.56,11.56,0,0,1-1.7-1.5c-1.08-1-2.64-2.55-4.64-4.53-4-4-9.75-9.72-16.81-16.88C259.09,242.78,239.68,222.89,218.29,200.88Z" style="fill:#ebebeb"></path><path d="M213,205.32l-45.42-64.17-13.86-19.38-3.81-5.25-1-1.35a3.11,3.11,0,0,0-.36-.44,4.92,4.92,0,0,0,.31.48l.95,1.39,3.73,5.3c3.28,4.6,8,11.22,13.84,19.39,11.79,16.33,28,38.87,46,63.76s34.21,47.43,45.87,63.82c5.83,8.2,10.52,14.85,13.73,19.48,1.6,2.31,2.83,4.11,3.65,5.35a12.82,12.82,0,0,1,1.19,1.93,11.22,11.22,0,0,1-1.45-1.75c-.9-1.17-2.21-2.92-3.88-5.19-3.33-4.53-8.11-11.12-14-19.29C246.73,253.06,230.66,230.39,213,205.32Z" style="fill:#ebebeb"></path><path d="M207,208.88l-34.83-70.49c-4.49-9-8.13-16.26-10.66-21.31l-2.94-5.78c-.34-.64-.6-1.13-.78-1.49a4.63,4.63,0,0,0-.29-.5,3.49,3.49,0,0,0,.23.53l.72,1.53,2.85,5.81c2.52,5.06,6.16,12.33,10.64,21.32,9.09,18,21.62,42.77,35.47,70.17s26.39,52.19,35.34,70.2c4.48,9,8.07,16.32,10.51,21.38,1.22,2.54,2.16,4.51,2.78,5.86a12.42,12.42,0,0,1,.86,2.09,10.85,10.85,0,0,1-1.15-1.94c-.71-1.31-1.73-3.24-3-5.74-2.59-5-6.28-12.25-10.8-21.24C232.88,261.3,220.55,236.4,207,208.88Z" style="fill:#ebebeb"></path><path d="M200.53,211.45l-23.31-75.09-7.17-22.73c-.86-2.66-1.53-4.73-2-6.16-.23-.69-.41-1.21-.54-1.59a3.85,3.85,0,0,0-.2-.54,3.11,3.11,0,0,0,.14.56l.47,1.61,1.9,6.2c1.7,5.38,4.14,13.14,7.16,22.72,6.14,19.18,14.62,45.64,24,74.88S218.81,267,224.82,286.2c3,9.6,5.4,17.38,7,22.77.8,2.69,1.42,4.79,1.81,6.22a11.93,11.93,0,0,1,.53,2.2,11.27,11.27,0,0,1-.84-2.11c-.49-1.39-1.19-3.46-2.08-6.13-1.77-5.34-4.27-13.09-7.31-22.68C217.85,267.3,209.6,240.77,200.53,211.45Z" style="fill:#ebebeb"></path><path d="M193.75,213c-4.38-30.39-8.33-57.89-11.2-77.82-1.48-9.94-2.68-18-3.51-23.57-.44-2.76-.77-4.91-1-6.4-.12-.71-.22-1.26-.28-1.66a4.41,4.41,0,0,0-.12-.56,2.24,2.24,0,0,0,.05.57l.21,1.67c.21,1.49.51,3.65.9,6.42.83,5.58,2,13.63,3.49,23.57,3.06,19.9,7.26,47.37,11.91,77.72s8.86,57.8,11.77,77.7c1.46,10,2.6,18,3.35,23.59.37,2.79.65,5,.82,6.43a13.11,13.11,0,0,1,.17,2.26,10.6,10.6,0,0,1-.49-2.21c-.27-1.46-.64-3.61-1.09-6.39-.91-5.55-2.16-13.6-3.66-23.54C202.07,270.85,198.09,243.35,193.75,213Z" style="fill:#ebebeb"></path><path d="M186.81,213.42c.39-30.7.74-58.48,1-78.62.08-10.05.14-18.18.19-23.83V104.5c0-.73,0-1.29,0-1.69a4.09,4.09,0,0,0,0-.57,3.09,3.09,0,0,0,0,.57c0,.4,0,1,0,1.68,0,1.51-.06,3.68-.1,6.48-.05,5.65-.12,13.78-.2,23.83-.08,20.14-.18,47.92-.3,78.62s-.22,58.48-.43,78.6c-.1,10.05-.22,18.19-.35,23.82-.06,2.81-.13,5-.19,6.48a11,11,0,0,1-.18,2.25,12.71,12.71,0,0,1-.14-2.26c0-1.48-.06-3.66-.08-6.48,0-5.62,0-13.76,0-23.82C186.06,271.89,186.39,244.1,186.81,213.42Z" style="fill:#ebebeb"></path><path d="M179.88,212.79c5.16-30.27,9.83-57.66,13.21-77.51L197,111.77c.44-2.76.78-4.91,1-6.4.11-.72.19-1.27.24-1.67a4,4,0,0,0,.06-.57,5.41,5.41,0,0,0-.13.56c-.07.4-.17,1-.3,1.66-.26,1.48-.63,3.63-1.11,6.38-.93,5.57-2.26,13.6-3.91,23.51l-12.5,77.62c-4.86,30.3-9.3,57.73-12.63,77.57-1.67,9.92-3.05,17.95-4.05,23.48-.5,2.77-.9,4.92-1.2,6.37a12.36,12.36,0,0,1-.52,2.2,10.56,10.56,0,0,1,.21-2.25c.19-1.47.5-3.63.92-6.41.84-5.57,2.12-13.61,3.74-23.54C170.06,270.43,174.7,243,179.88,212.79Z" style="fill:#ebebeb"></path><path d="M173.14,211.08C183,182,191.93,155.69,198.4,136.62L205.94,114c.86-2.66,1.54-4.73,2-6.16.22-.69.38-1.22.5-1.6a4.16,4.16,0,0,0,.15-.56,4.77,4.77,0,0,0-.21.53q-.21.57-.57,1.59c-.49,1.42-1.19,3.48-2.1,6.13-1.79,5.35-4.37,13.07-7.56,22.59-6.29,19.13-15,45.53-24.57,74.69s-18.27,55.55-24.68,74.62c-3.21,9.53-5.84,17.24-7.7,22.55-.93,2.65-1.67,4.71-2.19,6.1a10.33,10.33,0,0,1-.87,2.09,12.16,12.16,0,0,1,.56-2.2c.43-1.42,1.07-3.5,1.93-6.18,1.7-5.37,4.23-13.11,7.39-22.65C154.36,266.45,163.26,240.13,173.14,211.08Z" style="fill:#ebebeb"></path><path d="M166.76,208.33c14.31-27.17,27.26-51.75,36.65-69.56l11-21.14,3-5.77q.48-1,.75-1.5a4.1,4.1,0,0,0,.23-.53,3.44,3.44,0,0,0-.3.49c-.19.35-.46.84-.8,1.48l-3,5.72c-2.61,5-6.38,12.22-11,21.13l-36,69.89c-14,27.29-26.79,52-36.13,69.8-4.66,8.91-8.47,16.1-11.14,21.06-1.34,2.47-2.39,4.39-3.12,5.68a12.06,12.06,0,0,1-1.19,1.93,12.26,12.26,0,0,1,.91-2.08c.64-1.34,1.6-3.3,2.87-5.81,2.53-5,6.24-12.27,10.87-21.2C139.5,260.06,152.43,235.46,166.76,208.33Z" style="fill:#ebebeb"></path><path d="M160.89,204.61l47.07-63,14.18-19.16,3.81-5.23,1-1.38a3.77,3.77,0,0,0,.31-.48,3.51,3.51,0,0,0-.37.44c-.24.32-.59.76-1,1.33-.9,1.21-2.21,3-3.89,5.18l-14.19,19.15-46.5,63.4c-18.13,24.76-34.58,47.15-46.59,63.29-6,8.07-10.89,14.58-14.3,19.06-1.71,2.23-3.05,4-4,5.12a12.49,12.49,0,0,1-1.47,1.72,11.28,11.28,0,0,1,1.21-1.91c.84-1.22,2.11-3,3.75-5.29,3.28-4.57,8.08-11.14,14-19.24C125.88,251.45,142.5,229.18,160.89,204.61Z" style="fill:#ebebeb"></path><path d="M155.67,200,212,145.14l17-16.72,4.59-4.58,1.17-1.2a3.24,3.24,0,0,0,.39-.43,2.78,2.78,0,0,0-.43.38c-.3.27-.7.66-1.23,1.16l-4.65,4.5-17,16.71L156,200.36c-21.76,21.63-41.49,41.2-55.87,55.27-7.18,7-13,12.71-17.09,16.6-2,1.95-3.62,3.45-4.71,4.45a12.34,12.34,0,0,1-1.73,1.47,11.56,11.56,0,0,1,1.5-1.7c1-1.08,2.55-2.64,4.52-4.64,4-4,9.72-9.75,16.88-16.82C113.8,240.85,133.68,221.43,155.67,200Z" style="fill:#ebebeb"></path><path d="M151.22,194.68l64.15-45.46,19.38-13.87,5.23-3.81,1.36-1a3.11,3.11,0,0,0,.44-.36,3,3,0,0,0-.49.31l-1.38,1-5.3,3.73L215.23,149l-63.74,46c-24.86,18-47.4,34.25-63.78,45.92-8.2,5.83-14.85,10.53-19.47,13.74-2.31,1.6-4.11,2.83-5.35,3.65A12.82,12.82,0,0,1,61,259.56a11.38,11.38,0,0,1,1.74-1.45c1.18-.9,2.93-2.21,5.19-3.88,4.53-3.34,11.12-8.12,19.29-14C103.51,228.5,126.17,212.41,151.22,194.68Z" style="fill:#ebebeb"></path><path d="M147.67,188.72l70.47-34.87,21.3-10.68,5.77-2.94,1.49-.79a2.65,2.65,0,0,0,.5-.29,3.49,3.49,0,0,0-.53.23l-1.52.72L239.33,143,218,153.62l-70.15,35.51C120.51,203,95.7,215.55,77.69,224.51c-9,4.49-16.3,8.08-21.37,10.53-2.53,1.22-4.51,2.16-5.86,2.77a11.37,11.37,0,0,1-2.09.87,12.2,12.2,0,0,1,2-1.16c1.3-.7,3.23-1.72,5.73-3,5-2.59,12.25-6.28,21.24-10.8C95.26,214.65,120.15,202.31,147.67,188.72Z" style="fill:#ebebeb"></path><path d="M145.09,182.26l75.08-23.34,22.72-7.19,6.16-2,1.59-.54a4.56,4.56,0,0,0,.54-.21,3.11,3.11,0,0,0-.56.14l-1.61.47-6.2,1.91-22.72,7.17-74.86,24c-29.21,9.4-55.68,17.88-74.87,23.9-9.6,3-17.38,5.41-22.77,7-2.69.81-4.79,1.42-6.22,1.82a11.26,11.26,0,0,1-2.2.52,11.83,11.83,0,0,1,2.11-.83c1.39-.5,3.46-1.2,6.13-2.09,5.34-1.77,13.09-4.28,22.67-7.33C89.25,199.63,115.78,191.35,145.09,182.26Z" style="fill:#ebebeb"></path><path d="M143.56,175.48l77.82-11.24,23.56-3.53,6.4-1,1.66-.28a4.37,4.37,0,0,0,.57-.12,2.31,2.31,0,0,0-.58.05l-1.67.21-6.41.91L221.34,164l-77.71,11.95c-30.33,4.69-57.8,8.9-77.7,11.82-10,1.47-18,2.61-23.59,3.36-2.79.38-5,.66-6.43.82a12.63,12.63,0,0,1-2.25.18,10.92,10.92,0,0,1,2.21-.5c1.45-.27,3.61-.63,6.38-1.09,5.56-.91,13.6-2.16,23.55-3.67C85.69,183.85,113.19,179.85,143.56,175.48Z" style="fill:#ebebeb"></path><path d="M143.11,168.55l78.62.95,23.83.18H252l1.68,0,.58,0a3.29,3.29,0,0,0-.58,0l-1.68-.05-6.48-.09-23.83-.19L143.11,169c-30.69-.07-58.48-.18-78.59-.38-10.06-.1-18.2-.21-23.83-.33-2.81-.07-5-.13-6.48-.19a11,11,0,0,1-2.25-.18,12.84,12.84,0,0,1,2.26-.14c1.48,0,3.66-.07,6.48-.08,5.62,0,13.76,0,23.82,0C84.64,167.84,112.43,168.15,143.11,168.55Z" style="fill:#ebebeb"></path><path d="M143.74,161.62l77.52,13.16,23.51,3.88,6.4,1,1.66.24a4,4,0,0,0,.58.06,5.41,5.41,0,0,0-.56-.13l-1.66-.3-6.38-1.11-23.51-3.89-77.63-12.45c-30.31-4.84-57.74-9.26-77.58-12.58-9.93-1.66-18-3-23.49-4-2.77-.49-4.91-.9-6.37-1.19a12.69,12.69,0,0,1-2.2-.52,10.9,10.9,0,0,1,2.26.2c1.47.19,3.63.5,6.41.92,5.56.84,13.61,2.11,23.53,3.73C86.09,151.83,113.49,156.46,143.74,161.62Z" style="fill:#ebebeb"></path><path d="M145.45,154.88l74.47,25.21,22.61,7.52,6.16,2,1.61.51a3.94,3.94,0,0,0,.56.14l-.54-.21-1.58-.57-6.13-2.09L220,179.84l-74.7-24.52c-29.16-9.54-55.56-18.23-74.63-24.64-9.54-3.2-17.24-5.82-22.56-7.68-2.65-.93-4.71-1.66-6.1-2.18a12,12,0,0,1-2.09-.87,12.16,12.16,0,0,1,2.2.56c1.42.42,3.5,1.07,6.19,1.92,5.36,1.7,13.1,4.22,22.65,7.38C90.06,136.13,116.39,145,145.45,154.88Z" style="fill:#ebebeb"></path><path d="M148.19,148.5l69.59,36.61,21.14,11,5.77,2.94,1.51.75a3,3,0,0,0,.52.23,3,3,0,0,0-.49-.29l-1.48-.81-5.72-3-21.14-11-69.91-36c-27.3-14-52-26.76-69.82-36.08-8.92-4.66-16.11-8.47-21.07-11.14-2.47-1.33-4.39-2.38-5.68-3.11a11.47,11.47,0,0,1-1.93-1.19,13.05,13.05,0,0,1,2.08.9c1.33.64,3.29,1.61,5.81,2.87,5,2.53,12.27,6.24,21.2,10.86C96.44,121.27,121,134.19,148.19,148.5Z" style="fill:#ebebeb"></path><path d="M151.9,142.62l63,47,19.16,14.16,5.24,3.81c.59.42,1.05.74,1.37,1a4.22,4.22,0,0,0,.49.31,4.68,4.68,0,0,0-.44-.37l-1.34-1-5.18-3.89-19.15-14.17L151.63,143c-24.77-18.12-47.18-34.56-63.33-46.56-8.07-6-14.58-10.88-19.06-14.29-2.24-1.7-4-3-5.13-4a12.49,12.49,0,0,1-1.72-1.47,10.82,10.82,0,0,1,1.91,1.21c1.22.84,3,2.1,5.29,3.74,4.58,3.28,11.15,8.08,19.25,14C105.05,107.64,127.33,124.25,151.9,142.62Z" style="fill:#ebebeb"></path><path d="M156.49,137.4l54.92,56.26,16.73,17,4.58,4.58,1.2,1.18a3.52,3.52,0,0,0,.43.38,3.52,3.52,0,0,0-.38-.43l-1.16-1.22c-1-1.08-2.56-2.65-4.51-4.65l-16.71-17-55.43-55.77C134.5,116,114.93,96.25,100.84,81.89c-7-7.18-12.72-13-16.61-17.08-1.94-2-3.44-3.62-4.45-4.71a11.67,11.67,0,0,1-1.47-1.73,11.56,11.56,0,0,1,1.7,1.5c1.08,1,2.64,2.54,4.65,4.52,4,4,9.76,9.71,16.83,16.86C115.64,95.55,135.07,115.42,156.49,137.4Z" style="fill:#ebebeb"></path><path d="M161.82,133l45.51,64.12,13.88,19.37,3.81,5.23,1,1.35a2.56,2.56,0,0,0,.37.45,4.22,4.22,0,0,0-.31-.49l-1-1.39-3.73-5.29-13.87-19.37-46.08-63.71c-18-24.85-34.28-47.38-46-63.76C109.65,61.28,105,54.63,101.74,50c-1.61-2.31-2.84-4.12-3.66-5.35a12.82,12.82,0,0,1-1.19-1.93,11.38,11.38,0,0,1,1.45,1.74c.9,1.18,2.21,2.93,3.89,5.19,3.34,4.53,8.12,11.11,14,19.28C128,85.26,144.08,107.91,161.82,133Z" style="fill:#ebebeb"></path><path d="M167.79,129.39c13.63,27.51,26,52.4,34.92,70.45l10.68,21.29,3,5.77.79,1.49a3.59,3.59,0,0,0,.28.5,2.53,2.53,0,0,0-.22-.53l-.73-1.52L213.61,221c-2.53-5.05-6.18-12.32-10.68-21.31-9.1-18-21.67-42.74-35.56-70.12S140.93,77.45,132,59.44c-4.49-9-8.09-16.3-10.54-21.37-1.22-2.53-2.16-4.5-2.78-5.85a12.08,12.08,0,0,1-.87-2.09,11.17,11.17,0,0,1,1.16,1.94c.71,1.31,1.73,3.24,3,5.73,2.59,5,6.29,12.25,10.82,21.23C141.82,77,154.18,101.89,167.79,129.39Z" style="fill:#ebebeb"></path><path d="M174.24,126.81c9.14,29.31,17.4,55.84,23.4,75.06,3,9.58,5.49,17.33,7.2,22.72.87,2.66,1.54,4.73,2,6.16l.54,1.59a3.85,3.85,0,0,0,.2.54,2.28,2.28,0,0,0-.14-.56l-.47-1.61c-.44-1.44-1.09-3.52-1.91-6.2-1.7-5.38-4.16-13.13-7.19-22.71-6.17-19.17-14.68-45.62-24.08-74.85s-17.92-55.66-24-74.86c-3-9.59-5.42-17.37-7-22.76-.81-2.69-1.43-4.79-1.83-6.21a12.11,12.11,0,0,1-.53-2.21,10.81,10.81,0,0,1,.84,2.11c.5,1.39,1.2,3.46,2.09,6.13,1.78,5.34,4.29,13.09,7.34,22.67C156.84,71,165.13,97.51,174.24,126.81Z" style="fill:#ebebeb"></path><path d="M181,125.28c4.41,30.38,8.4,57.88,11.3,77.81,1.49,9.93,2.7,18,3.53,23.56.44,2.76.78,4.91,1,6.4.13.72.22,1.27.29,1.66a2.68,2.68,0,0,0,.12.56,4.92,4.92,0,0,0-.05-.57c-.05-.4-.13-.95-.22-1.67-.21-1.49-.52-3.64-.91-6.41-.83-5.59-2-13.63-3.52-23.57-3.08-19.9-7.32-47.36-12-77.7s-8.93-57.79-11.87-77.7c-1.47-9.95-2.62-18-3.37-23.58-.38-2.79-.66-5-.83-6.43a10.93,10.93,0,0,1-.17-2.26,12.88,12.88,0,0,1,.49,2.21c.27,1.46.64,3.61,1.1,6.39.91,5.55,2.17,13.59,3.68,23.54C172.62,67.41,176.63,94.91,181,125.28Z" style="fill:#ebebeb"></path><path d="M188,124.82c-.35,30.7-.67,58.49-.9,78.62-.07,10.05-.12,18.18-.16,23.83,0,2.8,0,5,0,6.48,0,.72,0,1.28,0,1.68a2.17,2.17,0,0,0,0,.58,4.36,4.36,0,0,0,0-.58c0-.4,0-1,.05-1.68,0-1.5.05-3.68.09-6.48,0-5.65.1-13.78.17-23.82.05-20.14.12-47.93.2-78.63s.15-58.48.33-78.59c.09-10.06.2-18.2.32-23.83.06-2.81.12-5,.18-6.47a11.14,11.14,0,0,1,.18-2.26,12.84,12.84,0,0,1,.14,2.26c0,1.48.07,3.66.09,6.48,0,5.62,0,13.77,0,23.82C188.63,66.35,188.33,94.14,188,124.82Z" style="fill:#ebebeb"></path><path d="M194.88,125.45c-5.12,30.27-9.75,57.67-13.11,77.52-1.63,9.92-2.94,17.94-3.86,23.52-.43,2.76-.77,4.91-1,6.4-.1.71-.18,1.27-.24,1.66a4,4,0,0,0-.06.58,3.34,3.34,0,0,0,.13-.56c.07-.4.17-.95.31-1.66.25-1.48.62-3.63,1.1-6.39.91-5.57,2.24-13.59,3.87-23.51,3.18-19.88,7.56-47.32,12.4-77.64S203.65,67.63,207,47.78c1.66-9.92,3-17.94,4-23.48.5-2.77.9-4.92,1.19-6.37a11,11,0,0,1,.53-2.2,12.56,12.56,0,0,1-.21,2.25c-.19,1.47-.5,3.63-.91,6.42-.84,5.56-2.1,13.6-3.72,23.53C204.63,67.79,200,95.19,194.88,125.45Z" style="fill:#ebebeb"></path><path d="M201.62,127.15c-9.82,29.09-18.71,55.41-25.16,74.49-3.16,9.54-5.73,17.25-7.51,22.61l-2,6.17c-.22.69-.38,1.22-.5,1.61a3.87,3.87,0,0,0-.15.55,3.73,3.73,0,0,0,.22-.53c.13-.38.32-.91.56-1.59.48-1.42,1.19-3.48,2.09-6.13,1.79-5.36,4.36-13.07,7.53-22.61,6.27-19.14,14.92-45.54,24.47-74.72s18.2-55.57,24.59-74.64c3.2-9.54,5.82-17.25,7.67-22.56.93-2.66,1.66-4.72,2.18-6.11a10.33,10.33,0,0,1,.87-2.09,11.94,11.94,0,0,1-.56,2.2c-.42,1.42-1.07,3.51-1.91,6.19-1.7,5.36-4.22,13.1-7.38,22.66C220.34,71.75,211.47,98.08,201.62,127.15Z" style="fill:#ebebeb"></path><path d="M208,129.89,171.45,199.5c-4.63,8.91-8.38,16.13-11,21.15l-2.94,5.77c-.33.65-.57,1.15-.75,1.51a3,3,0,0,0-.23.52,3,3,0,0,0,.29-.49l.81-1.48,3-5.73c2.6-5,6.36-12.22,11-21.14l35.93-69.93c14-27.31,26.72-52,36-69.85,4.66-8.91,8.46-16.11,11.13-21.07,1.33-2.48,2.38-4.39,3.1-5.69a12.06,12.06,0,0,1,1.19-1.93,11.22,11.22,0,0,1-.9,2.08c-.64,1.34-1.6,3.3-2.87,5.82-2.52,5-6.22,12.27-10.84,21.21C235.2,78.12,222.3,102.73,208,129.89Z" style="fill:#ebebeb"></path><path d="M213.89,133.6l-47,63c-6,8.09-10.79,14.63-14.15,19.18l-3.81,5.24-1,1.37a3.25,3.25,0,0,0-.31.48,3.51,3.51,0,0,0,.37-.44l1-1.33c.91-1.2,2.21-2.95,3.89-5.18l14.16-19.17,46.42-63.46C231.61,108.54,248,86.13,260,70c6-8.08,10.88-14.6,14.28-19.07,1.71-2.24,3-4,4-5.13A12.29,12.29,0,0,1,279.73,44,10.62,10.62,0,0,1,278.52,46c-.84,1.22-2.1,3-3.74,5.29-3.27,4.57-8.07,11.16-14,19.26C248.84,86.72,232.25,109,213.89,133.6Z" style="fill:#ebebeb"></path><path d="M219.11,138.18l-56.22,55-17,16.73-4.58,4.59-1.18,1.21a3.14,3.14,0,0,0-.38.42,3.87,3.87,0,0,0,.43-.37l1.23-1.16,4.64-4.52,17-16.72,55.73-55.47c21.73-21.67,41.44-41.26,55.8-55.35,7.17-7,13-12.73,17.07-16.62,2-1.95,3.62-3.45,4.71-4.45A11.2,11.2,0,0,1,298.09,60a13,13,0,0,1-1.5,1.7c-1,1.07-2.54,2.64-4.51,4.64-3.95,4-9.71,9.77-16.86,16.84C260.93,97.3,241.07,116.74,219.11,138.18Z" style="fill:#ebebeb"></path><path d="M223.56,143.51l-64.09,45.55L140.12,203l-5.24,3.82-1.35,1a3.11,3.11,0,0,0-.44.36,3.59,3.59,0,0,0,.48-.3l1.39-1,5.29-3.73,19.37-13.89,63.67-46.12c24.84-18,47.36-34.31,63.73-46,8.19-5.85,14.83-10.55,19.45-13.76,2.31-1.61,4.11-2.85,5.34-3.67a11.66,11.66,0,0,1,1.93-1.18A11.18,11.18,0,0,1,312,80c-1.17.91-2.92,2.22-5.18,3.89-4.53,3.35-11.11,8.14-19.27,14C271.23,109.64,248.59,125.76,223.56,143.51Z" style="fill:#ebebeb"></path><path d="M227.13,149.48l-70.43,35-21.29,10.7-5.76,3-1.49.79a2.27,2.27,0,0,0-.5.29,4.1,4.1,0,0,0,.53-.23l1.52-.73,5.81-2.86,21.3-10.68,70.1-35.61c27.35-13.92,52.14-26.48,70.13-35.47,9-4.49,16.3-8.1,21.37-10.55,2.53-1.23,4.5-2.17,5.85-2.78a11.37,11.37,0,0,1,2.09-.87,12.79,12.79,0,0,1-1.95,1.15c-1.3.71-3.23,1.74-5.72,3-5,2.59-12.25,6.29-21.23,10.83C279.51,123.48,254.62,135.85,227.13,149.48Z" style="fill:#ebebeb"></path><path d="M229.71,155.93l-75.05,23.44L132,186.59l-6.16,2-1.6.54a3.25,3.25,0,0,0-.53.21,4.55,4.55,0,0,0,.55-.14l1.62-.48,6.19-1.91,22.71-7.2,74.83-24.14c29.2-9.44,55.65-17.95,74.84-24,9.6-3,17.37-5.44,22.76-7.06,2.69-.81,4.79-1.43,6.22-1.83a11.93,11.93,0,0,1,2.2-.53,12.22,12.22,0,0,1-2.11.84c-1.39.5-3.46,1.2-6.13,2.09-5.34,1.78-13.08,4.3-22.66,7.36C285.53,138.49,259,146.8,229.71,155.93Z" style="fill:#ebebeb"></path><path d="M231.25,162.7l-77.8,11.35-23.56,3.55-6.4,1-1.66.28a4.37,4.37,0,0,0-.57.12,3.11,3.11,0,0,0,.58-.05l1.67-.22,6.41-.91,23.56-3.54,77.7-12.06c30.32-4.73,57.78-9,77.69-11.91,9.94-1.48,18-2.64,23.58-3.4,2.79-.37,4.95-.65,6.43-.82a11.51,11.51,0,0,1,2.25-.18,10.92,10.92,0,0,1-2.21.5c-1.45.27-3.61.64-6.38,1.1-5.55.91-13.6,2.18-23.54,3.7C289.11,154.27,261.62,158.3,231.25,162.7Z" style="fill:#ebebeb"></path><path d="M104.34,370.35c5.75-3,12.51-3.35,18.88-2.3,3.43.57,7,1.59,9.33,4.17s2.77,7.1.1,9.31c-1.59,1.31-3.82,1.51-5.88,1.49-5-.06-10.53-.94-14.52,2.06-2.27,1.72-3.79,4.57-6.51,5.41s-5.66-.75-7.07-3.15a11,11,0,0,1-.8-8.11A12.36,12.36,0,0,1,104.34,370.35Z" style="fill:#ebebeb"></path><path d="M91.19,345c3.51,5,10.33,3.35,13.5.29s4.5-7.5,5.72-11.73c2.78-9.67,5.58-19.81,3.52-29.65a16.51,16.51,0,0,0-3.79-8.07,8.62,8.62,0,0,0-8.16-2.71c-3.44.91-5.58,4.28-7.12,7.49a70.64,70.64,0,0,0-7,30.33c0,4.89.56,10,3.32,14.05" style="fill:#ebebeb"></path><path d="M81.54,352.14c3.82-4.52,4.54-11.12,2.84-16.79s-5.53-10.49-9.94-14.43a53.46,53.46,0,0,0-17.82-10.51,18.89,18.89,0,0,0-8-1.36,8.4,8.4,0,0,0-6.72,4.07c-1.87,3.57-.08,7.91,1.87,11.45a135.29,135.29,0,0,0,11.7,17.81c3.5,4.52,7.52,9,12.86,11s10.9,1.81,13.73-1.9" style="fill:#ebebeb"></path><path d="M91,420.6a11.46,11.46,0,0,0,.32-2.27c.16-1.66.36-3.75.6-6.22a89,89,0,0,1,1.4-9.13,70.44,70.44,0,0,1,3.32-10.76,39.78,39.78,0,0,1,5.5-9.75,20.46,20.46,0,0,1,7-5.78,19.42,19.42,0,0,1,5.85-1.82,10.56,10.56,0,0,0,2.27-.33,11.46,11.46,0,0,0-2.31,0,17.63,17.63,0,0,0-6.1,1.59,20.52,20.52,0,0,0-7.34,5.82,39.3,39.3,0,0,0-5.7,9.94,65.9,65.9,0,0,0-3.29,10.95,77.77,77.77,0,0,0-1.21,9.24c-.2,2.64-.27,4.78-.31,6.25A10.29,10.29,0,0,0,91,420.6Z" style="fill:#e0e0e0"></path><path d="M91.38,415.82a4.89,4.89,0,0,0,.06-1.06c0-.79,0-1.79,0-3,0-2.63,0-6.43.14-11.11.23-9.38,1-19.48,2.59-33.71,1.48-13.38,3.46-29,5.56-39.08.45-2.31.9-4.38,1.32-6.19s.75-3.39,1.09-4.66.52-2.17.71-2.94a4.41,4.41,0,0,0,.18-1,4.31,4.31,0,0,0-.37,1c-.23.76-.52,1.72-.87,2.9s-.79,2.81-1.25,4.62-1,3.88-1.46,6.18A341.8,341.8,0,0,0,93.23,364c-1.56,14.26-2.27,27.25-2.33,36.65-.06,4.7,0,8.51.16,11.14.08,1.22.14,2.22.19,3A3.83,3.83,0,0,0,91.38,415.82Z" style="fill:#e0e0e0"></path><path d="M91.44,390.77a20.09,20.09,0,0,0,0-3.16c-.12-2-.4-5-1-8.55a113.24,113.24,0,0,0-2.78-12.47,101.63,101.63,0,0,0-5.22-14.76A78.44,78.44,0,0,0,67.14,328a38,38,0,0,0-3.6-3.35c-.56-.47-1-.93-1.54-1.3l-1.4-1a20,20,0,0,0-2.66-1.7c-.15.21,3.77,2.51,8.72,7.78a82.67,82.67,0,0,1,14.93,23.76,116.33,116.33,0,0,1,5.24,14.61c1.37,4.59,2.28,8.8,3,12.35s1,6.46,1.25,8.47A20.88,20.88,0,0,0,91.44,390.77Z" style="fill:#e0e0e0"></path><polygon points="67.23 434.95 69.74 469.34 113.91 469.34 116.42 434.95 67.23 434.95" style="fill:#e0e0e0"></polygon><rect x="62.97" y="421.4" width="58.72" height="13.55" style="fill:#e0e0e0"></rect><polygon points="62.97 468.02 62.97 471.78 65.73 471.78 120.72 471.78 120.72 468.02 62.97 468.02" style="fill:#ebebeb"></polygon><polygon points="68.43 478.39 65.73 471.78 118.62 471.78 115.46 478.39 68.43 478.39" style="fill:#e0e0e0"></polygon><path d="M115.6,446.19a1.28,1.28,0,0,1-.21.32l-.65.87-2.58,3.29-.11.15-.11-.15-6.32-8.75H106c-1.88,2.67-4,5.63-6.22,8.82l-.2.27-.22-.26L92,442h.43l-.41.51-6.6,8.27-.22.28-.2-.29-6.23-8.81.36,0-7.67,8.73-.13.16-.11-.18c-1-1.69-1.81-3.05-2.4-4l-.61-1.07a1.62,1.62,0,0,1-.19-.39,2.29,2.29,0,0,1,.26.34l.68,1,2.52,4-.24,0,7.54-8.85.19-.22.18.24,6.28,8.77H85l6.58-8.29.41-.51.21-.26.21.26,7.36,8.8h-.41l6.29-8.76.18-.26.18.26,6.19,8.83h-.23l2.68-3.21.72-.83C115.5,446.27,115.59,446.18,115.6,446.19Z" style="fill:#f5f5f5"></path><path d="M117,434.73c0,.15-11.07.27-24.72.27s-24.72-.12-24.72-.27,11.07-.28,24.72-.28S117,434.58,117,434.73Z" style="fill:#f5f5f5"></path><path d="M119.27,472.15c0,.15-12,.27-26.86.27s-26.87-.12-26.87-.27,12-.28,26.87-.28S119.27,472,119.27,472.15Z" style="fill:#f5f5f5"></path><rect x="354.03" y="60.06" width="107.5" height="155.81" style="fill:#e0e0e0"></rect><rect x="348.65" y="60.06" width="107.5" height="155.81" style="fill:#f5f5f5"></rect><rect x="362" y="76.94" width="80.79" height="122.06" style="fill:#fff"></rect><path d="M442.79,199s0-.21,0-.6,0-1,0-1.73c0-1.53,0-3.78,0-6.7,0-5.85,0-14.37-.07-25.14,0-21.52-.08-52-.13-87.89l.27.26-80.78,0h0l.29-.29c0,46,0,88.5-.05,122.06l-.24-.24,58.8.13,16.25.06,4.26,0,1.48,0-1.43,0-4.22,0-16.19.06-58.95.12h-.23V199c0-33.56,0-76-.06-122.06v-.3h.3l80.78,0h.27v.27c-.06,36-.1,66.5-.14,88.07,0,10.74-.05,19.24-.07,25.08,0,2.89,0,5.12,0,6.64,0,.74,0,1.31,0,1.7S442.79,199,442.79,199Z" style="fill:#e0e0e0"></path><path d="M456.45,60.06a19.09,19.09,0,0,1-1.92,2.78c-1.25,1.67-3,4-5,6.4s-3.92,4.63-5.32,6.18a17.65,17.65,0,0,1-2.36,2.41,20.18,20.18,0,0,1,2.05-2.68L449,68.87l5.18-6.28A20,20,0,0,1,456.45,60.06Z" style="fill:#e0e0e0"></path><path d="M443.2,198.6a100.15,100.15,0,0,0,14.09,17.63" style="fill:#fff"></path><path d="M457.29,216.23a16.73,16.73,0,0,1-2.46-2.24,79,79,0,0,1-5.31-6,76.33,76.33,0,0,1-4.68-6.51,16.63,16.63,0,0,1-1.64-2.89,23.26,23.26,0,0,1,2,2.66c1.19,1.66,2.85,3.94,4.8,6.37s3.79,4.56,5.15,6.08A21.37,21.37,0,0,1,457.29,216.23Z" style="fill:#e0e0e0"></path><path d="M348.63,215.75l14.08-17.37" style="fill:#fff"></path><path d="M362.71,198.38a105.87,105.87,0,0,1-6.81,8.87,105.64,105.64,0,0,1-7.27,8.5,111.36,111.36,0,0,1,6.81-8.87A108.1,108.1,0,0,1,362.71,198.38Z" style="fill:#e0e0e0"></path><path d="M348.65,60.06a100.27,100.27,0,0,1,6.83,8.17,98.8,98.8,0,0,1,6.38,8.53A94.86,94.86,0,0,1,355,68.59,97.31,97.31,0,0,1,348.65,60.06Z" style="fill:#e0e0e0"></path><rect x="390.57" y="101.72" width="27.05" height="76.8" style="fill:#e0e0e0"></rect></g><g id="freepik--Character--inject-16"><path d="M317.12,269.6c-6.84-6.6-22.52-4.51-25.95.35a12,12,0,0,0-15.38,6.26L259.28,281c-2.82.81-5.76,1.7-7.83,3.77s-2.86,5.74-.9,7.92c-5.8,1.92-7.54,10.86-2.88,14.81a6.36,6.36,0,0,0,1.54,9.12A63.58,63.58,0,0,0,239.65,336c-.86,2.9-1.5,6.12-.26,8.88s5.09,4.47,7.42,2.54a7.47,7.47,0,0,0,.18,8.05c-2.83.25-3.38,4.69-1.3,6.62s5.26,1.94,8.09,1.69,5.89-.6,8.32.87a2.56,2.56,0,0,1-.8,1.85c-4.61,4.28-5.54,11.19-1.56,16l1,1.24c1.8,2.22,6,4.09,8.62,5.24,6.62,2.92,10.4,2,17.62,2.6-1.65,4.75,10.64,14.2,23.28,3.28,27,5.39,46.3,6.84,73.77,5.11,3.92-.25,8.6-1.09,10.11-4.72,3.23.64,6.56-1.06,8.76-3.52s3.47-5.57,4.71-8.63a17.09,17.09,0,0,0,11.28-16.19,21.16,21.16,0,0,0,7-15.53c6.46-2.45,9.54-11.25,6-17.19a74.88,74.88,0,0,0-9.67-22.59c4.43-1.27,5.72-7.44,3.6-11.53s-6.39-6.52-10.43-8.74c3.41.68,6.06-3.74,5-7.07s-4.22-5.46-7.31-7a63.21,63.21,0,0,0-14.34-5.3c-2-5.81-10-12.05-15.69-14.3-23-9.11-38.87-10.75-66,12" style="fill:#263238"></path><path d="M382.61,351.82a8.12,8.12,0,0,1,3-2.4h-.25a4,4,0,0,1,.68-.17,3.2,3.2,0,0,1,2.54.08h0a6,6,0,0,1,3.51,2.54,7.06,7.06,0,0,1-.18,7.32,5.4,5.4,0,0,1-10-1A6.67,6.67,0,0,1,382.61,351.82Z" style="fill:#455a64"></path><path d="M382.12,308.09c-2.79-15.27-15.22-32.93-30.35-29.49l-46.41,17.76a9.08,9.08,0,0,0-7,10.1l13.76,102.32a28.31,28.31,0,0,0,26.14,24.47h0a28.32,28.32,0,0,0,30.15-30.36c-.53-7.06-.91-12.37-.91-12.33s19.26-5.59,20.3-31.71C388.33,345.87,385.22,325,382.12,308.09Z" style="fill:#876760"></path><path d="M374.45,329.68a3.31,3.31,0,0,1-2.78,3.69,3.16,3.16,0,0,1-3.74-2.56,3.31,3.31,0,0,1,2.77-3.69A3.17,3.17,0,0,1,374.45,329.68Z" style="fill:#263238"></path><path d="M378.87,319.5c-.36.47-3.07-1.08-6.6-.65s-5.92,2.51-6.36,2.12c-.21-.17.12-1,1.15-2a9.06,9.06,0,0,1,5-2.22,8.74,8.74,0,0,1,5.32,1C378.59,318.55,379.05,319.28,378.87,319.5Z" style="fill:#263238"></path><path d="M342.59,332.86a3.31,3.31,0,0,1-2.78,3.69,3.16,3.16,0,0,1-3.74-2.56,3.31,3.31,0,0,1,2.77-3.69A3.17,3.17,0,0,1,342.59,332.86Z" style="fill:#263238"></path><path d="M344.18,324.27c-.36.48-3.07-1.07-6.6-.64s-5.92,2.51-6.36,2.12c-.21-.17.11-1,1.15-1.95a9.14,9.14,0,0,1,5-2.23,8.82,8.82,0,0,1,5.32,1.05C343.89,323.33,344.36,324.06,344.18,324.27Z" style="fill:#263238"></path><path d="M360.12,349c0-.2,2.12-.84,5.63-1.72.89-.2,1.72-.48,1.8-1.12a4.62,4.62,0,0,0-.92-2.6L363.14,337c-4.86-9.36-8.5-17.09-8.13-17.28s4.64,7.23,9.51,16.58c1.17,2.31,2.3,4.51,3.37,6.62a5.22,5.22,0,0,1,.89,3.49,2.26,2.26,0,0,1-1.33,1.49,5.91,5.91,0,0,1-1.5.4C362.38,348.91,360.16,349.19,360.12,349Z" style="fill:#263238"></path><path d="M367.52,390.56a65.71,65.71,0,0,1-35.41-5.09s10.42,16.62,35.79,11.18Z" style="fill:#664d49"></path><path d="M360.6,357.46a8.75,8.75,0,0,0-7.62-2.95,5.71,5.71,0,0,0-4.36,3.08,5.53,5.53,0,0,0,.77,5.71,5.45,5.45,0,0,0,6,1.38,13,13,0,0,0,4.83-3.84,4,4,0,0,0,1-1.45,1.83,1.83,0,0,0-.35-1.78" style="fill:#664d49"></path><path d="M350,352.67c.57-.1,1,3.73,4.65,6.07s7.64,1.43,7.73,2c.09.24-.82.86-2.54,1.11a9.62,9.62,0,0,1-6.44-1.42,8.43,8.43,0,0,1-3.64-5.12C349.42,353.68,349.74,352.68,350,352.67Z" style="fill:#263238"></path><path d="M344,309.53c-.24,1-3.82,1-7.91,2s-7.32,2.52-8,1.73c-.3-.39.18-1.36,1.42-2.45a14.19,14.19,0,0,1,12.1-2.81C343.26,308.39,344.11,309.05,344,309.53Z" style="fill:#263238"></path><path d="M376.18,307.47c-.52.88-3.06.33-6,.64s-5.35,1.18-6,.41c-.3-.38,0-1.23,1-2.12a8.76,8.76,0,0,1,9.68-.85C376,306.26,376.41,307,376.18,307.47Z" style="fill:#263238"></path><path d="M394.58,319.6a17.71,17.71,0,0,0-5.08-10.77c-1.63-1.5-3.63-2.59-5.1-4.25-3.18-3.59-3.15-8.9-4.72-13.43a19.51,19.51,0,0,0-13-12.19c-5-1.36-10.41-.73-15.11-2.8-3.48-1.53-6.25-4.43-9.81-5.75-6.94-2.58-14.47,1.44-20.53,5.68-.89,5.13,2.61,9.25,6,13.21A18.07,18.07,0,0,0,341,295.54c4-.06,8.66-1.31,11.7,1.35s2.43,8.2,5.12,11.47c3.86,4.69,11.66,2.23,17.11,4.9,4.21,2.06,6.26,6.76,8.6,10.82s6.17,8.19,10.82,7.63A52.79,52.79,0,0,0,394.58,319.6Z" style="fill:#263238"></path><path d="M331.94,284.52a91.47,91.47,0,0,0-34,8.74c-3.16,1.52-6.42,3.38-8.06,6.48-1.44,2.73-1.4,6-1.14,9.06.82,9.62,5.57,21.13,9.9,29.77l12.56,6.32c9.1-2.88,3.67-18.56,2.64-26.55a19,19,0,0,0,9.83-17.53A21,21,0,0,0,331.94,284.52Z" style="fill:#263238"></path><path d="M310.78,341.44c-.77-5.48-7.62-6.06-12.14-2.87-2.49,1.75-4.22,5-3.45,10.8,2,15.54,17.21,10.28,17.18,9.83C312.35,358.93,311.68,347.86,310.78,341.44Z" style="fill:#876760"></path><path d="M306.85,353.94c-.07,0-.24.23-.67.5a2.74,2.74,0,0,1-2,.3c-1.72-.38-3.45-2.81-3.89-5.6a9.14,9.14,0,0,1,.25-4,3.15,3.15,0,0,1,1.76-2.35,1.4,1.4,0,0,1,1.7.54c.26.4.2.73.29.74s.3-.3.09-.93a1.73,1.73,0,0,0-.74-.89,2.07,2.07,0,0,0-1.55-.2,3.86,3.86,0,0,0-2.51,2.78,9.36,9.36,0,0,0-.37,4.45c.51,3.12,2.5,5.84,4.83,6.19a2.89,2.89,0,0,0,2.42-.73C306.87,354.32,306.91,354,306.85,353.94Z" style="fill:#664d49"></path><path d="M298.38,358.07a8.12,8.12,0,0,1,3-2.4h-.24a5.54,5.54,0,0,1,.67-.18,3.2,3.2,0,0,1,2.54.09h0a6,6,0,0,1,3.5,2.53,7.06,7.06,0,0,1-.18,7.32,5.39,5.39,0,0,1-10-1A6.71,6.71,0,0,1,298.38,358.07Z" style="fill:#455a64"></path><path d="M305.6,360.63s0,.07,0,.21a2,2,0,0,1-.17.61,3.59,3.59,0,0,1-1.68,1.75,9.62,9.62,0,0,1-3.8,1.09,12.41,12.41,0,0,1-2.52,0,9.38,9.38,0,0,1-2.79-.62l.18-.11a7.79,7.79,0,0,1-12,5.84l.27-.07a3.27,3.27,0,0,1-1.95,1.52,4.48,4.48,0,0,1-2.54,0,4.13,4.13,0,0,1-2.16-1.5,5.49,5.49,0,0,1-1-2.51,8,8,0,0,1,1.32-5.33,23.2,23.2,0,0,1,3.82-4.31l.05.36a5.51,5.51,0,0,1-2.75-3.51,8.07,8.07,0,0,1,.11-4.64,12.46,12.46,0,0,1,2.44-4.09,38.44,38.44,0,0,1,3.47-3.4v.36a5.85,5.85,0,0,1-1.87-4.42,8.4,8.4,0,0,1,1.42-4.76c1.82-2.71,4.63-4.34,7.22-5.87l-.11.28a10.39,10.39,0,0,1,10.31-13.62l-.22.28a9,9,0,0,1,1.55-7.74,8.86,8.86,0,0,1,6.35-3.73l-.18.21a8.84,8.84,0,0,1,3-7.06,8.6,8.6,0,0,1,6.39-2.28l-.16.17a8.45,8.45,0,0,1,1-4.1,11.13,11.13,0,0,1,2.15-3,9,9,0,0,1,5.17-2.69l.58-.08h.56a6.3,6.3,0,0,1,1,0,9.57,9.57,0,0,1,1.52.31l.9.31a1.44,1.44,0,0,1,.3.12l-.31-.08-.91-.27A10.34,10.34,0,0,0,328,284a7.72,7.72,0,0,0-1,0h-.55l-.57.09a8.9,8.9,0,0,0-5,2.7,10.83,10.83,0,0,0-2.08,3,8.25,8.25,0,0,0-.92,3.95v.18h-.17a8.31,8.31,0,0,0-6.13,2.23,8.45,8.45,0,0,0-2.89,6.77l0,.2h-.2a8.46,8.46,0,0,0-6,3.58,8.58,8.58,0,0,0-1.47,7.38l.09.29h-.31a9.94,9.94,0,0,0-9.84,13l.06.18-.17.1c-2.58,1.53-5.33,3.14-7.06,5.72a8,8,0,0,0-1.34,4.5,5.38,5.38,0,0,0,1.71,4.06l.2.18-.2.17c-2.4,2.14-4.81,4.38-5.78,7.29a7.54,7.54,0,0,0-.11,4.36,5,5,0,0,0,2.51,3.24l.28.15-.23.21a23.57,23.57,0,0,0-3.76,4.22,7.58,7.58,0,0,0-1.27,5,4.2,4.2,0,0,0,2.84,3.69,3.44,3.44,0,0,0,4.05-1.29l.1-.18.16.11a7.59,7.59,0,0,0,7.92.17,7.69,7.69,0,0,0,3.62-5.72l0-.18.16.07a9.09,9.09,0,0,0,2.71.63,13.72,13.72,0,0,0,2.48,0,9.46,9.46,0,0,0,3.75-1,3.66,3.66,0,0,0,1.69-1.66C305.55,360.92,305.57,360.62,305.6,360.63Z" style="fill:#455a64"></path><path d="M244.94,348.27a5.53,5.53,0,0,1-.66-.89,8.18,8.18,0,0,1-1.05-3,7.9,7.9,0,0,1,.92-5,8.34,8.34,0,0,1,5.39-4l-.12.2a10.72,10.72,0,0,1,.85-7.81,10.56,10.56,0,0,1,2.81-3.47A25.11,25.11,0,0,1,257.2,322a8.59,8.59,0,0,0,2-1.36,5.36,5.36,0,0,0,1.28-2c.59-1.54.68-3.33,1.44-5a9.51,9.51,0,0,1,9.16-5.41l-.25.28a12.53,12.53,0,0,1,12.81-15.18l-.24.28A11,11,0,0,1,299.67,282l-.25,0a15.06,15.06,0,0,1,5.21-3.72,22.45,22.45,0,0,1,5.51-1.7,26.31,26.31,0,0,1,9.29-.05,18.56,18.56,0,0,1,5.67,1.88,10.51,10.51,0,0,1,1.33.83c.3.2.44.31.44.31s-.62-.4-1.83-1a19,19,0,0,0-5.65-1.76,26,26,0,0,0-9.2.14,22.23,22.23,0,0,0-5.41,1.71,14.62,14.62,0,0,0-5,3.65l-.11.13-.14-.09a10.92,10.92,0,0,0-10.86.22,10.79,10.79,0,0,0-4.8,10.86l.05.29h-.3a12.08,12.08,0,0,0-12.33,14.61l.07.31-.31,0a9,9,0,0,0-8.71,5.13c-.73,1.56-.83,3.34-1.44,5a5.68,5.68,0,0,1-1.4,2.17,8.9,8.9,0,0,1-2.05,1.43,24.67,24.67,0,0,0-4.07,2.26,10,10,0,0,0-2.73,3.33,10.41,10.41,0,0,0-.88,7.55l.05.16-.17,0a8.05,8.05,0,0,0-5.24,3.82,7.76,7.76,0,0,0-1,4.85,8.41,8.41,0,0,0,1,3C244.71,348,245,348.26,244.94,348.27Z" style="fill:#455a64"></path><path d="M394.47,341.63a1.6,1.6,0,0,1-.15-1.28,3.07,3.07,0,0,1,.82-1.36,5.47,5.47,0,0,1,1.86-1.11,9.19,9.19,0,0,0,2.36-1.19,4.89,4.89,0,0,0,1.57-2.63,9.36,9.36,0,0,0,.13-3.6c-.15-1.29-.45-2.64-.55-4.1-.25-2.95.79-6.05,1.31-9.36a13.18,13.18,0,0,0-.16-5.15,6.29,6.29,0,0,0-3.15-4.18c-1.66-.86-3.64-1-5.61-1.46a9.25,9.25,0,0,1-2.89-1.09,6.25,6.25,0,0,1-2.15-2.33,30.44,30.44,0,0,1-2.09-6,10.27,10.27,0,0,0-1.3-2.88A4.77,4.77,0,0,0,382,292a17.44,17.44,0,0,0-4.36-.27,7.11,7.11,0,0,1-2.22-.39,4.28,4.28,0,0,1-1.83-1.33,15.39,15.39,0,0,1-1.93-3.87,9.67,9.67,0,0,0-2.21-3.38,9.44,9.44,0,0,0-7-2.75,9.69,9.69,0,0,0-6.45,2.88l-.2.2-.13-.24a14.9,14.9,0,0,0-9.85-7.33,13.69,13.69,0,0,0-5.25-.07,12.49,12.49,0,0,0-4.2,1.51,11,11,0,0,0-4.25,4.52,11.94,11.94,0,0,0-.67,1.52l-.15.4c0,.09-.06.13-.07.13a1.31,1.31,0,0,1,0-.14l.12-.41a9.79,9.79,0,0,1,.62-1.56,11,11,0,0,1,4.24-4.67,12.56,12.56,0,0,1,4.27-1.58,14.06,14.06,0,0,1,5.37,0A15.26,15.26,0,0,1,356,282.69l-.33,0a10.1,10.1,0,0,1,6.72-3,9.88,9.88,0,0,1,7.38,2.87,10.09,10.09,0,0,1,2.32,3.52,15.09,15.09,0,0,0,1.86,3.75,4.56,4.56,0,0,0,3.71,1.54,17.14,17.14,0,0,1,4.48.3,5.24,5.24,0,0,1,2.7,2,11,11,0,0,1,1.36,3,30.89,30.89,0,0,0,2,5.93,5.88,5.88,0,0,0,2,2.17,9.08,9.08,0,0,0,2.74,1c1.92.44,3.94.59,5.71,1.51a5.92,5.92,0,0,1,2.19,1.9,7.72,7.72,0,0,1,1.16,2.57,13.39,13.39,0,0,1,.15,5.3c-.55,3.37-1.59,6.42-1.37,9.29.1,1.43.38,2.78.52,4.08a9.66,9.66,0,0,1-.17,3.7,5.07,5.07,0,0,1-1.69,2.75,9.37,9.37,0,0,1-2.43,1.19,5.15,5.15,0,0,0-1.83,1,3,3,0,0,0-.83,1.28A2.06,2.06,0,0,0,394.47,341.63Z" style="fill:#455a64"></path><path d="M423,315.25s-.07-.09-.18-.28l-.5-.84c-.43-.77-1.06-1.87-1.85-3.26s-1.74-3.19-3-5.11a13.84,13.84,0,0,0-5.63-5.22c-1.31-.59-2.8-.94-4.32-1.48a9.76,9.76,0,0,1-2.22-1.1,5.29,5.29,0,0,1-1.74-1.92c-.86-1.56-1-3.4-1.73-5a4.47,4.47,0,0,0-1.65-2,8.54,8.54,0,0,0-2.6-1,16.28,16.28,0,0,1-2.83-.85,5,5,0,0,1-2.3-2.06c-1.07-1.82-1.24-4-1.77-6a7.51,7.51,0,0,0-1.25-2.79,3.93,3.93,0,0,0-2.59-1.45c-2.08-.27-4.24.6-6.55.41a5.61,5.61,0,0,1-3.12-1.37A14.21,14.21,0,0,1,375,271.4a31.54,31.54,0,0,0-1.91-2.56,6.1,6.1,0,0,0-2.44-1.8c-1.92-.72-4-.1-5.89.48a13.93,13.93,0,0,1-5.89,1,16,16,0,0,1-5.33-2,26.15,26.15,0,0,0-4.77-2.22,16.19,16.19,0,0,0-9.28.38,17.16,17.16,0,0,0-6.6,4,19.21,19.21,0,0,0-3.46,4.76,22.7,22.7,0,0,0-1.38,3.47l-.29.93a1.72,1.72,0,0,1-.12.32,1.11,1.11,0,0,1,.07-.33c.06-.24.14-.55.25-.95a20.39,20.39,0,0,1,1.3-3.52,19,19,0,0,1,3.44-4.87,17.46,17.46,0,0,1,6.68-4.16,16.47,16.47,0,0,1,9.5-.44,26.81,26.81,0,0,1,4.86,2.23,15.67,15.67,0,0,0,5.18,1.9,13.34,13.34,0,0,0,5.7-.94,18.54,18.54,0,0,1,3-.75,6,6,0,0,1,5.82,2.19,28.77,28.77,0,0,1,1.94,2.6,14,14,0,0,0,2.07,2.46,5.08,5.08,0,0,0,2.85,1.26c2.15.19,4.3-.69,6.57-.41a4.38,4.38,0,0,1,2.89,1.63,7.89,7.89,0,0,1,1.33,3c.54,2,.71,4.15,1.71,5.84a4.63,4.63,0,0,0,2.09,1.88,16,16,0,0,0,2.76.84,8.75,8.75,0,0,1,2.72,1,4.92,4.92,0,0,1,1.81,2.21c.73,1.73.88,3.55,1.69,5a6.39,6.39,0,0,0,3.74,2.85c1.48.54,3,.9,4.33,1.52a14.08,14.08,0,0,1,5.71,5.38c1.27,1.95,2.17,3.74,3,5.17l1.78,3.3.45.87A1.78,1.78,0,0,1,423,315.25Z" style="fill:#455a64"></path><path d="M405.2,300.14l.28-.07a1.8,1.8,0,0,1,.85.12,3.34,3.34,0,0,1,1.75,2.65,8.07,8.07,0,0,1-.16,2.36,9.68,9.68,0,0,0-.21,2.73,6.08,6.08,0,0,0,1.31,2.8c.68.9,1.51,1.77,2.22,2.84a4.47,4.47,0,0,1,.67,3.9c-.4,1.36-1.28,2.55-1.65,3.93a5.82,5.82,0,0,0,.73,4.26c.72,1.39,1.69,2.71,2.4,4.25a7,7,0,0,1,.68,2.49,6.23,6.23,0,0,1-.4,2.63,30.17,30.17,0,0,1-2.64,4.66,7.22,7.22,0,0,0-1.29,5.07c.33,1.78,1.47,3.36,2.27,5.12a8,8,0,0,1,.79,2.83,6.34,6.34,0,0,1-.53,2.86,23.53,23.53,0,0,1-3,4.66,12.59,12.59,0,0,0-2.4,4.61,38.24,38.24,0,0,1-1.27,5,5.64,5.64,0,0,1-1.44,2.09,7.12,7.12,0,0,1-2.13,1.22,21.41,21.41,0,0,0-2.1.93,7.88,7.88,0,0,0-1.72,1.36,16.12,16.12,0,0,0-2.31,3.53c-.63,1.21-1.21,2.4-1.89,3.48a10.7,10.7,0,0,1-5.14,4.4,11.62,11.62,0,0,1-5.06.86,10.23,10.23,0,0,1-3.18-.68,8.44,8.44,0,0,1-1-.5,11.6,11.6,0,0,0,4.21,1,11.39,11.39,0,0,0,5-.92,10.48,10.48,0,0,0,5-4.33c.65-1.06,1.22-2.24,1.84-3.47a16.63,16.63,0,0,1,2.35-3.63,8.26,8.26,0,0,1,1.81-1.44,18.64,18.64,0,0,1,2.14-1,6.94,6.94,0,0,0,2-1.16,5.27,5.27,0,0,0,1.32-1.94,40.19,40.19,0,0,0,1.23-4.92,13,13,0,0,1,2.47-4.78,24,24,0,0,0,3-4.56,6,6,0,0,0,.49-2.65,7.75,7.75,0,0,0-.75-2.66c-.78-1.71-1.94-3.31-2.3-5.24a6,6,0,0,1,.17-2.86,11.4,11.4,0,0,1,1.18-2.52,30.85,30.85,0,0,0,2.61-4.59,5.87,5.87,0,0,0,.39-2.44,6.85,6.85,0,0,0-.64-2.34c-.68-1.49-1.64-2.81-2.37-4.23a6.29,6.29,0,0,1-.75-4.56c.42-1.48,1.31-2.65,1.69-3.94a4.11,4.11,0,0,0-.61-3.61c-.66-1-1.49-1.92-2.17-2.84a6.19,6.19,0,0,1-1.33-3,10,10,0,0,1,.24-2.8,7.87,7.87,0,0,0,.21-2.29,3.29,3.29,0,0,0-1.61-2.59A2,2,0,0,0,405.2,300.14Z" style="fill:#455a64"></path><path d="M245.29,347.74a6.44,6.44,0,0,1-1.24,0,8.6,8.6,0,0,1-3.39-1.17,8.38,8.38,0,0,1-3.63-4.36,8.78,8.78,0,0,1,.73-7.46,21.75,21.75,0,0,1,2.88-3.43,10.53,10.53,0,0,0,2.64-3.93,6.86,6.86,0,0,0-.61-4.94c-.72-1.63-1.75-3.19-2.46-5a15.34,15.34,0,0,1,10.08-20.34l-.12.37a7.63,7.63,0,0,1-1.6-3.31,9.75,9.75,0,0,1,0-3.73,11,11,0,0,1,1.31-3.54,12.57,12.57,0,0,1,2.45-2.94,24.2,24.2,0,0,1,10-4.91,36.88,36.88,0,0,1,10.46-1.24l-.23.24A11.11,11.11,0,0,1,278,268a11.31,11.31,0,0,1,5.41-1.46,18,18,0,0,1,5.22,1,10.38,10.38,0,0,0,2.44.37,6.29,6.29,0,0,0,2.33-.42,19.27,19.27,0,0,0,4-2.31,16.45,16.45,0,0,1,3.81-2.1,13.27,13.27,0,0,1,3.91-.82,13.14,13.14,0,0,1,6.61,1.28,13.69,13.69,0,0,1,4,3,13.34,13.34,0,0,1,1.84,2.57,7.37,7.37,0,0,1,.46,1s-.17-.33-.53-.94a13.61,13.61,0,0,0-5.91-5.42,13.39,13.39,0,0,0-10.31-.36,16.44,16.44,0,0,0-3.72,2.08,19.54,19.54,0,0,1-4,2.38,6.55,6.55,0,0,1-2.46.45,10.9,10.9,0,0,1-2.54-.37,18,18,0,0,0-5.12-.94,11,11,0,0,0-5.19,1.42,10.67,10.67,0,0,0-5.31,9.67v.25h-.25a36.19,36.19,0,0,0-10.32,1.23,23.78,23.78,0,0,0-9.76,4.81,12.26,12.26,0,0,0-2.36,2.83A10.35,10.35,0,0,0,249,290.5a9.16,9.16,0,0,0,0,3.54,7.22,7.22,0,0,0,1.5,3.11l.23.28-.35.1a14.93,14.93,0,0,0-9.82,19.74c.68,1.76,1.7,3.33,2.44,5a7.32,7.32,0,0,1,.6,5.21,10.78,10.78,0,0,1-2.75,4,21.89,21.89,0,0,0-2.86,3.37,8.55,8.55,0,0,0-.77,7.22,8.28,8.28,0,0,0,3.49,4.3,8.84,8.84,0,0,0,3.32,1.22C244.87,347.73,245.29,347.71,245.29,347.74Z" style="fill:#263238"></path><path d="M409.91,289a1.48,1.48,0,0,1-.07-.3q-.06-.33-.15-.87c-.13-.79-.32-1.91-.56-3.34s-.6-3.22-1.14-5.24a30.37,30.37,0,0,0-2.56-6.58,20.16,20.16,0,0,0-5.48-6.47,14.86,14.86,0,0,0-4.19-2.17,44.54,44.54,0,0,0-4.95-1,14.06,14.06,0,0,1-5.08-1.82,22.08,22.08,0,0,1-4.27-3.66c-1.32-1.37-2.59-2.83-4-4.12a16,16,0,0,0-4.94-3.11A28.29,28.29,0,0,0,361,248.72,72.09,72.09,0,0,0,350.22,250a55.58,55.58,0,0,0-17.28,6.22,39.58,39.58,0,0,0-9.67,7.75c-.48.55-.93,1-1.28,1.47s-.62.82-.86,1.14-.41.52-.54.7-.2.23-.2.23,0-.09.16-.26l.5-.72.83-1.18c.34-.45.78-.94,1.25-1.51a38.78,38.78,0,0,1,9.64-7.91,55.13,55.13,0,0,1,17.36-6.36A73,73,0,0,1,361,248.26a28.53,28.53,0,0,1,11.65,1.59,16.28,16.28,0,0,1,5.07,3.2c1.48,1.32,2.75,2.79,4.05,4.15a22.36,22.36,0,0,0,4.17,3.6,14,14,0,0,0,4.93,1.77,44.29,44.29,0,0,1,5,1.07,15.13,15.13,0,0,1,4.29,2.26,20.19,20.19,0,0,1,5.54,6.62,30.24,30.24,0,0,1,2.52,6.67c.53,2,.84,3.82,1.07,5.27s.38,2.6.48,3.37c0,.36.07.65.1.88S409.91,289,409.91,289Z" style="fill:#263238"></path><path d="M415.37,478.06l-2-50.45s-3.74-10.47-5-10.47l-39.24-13.4s-13.41,14.77-29.23,13.11-28.67-14.6-28.67-14.6l-43.68,10.43h0c-3.16.64-8.94,2.64-14.46,10.52-6.15,8.8-38.57,54.6-38.57,54.6" style="fill:#455a64"></path><path d="M407.57,416.85s16,5.1,22.16,14.36,25.26,47,25.26,47H413.18l-14.25-47.84Z" style="fill:#455a64"></path><path d="M414.5,477.9a11.41,11.41,0,0,1,0-1.67,30.5,30.5,0,0,0-.54-4.51,77,77,0,0,0-4.55-14.3c-2.2-5.45-4.53-10.24-6.21-13.71-.82-1.68-1.51-3.06-2-4.1l-.53-1.12a1.66,1.66,0,0,1-.16-.41,1.44,1.44,0,0,1,.24.37l.62,1.08c.53.94,1.27,2.31,2.15,4,1.76,3.43,4.14,8.21,6.36,13.68a70.19,70.19,0,0,1,4.43,14.42,25.87,25.87,0,0,1,.4,4.57c0,.54-.08,1-.1,1.24A1.78,1.78,0,0,1,414.5,477.9Z" style="fill:#263238"></path><path d="M213.53,427.24c-.9-.72,3-15,3-15s-10.35-16-10.62-21.21S210,375.24,210,375.24L239.7,368s9.55,16.81,11.45,22.76-3.27,26.13-3.27,26.13l-5,10.35S227.68,438.62,213.53,427.24Z" style="fill:#876760"></path><path d="M206,394.11a59.4,59.4,0,0,1-3.13-6.26c-1.88-4.23-4.19-8.38,0-10.75a5.75,5.75,0,0,1,4.48-.67s-.64-3.56,1.6-4.9a5.06,5.06,0,0,1,4.4-.37s-.7-5,2.52-7.15a8.19,8.19,0,0,1,8.23-.23s-2.56-22-2.78-23.17c-.81-4.28.86-8.06,5.34-7,1.64.39,2.56,2,4.48,9.2s5,19.4,5,19.4,5.21,8.6,7.68,13.27,7.33,15.29,7.74,18.11c1.05,7.28-3.44,16.91-3.44,16.91l-31.58,1.74S207.18,396.2,206,394.11Z" style="fill:#876760"></path><path d="M207.94,377.38a23.88,23.88,0,0,1,2.45,3.24l2.49,3.6a14.09,14.09,0,0,1,1.36,2.26,4.38,4.38,0,0,1,.37,2.85,2.9,2.9,0,0,1-2,2.22,4.08,4.08,0,0,1-2.83-.33,12.1,12.1,0,0,1-2.11-1.24c-.62-.42-1.19-.82-1.7-1.21-1-.76-1.82-1.41-2.36-1.87a4.06,4.06,0,0,1-.78-.78c.07-.07,1.32.88,3.42,2.3a28.76,28.76,0,0,0,3.78,2.27,3.58,3.58,0,0,0,2.38.28A2.32,2.32,0,0,0,214,389.2a3.8,3.8,0,0,0-.33-2.48,14.73,14.73,0,0,0-1.27-2.19L210,380.85A25.63,25.63,0,0,1,207.94,377.38Z" style="fill:#664d49"></path><path d="M233.84,380c-.17,0-.33-2.15.33-4.71s1.82-4.41,2-4.33-.71,2-1.33,4.48S234,380,233.84,380Z" style="fill:#664d49"></path><path d="M246.35,386.42a21.29,21.29,0,0,0-10.56-5.23,41.8,41.8,0,0,0-12-.44c-3.21.28-6.88,1.07-8.34,3.8s.31,6.42,3.16,8,6.37,1.68,9.67,1.39,6.64-.87,9.92-.38" style="fill:#876760"></path><path d="M238.17,393.6s-.89-.08-2.49-.06-3.9.28-6.76.61a31.17,31.17,0,0,1-4.74.19,13.57,13.57,0,0,1-5.32-1.27,7.85,7.85,0,0,1-4-4.36,5.59,5.59,0,0,1-.23-3.12,5.31,5.31,0,0,1,1.74-2.78,11.71,11.71,0,0,1,6.07-2.23,54.82,54.82,0,0,1,6-.35,31.92,31.92,0,0,1,10,1.45,20.4,20.4,0,0,1,6,3.08,12.75,12.75,0,0,1,1.38,1.19,2.62,2.62,0,0,1,.42.47c0,.05-.66-.57-1.95-1.46a21.57,21.57,0,0,0-6-2.86,32.51,32.51,0,0,0-9.89-1.29,58.48,58.48,0,0,0-5.91.38,11.11,11.11,0,0,0-5.71,2.09,4.64,4.64,0,0,0-1.54,2.44,5.09,5.09,0,0,0,.19,2.79,7.37,7.37,0,0,0,3.62,4.05,13.19,13.19,0,0,0,5.07,1.26,30.68,30.68,0,0,0,4.66-.12,57.39,57.39,0,0,1,6.81-.41,17.92,17.92,0,0,1,1.86.16A2.55,2.55,0,0,1,238.17,393.6Z" style="fill:#664d49"></path><path d="M208.17,377.72a173,173,0,0,1,9.06,15.14,9.41,9.41,0,0,0,3.17,3.91c1.2.7,4.17-.57,5.5-1l-9.12-19.71" style="fill:#876760"></path><path d="M216.78,376.06a9.83,9.83,0,0,1,.81,1.47l2,4.13c1.69,3.51,4,8.42,6.59,14l.14.31-.34.11a32.13,32.13,0,0,1-3.18,1,7.06,7.06,0,0,1-1.39.2,2.82,2.82,0,0,1-.75-.08,1.92,1.92,0,0,1-.69-.32,6.92,6.92,0,0,1-1.84-1.86c-.93-1.4-1.59-2.8-2.34-4.11-1.43-2.62-2.74-5-3.88-6.91s-2.1-3.52-2.76-4.59a12.54,12.54,0,0,1-1-1.7,10.44,10.44,0,0,1,1.22,1.57c.73,1,1.75,2.57,3,4.5s2.55,4.26,4,6.86c.76,1.29,1.45,2.72,2.35,4a6.14,6.14,0,0,0,1.67,1.7,2.88,2.88,0,0,0,2.29.1c1.08-.26,2.11-.66,3.13-1l-.19.42c-2.57-5.57-4.81-10.51-6.4-14.06l-1.83-4.21A8.21,8.21,0,0,1,216.78,376.06Z" style="fill:#664d49"></path><path d="M214.32,370.21l8.79,20.94a14.28,14.28,0,0,0,2.37,4.2,5.21,5.21,0,0,0,4.43,1.83c2.29-.32,3.79-2.63,3.9-4.83s-.8-4.3-1.64-6.35a127.13,127.13,0,0,1-6.31-19.6" style="fill:#876760"></path><path d="M225.86,366.4a2.83,2.83,0,0,1,.22.64l.52,1.85c.46,1.61,1.12,3.93,2.05,6.77s2.13,6.18,3.64,9.84a19.78,19.78,0,0,1,1.84,6,6.18,6.18,0,0,1-.66,3.32,5,5,0,0,1-2.65,2.46,4.63,4.63,0,0,1-3.69-.28,6.89,6.89,0,0,1-2.6-2.32,37,37,0,0,1-2.66-5.69l-4-9.74c-1.1-2.72-2-4.95-2.65-6.58l-.69-1.81a2.69,2.69,0,0,1-.2-.64,2.75,2.75,0,0,1,.32.6l.81,1.76,2.84,6.51,4.15,9.68a36.59,36.59,0,0,0,2.64,5.57,6.12,6.12,0,0,0,2.35,2.1,4,4,0,0,0,3.15.26,4.43,4.43,0,0,0,2.3-2.15,5.59,5.59,0,0,0,.6-3,19.2,19.2,0,0,0-1.76-5.81c-1.49-3.68-2.65-7.06-3.52-9.93s-1.47-5.21-1.85-6.83c-.18-.82-.32-1.45-.4-1.88A2.79,2.79,0,0,1,225.86,366.4Z" style="fill:#664d49"></path><path d="M215,419.31s-20.15,56.36-20.94,59.12h39.6l14.52-62.9Z" style="fill:#876760"></path><path d="M234.64,410.55a4,4,0,0,1-1.9-.24,10.63,10.63,0,0,1-4-2.19,10,10,0,0,1-2.65-3.6,3.49,3.49,0,0,1-.41-1.77c.19-.07.89,2.68,3.5,4.91S234.7,410.36,234.64,410.55Z" style="fill:#664d49"></path><path d="M279.56,453c.13.07-2.74,5.7-6.41,12.57s-6.73,12.39-6.86,12.32,2.74-5.69,6.41-12.57S279.43,453,279.56,453Z" style="fill:#263238"></path></g><g id="freepik--Table--inject-16"><path d="M465.07,478.06c0,.15-96.3.26-215.06.26s-215.08-.11-215.08-.26,96.28-.26,215.08-.26S465.07,477.92,465.07,478.06Z" style="fill:#263238"></path></g><g id="freepik--light-bulb--inject-16"><path d="M257,163.11a70,70,0,1,0-108.34,47.17c-1.28,8.19-2.72,17.44-2.72,17.44l60.59,9.45s1.89-9.73,3.39-18.45A70,70,0,0,0,257,163.11Z" style="fill:#0CA6E9"></path><path d="M197.42,235.74s0-.3,0-.87.06-1.45.11-2.56c.1-2.25.29-5.57.59-9.84.61-8.53,1.69-20.88,3.91-36q.81-5.69,1.87-11.87.54-3.08,1.11-6.29a21.82,21.82,0,0,1,1.83-6.41,7.38,7.38,0,0,1,2.26-2.62,4.54,4.54,0,0,1,3.43-.85,4.21,4.21,0,0,1,2.79,2.25,6.58,6.58,0,0,1,.74,3.57,8.14,8.14,0,0,1-4,6,12.24,12.24,0,0,1-7.29,1.81,13.28,13.28,0,0,1-7.22-2.67A14,14,0,0,1,193,163a16.76,16.76,0,0,1-.88-8,12.19,12.19,0,0,1,1.17-4,5.8,5.8,0,0,1,3-3,3.77,3.77,0,0,1,2.18-.1,4.74,4.74,0,0,1,1.91,1,6.75,6.75,0,0,1,2.11,3.71,14.52,14.52,0,0,1,.21,4.26,40.7,40.7,0,0,1-.57,4.24,28.79,28.79,0,0,1-2.71,8.19,15.86,15.86,0,0,1-5.85,6.47,12.78,12.78,0,0,1-4.13,1.61,9.81,9.81,0,0,1-4.41-.16,9.24,9.24,0,0,1-3.78-2.23,12,12,0,0,1-2.47-3.57,26.37,26.37,0,0,1-2.05-8.26c-.16-1.4-.25-2.79-.3-4.18a25.52,25.52,0,0,1,.07-4.19,6.92,6.92,0,0,1,1.65-3.85,4.52,4.52,0,0,1,1.77-1.21,3,3,0,0,1,2.15,0,3.67,3.67,0,0,1,1.64,1.37,7.16,7.16,0,0,1,.88,1.88,13.73,13.73,0,0,1,.58,4c.12,5.31-1.17,10.69-4.31,14.79a15,15,0,0,1-5.94,4.61,11.2,11.2,0,0,1-7.27.65,9.74,9.74,0,0,1-5.63-4.28,11,11,0,0,1-1.8-6.64,9.2,9.2,0,0,1,.81-3.31,5.07,5.07,0,0,1,2.28-2.47,2.6,2.6,0,0,1,3.14.75,6.14,6.14,0,0,1,1.15,3,25.17,25.17,0,0,1-.24,6.16q-.31,3-.61,5.84c-1.6,15.21-3.13,27.5-4.33,36-.6,4.24-1.13,7.52-1.5,9.74-.19,1.1-.34,1.94-.44,2.53s-.17.85-.17.85,0-.29.11-.86.23-1.43.4-2.53c.34-2.23.83-5.51,1.4-9.75,1.15-8.48,2.62-20.77,4.18-36q.28-2.85.59-5.84a25,25,0,0,0,.22-6.06,5.68,5.68,0,0,0-1.07-2.82,2.2,2.2,0,0,0-2.67-.64,4.71,4.71,0,0,0-2.07,2.28,8.67,8.67,0,0,0-.76,3.15,10.62,10.62,0,0,0,1.74,6.38,9.23,9.23,0,0,0,5.38,4.09,10.8,10.8,0,0,0,7-.64,14.41,14.41,0,0,0,5.75-4.48c3-4,4.32-9.26,4.19-14.48a13.22,13.22,0,0,0-.55-3.87,4.41,4.41,0,0,0-2.24-2.94,3,3,0,0,0-3.37,1,6.36,6.36,0,0,0-1.52,3.59,23.3,23.3,0,0,0-.07,4.1c0,1.38.14,2.77.29,4.15a25.72,25.72,0,0,0,2,8.09,11.12,11.12,0,0,0,2.36,3.43,8.7,8.7,0,0,0,3.57,2.1,10.45,10.45,0,0,0,8.14-1.39,15.45,15.45,0,0,0,5.66-6.28,28.39,28.39,0,0,0,2.67-8c.46-2.77.93-5.62.36-8.3a6.22,6.22,0,0,0-1.94-3.44,3.57,3.57,0,0,0-3.6-.84,5.29,5.29,0,0,0-2.7,2.71,11.79,11.79,0,0,0-1.12,3.81,16.27,16.27,0,0,0,.85,7.78,13.45,13.45,0,0,0,4.44,6.18,12.79,12.79,0,0,0,7,2.59,12,12,0,0,0,7-1.73,7.75,7.75,0,0,0,3.79-5.69,6.22,6.22,0,0,0-.68-3.32,3.83,3.83,0,0,0-2.49-2,4.09,4.09,0,0,0-3.1.78,6.88,6.88,0,0,0-2.14,2.47,21.39,21.39,0,0,0-1.8,6.28c-.39,2.14-.76,4.23-1.13,6.29-.71,4.11-1.34,8.07-1.9,11.85-2.26,15.12-3.39,27.46-4.07,36-.33,4.27-.54,7.58-.68,9.83-.07,1.12-.12,2-.16,2.56S197.42,235.74,197.42,235.74Z" style="fill:#fff"></path><g id="freepik--2ggvdetif--inject-16"><path d="M153.31,283.06a21.23,21.23,0,0,1,3.79,4.58,4.57,4.57,0,0,0,3.3,2.26l13.54,2.1a4.62,4.62,0,0,0,4.1-1.42c1.22-1.32,3.27-2.78,5.19-2.88Z" style="fill:#263238"></path></g><path d="M144.51,243.1c0,.27-.19,21.9-.24,30.17a10.09,10.09,0,0,0,4.41,8.53,9.23,9.23,0,0,0,3.72,1.44L182,287.83s7.73,1.2,10.44-4.66c2.85-6.18,10.28-31,10.28-31Z" style="fill:#e0e0e0"></path><path d="M169.13,247.59h.16a1.49,1.49,0,0,1,1.49,1.49v52.19a1.48,1.48,0,0,1-1.48,1.48h-.16a1.48,1.48,0,0,1-1.48-1.48V249.07a1.49,1.49,0,0,1,1.49-1.49Z" transform="translate(-128.21 401.24) rotate(-81.38)" style="fill:#e0e0e0"></path><path d="M194.77,280.63a1.74,1.74,0,0,0,1.07-.31,1.51,1.51,0,0,0,.58-1.18,1.42,1.42,0,0,0-.88-1.43c-2.8-.47-7-1-12.07-1.78l-39.87-6a1.24,1.24,0,0,0-1.1.4,1.29,1.29,0,0,0-.28.53,2,2,0,0,0-.05.63,1.25,1.25,0,0,0,.69.93,7.59,7.59,0,0,0,1.34.26l5.6.85,10.58,1.62L178.29,278l12.07,1.91,3.28.54.85.16.28.07-.29,0-.86-.11-3.29-.45-12.09-1.75-17.93-2.66-10.59-1.59-5.6-.84-.71-.11a2.7,2.7,0,0,1-.77-.19,1.77,1.77,0,0,1-1-1.32,2.21,2.21,0,0,1,.06-.82,1.73,1.73,0,0,1,2-1.31l39.85,6.11c5.1.82,9.21,1.41,12.08,2a1.58,1.58,0,0,1,1,1.63,1.62,1.62,0,0,1-.67,1.24A1.35,1.35,0,0,1,194.77,280.63Z" style="fill:#263238"></path><path d="M170.16,239.82h.16a1.48,1.48,0,0,1,1.48,1.48v54.4a1.49,1.49,0,0,1-1.49,1.49h-.16a1.48,1.48,0,0,1-1.48-1.48v-54.4A1.49,1.49,0,0,1,170.16,239.82Z" transform="translate(-120.75 396.6) rotate(-81.38)" style="fill:#e0e0e0"></path><path d="M196.9,274.14a1.68,1.68,0,0,0,1.1-.34,1.54,1.54,0,0,0,.55-1.24,1.4,1.4,0,0,0-1-1.39L185,269.34l-41.42-6.2a1.22,1.22,0,0,0-1.13.43,1.2,1.2,0,0,0-.26.56,1.49,1.49,0,0,0,0,.66,1.24,1.24,0,0,0,.8.89c.4.1,1,.16,1.43.24l5.82.88,11,1.68,18.61,2.88,12.53,2,3.41.56.88.16a1.1,1.1,0,0,1,.3.08,2.33,2.33,0,0,1-.31,0l-.89-.1-3.42-.47-12.56-1.83L161.1,269l-11-1.66-5.81-.87c-.51-.09-.95-.12-1.52-.26a1.73,1.73,0,0,1-1.13-1.26,2.07,2.07,0,0,1,0-.86,1.65,1.65,0,0,1,.37-.79,1.72,1.72,0,0,1,1.6-.61L185,269c5.3.83,9.57,1.49,12.55,2a1.57,1.57,0,0,1,1.14,1.58,1.67,1.67,0,0,1-.64,1.32A1.33,1.33,0,0,1,196.9,274.14Z" style="fill:#263238"></path><path d="M171.19,232.46h.16a1.49,1.49,0,0,1,1.49,1.49v55.81a1.48,1.48,0,0,1-1.48,1.48h-.16a1.48,1.48,0,0,1-1.48-1.48V233.95A1.48,1.48,0,0,1,171.19,232.46Z" transform="translate(-113.29 391.96) rotate(-81.38)" style="fill:#e0e0e0"></path><path d="M198.63,267.58a1.64,1.64,0,0,0,1.12-.35,1.58,1.58,0,0,0,.53-1.28,1.4,1.4,0,0,0-1.14-1.36l-12.86-1.86-42.4-6.36a1.24,1.24,0,0,0-1.15.46,1.26,1.26,0,0,0-.26.59,1.46,1.46,0,0,0,0,.66,1.22,1.22,0,0,0,.87.86c.45.09,1,.16,1.49.24l5.95.9,11.26,1.72,19,2.94,12.83,2,3.49.58.9.16.31.07-.31,0-.92-.11-3.5-.48L181,265.1,162,262.26l-11.26-1.69-5.95-.89c-.52-.09-1-.14-1.55-.25a1.73,1.73,0,0,1-1.22-1.21,2,2,0,0,1,0-.88,1.78,1.78,0,0,1,.36-.82,1.75,1.75,0,0,1,1.63-.65l42.38,6.5,12.84,2a1.56,1.56,0,0,1,1.25,1.54,1.7,1.7,0,0,1-.61,1.37A1.34,1.34,0,0,1,198.63,267.58Z" style="fill:#263238"></path><path d="M172.22,224.67h.16a1.48,1.48,0,0,1,1.48,1.48v58.08a1.48,1.48,0,0,1-1.48,1.48h-.16a1.49,1.49,0,0,1-1.49-1.49V226.16a1.48,1.48,0,0,1,1.48-1.48Z" transform="translate(-105.82 387.32) rotate(-81.38)" style="fill:#e0e0e0"></path><path d="M200.78,261.09a1.52,1.52,0,0,0,1.65-1.73,1.4,1.4,0,0,0-1.31-1.28l-13.34-1.94-44-6.59a1.23,1.23,0,0,0-1.18.49,1.56,1.56,0,0,0-.19,1.31,1.29,1.29,0,0,0,1,.8l1.57.23,6.18.94,11.67,1.79,19.76,3.05,13.32,2.1,3.62.59.93.17.32.07a1,1,0,0,1-.32,0l-1-.12-3.63-.5-13.34-1.94-19.78-2.94-11.67-1.76-6.18-.93-1.58-.24a1.75,1.75,0,0,1-1.38-1.12,1.81,1.81,0,0,1-.08-.92,1.9,1.9,0,0,1,.33-.86,1.77,1.77,0,0,1,1.67-.69l44,6.73,13.32,2.1a1.58,1.58,0,0,1,1.43,1.47,1.73,1.73,0,0,1-.57,1.44,1.43,1.43,0,0,1-.9.34A.78.78,0,0,1,200.78,261.09Z" style="fill:#263238"></path><path d="M140.14,216.51c-.09.55-.88,13.68-1.28,20.43a8.09,8.09,0,0,0,2.7,6.53l2.72,2.42,57.24,8.88,3.28-1.46a8.14,8.14,0,0,0,4.57-5.49L214.18,228Z" style="fill:#0CA6E9"></path><g style="opacity:0.30000000000000004"><path d="M145.11,273c5.32,2.11,10.8,3.06,16.85,4,4.89.73,9.66,1.61,15,2.32,3.9.53,7.5.88,11.4,1.32,2,.22,4.2.05,4.66-.28Z"></path></g><g style="opacity:0.30000000000000004"><path d="M144.1,266c5.75,2.17,11.66,3.2,18.19,4.18,5.27.8,10.42,1.73,16.15,2.51,4.2.57,8.09,1,12.3,1.45,2.12.25,4.52.11,5-.22Z"></path></g><g style="opacity:0.30000000000000004"><path d="M145.13,259.36c5.75,2.17,11.66,3.2,18.19,4.18,5.27.8,10.41,1.73,16.15,2.51,4.2.57,8.09,1,12.29,1.45,2.13.25,4.52.11,5-.22Z"></path></g><g style="opacity:0.30000000000000004"><path d="M146.15,252.75c5.75,2.17,11.66,3.2,18.19,4.18,5.27.8,10.42,1.73,16.15,2.51,4.21.57,8.09,1,12.3,1.45,2.12.25,4.52.11,5-.22Z"></path></g><path d="M155.93,209.12a6.06,6.06,0,0,1-.77-.4c-.48-.28-1.23-.66-2.13-1.24a61.1,61.1,0,0,1-7.36-5.33,64.15,64.15,0,0,1-9.38-9.68,64.18,64.18,0,0,1-13.14-30A65.45,65.45,0,0,1,122.4,149a61.25,61.25,0,0,1,1.07-9c.18-1,.41-1.86.54-2.41a7.49,7.49,0,0,1,.22-.83,4,4,0,0,1-.13.85c-.08.56-.28,1.37-.44,2.43a68.81,68.81,0,0,0-.9,9,66.7,66.7,0,0,0,5.49,29.08,67,67,0,0,0,17.65,23.75,69.15,69.15,0,0,0,7.23,5.44c.89.6,1.61,1,2.08,1.32A4.91,4.91,0,0,1,155.93,209.12Z" style="fill:#263238"></path><path d="M129.22,124.05a13.09,13.09,0,0,1-1.16,3.43,13.18,13.18,0,0,1-1.63,3.25,13,13,0,0,1,1.16-3.44A13.84,13.84,0,0,1,129.22,124.05Z" style="fill:#263238"></path><path d="M246.81,178a3.42,3.42,0,0,1,.22-.71c.18-.51.43-1.17.73-2l.55-1.44c.18-.53.33-1.12.52-1.75.36-1.26.86-2.67,1.17-4.29.17-.81.36-1.65.56-2.53s.28-1.81.44-2.77c.34-1.91.45-4,.63-6.15a67.54,67.54,0,0,0-4.43-27.8c-.85-2-1.59-3.94-2.52-5.65-.44-.86-.82-1.72-1.27-2.49l-1.32-2.23c-.8-1.45-1.71-2.63-2.44-3.72-.38-.54-.71-1-1.05-1.5l-1-1.2c-.55-.69-1-1.25-1.32-1.67a4.93,4.93,0,0,1-.43-.6,3.39,3.39,0,0,1,.51.53l1.4,1.62c.3.35.63.75,1,1.17s.69,1,1.08,1.48a43.6,43.6,0,0,1,2.51,3.7c.44.71.89,1.45,1.36,2.23s.85,1.63,1.31,2.49c.94,1.71,1.71,3.66,2.57,5.68a66,66,0,0,1,4.46,28,62,62,0,0,1-.68,6.19c-.17,1-.27,1.9-.47,2.79l-.6,2.53a41.58,41.58,0,0,1-1.24,4.3c-.2.62-.37,1.21-.57,1.74l-.58,1.43c-.34.82-.62,1.47-.83,2A6.52,6.52,0,0,1,246.81,178Z" style="fill:#263238"></path><g style="opacity:0.2"><path d="M192.88,102.25c-.75-3.09-3.63-5.71-7.27-7.44A22,22,0,0,0,169,94.09c-16,5.52-25.9,13.65-33.69,29.59-2.64,5.39-5,14.63-3.05,20.62a11.35,11.35,0,0,0,5.86,7c7.45,3.48,14.83-3.14,18.38-10,3.3-6.4,5.3-13.9,10.92-18.42,4.63-3.71,10.83-4.65,16.25-7.06S194.27,108,192.88,102.25Z" style="fill:#fff"></path></g><g style="opacity:0.2"><path d="M221,103.87c-1.86-4.82-8-7.65-12-6.54a11.41,11.41,0,0,0-7.3,6.77,10.44,10.44,0,0,0,2.92,11.3,9.88,9.88,0,0,0,11.56.68C219.66,113.75,222.51,107.74,221,103.87Z" style="fill:#fff"></path></g><path d="M140.14,216.51c-.09.55-.88,13.68-1.28,20.43a8.09,8.09,0,0,0,2.7,6.53l2.72,2.42,57.24,8.88,3.28-1.46a8.14,8.14,0,0,0,4.57-5.49L214.18,228Z" style="opacity:0.30000000000000004"></path><path d="M214.62,228.06c0,.14-16.64-2.32-37.11-5.5s-37.06-5.86-37-6,16.64,2.32,37.12,5.5S214.64,227.92,214.62,228.06Z" style="fill:#263238"></path><path d="M207.54,250.36c0,.14-15.35-2.13-34.23-5.06s-34.18-5.41-34.16-5.55,15.34,2.12,34.23,5.05S207.56,250.22,207.54,250.36Z" style="fill:#263238"></path></g></svg>