<svg id="Layer_1" data-name="Layer 1" xmlns="http://www.w3.org/2000/svg" xmlns:xlink="http://www.w3.org/1999/xlink" viewBox="0 0 841.9 595.3"><defs><style>.cls-1{fill:#0F1729;}.cls-107,.cls-108,.cls-2,.cls-3{stroke-miterlimit:10;stroke-width:2px;}.cls-2{fill:url(#linear-gradient);stroke:url(#linear-gradient-2);}.cls-3{fill:url(#linear-gradient-3);stroke:url(#linear-gradient-4);}.cls-10,.cls-100,.cls-101,.cls-102,.cls-103,.cls-104,.cls-105,.cls-11,.cls-12,.cls-13,.cls-14,.cls-15,.cls-16,.cls-17,.cls-18,.cls-19,.cls-20,.cls-21,.cls-22,.cls-23,.cls-24,.cls-25,.cls-26,.cls-27,.cls-28,.cls-29,.cls-30,.cls-31,.cls-32,.cls-33,.cls-34,.cls-35,.cls-36,.cls-37,.cls-38,.cls-39,.cls-4,.cls-40,.cls-41,.cls-42,.cls-43,.cls-44,.cls-45,.cls-46,.cls-47,.cls-48,.cls-49,.cls-5,.cls-50,.cls-51,.cls-52,.cls-53,.cls-54,.cls-55,.cls-56,.cls-57,.cls-58,.cls-59,.cls-6,.cls-60,.cls-61,.cls-62,.cls-63,.cls-64,.cls-65,.cls-66,.cls-67,.cls-68,.cls-69,.cls-7,.cls-70,.cls-71,.cls-72,.cls-73,.cls-74,.cls-75,.cls-76,.cls-77,.cls-78,.cls-79,.cls-8,.cls-80,.cls-81,.cls-82,.cls-83,.cls-84,.cls-85,.cls-86,.cls-87,.cls-88,.cls-89,.cls-9,.cls-90,.cls-91,.cls-92,.cls-93,.cls-94,.cls-95,.cls-96,.cls-97,.cls-98,.cls-99{fill:#f4c152;}.cls-5{opacity:0.99;}.cls-10,.cls-100,.cls-101,.cls-102,.cls-103,.cls-104,.cls-105,.cls-11,.cls-12,.cls-13,.cls-14,.cls-15,.cls-16,.cls-17,.cls-18,.cls-19,.cls-20,.cls-21,.cls-22,.cls-23,.cls-24,.cls-25,.cls-26,.cls-27,.cls-28,.cls-29,.cls-30,.cls-31,.cls-32,.cls-33,.cls-34,.cls-35,.cls-36,.cls-37,.cls-38,.cls-39,.cls-40,.cls-41,.cls-42,.cls-43,.cls-44,.cls-45,.cls-46,.cls-47,.cls-48,.cls-49,.cls-5,.cls-50,.cls-51,.cls-52,.cls-53,.cls-54,.cls-55,.cls-56,.cls-57,.cls-58,.cls-59,.cls-6,.cls-60,.cls-61,.cls-62,.cls-63,.cls-64,.cls-65,.cls-66,.cls-67,.cls-68,.cls-69,.cls-7,.cls-70,.cls-71,.cls-72,.cls-73,.cls-74,.cls-75,.cls-76,.cls-77,.cls-78,.cls-79,.cls-8,.cls-80,.cls-81,.cls-82,.cls-83,.cls-84,.cls-85,.cls-86,.cls-87,.cls-88,.cls-89,.cls-9,.cls-90,.cls-91,.cls-92,.cls-93,.cls-94,.cls-95,.cls-96,.cls-97,.cls-98,.cls-99{isolation:isolate;}.cls-6{opacity:0.98;}.cls-7{opacity:0.97;}.cls-8{opacity:0.96;}.cls-9{opacity:0.95;}.cls-10{opacity:0.94;}.cls-11{opacity:0.93;}.cls-12{opacity:0.92;}.cls-13{opacity:0.91;}.cls-14{opacity:0.9;}.cls-15{opacity:0.89;}.cls-16{opacity:0.88;}.cls-17{opacity:0.87;}.cls-18{opacity:0.86;}.cls-19{opacity:0.85;}.cls-20{opacity:0.84;}.cls-21{opacity:0.83;}.cls-22{opacity:0.82;}.cls-23{opacity:0.81;}.cls-24{opacity:0.8;}.cls-25{opacity:0.79;}.cls-26{opacity:0.78;}.cls-27{opacity:0.77;}.cls-28{opacity:0.76;}.cls-29{opacity:0.75;}.cls-30{opacity:0.75;}.cls-31{opacity:0.74;}.cls-32{opacity:0.73;}.cls-33{opacity:0.72;}.cls-34{opacity:0.71;}.cls-35{opacity:0.7;}.cls-36{opacity:0.69;}.cls-37{opacity:0.68;}.cls-38{opacity:0.67;}.cls-39{opacity:0.66;}.cls-40{opacity:0.65;}.cls-41{opacity:0.64;}.cls-42{opacity:0.63;}.cls-43{opacity:0.62;}.cls-44{opacity:0.61;}.cls-45{opacity:0.6;}.cls-46{opacity:0.59;}.cls-47{opacity:0.58;}.cls-48{opacity:0.57;}.cls-49{opacity:0.56;}.cls-50{opacity:0.55;}.cls-51{opacity:0.54;}.cls-52{opacity:0.53;}.cls-53{opacity:0.52;}.cls-54{opacity:0.51;}.cls-55{opacity:0.5;}.cls-56{opacity:0.49;}.cls-57{opacity:0.48;}.cls-58{opacity:0.47;}.cls-59{opacity:0.46;}.cls-60{opacity:0.45;}.cls-61{opacity:0.44;}.cls-62{opacity:0.43;}.cls-63{opacity:0.42;}.cls-64{opacity:0.41;}.cls-65{opacity:0.4;}.cls-66{opacity:0.39;}.cls-67{opacity:0.38;}.cls-68{opacity:0.37;}.cls-69{opacity:0.36;}.cls-70{opacity:0.35;}.cls-71{opacity:0.34;}.cls-72{opacity:0.33;}.cls-73{opacity:0.32;}.cls-74{opacity:0.31;}.cls-75{opacity:0.3;}.cls-76{opacity:0.29;}.cls-77{opacity:0.28;}.cls-78{opacity:0.27;}.cls-79{opacity:0.26;}.cls-80{opacity:0.26;}.cls-81{opacity:0.25;}.cls-82{opacity:0.24;}.cls-83{opacity:0.23;}.cls-84{opacity:0.22;}.cls-85{opacity:0.21;}.cls-86{opacity:0.2;}.cls-87{opacity:0.19;}.cls-88{opacity:0.18;}.cls-89{opacity:0.17;}.cls-90{opacity:0.16;}.cls-91{opacity:0.15;}.cls-92{opacity:0.14;}.cls-93{opacity:0.13;}.cls-94{opacity:0.12;}.cls-95{opacity:0.11;}.cls-96{opacity:0.1;}.cls-97{opacity:0.09;}.cls-98{opacity:0.08;}.cls-99{opacity:0.07;}.cls-100{opacity:0.06;}.cls-101{opacity:0.05;}.cls-102{opacity:0.04;}.cls-103{opacity:0.03;}.cls-104{opacity:0.02;}.cls-105{opacity:0.01;}.cls-106{fill:#fafafa;}.cls-107{fill:url(#linear-gradient-5);stroke:url(#linear-gradient-6);}.cls-108{fill:url(#linear-gradient-7);stroke:url(#linear-gradient-8);}</style><linearGradient id="linear-gradient" x1="316.04" y1="469.41" x2="583.04" y2="469.41" gradientTransform="translate(0.02 -246.04)" gradientUnits="userSpaceOnUse"><stop offset="0" stop-color="#00b1ff"/><stop offset="0.01" stop-color="#05b0ff"/><stop offset="0.11" stop-color="#2ba7fd"/><stop offset="0.21" stop-color="#4ba0fc"/><stop offset="0.31" stop-color="#659afb"/><stop offset="0.43" stop-color="#7a95fa"/><stop offset="0.57" stop-color="#8892f9"/><stop offset="0.73" stop-color="#9090f9"/><stop offset="1" stop-color="#938ff9"/></linearGradient><linearGradient id="linear-gradient-2" x1="315.04" y1="469.41" x2="584.04" y2="469.41" xlink:href="#linear-gradient"/><linearGradient id="linear-gradient-3" x1="313.78" y1="567.93" x2="580.88" y2="567.93" xlink:href="#linear-gradient"/><linearGradient id="linear-gradient-4" x1="312.78" y1="567.93" x2="581.88" y2="567.93" xlink:href="#linear-gradient"/><linearGradient id="linear-gradient-5" x1="316.23" y1="493.88" x2="583.23" y2="493.88" gradientTransform="translate(0 -246)" xlink:href="#linear-gradient"/><linearGradient id="linear-gradient-6" x1="315.23" y1="493.88" x2="584.23" y2="493.88" gradientTransform="translate(0 -246)" xlink:href="#linear-gradient"/><linearGradient id="linear-gradient-7" x1="314.78" y1="595.49" x2="581.88" y2="595.49" gradientTransform="translate(0 -246)" xlink:href="#linear-gradient"/><linearGradient id="linear-gradient-8" x1="313.78" y1="595.49" x2="582.88" y2="595.49" gradientTransform="translate(0 -246)" xlink:href="#linear-gradient"/></defs><title>E</title><rect class="cls-1" width="841.9" height="595.3"/><polygon class="cls-2" points="583.06 190.57 583.06 206.77 332.16 206.77 332.16 240.07 539.86 240.07 539.86 256.17 316.06 256.17 316.06 190.57 583.06 190.57"/><polygon class="cls-3" points="537.7 285.88 537.7 302.08 330 302.08 330 341.78 580.9 341.78 580.9 357.88 313.8 357.88 313.8 285.88 537.7 285.88"/><path class="cls-4" d="M279.25,131.41a17.73,17.73,0,0,1,23.28,0l0,0a13.93,13.93,0,0,1,.07,21.11,17.81,17.81,0,0,1-23.38.06,13.93,13.93,0,0,1-.07-21.11Z" transform="translate(0.02 -0.04)"/><path class="cls-5" d="M282.64,134.4a17.66,17.66,0,0,1,23.17-.56,13.82,13.82,0,0,1,.62,20.93,17.31,17.31,0,0,1-12.17,4.62A17.52,17.52,0,0,1,282.64,155a13.81,13.81,0,0,1,0-20.87Z" transform="translate(0.02 -0.04)"/><path class="cls-6" d="M286.17,137.34a17.49,17.49,0,0,1,23,.94,13.65,13.65,0,0,1,0,19.8,17.52,17.52,0,0,1-23,.94,13.7,13.7,0,0,1-1-20.74A13.36,13.36,0,0,1,286.17,137.34Z" transform="translate(0.02 -0.04)"/><path class="cls-7" d="M289.28,140.34a17.27,17.27,0,0,1,22.68-.5,13.52,13.52,0,0,1,.56,20.49l-.56.5a17.28,17.28,0,0,1-22.68.5,13.52,13.52,0,0,1-.56-20.49Z" transform="translate(0.02 -0.04)"/><path class="cls-8" d="M292.53,143.34a17.06,17.06,0,0,1,22.4-.14l.15.14a13.41,13.41,0,0,1,0,20.33,17.16,17.16,0,0,1-22.51,0h0A13.46,13.46,0,0,1,292.53,143.34Z" transform="translate(0.02 -0.04)"/><path class="cls-9" d="M295.85,146.58A16.89,16.89,0,0,1,307,142.46c8.69-.52,16.21,5.42,16.78,13.27s-6,14.63-14.69,15.15a18.22,18.22,0,0,1-2.09,0c-8.7,0-15.75-6.4-15.73-14.27A13.56,13.56,0,0,1,295.85,146.58Z" transform="translate(0.02 -0.04)"/><path class="cls-10" d="M299.17,149.27a16.83,16.83,0,0,1,22.1,0,13.16,13.16,0,0,1,0,20,16.83,16.83,0,0,1-22.1,0,13.15,13.15,0,0,1,0-20Z" transform="translate(0.02 -0.04)"/><path class="cls-11" d="M302.42,152.27a16.27,16.27,0,0,1,10.93-4.12c8.54,0,15.45,6.27,15.49,14s-7,13.93-15.49,13.93-15.39-6.15-15.43-13.81v-.12A13.2,13.2,0,0,1,302.42,152.27Z" transform="translate(0.02 -0.04)"/><path class="cls-12" d="M305.74,155.2a16.47,16.47,0,0,1,21.62,0,12.88,12.88,0,0,1,0,19.52,16.47,16.47,0,0,1-21.62,0,12.88,12.88,0,0,1,0-19.53Z" transform="translate(0.02 -0.04)"/><path class="cls-13" d="M309.06,158.2a16.4,16.4,0,0,1,21.44,0,12.83,12.83,0,0,1,0,19.37,16.35,16.35,0,0,1-21.44,0A12.78,12.78,0,0,1,309.06,158.2Z" transform="translate(0.02 -0.04)"/><path class="cls-14" d="M312.31,161.2a15.75,15.75,0,0,1,10.65-4c8.29,0,15,6.09,15,13.58s-6.72,13.52-15,13.53-15-6.06-15-13.55A12.92,12.92,0,0,1,312.31,161.2Z" transform="translate(0.02 -0.04)"/><path class="cls-15" d="M315.63,164.14a16,16,0,0,1,21,0,12.53,12.53,0,0,1,0,19,16,16,0,0,1-21,0,12.52,12.52,0,0,1,0-19Z" transform="translate(0.02 -0.04)"/><path class="cls-16" d="M319,167.13a15.87,15.87,0,0,1,20.83.08,12.7,12.7,0,0,1,4.28,9.29c0,7.35-6.6,13.31-14.74,13.31s-14.73-6-14.73-13.31A12.53,12.53,0,0,1,319,167.13Z" transform="translate(0.02 -0.04)"/><path class="cls-17" d="M322.2,170.13a15.72,15.72,0,0,1,20.64,0,12.61,12.61,0,0,1,4.26,9.22c.55,7.26-5.51,13.55-13.56,14.05s-15-5-15.56-12.24a13.67,13.67,0,0,1,0-1.81A12.36,12.36,0,0,1,322.2,170.13Z" transform="translate(0.02 -0.04)"/><path class="cls-18" d="M325.52,173.07A15.57,15.57,0,0,1,346,173a12.17,12.17,0,0,1,0,18.46,15.57,15.57,0,0,1-20.44,0l0,0A12.17,12.17,0,0,1,325.52,173.07Z" transform="translate(0.02 -0.04)"/><path class="cls-19" d="M328.84,176.07a15.35,15.35,0,0,1,20.13.86,12,12,0,0,1,0,17.31,15.35,15.35,0,0,1-20.13.87,12,12,0,0,1-1-18.18C328.19,176.63,328.51,176.34,328.84,176.07Z" transform="translate(0.02 -0.04)"/><path class="cls-20" d="M332.09,179a15.24,15.24,0,0,1,20,0,11.91,11.91,0,0,1,0,18.05,15.22,15.22,0,0,1-20,0A11.91,11.91,0,0,1,332.09,179Z" transform="translate(0.02 -0.04)"/><path class="cls-21" d="M335.41,182a14.9,14.9,0,0,1,19.56-.14l.15.14a11.75,11.75,0,0,1,0,17.8,14.9,14.9,0,0,1-19.56.33,12,12,0,0,1-.15-18.13Z" transform="translate(0.02 -0.04)"/><path class="cls-22" d="M338.73,185a14.9,14.9,0,0,1,19.56.05,11.65,11.65,0,0,1-.06,17.67,14.91,14.91,0,0,1-19.56-.05,11.66,11.66,0,0,1,.06-17.67Z" transform="translate(0.02 -0.04)"/><path class="cls-23" d="M341.79,189.15a13.91,13.91,0,0,1,9.18-3.36c7.14-1.12,13.95,3.16,15.2,9.57S362.64,207.87,355.5,209a14.34,14.34,0,0,1-4.53,0c-7.24-.18-13-5.6-12.74-12.1A11.14,11.14,0,0,1,341.79,189.15Z" transform="translate(0.02 -0.04)"/><path class="cls-24" d="M345.3,190.93a14.9,14.9,0,0,1,19.56-.19,11.65,11.65,0,0,1,.22,17.66,14.91,14.91,0,0,1-19.56.2,11.92,11.92,0,0,1-4.16-9A11.59,11.59,0,0,1,345.3,190.93Z" transform="translate(0.02 -0.04)"/><path class="cls-25" d="M348.41,193.93a13.88,13.88,0,0,1,9.41-3.56c7.37,0,13.35,5.4,13.35,12.06s-5.78,12-13.07,12h-.28c-7.37,0-13.35-5.4-13.35-12A11.38,11.38,0,0,1,348.41,193.93Z" transform="translate(0.02 -0.04)"/><path class="cls-26" d="M351.87,196.87a14.39,14.39,0,0,1,18.68,0,11.13,11.13,0,0,1,0,16.86,14.23,14.23,0,0,1-18.68,0A11.13,11.13,0,0,1,351.87,196.87Z" transform="translate(0.02 -0.04)"/><path class="cls-27" d="M355.33,199.86a14.16,14.16,0,0,1,18.58-.08,11.08,11.08,0,0,1,.09,16.79,14.16,14.16,0,0,1-18.58.08,11.3,11.3,0,0,1-3.89-8.42A11.15,11.15,0,0,1,355.33,199.86Z" transform="translate(0.02 -0.04)"/><path class="cls-28" d="M358.51,202.8a13.94,13.94,0,0,1,18.29.15,11.12,11.12,0,0,1,3.7,8.1c-.52,6.43-6.72,11.26-13.84,10.79-6.4-.42-11.48-5-12-10.79A10.89,10.89,0,0,1,358.51,202.8Z" transform="translate(0.02 -0.04)"/><path class="cls-29" d="M361.76,205.8a13.79,13.79,0,0,1,18.1,0,10.78,10.78,0,0,1,0,16.34,13.77,13.77,0,0,1-18.09,0,10.78,10.78,0,0,1,0-16.34Z" transform="translate(0.02 -0.04)"/><path class="cls-30" d="M365.08,209.05a13.48,13.48,0,0,1,17.7.12,10.55,10.55,0,0,1-.13,16A13.48,13.48,0,0,1,365,225a10.54,10.54,0,0,1,.13-16Z" transform="translate(0.02 -0.04)"/><path class="cls-31" d="M368.33,211.79a13.48,13.48,0,0,1,8.86-3.31c6.87,0,12.44,5,12.44,11.25S384.06,231,377.19,231h0a13.48,13.48,0,0,1-8.86-3.31,10.55,10.55,0,0,1,0-15.87Z" transform="translate(0.02 -0.04)"/><path class="cls-32" d="M371.65,214.73a13.26,13.26,0,0,1,17.41,0,10.37,10.37,0,0,1,0,15.72,13.26,13.26,0,0,1-17.39,0A10.43,10.43,0,0,1,371.65,214.73Z" transform="translate(0.02 -0.04)"/><path class="cls-33" d="M375,217.73a13.06,13.06,0,0,1,17.15,0,10.21,10.21,0,0,1,0,15.49,13,13,0,0,1-17,.12l-.14-.12a10.15,10.15,0,0,1-.13-15.37Z" transform="translate(0.02 -0.04)"/><path class="cls-34" d="M378.22,220.73a13,13,0,0,1,17,0,10.1,10.1,0,0,1,3.52,7.62c.12,6-5.17,11-11.82,11.05A12.7,12.7,0,0,1,378,236a10.46,10.46,0,0,1-3.45-7.68A10.32,10.32,0,0,1,378.22,220.73Z" transform="translate(0.02 -0.04)"/><path class="cls-35" d="M381.54,223.66a12.83,12.83,0,0,1,16.83,0,10,10,0,0,1,0,15.19,12.81,12.81,0,0,1-16.82,0l0,0a10.05,10.05,0,0,1,0-15.18Z" transform="translate(0.02 -0.04)"/><path class="cls-36" d="M384.86,226.66a12.51,12.51,0,0,1,16.43.1,9.79,9.79,0,0,1-.11,14.84,12.51,12.51,0,0,1-16.43-.1,9.79,9.79,0,0,1,.11-14.84Z" transform="translate(0.02 -0.04)"/><path class="cls-37" d="M388.11,229.66a12.19,12.19,0,0,1,8.16-3.06c6.38,0,11.55,4.67,11.55,10.43h0a9.8,9.8,0,0,1-3.38,7.37,12.2,12.2,0,0,1-8.17,3.06,12.53,12.53,0,0,1-8.16-3.06,10,10,0,0,1-3.32-7.37A9.87,9.87,0,0,1,388.11,229.66Z" transform="translate(0.02 -0.04)"/><path class="cls-38" d="M391.43,232.59a12.3,12.3,0,0,1,16.12,0,9.92,9.92,0,0,1,3.32,7.31c-.49,5.68-6,9.92-12.27,9.48-5.6-.4-10.05-4.42-10.49-9.48A9.92,9.92,0,0,1,391.43,232.59Z" transform="translate(0.02 -0.04)"/><path class="cls-39" d="M394.75,235.59a11.73,11.73,0,0,1,8-3c6.22,0,11.26,4.58,11.25,10.2s-5,10.16-11.25,10.17a11.73,11.73,0,0,1-8-3,9.44,9.44,0,0,1-.06-14.31l.06-.06Z" transform="translate(0.02 -0.04)"/><path class="cls-40" d="M398,238.59a11.67,11.67,0,0,1,7.89-2.93,11.34,11.34,0,0,1,7.81,2.93,9.26,9.26,0,0,1,.08,14l-.08.07a11.34,11.34,0,0,1-7.81,2.93c-6.11,0-11.09-4.43-11.12-9.95A9.54,9.54,0,0,1,398,238.59Z" transform="translate(0.02 -0.04)"/><path class="cls-41" d="M401.32,241.53a11.84,11.84,0,0,1,15.5,0,9.41,9.41,0,0,1,3.18,7c0,5.45-4.9,9.87-10.93,9.87s-10.93-4.42-10.93-9.87A9.41,9.41,0,0,1,401.32,241.53Z" transform="translate(0.02 -0.04)"/><path class="cls-42" d="M404.64,244.52a11.56,11.56,0,0,1,15.16-.05l.06.05A9.09,9.09,0,0,1,423,251.4c0,5.38-4.81,9.75-10.77,9.76s-10.8-4.35-10.81-9.73v0A9.09,9.09,0,0,1,404.64,244.52Z" transform="translate(0.02 -0.04)"/><path class="cls-43" d="M407.89,247.52a11.44,11.44,0,0,1,7.54-2.87,11.25,11.25,0,0,1,7.54,2.87,9,9,0,0,1-.12,13.61,11.3,11.3,0,0,1-7.42,2.76,11.43,11.43,0,0,1-7.54-2.81,8.93,8.93,0,0,1,0-13.52l0,0Z" transform="translate(0.02 -0.04)"/><path class="cls-44" d="M411.18,250.76a11.2,11.2,0,0,1,7.33-2.7c5.67-.83,11,2.61,11.95,7.69s-2.92,9.87-8.59,10.7a11.82,11.82,0,0,1-3.36,0,11.1,11.1,0,0,1-7.33-2.7,8.68,8.68,0,0,1,0-13.17Z" transform="translate(0.02 -0.04)"/><path class="cls-45" d="M414.53,253.46a11,11,0,0,1,14.48.08,8.63,8.63,0,0,1-.09,13.07,11,11,0,0,1-14.48-.08,8.63,8.63,0,0,1,.09-13.07Z" transform="translate(0.02 -0.04)"/><path class="cls-46" d="M417.58,256.45a11,11,0,0,1,14.42,0,8.6,8.6,0,0,1,0,13,11,11,0,0,1-14.45,0,8.92,8.92,0,0,1-3-6.25A8.8,8.8,0,0,1,417.58,256.45Z" transform="translate(0.02 -0.04)"/><path class="cls-47" d="M421.1,259.39a10.82,10.82,0,0,1,14.19.06,8.45,8.45,0,0,1-.07,12.81,10.81,10.81,0,0,1-14.12,0,8.91,8.91,0,0,1-3-6.25A8.73,8.73,0,0,1,421.1,259.39Z" transform="translate(0.02 -0.04)"/><path class="cls-48" d="M424.49,262.39a10.18,10.18,0,0,1,6.92-2.62c5.46,0,9.88,4,9.86,9s-4.42,8.88-9.86,8.9a10.27,10.27,0,0,1-6.92-2.62,8.28,8.28,0,0,1,0-12.5Z" transform="translate(0.02 -0.04)"/><path class="cls-49" d="M427.67,265.26a10.55,10.55,0,0,1,6.92-2.56c5.39,0,9.75,3.94,9.75,8.81s-4.36,8.81-9.75,8.81-9.77-3.91-9.79-8.77A8.41,8.41,0,0,1,427.67,265.26Z" transform="translate(0.02 -0.04)"/><path class="cls-50" d="M431,268.32a10.44,10.44,0,0,1,13.7-.12l.14.12a8.35,8.35,0,0,1,2.83,6.25c0,4.79-4.31,8.68-9.62,8.67s-9.6-3.88-9.6-8.67A8.25,8.25,0,0,1,431,268.32Z" transform="translate(0.02 -0.04)"/><path class="cls-51" d="M434.31,271.51a9.71,9.71,0,0,1,6.92-2.5c5.21,0,9.44,3.79,9.48,8.49s-4.25,8.56-9.48,8.56-9.41-3.85-9.41-8.56A7.82,7.82,0,0,1,434.31,271.51Z" transform="translate(0.02 -0.04)"/><path class="cls-52" d="M437.56,274.26a9.87,9.87,0,0,1,6.58-2.44,9.72,9.72,0,0,1,6.91,2.44,8.2,8.2,0,0,1,2.77,5.93c-.08,4.63-4.21,8.37-9.34,8.43a9.91,9.91,0,0,1-6.57-2.5,8,8,0,0,1-2.7-5.93A8.06,8.06,0,0,1,437.56,274.26Z" transform="translate(0.02 -0.04)"/><path class="cls-53" d="M440.88,277.25a9.54,9.54,0,0,1,6.44-2.43,9.76,9.76,0,0,1,6.5,2.43,8.13,8.13,0,0,1,2.63,5.88c0,4.52-4,8.21-9,8.24h-.14c-5,0-9.1-3.7-9.13-8.24A7.94,7.94,0,0,1,440.88,277.25Z" transform="translate(0.02 -0.04)"/><path class="cls-54" d="M444.2,280.25a9.62,9.62,0,0,1,12.62,0l0,0a7.47,7.47,0,0,1,2.63,5.75c0,4.48-4,8.12-9,8.12s-9-3.64-9-8.12A7.54,7.54,0,0,1,444.2,280.25Z" transform="translate(0.02 -0.04)"/><path class="cls-55" d="M447.45,283.19a9.61,9.61,0,0,1,12.52,0,7.59,7.59,0,0,1,2.56,5.68,7.44,7.44,0,0,1-2.56,5.62,9.44,9.44,0,0,1-12.42.09l-.1-.09a7.46,7.46,0,0,1-2.55-5.62A7.62,7.62,0,0,1,447.45,283.19Z" transform="translate(0.02 -0.04)"/><path class="cls-56" d="M450.77,286.19a9.24,9.24,0,0,1,12.13-.11l.12.11a7.35,7.35,0,0,1,2.56,5.56c.42,4.33-3.12,8.15-7.91,8.54s-9-2.81-9.45-7.14a6.55,6.55,0,0,1,0-1.4A7.34,7.34,0,0,1,450.77,286.19Z" transform="translate(0.02 -0.04)"/><path class="cls-57" d="M454.09,289.18a8.79,8.79,0,0,1,6-2.24c4.7,0,8.52,3.42,8.53,7.66s-3.79,7.69-8.48,7.7h-.05a8.8,8.8,0,0,1-6-2.25,7,7,0,0,1-.2-10.68l.2-.18Z" transform="translate(0.02 -0.04)"/><path class="cls-58" d="M457.35,292.12a9.17,9.17,0,0,1,12-.13,7.18,7.18,0,0,1,.14,10.87,9.17,9.17,0,0,1-12,.12,7.15,7.15,0,0,1-.14-10.86Z" transform="translate(0.02 -0.04)"/><path class="cls-59" d="M460.67,295.12a8.79,8.79,0,0,1,11.54-.07l.07.07a7.18,7.18,0,0,1,2.43,5.25,7,7,0,0,1-2.43,5.24,8.79,8.79,0,0,1-11.54.07l-.07-.07a7,7,0,0,1-2.43-5.24A7.18,7.18,0,0,1,460.67,295.12Z" transform="translate(0.02 -0.04)"/><path class="cls-60" d="M463.92,298.12a8.71,8.71,0,0,1,11.44,0,7,7,0,0,1,2.39,5.16,7.09,7.09,0,0,1-2.35,5.18,8.78,8.78,0,0,1-11.48,0,7.06,7.06,0,0,1-2.36-5.18A7,7,0,0,1,463.92,298.12Z" transform="translate(0.02 -0.04)"/><path class="cls-61" d="M467.24,301.05a8.46,8.46,0,0,1,5.6-2.06c4.37-.37,8.25,2.53,8.66,6.48s-2.81,7.46-7.18,7.83a9.14,9.14,0,0,1-1.48,0,8.42,8.42,0,0,1-5.6-2.07,6.81,6.81,0,0,1,0-10.18Z" transform="translate(0.02 -0.04)"/><path class="cls-62" d="M470.56,304.05A8.1,8.1,0,0,1,476,302c4.32,0,7.81,3.16,7.81,7.06h0a6.58,6.58,0,0,1-2.28,4.93A8.2,8.2,0,0,1,476,316c-4.26,0-7.71-3.14-7.75-7A6.73,6.73,0,0,1,470.56,304.05Z" transform="translate(0.02 -0.04)"/><path class="cls-63" d="M473.81,307.05a8.26,8.26,0,0,1,10.85.06,6.6,6.6,0,0,1,2.22,4.81c.4,3.81-2.7,7.2-6.92,7.56s-8-2.43-8.37-6.24a7.28,7.28,0,0,1,0-1.32A6.56,6.56,0,0,1,473.81,307.05Z" transform="translate(0.02 -0.04)"/><path class="cls-64" d="M477.13,310a7.88,7.88,0,0,1,5.32-1.93,7.79,7.79,0,0,1,5.26,1.93,6.51,6.51,0,0,1,2.21,4.81c0,3.72-3.36,6.72-7.47,6.75a7.92,7.92,0,0,1-5.32-2,6.4,6.4,0,0,1-2.22-4.75A6.52,6.52,0,0,1,477.13,310Z" transform="translate(0.02 -0.04)"/><path class="cls-65" d="M480.45,313a7.25,7.25,0,0,1,5.18-1.93,7.7,7.7,0,0,1,5.19,1.93,6.18,6.18,0,0,1,0,9.37,7.8,7.8,0,0,1-5.2,1.94c-4.05,0-7.33-3-7.33-6.62A6.29,6.29,0,0,1,480.45,313Z" transform="translate(0.02 -0.04)"/><path class="cls-66" d="M483.7,316a7.84,7.84,0,0,1,5.11-1.94,7,7,0,0,1,6.92,6.25,6.36,6.36,0,0,1-2.14,4.62,7.34,7.34,0,0,1-5,1.88c-3.82,0-6.92-2.8-6.92-6.25A6,6,0,0,1,483.7,316Z" transform="translate(0.02 -0.04)"/><path class="cls-67" d="M486.74,318.92a7.45,7.45,0,0,1,9.78-.17l.18.17a5.83,5.83,0,0,1-.18,8.83,7.46,7.46,0,0,1-9.78-.16A5.82,5.82,0,0,1,486.74,318.92Z" transform="translate(0.02 -0.04)"/><path class="cls-68" d="M490.34,321.92a7.43,7.43,0,0,1,9.68,0,5.94,5.94,0,0,1,2.07,4.37c0,3.45-3.12,6.23-6.94,6.22a7.31,7.31,0,0,1-4.81-1.79,5.82,5.82,0,0,1,0-8.8Z" transform="translate(0.02 -0.04)"/><path class="cls-69" d="M493.66,324.91a7.46,7.46,0,0,1,9.54,0,5.65,5.65,0,0,1,2,4.25,6,6,0,0,1-2,4.31,7.46,7.46,0,0,1-9.54,0,5.69,5.69,0,0,1,0-8.56Z" transform="translate(0.02 -0.04)"/><path class="cls-70" d="M496.91,327.72a7.12,7.12,0,0,1,9.33,0,5.81,5.81,0,0,1,0,8.44,7.09,7.09,0,0,1-9.33,0A5.81,5.81,0,0,1,496.91,327.72Z" transform="translate(0.02 -0.04)"/><path class="cls-71" d="M500.57,330.85a6.66,6.66,0,0,1,4.5-1.69c3.51,0,6.39,2.51,6.43,5.68V335a5.41,5.41,0,0,1-1.87,4.06,6.88,6.88,0,0,1-4.56,1.75,6.6,6.6,0,0,1-6.43-5.81A5.59,5.59,0,0,1,500.57,330.85Z" transform="translate(0.02 -0.04)"/><path class="cls-72" d="M503.48,334a6.78,6.78,0,0,1,8.9,0,5.49,5.49,0,0,1,1.82,4,5.57,5.57,0,0,1-1.8,4,6.78,6.78,0,0,1-8.9,0h0a5.53,5.53,0,0,1-1.8-4A5.34,5.34,0,0,1,503.48,334Z" transform="translate(0.02 -0.04)"/><path class="cls-73" d="M506.8,336.78a6.45,6.45,0,0,1,4.35-1.62,6.33,6.33,0,0,1,4.29,1.62,5.3,5.3,0,0,1,1.8,3.94,5.4,5.4,0,0,1-1.8,3.93,6.39,6.39,0,0,1-4.29,1.63,6.51,6.51,0,0,1-4.35-1.63,5.4,5.4,0,0,1-1.8-3.93A5.3,5.3,0,0,1,506.8,336.78Z" transform="translate(0.02 -0.04)"/><path class="cls-74" d="M510.12,339.78a6,6,0,0,1,4.22-1.56,5.4,5.4,0,1,1,0,10.74,6,6,0,0,1-4.22-1.56,5,5,0,0,1-.13-7.51Z" transform="translate(0.02 -0.04)"/><path class="cls-75" d="M513.37,342.78a6.06,6.06,0,0,1,4.15-1.56,5.61,5.61,0,0,1,5.81,5.24,5,5,0,0,1-1.73,3.75,6,6,0,0,1-4.08,1.5,5.45,5.45,0,0,1-5.81-5v-.26A4.86,4.86,0,0,1,513.37,342.78Z" transform="translate(0.02 -0.04)"/><path class="cls-76" d="M516.69,345.71a6.11,6.11,0,0,1,8,0,4.91,4.91,0,0,1,1.66,3.63,4.73,4.73,0,0,1-1.66,3.62,6.11,6.11,0,0,1-8,0h0a4.73,4.73,0,0,1-1.66-3.62A4.87,4.87,0,0,1,516.69,345.71Z" transform="translate(0.02 -0.04)"/><path class="cls-77" d="M520,348.71a5.55,5.55,0,0,1,3.87-1.5,5.82,5.82,0,0,1,3.94,1.5,4.74,4.74,0,0,1,1.59,3.5,5.21,5.21,0,0,1-5.39,5h-.14a5.82,5.82,0,0,1-3.87-1.44,4.76,4.76,0,0,1-1.66-3.56A4.59,4.59,0,0,1,520,348.71Z" transform="translate(0.02 -0.04)"/><path class="cls-78" d="M523.26,351.65a6,6,0,0,1,7.61,0,4.66,4.66,0,0,1,1.59,3.43,4.55,4.55,0,0,1-1.59,3.44,5.76,5.76,0,0,1-7.54.07l-.07-.07a4.51,4.51,0,0,1-1.59-3.44A4.59,4.59,0,0,1,523.26,351.65Z" transform="translate(0.02 -0.04)"/><path class="cls-79" d="M526.58,354.65a5.64,5.64,0,0,1,3.66-1.38,5,5,0,0,1,5.23,4.78,4.53,4.53,0,0,1-1.49,3.28,5.5,5.5,0,0,1-3.74,1.37,5.3,5.3,0,0,1-3.66-1.37A4.42,4.42,0,0,1,526.58,354.65Z" transform="translate(0.02 -0.04)"/><path class="cls-80" d="M529.9,357.64a5.3,5.3,0,0,1,6.91,0,4.2,4.2,0,0,1,1.53,3.25,4.82,4.82,0,0,1-5.05,4.56h-.07a5.17,5.17,0,0,1-3.53-1.31,4.25,4.25,0,0,1-1.52-3.25A4.21,4.21,0,0,1,529.9,357.64Z" transform="translate(0.02 -0.04)"/><path class="cls-81" d="M533.15,360.58a5.52,5.52,0,0,1,6.91,0,4.14,4.14,0,0,1,.63,6.25,5.28,5.28,0,0,1-6.92.56,5.5,5.5,0,0,1-.62-.56A4.14,4.14,0,0,1,533.15,360.58Z" transform="translate(0.02 -0.04)"/><path class="cls-82" d="M536.47,363.58a5.22,5.22,0,0,1,6.78,0,4.16,4.16,0,0,1,1.38,3.06A4.48,4.48,0,0,1,540,371h-.14a5.12,5.12,0,0,1-3.39-1.25,4.25,4.25,0,0,1-1.39-3.06A4.14,4.14,0,0,1,536.47,363.58Z" transform="translate(0.02 -0.04)"/><path class="cls-83" d="M539.79,366.58a4.55,4.55,0,0,1,3.25-1.25,4.21,4.21,0,1,1,0,8.37,4.63,4.63,0,0,1-3.25-1.25,3.79,3.79,0,0,1-.15-5.74l.15-.13Z" transform="translate(0.02 -0.04)"/><path class="cls-84" d="M543,369.51a4.84,4.84,0,0,1,6.36,0,3.79,3.79,0,0,1,0,5.74,4.85,4.85,0,0,1-6.36,0,3.91,3.91,0,0,1-1.32-2.87A4,4,0,0,1,543,369.51Z" transform="translate(0.02 -0.04)"/><path class="cls-85" d="M546.36,372.51a4.69,4.69,0,0,1,6.08,0,3.62,3.62,0,0,1,.1,5.48l-.1.08a4.69,4.69,0,0,1-6.08,0,3.72,3.72,0,0,1,0-5.56Z" transform="translate(0.02 -0.04)"/><path class="cls-86" d="M549.68,375.51a4.11,4.11,0,0,1,2.9-1.13,4.43,4.43,0,0,1,3,1.13,3.44,3.44,0,0,1,.11,5.21.52.52,0,0,0-.11.1,4.42,4.42,0,0,1-3,1.12,4.06,4.06,0,0,1-2.9-1.12,3.48,3.48,0,0,1-1.25-2.69A3.44,3.44,0,0,1,549.68,375.51Z" transform="translate(0.02 -0.04)"/><path class="cls-87" d="M552.93,378.44a4.3,4.3,0,0,1,3-.75,3.83,3.83,0,0,1,4,3.63v.06a3.18,3.18,0,0,1-1.17,2.56A4.13,4.13,0,0,1,555.9,385a3.83,3.83,0,0,1-4-3.62A3.58,3.58,0,0,1,552.93,378.44Z" transform="translate(0.02 -0.04)"/><path class="cls-88" d="M556.25,381.44a3.94,3.94,0,0,1,2.7-1,3.66,3.66,0,0,1,3.87,3.37v.13a3.15,3.15,0,0,1-1.11,2.44,4,4,0,0,1-5.28.16l-.18-.16a3.25,3.25,0,0,1-1.18-2.44A3.38,3.38,0,0,1,556.25,381.44Z" transform="translate(0.02 -0.04)"/><path class="cls-89" d="M559.5,384.44a3.85,3.85,0,0,1,2.7-1,3.74,3.74,0,0,1,2.62,1,3.24,3.24,0,0,1,0,4.75,4,4,0,0,1-5.28,0l0,0a3.26,3.26,0,0,1,0-4.75Z" transform="translate(0.02 -0.04)"/><path class="cls-90" d="M562.82,387.38a3.86,3.86,0,0,1,5,0,3,3,0,0,1,1,2.31,2.93,2.93,0,0,1-1,2.24,3.73,3.73,0,0,1-4.89.15l-.16-.15a2.9,2.9,0,0,1-1-2.24A3,3,0,0,1,562.82,387.38Z" transform="translate(0.02 -0.04)"/><path class="cls-91" d="M566.14,390.19a3.67,3.67,0,0,1,2.42-.88,3.8,3.8,0,0,1,2.42.88,3,3,0,0,1,0,4.37,3.79,3.79,0,0,1-2.42.87,3.67,3.67,0,0,1-2.42-.87,2.8,2.8,0,0,1-.15-4.24Z" transform="translate(0.02 -0.04)"/><path class="cls-92" d="M569.74,393.37a3.52,3.52,0,0,1,2.35-.87,3.17,3.17,0,0,1,3.25,2.93,2.89,2.89,0,0,1-1,2.13,3.42,3.42,0,0,1-2.28.81,3,3,0,0,1-3.25-2.68,1.13,1.13,0,0,1,0-.26A2.69,2.69,0,0,1,569.74,393.37Z" transform="translate(0.02 -0.04)"/><path class="cls-93" d="M572.71,396.43a3.36,3.36,0,0,1,4.4,0,2.65,2.65,0,0,1,.92,2,2.75,2.75,0,0,1-.89,2,3.43,3.43,0,0,1-4.43,0,2.72,2.72,0,0,1-.9-2A2.86,2.86,0,0,1,572.71,396.43Z" transform="translate(0.02 -0.04)"/><path class="cls-94" d="M576,399.31a3,3,0,0,1,4-.13l.14.13a2.32,2.32,0,0,1,.9,1.87,2.41,2.41,0,0,1-.9,1.94,3.3,3.3,0,0,1-4.15,0,2.63,2.63,0,0,1-.9-1.94A2.54,2.54,0,0,1,576,399.31Z" transform="translate(0.02 -0.04)"/><path class="cls-95" d="M579.28,402.3a3.06,3.06,0,0,1,4,0h0a2.32,2.32,0,0,1,0,3.56,3.06,3.06,0,0,1-4,0h0a2.32,2.32,0,0,1,0-3.56Z" transform="translate(0.02 -0.04)"/><path class="cls-96" d="M582.6,405.24a2.84,2.84,0,0,1,1.87-.69,2.52,2.52,0,0,1,2.69,2.31.29.29,0,0,1,0,.13,2.27,2.27,0,0,1-.76,1.68,2.94,2.94,0,0,1-1.93.69,2.51,2.51,0,0,1-2.63-2.37h0A2.43,2.43,0,0,1,582.6,405.24Z" transform="translate(0.02 -0.04)"/><path class="cls-97" d="M585.92,408.24a2.61,2.61,0,0,1,1.73-.69,2.51,2.51,0,0,1,2.56,2.31,2,2,0,0,1-.76,1.56,2.64,2.64,0,0,1-1.8.69,2.56,2.56,0,0,1-1.73-.69,2,2,0,0,1-.76-1.56A2.13,2.13,0,0,1,585.92,408.24Z" transform="translate(0.02 -0.04)"/><path class="cls-98" d="M589.17,411.24a2.39,2.39,0,0,1,1.73-.63,2.43,2.43,0,0,1,1.66.63,2,2,0,0,1,0,3,2.66,2.66,0,0,1-1.66.63,2.74,2.74,0,0,1-1.73-.63A2,2,0,0,1,589.17,411.24Z" transform="translate(0.02 -0.04)"/><path class="cls-99" d="M592.49,414.17a2.38,2.38,0,0,1,1.59-.56,2.28,2.28,0,0,1,1.52.56,1.84,1.84,0,0,1,0,2.87,2.24,2.24,0,0,1-1.52.57,2.34,2.34,0,0,1-1.59-.57,2,2,0,0,1,0-2.87Z" transform="translate(0.02 -0.04)"/><path class="cls-100" d="M595.81,417.17a2,2,0,0,1,1.45-.56,2.08,2.08,0,0,1,1.45.56,1.68,1.68,0,0,1,.07,2.56l-.07.06a2.09,2.09,0,0,1-1.45.57,2,2,0,0,1-2-1.9A1.76,1.76,0,0,1,595.81,417.17Z" transform="translate(0.02 -0.04)"/><path class="cls-101" d="M599.06,420.17a1.79,1.79,0,0,1,1.38-.56,2,2,0,0,1,1.39.56,1.59,1.59,0,0,1,.55,1.18,1.65,1.65,0,0,1-.55,1.25,2.29,2.29,0,0,1-1.39.5,1.79,1.79,0,0,1-1.93-1.62v-.13A1.59,1.59,0,0,1,599.06,420.17Z" transform="translate(0.02 -0.04)"/><path class="cls-102" d="M602.38,423.1a2,2,0,0,1,2.49,0,1.47,1.47,0,0,1,.55,1.13,1.35,1.35,0,0,1-.55,1.12,1.78,1.78,0,0,1-2.34.13l-.15-.13a1.34,1.34,0,0,1-.48-1.12A1.43,1.43,0,0,1,602.38,423.1Z" transform="translate(0.02 -0.04)"/><path class="cls-103" d="M605.7,426.1a1.83,1.83,0,0,1,1.11-.44,2,2,0,0,1,1.17.44,1.33,1.33,0,0,1,0,2.06,1.9,1.9,0,0,1-1.17.44,1.72,1.72,0,0,1-1.11-.44,1.25,1.25,0,0,1-.48-1.06A1.2,1.2,0,0,1,605.7,426.1Z" transform="translate(0.02 -0.04)"/><path class="cls-104" d="M609,429.1a1.48,1.48,0,0,1,1.95-.11.69.69,0,0,1,.13.11,1.15,1.15,0,0,1,.41.94,1.08,1.08,0,0,1-.41.87,1.49,1.49,0,0,1-2,.11l-.12-.11a1.05,1.05,0,0,1-.41-.87A1.12,1.12,0,0,1,609,429.1Z" transform="translate(0.02 -0.04)"/><path class="cls-105" d="M614.48,432.91a1.1,1.1,0,0,1-.34.81,1.32,1.32,0,0,1-1,.38,1.15,1.15,0,0,1-.9-.38,1.18,1.18,0,0,1-.41-.81,1.24,1.24,0,0,1,.41-.87,1.4,1.4,0,0,1,.9-.32,1.16,1.16,0,0,1,1.31.92A.61.61,0,0,1,614.48,432.91Z" transform="translate(0.02 -0.04)"/><path class="cls-106" d="M285,136.47a9.24,9.24,0,0,1,12.14,0,7.23,7.23,0,0,1,0,11,9.24,9.24,0,0,1-12.13,0,7.23,7.23,0,0,1,0-11Z" transform="translate(0.02 -0.04)"/><path class="cls-107" d="M382.66,240.55c5.52,5.23,11.86,9.53,16.83,15.38H540v-16.1H381.73A5.06,5.06,0,0,1,382.66,240.55Z" transform="translate(0.02 -0.04)"/><path class="cls-108" d="M472.09,341.44c.6,5.41,1.48,10.77,2.53,16.1H581.88v-16.1Z" transform="translate(0.02 -0.04)"/></svg>