<svg id="Layer_1" data-name="Layer 1" xmlns="http://www.w3.org/2000/svg" xmlns:xlink="http://www.w3.org/1999/xlink" viewBox="0 0 841.89 595.28"><defs><style>.cls-1{fill:#0e1525;}.cls-10,.cls-11,.cls-12,.cls-122,.cls-123,.cls-17,.cls-18,.cls-2,.cls-3,.cls-4,.cls-5,.cls-6,.cls-7,.cls-8,.cls-9{stroke-miterlimit:10;stroke-width:2px;}.cls-2{fill:url(#linear-gradient);stroke:url(#linear-gradient-2);}.cls-3{fill:url(#linear-gradient-3);stroke:url(#linear-gradient-4);}.cls-4{fill:url(#linear-gradient-5);stroke:url(#linear-gradient-6);}.cls-5{fill:url(#linear-gradient-7);stroke:url(#linear-gradient-8);}.cls-6{fill:url(#linear-gradient-9);stroke:url(#linear-gradient-10);}.cls-7{fill:url(#linear-gradient-11);stroke:url(#linear-gradient-12);}.cls-8{fill:url(#linear-gradient-13);stroke:url(#linear-gradient-14);}.cls-9{fill:url(#linear-gradient-15);stroke:url(#linear-gradient-16);}.cls-10{fill:url(#linear-gradient-17);stroke:url(#linear-gradient-18);}.cls-11{fill:url(#linear-gradient-19);stroke:url(#linear-gradient-20);}.cls-12{fill:none;stroke:#a7b8e0;}.cls-100,.cls-101,.cls-102,.cls-103,.cls-104,.cls-105,.cls-106,.cls-107,.cls-108,.cls-109,.cls-110,.cls-111,.cls-112,.cls-113,.cls-114,.cls-115,.cls-116,.cls-117,.cls-118,.cls-119,.cls-120,.cls-13,.cls-20,.cls-21,.cls-22,.cls-23,.cls-24,.cls-25,.cls-26,.cls-27,.cls-28,.cls-29,.cls-30,.cls-31,.cls-32,.cls-33,.cls-34,.cls-35,.cls-36,.cls-37,.cls-38,.cls-39,.cls-40,.cls-41,.cls-42,.cls-43,.cls-44,.cls-45,.cls-46,.cls-47,.cls-48,.cls-49,.cls-50,.cls-51,.cls-52,.cls-53,.cls-54,.cls-55,.cls-56,.cls-57,.cls-58,.cls-59,.cls-60,.cls-61,.cls-62,.cls-63,.cls-64,.cls-65,.cls-66,.cls-67,.cls-68,.cls-69,.cls-70,.cls-71,.cls-72,.cls-73,.cls-74,.cls-75,.cls-76,.cls-77,.cls-78,.cls-79,.cls-80,.cls-81,.cls-82,.cls-83,.cls-84,.cls-85,.cls-86,.cls-87,.cls-88,.cls-89,.cls-90,.cls-91,.cls-92,.cls-93,.cls-94,.cls-95,.cls-96,.cls-97,.cls-98,.cls-99{isolation:isolate;}.cls-13{font-size:21px;fill:#a7b8e0;font-family:ArialMT, Arial;letter-spacing:0.57em;}.cls-14{letter-spacing:0.55em;}.cls-15{letter-spacing:0.55em;}.cls-16{letter-spacing:0.57em;}.cls-17{fill:url(#linear-gradient-21);stroke:url(#linear-gradient-22);}.cls-18{fill:url(#linear-gradient-23);stroke:url(#linear-gradient-24);}.cls-100,.cls-101,.cls-102,.cls-103,.cls-104,.cls-105,.cls-106,.cls-107,.cls-108,.cls-109,.cls-110,.cls-111,.cls-112,.cls-113,.cls-114,.cls-115,.cls-116,.cls-117,.cls-118,.cls-119,.cls-120,.cls-19,.cls-20,.cls-21,.cls-22,.cls-23,.cls-24,.cls-25,.cls-26,.cls-27,.cls-28,.cls-29,.cls-30,.cls-31,.cls-32,.cls-33,.cls-34,.cls-35,.cls-36,.cls-37,.cls-38,.cls-39,.cls-40,.cls-41,.cls-42,.cls-43,.cls-44,.cls-45,.cls-46,.cls-47,.cls-48,.cls-49,.cls-50,.cls-51,.cls-52,.cls-53,.cls-54,.cls-55,.cls-56,.cls-57,.cls-58,.cls-59,.cls-60,.cls-61,.cls-62,.cls-63,.cls-64,.cls-65,.cls-66,.cls-67,.cls-68,.cls-69,.cls-70,.cls-71,.cls-72,.cls-73,.cls-74,.cls-75,.cls-76,.cls-77,.cls-78,.cls-79,.cls-80,.cls-81,.cls-82,.cls-83,.cls-84,.cls-85,.cls-86,.cls-87,.cls-88,.cls-89,.cls-90,.cls-91,.cls-92,.cls-93,.cls-94,.cls-95,.cls-96,.cls-97,.cls-98,.cls-99{fill:#f4c152;}.cls-20{opacity:0.99;}.cls-21{opacity:0.98;}.cls-22{opacity:0.97;}.cls-23{opacity:0.96;}.cls-24{opacity:0.95;}.cls-25{opacity:0.94;}.cls-26{opacity:0.93;}.cls-27{opacity:0.92;}.cls-28{opacity:0.91;}.cls-29{opacity:0.9;}.cls-30{opacity:0.89;}.cls-31{opacity:0.88;}.cls-32{opacity:0.87;}.cls-33{opacity:0.86;}.cls-34{opacity:0.85;}.cls-35{opacity:0.84;}.cls-36{opacity:0.83;}.cls-37{opacity:0.82;}.cls-38{opacity:0.81;}.cls-39{opacity:0.8;}.cls-40{opacity:0.79;}.cls-41{opacity:0.78;}.cls-42{opacity:0.77;}.cls-43{opacity:0.76;}.cls-44{opacity:0.75;}.cls-45{opacity:0.75;}.cls-46{opacity:0.74;}.cls-47{opacity:0.73;}.cls-48{opacity:0.72;}.cls-49{opacity:0.71;}.cls-50{opacity:0.7;}.cls-51{opacity:0.69;}.cls-52{opacity:0.68;}.cls-53{opacity:0.67;}.cls-54{opacity:0.66;}.cls-55{opacity:0.65;}.cls-56{opacity:0.64;}.cls-57{opacity:0.63;}.cls-58{opacity:0.62;}.cls-59{opacity:0.61;}.cls-60{opacity:0.6;}.cls-61{opacity:0.59;}.cls-62{opacity:0.58;}.cls-63{opacity:0.57;}.cls-64{opacity:0.56;}.cls-65{opacity:0.55;}.cls-66{opacity:0.54;}.cls-67{opacity:0.53;}.cls-68{opacity:0.52;}.cls-69{opacity:0.51;}.cls-70{opacity:0.5;}.cls-71{opacity:0.49;}.cls-72{opacity:0.48;}.cls-73{opacity:0.47;}.cls-74{opacity:0.46;}.cls-75{opacity:0.45;}.cls-76{opacity:0.44;}.cls-77{opacity:0.43;}.cls-78{opacity:0.42;}.cls-79{opacity:0.41;}.cls-80{opacity:0.4;}.cls-81{opacity:0.39;}.cls-82{opacity:0.38;}.cls-83{opacity:0.37;}.cls-84{opacity:0.36;}.cls-85{opacity:0.35;}.cls-86{opacity:0.34;}.cls-87{opacity:0.33;}.cls-88{opacity:0.32;}.cls-89{opacity:0.31;}.cls-90{opacity:0.3;}.cls-91{opacity:0.29;}.cls-92{opacity:0.28;}.cls-93{opacity:0.27;}.cls-94{opacity:0.26;}.cls-95{opacity:0.26;}.cls-96{opacity:0.25;}.cls-97{opacity:0.24;}.cls-98{opacity:0.23;}.cls-99{opacity:0.22;}.cls-100{opacity:0.21;}.cls-101{opacity:0.2;}.cls-102{opacity:0.19;}.cls-103{opacity:0.18;}.cls-104{opacity:0.17;}.cls-105{opacity:0.16;}.cls-106{opacity:0.15;}.cls-107{opacity:0.14;}.cls-108{opacity:0.13;}.cls-109{opacity:0.12;}.cls-110{opacity:0.11;}.cls-111{opacity:0.1;}.cls-112{opacity:0.09;}.cls-113{opacity:0.08;}.cls-114{opacity:0.07;}.cls-115{opacity:0.06;}.cls-116{opacity:0.05;}.cls-117{opacity:0.04;}.cls-118{opacity:0.03;}.cls-119{opacity:0.02;}.cls-120{opacity:0.01;}.cls-121{fill:#fafafa;}.cls-122{fill:url(#linear-gradient-25);stroke:url(#linear-gradient-26);}.cls-123{fill:url(#linear-gradient-27);stroke:url(#linear-gradient-28);}</style><linearGradient id="linear-gradient" x1="733" y1="316.75" x2="799.57" y2="316.75" gradientTransform="matrix(1, 0, 0, -1, 0, 595.89)" gradientUnits="userSpaceOnUse"><stop offset="0" stop-color="#00b1ff"/><stop offset="0.01" stop-color="#05b0ff"/><stop offset="0.11" stop-color="#2ba7fd"/><stop offset="0.21" stop-color="#4ba0fc"/><stop offset="0.31" stop-color="#659afb"/><stop offset="0.43" stop-color="#7a95fa"/><stop offset="0.57" stop-color="#8892f9"/><stop offset="0.73" stop-color="#9090f9"/><stop offset="1" stop-color="#938ff9"/></linearGradient><linearGradient id="linear-gradient-2" x1="732" y1="316.75" x2="800.57" y2="316.75" xlink:href="#linear-gradient"/><linearGradient id="linear-gradient-3" x1="208.1" y1="316.76" x2="277.53" y2="316.76" xlink:href="#linear-gradient"/><linearGradient id="linear-gradient-4" x1="207.1" y1="316.76" x2="278.81" y2="316.76" xlink:href="#linear-gradient"/><linearGradient id="linear-gradient-5" x1="42.36" y1="316.78" x2="110.83" y2="316.78" xlink:href="#linear-gradient"/><linearGradient id="linear-gradient-6" x1="41.36" y1="316.78" x2="111.83" y2="316.78" xlink:href="#linear-gradient"/><linearGradient id="linear-gradient-7" x1="291.72" y1="316.78" x2="360.18" y2="316.78" xlink:href="#linear-gradient"/><linearGradient id="linear-gradient-8" x1="290.72" y1="316.78" x2="361.18" y2="316.78" xlink:href="#linear-gradient"/><linearGradient id="linear-gradient-9" x1="542.81" y1="316.76" x2="547.02" y2="316.76" xlink:href="#linear-gradient"/><linearGradient id="linear-gradient-10" x1="541.81" y1="316.76" x2="548.02" y2="316.76" xlink:href="#linear-gradient"/><linearGradient id="linear-gradient-11" x1="654.84" y1="316.76" x2="714.62" y2="316.76" xlink:href="#linear-gradient"/><linearGradient id="linear-gradient-12" x1="653.46" y1="316.76" x2="715.62" y2="316.76" xlink:href="#linear-gradient"/><linearGradient id="linear-gradient-13" x1="567.8" y1="316.76" x2="635.41" y2="316.76" xlink:href="#linear-gradient"/><linearGradient id="linear-gradient-14" x1="566.8" y1="316.76" x2="636.41" y2="316.76" xlink:href="#linear-gradient"/><linearGradient id="linear-gradient-15" x1="378.89" y1="316.76" x2="439.26" y2="316.76" xlink:href="#linear-gradient"/><linearGradient id="linear-gradient-16" x1="377.89" y1="316.76" x2="440.26" y2="316.76" xlink:href="#linear-gradient"/><linearGradient id="linear-gradient-17" x1="458.5" y1="316.75" x2="525.88" y2="316.75" xlink:href="#linear-gradient"/><linearGradient id="linear-gradient-18" x1="457.5" y1="316.75" x2="526.88" y2="316.75" xlink:href="#linear-gradient"/><linearGradient id="linear-gradient-19" x1="127.06" y1="316.75" x2="192.36" y2="316.75" xlink:href="#linear-gradient"/><linearGradient id="linear-gradient-20" x1="125.67" y1="316.75" x2="193.76" y2="316.75" xlink:href="#linear-gradient"/><linearGradient id="linear-gradient-21" x1="335.1" y1="369.29" x2="517.93" y2="369.29" gradientTransform="translate(0 -246)" xlink:href="#linear-gradient"/><linearGradient id="linear-gradient-22" x1="334.1" y1="369.29" x2="518.93" y2="369.29" gradientTransform="translate(0 -246)" xlink:href="#linear-gradient"/><linearGradient id="linear-gradient-23" x1="333.55" y1="430.57" x2="516.45" y2="430.57" gradientTransform="translate(0 -246)" xlink:href="#linear-gradient"/><linearGradient id="linear-gradient-24" x1="332.55" y1="430.57" x2="517.45" y2="430.57" gradientTransform="translate(0 -246)" xlink:href="#linear-gradient"/><linearGradient id="linear-gradient-25" x1="335.23" y1="384.51" x2="518.06" y2="384.51" gradientTransform="translate(0 -246)" xlink:href="#linear-gradient"/><linearGradient id="linear-gradient-26" x1="332.44" y1="384.51" x2="519.53" y2="384.51" gradientTransform="translate(0 -246)" xlink:href="#linear-gradient"/><linearGradient id="linear-gradient-27" x1="334.23" y1="447.72" x2="517.14" y2="447.72" gradientTransform="translate(0 -246)" xlink:href="#linear-gradient"/><linearGradient id="linear-gradient-28" x1="332.23" y1="447.72" x2="518.14" y2="447.72" gradientTransform="translate(0 -246)" xlink:href="#linear-gradient"/></defs><title>E_exceptions_tagline</title><rect class="cls-1" width="841.89" height="595.28"/><path class="cls-2" d="M742,301.57a9.13,9.13,0,0,1-9-9.07v-2.85h3.9v2.85a5.24,5.24,0,0,0,5.17,5.17h48.41a5.2,5.2,0,0,0,5.17-5.17v-.88a5.08,5.08,0,0,0-1.14-3.26,5,5,0,0,0-2.94-1.8l-51.4-11a9.16,9.16,0,0,1-7.17-8.9v-.88a9.12,9.12,0,0,1,9.07-9.07h48.41a9.13,9.13,0,0,1,9.09,9.07v2.55h-3.92v-2.55a5.2,5.2,0,0,0-5.17-5.17H742a5.24,5.24,0,0,0-5.17,5.17v.88a5.18,5.18,0,0,0,1.16,3.27,5,5,0,0,0,3,1.77l51.39,11a9.06,9.06,0,0,1,5.15,3.18,8.89,8.89,0,0,1,2,5.72v.88a9.12,9.12,0,0,1-9.09,9.07Z" transform="translate(0 0)"/><path class="cls-3" d="M233.53,302.86q-10.72,0-17.84-6.05a21,21,0,0,1-7.58-16.8v-.16a23.07,23.07,0,0,1,7.48-17.52,25.22,25.22,0,0,1,17.94-6.93h20a25.42,25.42,0,0,1,24,17l-3.94,1.37a21.25,21.25,0,0,0-20.06-14.2h-20a21.07,21.07,0,0,0-15.11,5.86,19.18,19.18,0,0,0-6.14,14.41V280a17.12,17.12,0,0,0,5.93,13.46q5.94,5.22,15.32,5.22h20a21.28,21.28,0,0,0,20.06-14.21l3.94,1.37a25.42,25.42,0,0,1-24,17Z" transform="translate(0 0)"/><path class="cls-4" d="M110.59,255.41v4.14H46.48v8.51H99.54v4.12H42.36V255.41Zm-10.82,29v4.15H46.71v10.12h64.12v4.13H42.59v-18.4Z" transform="translate(0 0)"/><path class="cls-5" d="M360,255.41v4.14H295.84v8.51H348.9v4.12H291.72V255.41Zm-10.82,29v4.15H296.07v10.12h64.11v4.13H292v-18.4Z" transform="translate(0 0)"/><path class="cls-6" d="M542.81,255.4H547v47.46h-4.21Z" transform="translate(0 0)"/><path class="cls-7" d="M711.05,293.43V256.84h3.57v43.42l-59.78-41.94,2-2.92ZM656.88,273.2l38.92,26.74-2,2.92L660.42,280v21.39h-3.54Z" transform="translate(0 0)"/><path class="cls-8" d="M611.75,255.4a23.66,23.66,0,0,1,23.66,23.66v.14a23.66,23.66,0,0,1-23.66,23.66H591.46A23.66,23.66,0,0,1,567.8,279.2h0v-.14a23.66,23.66,0,0,1,23.66-23.66Zm-20.29,4.22A19.46,19.46,0,0,0,572,279.06v.14a19.46,19.46,0,0,0,19.44,19.44h20.29a19.46,19.46,0,0,0,19.44-19.44v-.14a19.46,19.46,0,0,0-19.44-19.44Z" transform="translate(0 0)"/><path class="cls-9" d="M383.08,302.86h-4.19V268.61h50.58a9.75,9.75,0,0,0,3.75-.53,3.1,3.1,0,0,0,1.84-3.11c0-2.07-.53-3.5-1.58-4.28a6.05,6.05,0,0,0-3.78-1.09H381v-4.2h48.7a10,10,0,0,1,6.74,2.32c1.87,1.61,2.81,4,2.81,7.25a6.9,6.9,0,0,1-2.73,5.87,11.33,11.33,0,0,1-7,2H383.08Z" transform="translate(0 0)"/><path class="cls-10" d="M525.88,255.41v4.19H494.3v43.26h-4.22V259.6H458.5v-4.19Z" transform="translate(0 0)"/><path class="cls-11" d="M192.36,258.62l-29.24,20.51,29.24,20.51-2.27,3.22-30.38-21.32-30.4,21.32-2.25-3.22,29.22-20.51-29.22-20.51,2.25-3.21,30.4,21.31,30.38-21.31Z" transform="translate(0 0)"/><line class="cls-12" x1="83.96" y1="343.34" x2="38.36" y2="343.34"/><line class="cls-12" x1="811.53" y1="343.34" x2="765.93" y2="343.34"/><text class="cls-13" transform="translate(87.57 350.83)">UNLEASH<tspan class="cls-14" x="182.99" y="0"> </tspan><tspan x="200.41" y="0">THE EXCEPTION IN</tspan><tspan class="cls-15" x="587.96" y="0"> </tspan><tspan class="cls-16" x="605.38" y="0">YOU</tspan></text><polygon class="cls-17" points="517.93 102.88 517.93 112.96 346.13 112.96 346.13 133.68 488.35 133.68 488.35 143.69 335.1 143.69 335.1 102.88 517.93 102.88"/><polygon class="cls-18" points="486.87 162.18 486.87 172.26 344.64 172.26 344.64 196.96 516.45 196.96 516.45 206.97 333.55 206.97 333.55 162.18 486.87 162.18"/><path class="cls-19" d="M309.91,66.05a13.08,13.08,0,0,1,15.94,0h0c4.43,3.62,4.45,9.5,0,13.14a13.13,13.13,0,0,1-16,0,8.15,8.15,0,0,1-.05-13.13Z" transform="translate(0 0)"/><path class="cls-20" d="M312.23,67.92a13,13,0,0,1,15.86-.35c4.5,3.5,4.69,9.33.43,13a13.27,13.27,0,0,1-16.29.15,8.09,8.09,0,0,1,0-13Z" transform="translate(0 0)"/><path class="cls-21" d="M314.64,69.74a12.91,12.91,0,0,1,15.73.59,8,8,0,0,1,0,12.31,12.91,12.91,0,0,1-15.73.59c-4.54-3.4-4.85-9.18-.71-12.9C314.16,70.12,314.39,69.93,314.64,69.74Z" transform="translate(0 0)"/><path class="cls-22" d="M316.77,71.61a12.74,12.74,0,0,1,15.54-.31c4.39,3.43,4.56,9.14.38,12.74l-.38.31a12.74,12.74,0,0,1-15.54.31c-4.39-3.43-4.56-9.14-.38-12.74Z" transform="translate(0 0)"/><path class="cls-23" d="M319,73.47a12.6,12.6,0,0,1,15.34-.08l.1.08a7.86,7.86,0,0,1,0,12.65,12.65,12.65,0,0,1-15.42,0h0A7.88,7.88,0,0,1,319,73.47Z" transform="translate(0 0)"/><path class="cls-24" d="M321.27,75.49a12.23,12.23,0,0,1,7.63-2.56c6-.32,11.09,3.37,11.49,8.25s-4.11,9.11-10.06,9.43a11.37,11.37,0,0,1-1.43,0c-6,0-10.79-4-10.78-8.88A8.17,8.17,0,0,1,321.27,75.49Z" transform="translate(0 0)"/><path class="cls-25" d="M323.55,77.16a12.41,12.41,0,0,1,15.13,0,7.71,7.71,0,0,1,0,12.42,12.42,12.42,0,0,1-15.14,0,7.72,7.72,0,0,1,0-12.42Z" transform="translate(0 0)"/><path class="cls-26" d="M325.77,79a11.78,11.78,0,0,1,7.48-2.56c5.85,0,10.59,3.9,10.61,8.7s-4.76,8.66-10.61,8.66S322.72,90,322.69,85.25v-.08A8,8,0,0,1,325.77,79Z" transform="translate(0 0)"/><path class="cls-27" d="M328,80.86a12.15,12.15,0,0,1,14.81,0,7.54,7.54,0,0,1,0,12.14A12.14,12.14,0,0,1,328,93a7.55,7.55,0,0,1,0-12.14Z" transform="translate(0 0)"/><path class="cls-28" d="M330.32,82.72a12.09,12.09,0,0,1,14.68,0,7.52,7.52,0,0,1,0,12,12.06,12.06,0,0,1-14.68,0A7.48,7.48,0,0,1,330.32,82.72Z" transform="translate(0 0)"/><path class="cls-29" d="M332.54,84.59a11.44,11.44,0,0,1,7.3-2.49c5.67,0,10.27,3.79,10.26,8.44S345.5,99,339.84,99s-10.28-3.77-10.28-8.42A7.72,7.72,0,0,1,332.54,84.59Z" transform="translate(0 0)"/><path class="cls-30" d="M334.82,86.41a11.81,11.81,0,0,1,14.4,0,7.34,7.34,0,0,1,0,11.81,11.84,11.84,0,0,1-14.41,0,7.34,7.34,0,0,1,0-11.82Z" transform="translate(0 0)"/><path class="cls-31" d="M337.09,88.28a11.7,11.7,0,0,1,14.27,0,7.56,7.56,0,0,1,2.92,5.78c0,4.57-4.51,8.27-10.08,8.27s-10.09-3.7-10.09-8.27A7.49,7.49,0,0,1,337.09,88.28Z" transform="translate(0 0)"/><path class="cls-32" d="M339.32,90.14a11.6,11.6,0,0,1,14.13,0,7.55,7.55,0,0,1,2.92,5.73c.38,4.52-3.78,8.44-9.28,8.75s-10.28-3.1-10.66-7.62a7.1,7.1,0,0,1,0-1.13A7.36,7.36,0,0,1,339.32,90.14Z" transform="translate(0 0)"/><path class="cls-33" d="M341.59,92a11.48,11.48,0,0,1,14,0,7.14,7.14,0,0,1,0,11.48,11.48,11.48,0,0,1-14,0l0,0A7.13,7.13,0,0,1,341.59,92Z" transform="translate(0 0)"/><path class="cls-34" d="M343.86,93.83a11.33,11.33,0,0,1,13.79.54,7,7,0,0,1,0,10.77,11.33,11.33,0,0,1-13.79.54c-4-3-4.28-8-.65-11.31C343.42,94.18,343.64,94,343.86,93.83Z" transform="translate(0 0)"/><path class="cls-35" d="M346.09,95.66a11.24,11.24,0,0,1,13.69,0,7,7,0,0,1,0,11.23,11.24,11.24,0,0,1-13.69,0A7,7,0,0,1,346.09,95.66Z" transform="translate(0 0)"/><path class="cls-36" d="M348.36,97.53a11,11,0,0,1,13.4-.09l.1.09a6.87,6.87,0,0,1,0,11.07,11,11,0,0,1-13.39.21,7,7,0,0,1-.11-11.28Z" transform="translate(0 0)"/><path class="cls-37" d="M350.64,99.39a11,11,0,0,1,13.39,0,6.83,6.83,0,0,1,0,11,11,11,0,0,1-13.39,0,6.82,6.82,0,0,1,0-11Z" transform="translate(0 0)"/><path class="cls-38" d="M352.73,102A10.15,10.15,0,0,1,359,99.88c4.89-.69,9.55,2,10.4,6s-2.41,7.78-7.3,8.48a10.73,10.73,0,0,1-3.1,0c-5-.11-8.87-3.49-8.73-7.53A6.7,6.7,0,0,1,352.73,102Z" transform="translate(0 0)"/><path class="cls-39" d="M355.14,103.08a11,11,0,0,1,13.39-.12,6.83,6.83,0,0,1,.15,11,11,11,0,0,1-13.4.12,7.13,7.13,0,0,1-2.84-5.62A6.92,6.92,0,0,1,355.14,103.08Z" transform="translate(0 0)"/><path class="cls-40" d="M357.27,105a10.06,10.06,0,0,1,6.44-2.22c5.05,0,9.14,3.36,9.14,7.5s-4,7.46-9,7.5h-.19c-5,0-9.14-3.36-9.14-7.5A6.77,6.77,0,0,1,357.27,105Z" transform="translate(0 0)"/><path class="cls-41" d="M359.63,106.77a10.64,10.64,0,0,1,12.79,0,6.53,6.53,0,0,1,0,10.5,10.52,10.52,0,0,1-12.79,0A6.54,6.54,0,0,1,359.63,106.77Z" transform="translate(0 0)"/><path class="cls-42" d="M362,108.64a10.44,10.44,0,0,1,12.73,0,6.49,6.49,0,0,1,.06,10.44,10.44,10.44,0,0,1-12.73,0,6.78,6.78,0,0,1-2.66-5.23A6.68,6.68,0,0,1,362,108.64Z" transform="translate(0 0)"/><path class="cls-43" d="M364.18,110.47a10.28,10.28,0,0,1,12.53.09,6.68,6.68,0,0,1,2.53,5c-.36,4-4.6,7-9.48,6.71-4.38-.26-7.86-3.12-8.18-6.71A6.53,6.53,0,0,1,364.18,110.47Z" transform="translate(0 0)"/><path class="cls-44" d="M366.41,112.33a10.16,10.16,0,0,1,12.39,0,6.32,6.32,0,0,1,0,10.16,10.19,10.19,0,0,1-12.4,0,6.32,6.32,0,0,1,0-10.17Z" transform="translate(0 0)"/><path class="cls-45" d="M368.68,114.35a10,10,0,0,1,12.12.08,6.17,6.17,0,0,1-.09,9.94,9.93,9.93,0,0,1-12.12-.07,6.47,6.47,0,0,1-2.47-4.94A6.54,6.54,0,0,1,368.68,114.35Z" transform="translate(0 0)"/><path class="cls-46" d="M370.91,116.06A9.73,9.73,0,0,1,377,114c4.71,0,8.52,3.13,8.52,7s-3.81,7-8.52,7h0a9.73,9.73,0,0,1-6.06-2.06,6.17,6.17,0,0,1,0-9.87Z" transform="translate(0 0)"/><path class="cls-47" d="M373.18,117.89a9.77,9.77,0,0,1,11.92,0,6.07,6.07,0,0,1,0,9.78,9.8,9.8,0,0,1-11.91,0A6.11,6.11,0,0,1,373.18,117.89Z" transform="translate(0 0)"/><path class="cls-48" d="M375.45,119.75a9.65,9.65,0,0,1,11.75,0,6,6,0,0,1,0,9.64,9.59,9.59,0,0,1-11.66.08l-.09-.08a5.94,5.94,0,0,1-.09-9.56Z" transform="translate(0 0)"/><path class="cls-49" d="M377.68,121.62a9.56,9.56,0,0,1,11.65,0,6.12,6.12,0,0,1,2.42,4.74c.07,3.73-3.55,6.81-8.1,6.88a9.22,9.22,0,0,1-6.11-2.1,5.86,5.86,0,0,1,.14-9.52Z" transform="translate(0 0)"/><path class="cls-50" d="M380,123.44a9.45,9.45,0,0,1,11.52,0,5.87,5.87,0,0,1,0,9.45,9.47,9.47,0,0,1-11.52,0h0a5.9,5.9,0,0,1,0-9.45Z" transform="translate(0 0)"/><path class="cls-51" d="M382.23,125.31a9.23,9.23,0,0,1,11.25.06,5.74,5.74,0,0,1-.08,9.23,9.21,9.21,0,0,1-11.25-.06,5.74,5.74,0,0,1,.08-9.23Z" transform="translate(0 0)"/><path class="cls-52" d="M384.45,127.17a8.89,8.89,0,0,1,5.59-1.9c4.37,0,7.91,2.91,7.91,6.49h0a5.92,5.92,0,0,1-2.32,4.59,8.89,8.89,0,0,1-5.59,1.9,9.13,9.13,0,0,1-5.59-1.9,6,6,0,0,1-2.27-4.59A5.9,5.9,0,0,1,384.45,127.17Z" transform="translate(0 0)"/><path class="cls-53" d="M386.73,129a9.08,9.08,0,0,1,11,0,5.9,5.9,0,0,1,2.27,4.55c-.33,3.53-4.09,6.17-8.39,5.89-3.84-.24-6.89-2.74-7.19-5.89A5.94,5.94,0,0,1,386.73,129Z" transform="translate(0 0)"/><path class="cls-54" d="M389,130.87a8.47,8.47,0,0,1,5.45-1.87c4.26,0,7.71,2.85,7.7,6.35s-3.45,6.31-7.7,6.32A8.47,8.47,0,0,1,389,139.8a5.53,5.53,0,0,1,0-8.9l0,0Z" transform="translate(0 0)"/><path class="cls-55" d="M391.22,132.73a8.52,8.52,0,0,1,5.4-1.82,8.26,8.26,0,0,1,5.36,1.82,5.43,5.43,0,0,1,0,8.74l0,0a8.27,8.27,0,0,1-5.36,1.83c-4.18,0-7.59-2.76-7.61-6.19A5.71,5.71,0,0,1,391.22,132.73Z" transform="translate(0 0)"/><path class="cls-56" d="M393.5,134.56a8.75,8.75,0,0,1,10.61,0,5.65,5.65,0,0,1,2.18,4.35c0,3.39-3.36,6.14-7.49,6.14s-7.48-2.75-7.48-6.14A5.62,5.62,0,0,1,393.5,134.56Z" transform="translate(0 0)"/><path class="cls-57" d="M395.77,136.42a8.52,8.52,0,0,1,10.38,0l0,0a5.46,5.46,0,0,1,2.18,4.28c0,3.35-3.3,6.06-7.38,6.07s-7.39-2.7-7.4-6.05v0A5.49,5.49,0,0,1,395.77,136.42Z" transform="translate(0 0)"/><path class="cls-58" d="M398,138.29a8.28,8.28,0,0,1,5.16-1.79,8.14,8.14,0,0,1,5.16,1.79,5.25,5.25,0,0,1-.08,8.46,8.42,8.42,0,0,1-10.24,0,5.23,5.23,0,0,1,0-8.41l0,0Z" transform="translate(0 0)"/><path class="cls-59" d="M400.25,140.3a8.09,8.09,0,0,1,5-1.67c3.88-.52,7.54,1.62,8.18,4.78s-2,6.14-5.88,6.65a11.89,11.89,0,0,1-7.32-1.67,5.1,5.1,0,0,1,0-8.2Z" transform="translate(0 0)"/><path class="cls-60" d="M402.54,142a8.15,8.15,0,0,1,9.92.05,5,5,0,0,1-.07,8.13,8.12,8.12,0,0,1-9.91,0,5.27,5.27,0,0,1-2-4A5.35,5.35,0,0,1,402.54,142Z" transform="translate(0 0)"/><path class="cls-61" d="M404.63,143.85a8.07,8.07,0,0,1,9.87,0,5,5,0,0,1,0,8.1,8.13,8.13,0,0,1-9.9,0,5.38,5.38,0,0,1-2-3.89A5.23,5.23,0,0,1,404.63,143.85Z" transform="translate(0 0)"/><path class="cls-62" d="M407,145.67a8,8,0,0,1,9.72,0,5,5,0,0,1-.05,8,8,8,0,0,1-9.67,0,5.33,5.33,0,0,1-2-3.89A5.22,5.22,0,0,1,407,145.67Z" transform="translate(0 0)"/><path class="cls-63" d="M409.36,147.54a7.41,7.41,0,0,1,4.74-1.64c3.74,0,6.76,2.51,6.75,5.58s-3,5.53-6.75,5.54a7.46,7.46,0,0,1-4.74-1.63,4.86,4.86,0,0,1,0-7.78Z" transform="translate(0 0)"/><path class="cls-64" d="M411.54,149.32a7.73,7.73,0,0,1,4.74-1.59c3.69,0,6.68,2.45,6.68,5.48s-3,5.48-6.68,5.48-6.69-2.43-6.71-5.46A5,5,0,0,1,411.54,149.32Z" transform="translate(0 0)"/><path class="cls-65" d="M413.82,151.23a7.68,7.68,0,0,1,9.37-.08l.1.08a5,5,0,0,1,1.94,3.88c0,3-3,5.4-6.59,5.4s-6.57-2.42-6.58-5.4A4.91,4.91,0,0,1,413.82,151.23Z" transform="translate(0 0)"/><path class="cls-66" d="M416.09,153.21a7,7,0,0,1,4.74-1.55c3.56,0,6.46,2.36,6.48,5.28s-2.9,5.32-6.48,5.32-6.45-2.39-6.45-5.32A4.66,4.66,0,0,1,416.09,153.21Z" transform="translate(0 0)"/><path class="cls-67" d="M418.32,154.92a7.76,7.76,0,0,1,9.23,0,5,5,0,0,1,1.9,3.69c-.06,2.88-2.89,5.21-6.4,5.25a7.22,7.22,0,0,1-4.5-1.56,4.77,4.77,0,0,1-1.85-3.69A4.82,4.82,0,0,1,418.32,154.92Z" transform="translate(0 0)"/><path class="cls-68" d="M420.59,156.78a6.9,6.9,0,0,1,4.4-1.51,7.1,7.1,0,0,1,4.45,1.51,4.83,4.83,0,0,1,1.8,3.66c0,2.81-2.73,5.11-6.15,5.13H425c-3.44,0-6.22-2.31-6.25-5.13A4.77,4.77,0,0,1,420.59,156.78Z" transform="translate(0 0)"/><path class="cls-69" d="M422.86,158.65a7.1,7.1,0,0,1,8.64,0l0,0a4.46,4.46,0,0,1,1.8,3.57c0,2.79-2.76,5.06-6.16,5.06S421,165,421,162.22A4.53,4.53,0,0,1,422.86,158.65Z" transform="translate(0 0)"/><path class="cls-70" d="M425.09,160.48a7.1,7.1,0,0,1,8.57,0,4.57,4.57,0,0,1,1.75,3.53,4.51,4.51,0,0,1-1.75,3.5,7,7,0,0,1-8.51.05l-.06-.05a4.41,4.41,0,0,1,0-7Z" transform="translate(0 0)"/><path class="cls-71" d="M427.36,162.34a6.81,6.81,0,0,1,8.31-.06l.07.06a4.4,4.4,0,0,1,1.76,3.46c.29,2.69-2.13,5.07-5.42,5.31s-6.18-1.75-6.47-4.44a4.22,4.22,0,0,1,0-.87A4.39,4.39,0,0,1,427.36,162.34Z" transform="translate(0 0)"/><path class="cls-72" d="M429.63,164.21a6.35,6.35,0,0,1,4.12-1.4c3.22,0,5.84,2.13,5.85,4.76s-2.6,4.79-5.81,4.8h0a6.4,6.4,0,0,1-4.12-1.4,4.14,4.14,0,0,1-.13-6.65l.13-.11Z" transform="translate(0 0)"/><path class="cls-73" d="M431.86,166a6.77,6.77,0,0,1,8.24-.08,4.21,4.21,0,0,1,.1,6.76,6.75,6.75,0,0,1-8.24.08,4.2,4.2,0,0,1-.1-6.76Z" transform="translate(0 0)"/><path class="cls-74" d="M434.13,167.9a6.51,6.51,0,0,1,7.91-.05l0,.05a4.31,4.31,0,0,1,1.66,3.26,4.25,4.25,0,0,1-1.66,3.27,6.48,6.48,0,0,1-7.9,0l-.06,0a4.21,4.21,0,0,1-1.65-3.27A4.27,4.27,0,0,1,434.13,167.9Z" transform="translate(0 0)"/><path class="cls-75" d="M436.36,169.76a6.44,6.44,0,0,1,7.84,0,4,4,0,0,1,0,6.43,6.48,6.48,0,0,1-7.86,0,4,4,0,0,1,0-6.41Z" transform="translate(0 0)"/><path class="cls-76" d="M438.63,171.59a6.07,6.07,0,0,1,3.84-1.28c3-.23,5.65,1.57,5.93,4s-1.92,4.64-4.92,4.87a8.51,8.51,0,0,1-1,0,6.13,6.13,0,0,1-3.84-1.29,4,4,0,0,1,0-6.33Z" transform="translate(0 0)"/><path class="cls-77" d="M440.91,173.45a5.86,5.86,0,0,1,3.74-1.28c3,0,5.35,2,5.35,4.39h0a4,4,0,0,1-1.56,3.07,6,6,0,0,1-3.79,1.29c-2.92,0-5.28-2-5.31-4.36A4,4,0,0,1,440.91,173.45Z" transform="translate(0 0)"/><path class="cls-78" d="M443.13,175.32a6.11,6.11,0,0,1,7.44,0,4,4,0,0,1,1.51,3c.28,2.37-1.84,4.48-4.73,4.7s-5.46-1.51-5.73-3.88a3.75,3.75,0,0,1,0-.82A3.93,3.93,0,0,1,443.13,175.32Z" transform="translate(0 0)"/><path class="cls-79" d="M445.41,177.15a5.72,5.72,0,0,1,3.64-1.21,5.59,5.59,0,0,1,3.6,1.21,3.88,3.88,0,0,1,1.52,3c0,2.31-2.3,4.17-5.12,4.2a5.77,5.77,0,0,1-3.64-1.25,3.81,3.81,0,0,1-1.52-3A3.88,3.88,0,0,1,445.41,177.15Z" transform="translate(0 0)"/><path class="cls-80" d="M447.68,179a5.3,5.3,0,0,1,3.55-1.2,5.58,5.58,0,0,1,3.55,1.2,3.63,3.63,0,0,1,0,5.83,5.61,5.61,0,0,1-3.56,1.2c-2.77,0-5-1.84-5-4.11A3.77,3.77,0,0,1,447.68,179Z" transform="translate(0 0)"/><path class="cls-81" d="M449.9,180.88a5.75,5.75,0,0,1,3.51-1.21c2.55.12,4.59,1.79,4.74,3.89a3.83,3.83,0,0,1-1.47,2.87,5.31,5.31,0,0,1-3.46,1.17c-2.62,0-4.74-1.74-4.74-3.89A3.58,3.58,0,0,1,449.9,180.88Z" transform="translate(0 0)"/><path class="cls-82" d="M452,182.7a5.51,5.51,0,0,1,6.7-.1l.12.1a3.43,3.43,0,0,1-.12,5.5,5.51,5.51,0,0,1-6.7-.1A3.41,3.41,0,0,1,452,182.7Z" transform="translate(0 0)"/><path class="cls-83" d="M454.45,184.57a5.51,5.51,0,0,1,6.63,0,3.6,3.6,0,0,1,1.42,2.72c0,2.14-2.14,3.88-4.75,3.87a5.33,5.33,0,0,1-3.3-1.11,3.42,3.42,0,0,1,0-5.48Z" transform="translate(0 0)"/><path class="cls-84" d="M456.72,186.43a5.52,5.52,0,0,1,6.54,0,3.35,3.35,0,0,1,1.37,2.65,3.58,3.58,0,0,1-1.37,2.68,5.52,5.52,0,0,1-6.54,0,3.55,3.55,0,0,1-1.32-2.68A3.59,3.59,0,0,1,456.72,186.43Z" transform="translate(0 0)"/><path class="cls-85" d="M459,188.18a5.23,5.23,0,0,1,6.39,0,3.39,3.39,0,0,1,0,5.25,5.23,5.23,0,0,1-6.39,0A3.4,3.4,0,0,1,459,188.18Z" transform="translate(0 0)"/><path class="cls-86" d="M461.46,190.12a4.8,4.8,0,0,1,3.08-1c2.41,0,4.38,1.56,4.4,3.53v.08a3.24,3.24,0,0,1-1.27,2.53,5,5,0,0,1-3.13,1.08c-2.36-.13-4.24-1.67-4.41-3.61A3.4,3.4,0,0,1,461.46,190.12Z" transform="translate(0 0)"/><path class="cls-87" d="M463.45,192.07a5,5,0,0,1,6.1,0,3.26,3.26,0,0,1,1.24,2.46,3.31,3.31,0,0,1-1.23,2.49,5,5,0,0,1-6.1,0h0a3.31,3.31,0,0,1-1.23-2.49A3.18,3.18,0,0,1,463.45,192.07Z" transform="translate(0 0)"/><path class="cls-88" d="M465.72,193.82a4.7,4.7,0,0,1,3-1,4.57,4.57,0,0,1,2.93,1,3.15,3.15,0,0,1,1.23,2.44,3.18,3.18,0,0,1-1.23,2.45,4.57,4.57,0,0,1-2.93,1,4.76,4.76,0,0,1-3-1,3.24,3.24,0,0,1-1.23-2.45A3.18,3.18,0,0,1,465.72,193.82Z" transform="translate(0 0)"/><path class="cls-89" d="M468,195.68a4.36,4.36,0,0,1,2.89-1c2.25,0,4.07,1.5,4.07,3.34s-1.82,3.34-4.07,3.34a4.3,4.3,0,0,1-2.89-1,2.9,2.9,0,0,1-.09-4.67Z" transform="translate(0 0)"/><path class="cls-90" d="M470.22,197.55a4.38,4.38,0,0,1,2.84-1c2.19,0,4,1.47,4,3.26a3,3,0,0,1-1.18,2.33,4.36,4.36,0,0,1-2.8.93c-2.14.05-3.92-1.34-4-3.1a.43.43,0,0,1,0-.16A2.88,2.88,0,0,1,470.22,197.55Z" transform="translate(0 0)"/><path class="cls-91" d="M472.5,199.37a4.52,4.52,0,0,1,5.49,0,2.93,2.93,0,0,1,1.14,2.26,2.86,2.86,0,0,1-1.14,2.25,4.49,4.49,0,0,1-5.49,0h0a2.86,2.86,0,0,1-1.14-2.25A2.93,2.93,0,0,1,472.5,199.37Z" transform="translate(0 0)"/><path class="cls-92" d="M474.77,201.24a4,4,0,0,1,2.65-.93,4.19,4.19,0,0,1,2.7.93,2.83,2.83,0,0,1,1.09,2.17c0,1.7-1.63,3.09-3.69,3.11h-.1a4.17,4.17,0,0,1-2.65-.89,2.84,2.84,0,0,1-1.14-2.22A2.75,2.75,0,0,1,474.77,201.24Z" transform="translate(0 0)"/><path class="cls-93" d="M477,203.06a4.43,4.43,0,0,1,5.21,0,2.79,2.79,0,0,1,1.08,2.14,2.7,2.7,0,0,1-1.08,2.14,4.23,4.23,0,0,1-5.16,0l-.05,0a2.69,2.69,0,0,1-1.09-2.14A2.77,2.77,0,0,1,477,203.06Z" transform="translate(0 0)"/><path class="cls-94" d="M479.27,204.93a4.09,4.09,0,0,1,2.51-.86c2,0,3.59,1.35,3.58,3a2.76,2.76,0,0,1-1,2,4,4,0,0,1-2.56.85,3.89,3.89,0,0,1-2.51-.85A2.6,2.6,0,0,1,479.27,204.93Z" transform="translate(0 0)"/><path class="cls-95" d="M481.54,206.8a3.9,3.9,0,0,1,4.74,0,2.5,2.5,0,0,1,1,2c0,1.56-1.55,2.83-3.46,2.83h0a3.8,3.8,0,0,1-2.42-.81,2.58,2.58,0,0,1-1-2A2.54,2.54,0,0,1,481.54,206.8Z" transform="translate(0 0)"/><path class="cls-96" d="M483.77,208.62a4.07,4.07,0,0,1,4.73,0,2.44,2.44,0,0,1,.43,3.89,3.76,3.76,0,0,1-5.16,0A2.43,2.43,0,0,1,483.77,208.62Z" transform="translate(0 0)"/><path class="cls-97" d="M486,210.49a3.84,3.84,0,0,1,4.64,0,2.49,2.49,0,0,1,.95,1.9,3,3,0,0,1-3.17,2.68h-.1a3.71,3.71,0,0,1-2.32-.78,2.55,2.55,0,0,1-1-1.9A2.49,2.49,0,0,1,486,210.49Z" transform="translate(0 0)"/><path class="cls-98" d="M488.31,212.35a3.38,3.38,0,0,1,2.23-.78,2.66,2.66,0,1,1,0,5.21,3.33,3.33,0,0,1-2.23-.78,2.22,2.22,0,0,1-.09-3.57l.09-.08Z" transform="translate(0 0)"/><path class="cls-99" d="M490.54,214.18a3.56,3.56,0,0,1,4.35,0,2.21,2.21,0,0,1,0,3.57,3.59,3.59,0,0,1-4.36,0,2.32,2.32,0,0,1-.9-1.78A2.43,2.43,0,0,1,490.54,214.18Z" transform="translate(0 0)"/><path class="cls-100" d="M492.81,216a3.5,3.5,0,0,1,4.17,0,2.12,2.12,0,0,1,.06,3.41l-.06.05a3.47,3.47,0,0,1-4.17,0,2.19,2.19,0,0,1,0-3.46Z" transform="translate(0 0)"/><path class="cls-101" d="M495.09,217.91a2.91,2.91,0,0,1,2-.7,3.16,3.16,0,0,1,2,.7,2,2,0,0,1,.08,3.24l-.08.06a3.16,3.16,0,0,1-2,.7,2.91,2.91,0,0,1-2-.7,2,2,0,0,1,0-3.3Z" transform="translate(0 0)"/><path class="cls-102" d="M497.31,219.73a3.18,3.18,0,0,1,2-.46,2.54,2.54,0,0,1,2.75,2.25v0a1.92,1.92,0,0,1-.81,1.59,3,3,0,0,1-1.94.66,2.53,2.53,0,0,1-2.75-2.25A2.14,2.14,0,0,1,497.31,219.73Z" transform="translate(0 0)"/><path class="cls-103" d="M499.59,221.6a2.84,2.84,0,0,1,1.84-.62,2.44,2.44,0,0,1,2.66,2.1v.07a1.91,1.91,0,0,1-.76,1.52,3,3,0,0,1-3.62.1l-.12-.1a2,2,0,0,1-.81-1.52A2,2,0,0,1,499.59,221.6Z" transform="translate(0 0)"/><path class="cls-104" d="M501.81,223.47a2.84,2.84,0,0,1,1.85-.63,2.74,2.74,0,0,1,1.8.63,1.9,1.9,0,0,1,0,2.95,3,3,0,0,1-3.62,0l0,0a1.9,1.9,0,0,1,0-2.95Z" transform="translate(0 0)"/><path class="cls-105" d="M504.09,225.29a2.85,2.85,0,0,1,3.45,0,1.81,1.81,0,0,1,.71,1.44,1.73,1.73,0,0,1-.71,1.4,2.75,2.75,0,0,1-3.34.09l-.11-.09a1.73,1.73,0,0,1-.71-1.4A1.78,1.78,0,0,1,504.09,225.29Z" transform="translate(0 0)"/><path class="cls-106" d="M506.36,227a2.62,2.62,0,0,1,1.66-.54,2.76,2.76,0,0,1,1.65.54,1.73,1.73,0,0,1,0,2.72,2.7,2.7,0,0,1-1.65.54,2.62,2.62,0,0,1-1.66-.54,1.64,1.64,0,0,1-.1-2.64Z" transform="translate(0 0)"/><path class="cls-107" d="M508.82,229a2.56,2.56,0,0,1,1.61-.54,2.1,2.1,0,0,1,2.23,1.82,1.76,1.76,0,0,1-.66,1.33,2.5,2.5,0,0,1-1.57.5,2,2,0,0,1-2.22-1.67.43.43,0,0,1,0-.16A1.62,1.62,0,0,1,508.82,229Z" transform="translate(0 0)"/><path class="cls-108" d="M510.86,230.93a2.46,2.46,0,0,1,3,0,1.63,1.63,0,0,1,.64,1.26,1.68,1.68,0,0,1-.62,1.24,2.54,2.54,0,0,1-3,0,1.62,1.62,0,0,1-.62-1.24A1.68,1.68,0,0,1,510.86,230.93Z" transform="translate(0 0)"/><path class="cls-109" d="M513.13,232.71a2.27,2.27,0,0,1,2.75-.08l.09.08a1.44,1.44,0,0,1,0,2.37,2.4,2.4,0,0,1-2.84,0,1.46,1.46,0,0,1,0-2.37Z" transform="translate(0 0)"/><path class="cls-110" d="M515.36,234.58a2.25,2.25,0,0,1,2.74,0h0a1.36,1.36,0,0,1,0,2.21,2.22,2.22,0,0,1-2.74,0h0a1.36,1.36,0,0,1,0-2.21Z" transform="translate(0 0)"/><path class="cls-111" d="M517.63,236.4a2.07,2.07,0,0,1,1.28-.42,1.69,1.69,0,0,1,1.85,1.43v.08a1.39,1.39,0,0,1-.52,1,2.18,2.18,0,0,1-1.33.43,1.66,1.66,0,0,1-1.8-1.48h0A1.49,1.49,0,0,1,517.63,236.4Z" transform="translate(0 0)"/><path class="cls-112" d="M519.9,238.27a2,2,0,0,1,1.19-.43,1.66,1.66,0,0,1,1.75,1.44,1.23,1.23,0,0,1-.52,1,1.88,1.88,0,0,1-1.23.43,1.9,1.9,0,0,1-1.19-.43,1.23,1.23,0,0,1-.52-1A1.3,1.3,0,0,1,519.9,238.27Z" transform="translate(0 0)"/><path class="cls-113" d="M522.13,240.14a1.92,1.92,0,0,1,2.32,0,1.15,1.15,0,0,1,0,1.86,1.92,1.92,0,0,1-2.32,0A1.15,1.15,0,0,1,522.13,240.14Z" transform="translate(0 0)"/><path class="cls-114" d="M524.4,242a1.81,1.81,0,0,1,2.14,0,1.09,1.09,0,0,1,0,1.79,1.81,1.81,0,0,1-2.14,0,1.16,1.16,0,0,1-.42-.89A1.13,1.13,0,0,1,524.4,242Z" transform="translate(0 0)"/><path class="cls-115" d="M526.68,243.83a1.41,1.41,0,0,1,1-.35,1.5,1.5,0,0,1,1,.35,1,1,0,0,1,0,1.59l0,0a1.56,1.56,0,0,1-1,.35,1.31,1.31,0,0,1-1.4-1.18A1.07,1.07,0,0,1,526.68,243.83Z" transform="translate(0 0)"/><path class="cls-116" d="M528.9,245.69a1.33,1.33,0,0,1,1-.35,1.5,1.5,0,0,1,.95.35,1,1,0,0,1,.38.74,1,1,0,0,1-.38.78,1.71,1.71,0,0,1-.95.31,1.21,1.21,0,0,1-1.33-1v-.08A1,1,0,0,1,528.9,245.69Z" transform="translate(0 0)"/><path class="cls-117" d="M531.18,247.52a1.47,1.47,0,0,1,1.7,0,.88.88,0,0,1,.38.7.83.83,0,0,1-.38.7,1.32,1.32,0,0,1-1.6.08l-.1-.08a.82.82,0,0,1-.34-.7A.85.85,0,0,1,531.18,247.52Z" transform="translate(0 0)"/><path class="cls-118" d="M533.45,249.38a1.3,1.3,0,0,1,.76-.27,1.45,1.45,0,0,1,.8.27.88.88,0,0,1,.33.63.82.82,0,0,1-.33.66,1.45,1.45,0,0,1-.8.27,1.3,1.3,0,0,1-.76-.27.8.8,0,0,1,0-1.29Z" transform="translate(0 0)"/><path class="cls-119" d="M535.68,251.25a1.1,1.1,0,0,1,1.33-.07l.09.07a.71.71,0,0,1,0,1.13,1.1,1.1,0,0,1-1.34.06l-.08-.06a.65.65,0,0,1-.29-.55A.68.68,0,0,1,535.68,251.25Z" transform="translate(0 0)"/><path class="cls-120" d="M539.46,253.62a.62.62,0,0,1-.23.5,1,1,0,0,1-.67.24.84.84,0,0,1-.61-.24.73.73,0,0,1-.29-.5.85.85,0,0,1,.29-.55,1.08,1.08,0,0,1,.61-.19.78.78,0,0,1,.9.57A.49.49,0,0,1,539.46,253.62Z" transform="translate(0 0)"/><path class="cls-121" d="M313.84,69.2a6.81,6.81,0,0,1,8.31,0,4.23,4.23,0,0,1,0,6.82,6.81,6.81,0,0,1-8.31,0,4.23,4.23,0,0,1,0-6.82Z" transform="translate(0 0)"/><path class="cls-122" d="M380.72,134c3.78,3.26,8.12,5.93,11.52,9.57h96.24v-10H380.08A3.73,3.73,0,0,1,380.72,134Z" transform="translate(0 0)"/><path class="cls-123" d="M442,196.72c.41,3.36,1,6.7,1.73,10h73.45v-10Z" transform="translate(0 0)"/><polygon class="cls-18" points="486.87 162.18 486.87 172.26 344.64 172.26 344.64 196.96 516.45 196.96 516.45 206.97 333.55 206.97 333.55 162.18 486.87 162.18"/><path class="cls-19" d="M309.91,66.05a13.08,13.08,0,0,1,15.94,0h0c4.43,3.62,4.45,9.5,0,13.14a13.13,13.13,0,0,1-16,0,8.15,8.15,0,0,1-.05-13.13Z" transform="translate(0 0)"/><path class="cls-20" d="M312.23,67.92a13,13,0,0,1,15.86-.35c4.5,3.5,4.69,9.33.43,13a13.27,13.27,0,0,1-16.29.15,8.09,8.09,0,0,1,0-13Z" transform="translate(0 0)"/><path class="cls-21" d="M314.64,69.74a12.91,12.91,0,0,1,15.73.59,8,8,0,0,1,0,12.31,12.91,12.91,0,0,1-15.73.59c-4.54-3.4-4.85-9.18-.71-12.9C314.16,70.12,314.39,69.93,314.64,69.74Z" transform="translate(0 0)"/><path class="cls-22" d="M316.77,71.61a12.74,12.74,0,0,1,15.54-.31c4.39,3.43,4.56,9.14.38,12.74l-.38.31a12.74,12.74,0,0,1-15.54.31c-4.39-3.43-4.56-9.14-.38-12.74Z" transform="translate(0 0)"/><path class="cls-23" d="M319,73.47a12.6,12.6,0,0,1,15.34-.08l.1.08a7.86,7.86,0,0,1,0,12.65,12.65,12.65,0,0,1-15.42,0h0A7.88,7.88,0,0,1,319,73.47Z" transform="translate(0 0)"/><path class="cls-24" d="M321.27,75.49a12.23,12.23,0,0,1,7.63-2.56c6-.32,11.09,3.37,11.49,8.25s-4.11,9.11-10.06,9.43a11.37,11.37,0,0,1-1.43,0c-6,0-10.79-4-10.78-8.88A8.17,8.17,0,0,1,321.27,75.49Z" transform="translate(0 0)"/><path class="cls-25" d="M323.55,77.16a12.41,12.41,0,0,1,15.13,0,7.71,7.71,0,0,1,0,12.42,12.42,12.42,0,0,1-15.14,0,7.72,7.72,0,0,1,0-12.42Z" transform="translate(0 0)"/><path class="cls-26" d="M325.77,79a11.78,11.78,0,0,1,7.48-2.56c5.85,0,10.59,3.9,10.61,8.7s-4.76,8.66-10.61,8.66S322.72,90,322.69,85.25v-.08A8,8,0,0,1,325.77,79Z" transform="translate(0 0)"/><path class="cls-27" d="M328,80.86a12.15,12.15,0,0,1,14.81,0,7.54,7.54,0,0,1,0,12.14A12.14,12.14,0,0,1,328,93a7.55,7.55,0,0,1,0-12.14Z" transform="translate(0 0)"/><path class="cls-28" d="M330.32,82.72a12.09,12.09,0,0,1,14.68,0,7.52,7.52,0,0,1,0,12,12.06,12.06,0,0,1-14.68,0A7.48,7.48,0,0,1,330.32,82.72Z" transform="translate(0 0)"/><path class="cls-29" d="M332.54,84.59a11.44,11.44,0,0,1,7.3-2.49c5.67,0,10.27,3.79,10.26,8.44S345.5,99,339.84,99s-10.28-3.77-10.28-8.42A7.72,7.72,0,0,1,332.54,84.59Z" transform="translate(0 0)"/><path class="cls-30" d="M334.82,86.41a11.81,11.81,0,0,1,14.4,0,7.34,7.34,0,0,1,0,11.81,11.84,11.84,0,0,1-14.41,0,7.34,7.34,0,0,1,0-11.82Z" transform="translate(0 0)"/><path class="cls-31" d="M337.09,88.28a11.7,11.7,0,0,1,14.27,0,7.56,7.56,0,0,1,2.92,5.78c0,4.57-4.51,8.27-10.08,8.27s-10.09-3.7-10.09-8.27A7.49,7.49,0,0,1,337.09,88.28Z" transform="translate(0 0)"/><path class="cls-32" d="M339.32,90.14a11.6,11.6,0,0,1,14.13,0,7.55,7.55,0,0,1,2.92,5.73c.38,4.52-3.78,8.44-9.28,8.75s-10.28-3.1-10.66-7.62a7.1,7.1,0,0,1,0-1.13A7.36,7.36,0,0,1,339.32,90.14Z" transform="translate(0 0)"/><path class="cls-33" d="M341.59,92a11.48,11.48,0,0,1,14,0,7.14,7.14,0,0,1,0,11.48,11.48,11.48,0,0,1-14,0l0,0A7.13,7.13,0,0,1,341.59,92Z" transform="translate(0 0)"/><path class="cls-34" d="M343.86,93.83a11.33,11.33,0,0,1,13.79.54,7,7,0,0,1,0,10.77,11.33,11.33,0,0,1-13.79.54c-4-3-4.28-8-.65-11.31C343.42,94.18,343.64,94,343.86,93.83Z" transform="translate(0 0)"/><path class="cls-35" d="M346.09,95.66a11.24,11.24,0,0,1,13.69,0,7,7,0,0,1,0,11.23,11.24,11.24,0,0,1-13.69,0A7,7,0,0,1,346.09,95.66Z" transform="translate(0 0)"/><path class="cls-36" d="M348.36,97.53a11,11,0,0,1,13.4-.09l.1.09a6.87,6.87,0,0,1,0,11.07,11,11,0,0,1-13.39.21,7,7,0,0,1-.11-11.28Z" transform="translate(0 0)"/><path class="cls-37" d="M350.64,99.39a11,11,0,0,1,13.39,0,6.83,6.83,0,0,1,0,11,11,11,0,0,1-13.39,0,6.82,6.82,0,0,1,0-11Z" transform="translate(0 0)"/><path class="cls-38" d="M352.73,102A10.15,10.15,0,0,1,359,99.88c4.89-.69,9.55,2,10.4,6s-2.41,7.78-7.3,8.48a10.73,10.73,0,0,1-3.1,0c-5-.11-8.87-3.49-8.73-7.53A6.7,6.7,0,0,1,352.73,102Z" transform="translate(0 0)"/><path class="cls-39" d="M355.14,103.08a11,11,0,0,1,13.39-.12,6.83,6.83,0,0,1,.15,11,11,11,0,0,1-13.4.12,7.13,7.13,0,0,1-2.84-5.62A6.92,6.92,0,0,1,355.14,103.08Z" transform="translate(0 0)"/><path class="cls-40" d="M357.27,105a10.06,10.06,0,0,1,6.44-2.22c5.05,0,9.14,3.36,9.14,7.5s-4,7.46-9,7.5h-.19c-5,0-9.14-3.36-9.14-7.5A6.77,6.77,0,0,1,357.27,105Z" transform="translate(0 0)"/><path class="cls-41" d="M359.63,106.77a10.64,10.64,0,0,1,12.79,0,6.53,6.53,0,0,1,0,10.5,10.52,10.52,0,0,1-12.79,0A6.54,6.54,0,0,1,359.63,106.77Z" transform="translate(0 0)"/><path class="cls-42" d="M362,108.64a10.44,10.44,0,0,1,12.73,0,6.49,6.49,0,0,1,.06,10.44,10.44,10.44,0,0,1-12.73,0,6.78,6.78,0,0,1-2.66-5.23A6.68,6.68,0,0,1,362,108.64Z" transform="translate(0 0)"/><path class="cls-43" d="M364.18,110.47a10.28,10.28,0,0,1,12.53.09,6.68,6.68,0,0,1,2.53,5c-.36,4-4.6,7-9.48,6.71-4.38-.26-7.86-3.12-8.18-6.71A6.53,6.53,0,0,1,364.18,110.47Z" transform="translate(0 0)"/><path class="cls-44" d="M366.41,112.33a10.16,10.16,0,0,1,12.39,0,6.32,6.32,0,0,1,0,10.16,10.19,10.19,0,0,1-12.4,0,6.32,6.32,0,0,1,0-10.17Z" transform="translate(0 0)"/><path class="cls-45" d="M368.68,114.35a10,10,0,0,1,12.12.08,6.17,6.17,0,0,1-.09,9.94,9.93,9.93,0,0,1-12.12-.07,6.47,6.47,0,0,1-2.47-4.94A6.54,6.54,0,0,1,368.68,114.35Z" transform="translate(0 0)"/><path class="cls-46" d="M370.91,116.06A9.73,9.73,0,0,1,377,114c4.71,0,8.52,3.13,8.52,7s-3.81,7-8.52,7h0a9.73,9.73,0,0,1-6.06-2.06,6.17,6.17,0,0,1,0-9.87Z" transform="translate(0 0)"/><path class="cls-47" d="M373.18,117.89a9.77,9.77,0,0,1,11.92,0,6.07,6.07,0,0,1,0,9.78,9.8,9.8,0,0,1-11.91,0A6.11,6.11,0,0,1,373.18,117.89Z" transform="translate(0 0)"/><path class="cls-48" d="M375.45,119.75a9.65,9.65,0,0,1,11.75,0,6,6,0,0,1,0,9.64,9.59,9.59,0,0,1-11.66.08l-.09-.08a5.94,5.94,0,0,1-.09-9.56Z" transform="translate(0 0)"/><path class="cls-49" d="M377.68,121.62a9.56,9.56,0,0,1,11.65,0,6.12,6.12,0,0,1,2.42,4.74c.07,3.73-3.55,6.81-8.1,6.88a9.22,9.22,0,0,1-6.11-2.1,5.86,5.86,0,0,1,.14-9.52Z" transform="translate(0 0)"/><path class="cls-50" d="M380,123.44a9.45,9.45,0,0,1,11.52,0,5.87,5.87,0,0,1,0,9.45,9.47,9.47,0,0,1-11.52,0h0a5.9,5.9,0,0,1,0-9.45Z" transform="translate(0 0)"/><path class="cls-51" d="M382.23,125.31a9.23,9.23,0,0,1,11.25.06,5.74,5.74,0,0,1-.08,9.23,9.21,9.21,0,0,1-11.25-.06,5.74,5.74,0,0,1,.08-9.23Z" transform="translate(0 0)"/><path class="cls-52" d="M384.45,127.17a8.89,8.89,0,0,1,5.59-1.9c4.37,0,7.91,2.91,7.91,6.49h0a5.92,5.92,0,0,1-2.32,4.59,8.89,8.89,0,0,1-5.59,1.9,9.13,9.13,0,0,1-5.59-1.9,6,6,0,0,1-2.27-4.59A5.9,5.9,0,0,1,384.45,127.17Z" transform="translate(0 0)"/><path class="cls-53" d="M386.73,129a9.08,9.08,0,0,1,11,0,5.9,5.9,0,0,1,2.27,4.55c-.33,3.53-4.09,6.17-8.39,5.89-3.84-.24-6.89-2.74-7.19-5.89A5.94,5.94,0,0,1,386.73,129Z" transform="translate(0 0)"/><path class="cls-54" d="M389,130.87a8.47,8.47,0,0,1,5.45-1.87c4.26,0,7.71,2.85,7.7,6.35s-3.45,6.31-7.7,6.32A8.47,8.47,0,0,1,389,139.8a5.53,5.53,0,0,1,0-8.9l0,0Z" transform="translate(0 0)"/><path class="cls-55" d="M391.22,132.73a8.52,8.52,0,0,1,5.4-1.82,8.26,8.26,0,0,1,5.36,1.82,5.43,5.43,0,0,1,0,8.74l0,0a8.27,8.27,0,0,1-5.36,1.83c-4.18,0-7.59-2.76-7.61-6.19A5.71,5.71,0,0,1,391.22,132.73Z" transform="translate(0 0)"/><path class="cls-56" d="M393.5,134.56a8.75,8.75,0,0,1,10.61,0,5.65,5.65,0,0,1,2.18,4.35c0,3.39-3.36,6.14-7.49,6.14s-7.48-2.75-7.48-6.14A5.62,5.62,0,0,1,393.5,134.56Z" transform="translate(0 0)"/><path class="cls-57" d="M395.77,136.42a8.52,8.52,0,0,1,10.38,0l0,0a5.46,5.46,0,0,1,2.18,4.28c0,3.35-3.3,6.06-7.38,6.07s-7.39-2.7-7.4-6.05v0A5.49,5.49,0,0,1,395.77,136.42Z" transform="translate(0 0)"/><path class="cls-58" d="M398,138.29a8.28,8.28,0,0,1,5.16-1.79,8.14,8.14,0,0,1,5.16,1.79,5.25,5.25,0,0,1-.08,8.46,8.42,8.42,0,0,1-10.24,0,5.23,5.23,0,0,1,0-8.41l0,0Z" transform="translate(0 0)"/><path class="cls-59" d="M400.25,140.3a8.09,8.09,0,0,1,5-1.67c3.88-.52,7.54,1.62,8.18,4.78s-2,6.14-5.88,6.65a11.89,11.89,0,0,1-7.32-1.67,5.1,5.1,0,0,1,0-8.2Z" transform="translate(0 0)"/><path class="cls-60" d="M402.54,142a8.15,8.15,0,0,1,9.92.05,5,5,0,0,1-.07,8.13,8.12,8.12,0,0,1-9.91,0,5.27,5.27,0,0,1-2-4A5.35,5.35,0,0,1,402.54,142Z" transform="translate(0 0)"/><path class="cls-61" d="M404.63,143.85a8.07,8.07,0,0,1,9.87,0,5,5,0,0,1,0,8.1,8.13,8.13,0,0,1-9.9,0,5.38,5.38,0,0,1-2-3.89A5.23,5.23,0,0,1,404.63,143.85Z" transform="translate(0 0)"/><path class="cls-62" d="M407,145.67a8,8,0,0,1,9.72,0,5,5,0,0,1-.05,8,8,8,0,0,1-9.67,0,5.33,5.33,0,0,1-2-3.89A5.22,5.22,0,0,1,407,145.67Z" transform="translate(0 0)"/><path class="cls-63" d="M409.36,147.54a7.41,7.41,0,0,1,4.74-1.64c3.74,0,6.76,2.51,6.75,5.58s-3,5.53-6.75,5.54a7.46,7.46,0,0,1-4.74-1.63,4.86,4.86,0,0,1,0-7.78Z" transform="translate(0 0)"/><path class="cls-64" d="M411.54,149.32a7.73,7.73,0,0,1,4.74-1.59c3.69,0,6.68,2.45,6.68,5.48s-3,5.48-6.68,5.48-6.69-2.43-6.71-5.46A5,5,0,0,1,411.54,149.32Z" transform="translate(0 0)"/><path class="cls-65" d="M413.82,151.23a7.68,7.68,0,0,1,9.37-.08l.1.08a5,5,0,0,1,1.94,3.88c0,3-3,5.4-6.59,5.4s-6.57-2.42-6.58-5.4A4.91,4.91,0,0,1,413.82,151.23Z" transform="translate(0 0)"/><path class="cls-66" d="M416.09,153.21a7,7,0,0,1,4.74-1.55c3.56,0,6.46,2.36,6.48,5.28s-2.9,5.32-6.48,5.32-6.45-2.39-6.45-5.32A4.66,4.66,0,0,1,416.09,153.21Z" transform="translate(0 0)"/><path class="cls-67" d="M418.32,154.92a7.76,7.76,0,0,1,9.23,0,5,5,0,0,1,1.9,3.69c-.06,2.88-2.89,5.21-6.4,5.25a7.22,7.22,0,0,1-4.5-1.56,4.77,4.77,0,0,1-1.85-3.69A4.82,4.82,0,0,1,418.32,154.92Z" transform="translate(0 0)"/><path class="cls-68" d="M420.59,156.78a6.9,6.9,0,0,1,4.4-1.51,7.1,7.1,0,0,1,4.45,1.51,4.83,4.83,0,0,1,1.8,3.66c0,2.81-2.73,5.11-6.15,5.13H425c-3.44,0-6.22-2.31-6.25-5.13A4.77,4.77,0,0,1,420.59,156.78Z" transform="translate(0 0)"/><path class="cls-69" d="M422.86,158.65a7.1,7.1,0,0,1,8.64,0l0,0a4.46,4.46,0,0,1,1.8,3.57c0,2.79-2.76,5.06-6.16,5.06S421,165,421,162.22A4.53,4.53,0,0,1,422.86,158.65Z" transform="translate(0 0)"/><path class="cls-70" d="M425.09,160.48a7.1,7.1,0,0,1,8.57,0,4.57,4.57,0,0,1,1.75,3.53,4.51,4.51,0,0,1-1.75,3.5,7,7,0,0,1-8.51.05l-.06-.05a4.41,4.41,0,0,1,0-7Z" transform="translate(0 0)"/><path class="cls-71" d="M427.36,162.34a6.81,6.81,0,0,1,8.31-.06l.07.06a4.4,4.4,0,0,1,1.76,3.46c.29,2.69-2.13,5.07-5.42,5.31s-6.18-1.75-6.47-4.44a4.22,4.22,0,0,1,0-.87A4.39,4.39,0,0,1,427.36,162.34Z" transform="translate(0 0)"/><path class="cls-72" d="M429.63,164.21a6.35,6.35,0,0,1,4.12-1.4c3.22,0,5.84,2.13,5.85,4.76s-2.6,4.79-5.81,4.8h0a6.4,6.4,0,0,1-4.12-1.4,4.14,4.14,0,0,1-.13-6.65l.13-.11Z" transform="translate(0 0)"/><path class="cls-73" d="M431.86,166a6.77,6.77,0,0,1,8.24-.08,4.21,4.21,0,0,1,.1,6.76,6.75,6.75,0,0,1-8.24.08,4.2,4.2,0,0,1-.1-6.76Z" transform="translate(0 0)"/><path class="cls-74" d="M434.13,167.9a6.51,6.51,0,0,1,7.91-.05l0,.05a4.31,4.31,0,0,1,1.66,3.26,4.25,4.25,0,0,1-1.66,3.27,6.48,6.48,0,0,1-7.9,0l-.06,0a4.21,4.21,0,0,1-1.65-3.27A4.27,4.27,0,0,1,434.13,167.9Z" transform="translate(0 0)"/><path class="cls-75" d="M436.36,169.76a6.44,6.44,0,0,1,7.84,0,4,4,0,0,1,0,6.43,6.48,6.48,0,0,1-7.86,0,4,4,0,0,1,0-6.41Z" transform="translate(0 0)"/><path class="cls-76" d="M438.63,171.59a6.07,6.07,0,0,1,3.84-1.28c3-.23,5.65,1.57,5.93,4s-1.92,4.64-4.92,4.87a8.51,8.51,0,0,1-1,0,6.13,6.13,0,0,1-3.84-1.29,4,4,0,0,1,0-6.33Z" transform="translate(0 0)"/><path class="cls-77" d="M440.91,173.45a5.86,5.86,0,0,1,3.74-1.28c3,0,5.35,2,5.35,4.39h0a4,4,0,0,1-1.56,3.07,6,6,0,0,1-3.79,1.29c-2.92,0-5.28-2-5.31-4.36A4,4,0,0,1,440.91,173.45Z" transform="translate(0 0)"/><path class="cls-78" d="M443.13,175.32a6.11,6.11,0,0,1,7.44,0,4,4,0,0,1,1.51,3c.28,2.37-1.84,4.48-4.73,4.7s-5.46-1.51-5.73-3.88a3.75,3.75,0,0,1,0-.82A3.93,3.93,0,0,1,443.13,175.32Z" transform="translate(0 0)"/><path class="cls-79" d="M445.41,177.15a5.72,5.72,0,0,1,3.64-1.21,5.59,5.59,0,0,1,3.6,1.21,3.88,3.88,0,0,1,1.52,3c0,2.31-2.3,4.17-5.12,4.2a5.77,5.77,0,0,1-3.64-1.25,3.81,3.81,0,0,1-1.52-3A3.88,3.88,0,0,1,445.41,177.15Z" transform="translate(0 0)"/><path class="cls-80" d="M447.68,179a5.3,5.3,0,0,1,3.55-1.2,5.58,5.58,0,0,1,3.55,1.2,3.63,3.63,0,0,1,0,5.83,5.61,5.61,0,0,1-3.56,1.2c-2.77,0-5-1.84-5-4.11A3.77,3.77,0,0,1,447.68,179Z" transform="translate(0 0)"/><path class="cls-81" d="M449.9,180.88a5.75,5.75,0,0,1,3.51-1.21c2.55.12,4.59,1.79,4.74,3.89a3.83,3.83,0,0,1-1.47,2.87,5.31,5.31,0,0,1-3.46,1.17c-2.62,0-4.74-1.74-4.74-3.89A3.58,3.58,0,0,1,449.9,180.88Z" transform="translate(0 0)"/><path class="cls-82" d="M452,182.7a5.51,5.51,0,0,1,6.7-.1l.12.1a3.43,3.43,0,0,1-.12,5.5,5.51,5.51,0,0,1-6.7-.1A3.41,3.41,0,0,1,452,182.7Z" transform="translate(0 0)"/><path class="cls-83" d="M454.45,184.57a5.51,5.51,0,0,1,6.63,0,3.6,3.6,0,0,1,1.42,2.72c0,2.14-2.14,3.88-4.75,3.87a5.33,5.33,0,0,1-3.3-1.11,3.42,3.42,0,0,1,0-5.48Z" transform="translate(0 0)"/><path class="cls-84" d="M456.72,186.43a5.52,5.52,0,0,1,6.54,0,3.35,3.35,0,0,1,1.37,2.65,3.58,3.58,0,0,1-1.37,2.68,5.52,5.52,0,0,1-6.54,0,3.55,3.55,0,0,1-1.32-2.68A3.59,3.59,0,0,1,456.72,186.43Z" transform="translate(0 0)"/><path class="cls-85" d="M459,188.18a5.23,5.23,0,0,1,6.39,0,3.39,3.39,0,0,1,0,5.25,5.23,5.23,0,0,1-6.39,0A3.4,3.4,0,0,1,459,188.18Z" transform="translate(0 0)"/><path class="cls-86" d="M461.46,190.12a4.8,4.8,0,0,1,3.08-1c2.41,0,4.38,1.56,4.4,3.53v.08a3.24,3.24,0,0,1-1.27,2.53,5,5,0,0,1-3.13,1.08c-2.36-.13-4.24-1.67-4.41-3.61A3.4,3.4,0,0,1,461.46,190.12Z" transform="translate(0 0)"/><path class="cls-87" d="M463.45,192.07a5,5,0,0,1,6.1,0,3.26,3.26,0,0,1,1.24,2.46,3.31,3.31,0,0,1-1.23,2.49,5,5,0,0,1-6.1,0h0a3.31,3.31,0,0,1-1.23-2.49A3.18,3.18,0,0,1,463.45,192.07Z" transform="translate(0 0)"/><path class="cls-88" d="M465.72,193.82a4.7,4.7,0,0,1,3-1,4.57,4.57,0,0,1,2.93,1,3.15,3.15,0,0,1,1.23,2.44,3.18,3.18,0,0,1-1.23,2.45,4.57,4.57,0,0,1-2.93,1,4.76,4.76,0,0,1-3-1,3.24,3.24,0,0,1-1.23-2.45A3.18,3.18,0,0,1,465.72,193.82Z" transform="translate(0 0)"/><path class="cls-89" d="M468,195.68a4.36,4.36,0,0,1,2.89-1c2.25,0,4.07,1.5,4.07,3.34s-1.82,3.34-4.07,3.34a4.3,4.3,0,0,1-2.89-1,2.9,2.9,0,0,1-.09-4.67Z" transform="translate(0 0)"/><path class="cls-90" d="M470.22,197.55a4.38,4.38,0,0,1,2.84-1c2.19,0,4,1.47,4,3.26a3,3,0,0,1-1.18,2.33,4.36,4.36,0,0,1-2.8.93c-2.14.05-3.92-1.34-4-3.1a.43.43,0,0,1,0-.16A2.88,2.88,0,0,1,470.22,197.55Z" transform="translate(0 0)"/><path class="cls-91" d="M472.5,199.37a4.52,4.52,0,0,1,5.49,0,2.93,2.93,0,0,1,1.14,2.26,2.86,2.86,0,0,1-1.14,2.25,4.49,4.49,0,0,1-5.49,0h0a2.86,2.86,0,0,1-1.14-2.25A2.93,2.93,0,0,1,472.5,199.37Z" transform="translate(0 0)"/><path class="cls-92" d="M474.77,201.24a4,4,0,0,1,2.65-.93,4.19,4.19,0,0,1,2.7.93,2.83,2.83,0,0,1,1.09,2.17c0,1.7-1.63,3.09-3.69,3.11h-.1a4.17,4.17,0,0,1-2.65-.89,2.84,2.84,0,0,1-1.14-2.22A2.75,2.75,0,0,1,474.77,201.24Z" transform="translate(0 0)"/><path class="cls-93" d="M477,203.06a4.43,4.43,0,0,1,5.21,0,2.79,2.79,0,0,1,1.08,2.14,2.7,2.7,0,0,1-1.08,2.14,4.23,4.23,0,0,1-5.16,0l-.05,0a2.69,2.69,0,0,1-1.09-2.14A2.77,2.77,0,0,1,477,203.06Z" transform="translate(0 0)"/><path class="cls-94" d="M479.27,204.93a4.09,4.09,0,0,1,2.51-.86c2,0,3.59,1.35,3.58,3a2.76,2.76,0,0,1-1,2,4,4,0,0,1-2.56.85,3.89,3.89,0,0,1-2.51-.85A2.6,2.6,0,0,1,479.27,204.93Z" transform="translate(0 0)"/><path class="cls-95" d="M481.54,206.8a3.9,3.9,0,0,1,4.74,0,2.5,2.5,0,0,1,1,2c0,1.56-1.55,2.83-3.46,2.83h0a3.8,3.8,0,0,1-2.42-.81,2.58,2.58,0,0,1-1-2A2.54,2.54,0,0,1,481.54,206.8Z" transform="translate(0 0)"/><path class="cls-96" d="M483.77,208.62a4.07,4.07,0,0,1,4.73,0,2.44,2.44,0,0,1,.43,3.89,3.76,3.76,0,0,1-5.16,0A2.43,2.43,0,0,1,483.77,208.62Z" transform="translate(0 0)"/><path class="cls-97" d="M486,210.49a3.84,3.84,0,0,1,4.64,0,2.49,2.49,0,0,1,.95,1.9,3,3,0,0,1-3.17,2.68h-.1a3.71,3.71,0,0,1-2.32-.78,2.55,2.55,0,0,1-1-1.9A2.49,2.49,0,0,1,486,210.49Z" transform="translate(0 0)"/><path class="cls-98" d="M488.31,212.35a3.38,3.38,0,0,1,2.23-.78,2.66,2.66,0,1,1,0,5.21,3.33,3.33,0,0,1-2.23-.78,2.22,2.22,0,0,1-.09-3.57l.09-.08Z" transform="translate(0 0)"/><path class="cls-99" d="M490.54,214.18a3.56,3.56,0,0,1,4.35,0,2.21,2.21,0,0,1,0,3.57,3.59,3.59,0,0,1-4.36,0,2.32,2.32,0,0,1-.9-1.78A2.43,2.43,0,0,1,490.54,214.18Z" transform="translate(0 0)"/><path class="cls-100" d="M492.81,216a3.5,3.5,0,0,1,4.17,0,2.12,2.12,0,0,1,.06,3.41l-.06.05a3.47,3.47,0,0,1-4.17,0,2.19,2.19,0,0,1,0-3.46Z" transform="translate(0 0)"/><path class="cls-101" d="M495.09,217.91a2.91,2.91,0,0,1,2-.7,3.16,3.16,0,0,1,2,.7,2,2,0,0,1,.08,3.24l-.08.06a3.16,3.16,0,0,1-2,.7,2.91,2.91,0,0,1-2-.7,2,2,0,0,1,0-3.3Z" transform="translate(0 0)"/><path class="cls-102" d="M497.31,219.73a3.18,3.18,0,0,1,2-.46,2.54,2.54,0,0,1,2.75,2.25v0a1.92,1.92,0,0,1-.81,1.59,3,3,0,0,1-1.94.66,2.53,2.53,0,0,1-2.75-2.25A2.14,2.14,0,0,1,497.31,219.73Z" transform="translate(0 0)"/><path class="cls-103" d="M499.59,221.6a2.84,2.84,0,0,1,1.84-.62,2.44,2.44,0,0,1,2.66,2.1v.07a1.91,1.91,0,0,1-.76,1.52,3,3,0,0,1-3.62.1l-.12-.1a2,2,0,0,1-.81-1.52A2,2,0,0,1,499.59,221.6Z" transform="translate(0 0)"/><path class="cls-104" d="M501.81,223.47a2.84,2.84,0,0,1,1.85-.63,2.74,2.74,0,0,1,1.8.63,1.9,1.9,0,0,1,0,2.95,3,3,0,0,1-3.62,0l0,0a1.9,1.9,0,0,1,0-2.95Z" transform="translate(0 0)"/><path class="cls-105" d="M504.09,225.29a2.85,2.85,0,0,1,3.45,0,1.81,1.81,0,0,1,.71,1.44,1.73,1.73,0,0,1-.71,1.4,2.75,2.75,0,0,1-3.34.09l-.11-.09a1.73,1.73,0,0,1-.71-1.4A1.78,1.78,0,0,1,504.09,225.29Z" transform="translate(0 0)"/><path class="cls-106" d="M506.36,227a2.62,2.62,0,0,1,1.66-.54,2.76,2.76,0,0,1,1.65.54,1.73,1.73,0,0,1,0,2.72,2.7,2.7,0,0,1-1.65.54,2.62,2.62,0,0,1-1.66-.54,1.64,1.64,0,0,1-.1-2.64Z" transform="translate(0 0)"/><path class="cls-107" d="M508.82,229a2.56,2.56,0,0,1,1.61-.54,2.1,2.1,0,0,1,2.23,1.82,1.76,1.76,0,0,1-.66,1.33,2.5,2.5,0,0,1-1.57.5,2,2,0,0,1-2.22-1.67.43.43,0,0,1,0-.16A1.62,1.62,0,0,1,508.82,229Z" transform="translate(0 0)"/><path class="cls-108" d="M510.86,230.93a2.46,2.46,0,0,1,3,0,1.63,1.63,0,0,1,.64,1.26,1.68,1.68,0,0,1-.62,1.24,2.54,2.54,0,0,1-3,0,1.62,1.62,0,0,1-.62-1.24A1.68,1.68,0,0,1,510.86,230.93Z" transform="translate(0 0)"/><path class="cls-109" d="M513.13,232.71a2.27,2.27,0,0,1,2.75-.08l.09.08a1.44,1.44,0,0,1,0,2.37,2.4,2.4,0,0,1-2.84,0,1.46,1.46,0,0,1,0-2.37Z" transform="translate(0 0)"/><path class="cls-110" d="M515.36,234.58a2.25,2.25,0,0,1,2.74,0h0a1.36,1.36,0,0,1,0,2.21,2.22,2.22,0,0,1-2.74,0h0a1.36,1.36,0,0,1,0-2.21Z" transform="translate(0 0)"/><path class="cls-111" d="M517.63,236.4a2.07,2.07,0,0,1,1.28-.42,1.69,1.69,0,0,1,1.85,1.43v.08a1.39,1.39,0,0,1-.52,1,2.18,2.18,0,0,1-1.33.43,1.66,1.66,0,0,1-1.8-1.48h0A1.49,1.49,0,0,1,517.63,236.4Z" transform="translate(0 0)"/><path class="cls-112" d="M519.9,238.27a2,2,0,0,1,1.19-.43,1.66,1.66,0,0,1,1.75,1.44,1.23,1.23,0,0,1-.52,1,1.88,1.88,0,0,1-1.23.43,1.9,1.9,0,0,1-1.19-.43,1.23,1.23,0,0,1-.52-1A1.3,1.3,0,0,1,519.9,238.27Z" transform="translate(0 0)"/><path class="cls-113" d="M522.13,240.14a1.92,1.92,0,0,1,2.32,0,1.15,1.15,0,0,1,0,1.86,1.92,1.92,0,0,1-2.32,0A1.15,1.15,0,0,1,522.13,240.14Z" transform="translate(0 0)"/><path class="cls-114" d="M524.4,242a1.81,1.81,0,0,1,2.14,0,1.09,1.09,0,0,1,0,1.79,1.81,1.81,0,0,1-2.14,0,1.16,1.16,0,0,1-.42-.89A1.13,1.13,0,0,1,524.4,242Z" transform="translate(0 0)"/><path class="cls-115" d="M526.68,243.83a1.41,1.41,0,0,1,1-.35,1.5,1.5,0,0,1,1,.35,1,1,0,0,1,0,1.59l0,0a1.56,1.56,0,0,1-1,.35,1.31,1.31,0,0,1-1.4-1.18A1.07,1.07,0,0,1,526.68,243.83Z" transform="translate(0 0)"/><path class="cls-116" d="M528.9,245.69a1.33,1.33,0,0,1,1-.35,1.5,1.5,0,0,1,.95.35,1,1,0,0,1,.38.74,1,1,0,0,1-.38.78,1.71,1.71,0,0,1-.95.31,1.21,1.21,0,0,1-1.33-1v-.08A1,1,0,0,1,528.9,245.69Z" transform="translate(0 0)"/><path class="cls-117" d="M531.18,247.52a1.47,1.47,0,0,1,1.7,0,.88.88,0,0,1,.38.7.83.83,0,0,1-.38.7,1.32,1.32,0,0,1-1.6.08l-.1-.08a.82.82,0,0,1-.34-.7A.85.85,0,0,1,531.18,247.52Z" transform="translate(0 0)"/><path class="cls-118" d="M533.45,249.38a1.3,1.3,0,0,1,.76-.27,1.45,1.45,0,0,1,.8.27.88.88,0,0,1,.33.63.82.82,0,0,1-.33.66,1.45,1.45,0,0,1-.8.27,1.3,1.3,0,0,1-.76-.27.8.8,0,0,1,0-1.29Z" transform="translate(0 0)"/><path class="cls-119" d="M535.68,251.25a1.1,1.1,0,0,1,1.33-.07l.09.07a.71.71,0,0,1,0,1.13,1.1,1.1,0,0,1-1.34.06l-.08-.06a.65.65,0,0,1-.29-.55A.68.68,0,0,1,535.68,251.25Z" transform="translate(0 0)"/><path class="cls-120" d="M539.46,253.62a.62.62,0,0,1-.23.5,1,1,0,0,1-.67.24.84.84,0,0,1-.61-.24.73.73,0,0,1-.29-.5.85.85,0,0,1,.29-.55,1.08,1.08,0,0,1,.61-.19.78.78,0,0,1,.9.57A.49.49,0,0,1,539.46,253.62Z" transform="translate(0 0)"/><path class="cls-121" d="M313.84,69.2a6.81,6.81,0,0,1,8.31,0,4.23,4.23,0,0,1,0,6.82,6.81,6.81,0,0,1-8.31,0,4.23,4.23,0,0,1,0-6.82Z" transform="translate(0 0)"/><path class="cls-122" d="M380.72,134c3.78,3.26,8.12,5.93,11.52,9.57h96.24v-10H380.08A3.73,3.73,0,0,1,380.72,134Z" transform="translate(0 0)"/></svg>