<svg id="Layer_1" data-name="Layer 1" xmlns="http://www.w3.org/2000/svg" xmlns:xlink="http://www.w3.org/1999/xlink" viewBox="0 0 841.9 595.3"><defs><style>.cls-1{fill:#0e1525;}.cls-10,.cls-11,.cls-117,.cls-118,.cls-12,.cls-13,.cls-2,.cls-3,.cls-4,.cls-5,.cls-6,.cls-7,.cls-8,.cls-9{stroke-miterlimit:10;stroke-width:2px;}.cls-2{fill:url(#linear-gradient);stroke:url(#linear-gradient-2);}.cls-3{fill:url(#linear-gradient-3);stroke:url(#linear-gradient-4);}.cls-4{fill:url(#linear-gradient-5);stroke:url(#linear-gradient-6);}.cls-5{fill:url(#linear-gradient-7);stroke:url(#linear-gradient-8);}.cls-6{fill:url(#linear-gradient-9);stroke:url(#linear-gradient-10);}.cls-7{fill:url(#linear-gradient-11);stroke:url(#linear-gradient-12);}.cls-8{fill:url(#linear-gradient-13);stroke:url(#linear-gradient-14);}.cls-9{fill:url(#linear-gradient-15);stroke:url(#linear-gradient-16);}.cls-10{fill:url(#linear-gradient-17);stroke:url(#linear-gradient-18);}.cls-11{fill:url(#linear-gradient-19);stroke:url(#linear-gradient-20);}.cls-12{fill:url(#linear-gradient-21);stroke:url(#linear-gradient-22);}.cls-13{fill:url(#linear-gradient-23);stroke:url(#linear-gradient-24);}.cls-100,.cls-101,.cls-102,.cls-103,.cls-104,.cls-105,.cls-106,.cls-107,.cls-108,.cls-109,.cls-110,.cls-111,.cls-112,.cls-113,.cls-114,.cls-115,.cls-14,.cls-15,.cls-16,.cls-17,.cls-18,.cls-19,.cls-20,.cls-21,.cls-22,.cls-23,.cls-24,.cls-25,.cls-26,.cls-27,.cls-28,.cls-29,.cls-30,.cls-31,.cls-32,.cls-33,.cls-34,.cls-35,.cls-36,.cls-37,.cls-38,.cls-39,.cls-40,.cls-41,.cls-42,.cls-43,.cls-44,.cls-45,.cls-46,.cls-47,.cls-48,.cls-49,.cls-50,.cls-51,.cls-52,.cls-53,.cls-54,.cls-55,.cls-56,.cls-57,.cls-58,.cls-59,.cls-60,.cls-61,.cls-62,.cls-63,.cls-64,.cls-65,.cls-66,.cls-67,.cls-68,.cls-69,.cls-70,.cls-71,.cls-72,.cls-73,.cls-74,.cls-75,.cls-76,.cls-77,.cls-78,.cls-79,.cls-80,.cls-81,.cls-82,.cls-83,.cls-84,.cls-85,.cls-86,.cls-87,.cls-88,.cls-89,.cls-90,.cls-91,.cls-92,.cls-93,.cls-94,.cls-95,.cls-96,.cls-97,.cls-98,.cls-99{fill:#f4c152;}.cls-15{opacity:0.99;}.cls-100,.cls-101,.cls-102,.cls-103,.cls-104,.cls-105,.cls-106,.cls-107,.cls-108,.cls-109,.cls-110,.cls-111,.cls-112,.cls-113,.cls-114,.cls-115,.cls-15,.cls-16,.cls-17,.cls-18,.cls-19,.cls-20,.cls-21,.cls-22,.cls-23,.cls-24,.cls-25,.cls-26,.cls-27,.cls-28,.cls-29,.cls-30,.cls-31,.cls-32,.cls-33,.cls-34,.cls-35,.cls-36,.cls-37,.cls-38,.cls-39,.cls-40,.cls-41,.cls-42,.cls-43,.cls-44,.cls-45,.cls-46,.cls-47,.cls-48,.cls-49,.cls-50,.cls-51,.cls-52,.cls-53,.cls-54,.cls-55,.cls-56,.cls-57,.cls-58,.cls-59,.cls-60,.cls-61,.cls-62,.cls-63,.cls-64,.cls-65,.cls-66,.cls-67,.cls-68,.cls-69,.cls-70,.cls-71,.cls-72,.cls-73,.cls-74,.cls-75,.cls-76,.cls-77,.cls-78,.cls-79,.cls-80,.cls-81,.cls-82,.cls-83,.cls-84,.cls-85,.cls-86,.cls-87,.cls-88,.cls-89,.cls-90,.cls-91,.cls-92,.cls-93,.cls-94,.cls-95,.cls-96,.cls-97,.cls-98,.cls-99{isolation:isolate;}.cls-16{opacity:0.98;}.cls-17{opacity:0.97;}.cls-18{opacity:0.96;}.cls-19{opacity:0.95;}.cls-20{opacity:0.94;}.cls-21{opacity:0.93;}.cls-22{opacity:0.92;}.cls-23{opacity:0.91;}.cls-24{opacity:0.9;}.cls-25{opacity:0.89;}.cls-26{opacity:0.88;}.cls-27{opacity:0.87;}.cls-28{opacity:0.86;}.cls-29{opacity:0.85;}.cls-30{opacity:0.84;}.cls-31{opacity:0.83;}.cls-32{opacity:0.82;}.cls-33{opacity:0.81;}.cls-34{opacity:0.8;}.cls-35{opacity:0.79;}.cls-36{opacity:0.78;}.cls-37{opacity:0.77;}.cls-38{opacity:0.76;}.cls-39{opacity:0.75;}.cls-40{opacity:0.75;}.cls-41{opacity:0.74;}.cls-42{opacity:0.73;}.cls-43{opacity:0.72;}.cls-44{opacity:0.71;}.cls-45{opacity:0.7;}.cls-46{opacity:0.69;}.cls-47{opacity:0.68;}.cls-48{opacity:0.67;}.cls-49{opacity:0.66;}.cls-50{opacity:0.65;}.cls-51{opacity:0.64;}.cls-52{opacity:0.63;}.cls-53{opacity:0.62;}.cls-54{opacity:0.61;}.cls-55{opacity:0.6;}.cls-56{opacity:0.59;}.cls-57{opacity:0.58;}.cls-58{opacity:0.57;}.cls-59{opacity:0.56;}.cls-60{opacity:0.55;}.cls-61{opacity:0.54;}.cls-62{opacity:0.53;}.cls-63{opacity:0.52;}.cls-64{opacity:0.51;}.cls-65{opacity:0.5;}.cls-66{opacity:0.49;}.cls-67{opacity:0.48;}.cls-68{opacity:0.47;}.cls-69{opacity:0.46;}.cls-70{opacity:0.45;}.cls-71{opacity:0.44;}.cls-72{opacity:0.43;}.cls-73{opacity:0.42;}.cls-74{opacity:0.41;}.cls-75{opacity:0.4;}.cls-76{opacity:0.39;}.cls-77{opacity:0.38;}.cls-78{opacity:0.37;}.cls-79{opacity:0.36;}.cls-80{opacity:0.35;}.cls-81{opacity:0.34;}.cls-82{opacity:0.33;}.cls-83{opacity:0.32;}.cls-84{opacity:0.31;}.cls-85{opacity:0.3;}.cls-86{opacity:0.29;}.cls-87{opacity:0.28;}.cls-88{opacity:0.27;}.cls-89{opacity:0.26;}.cls-90{opacity:0.26;}.cls-91{opacity:0.25;}.cls-92{opacity:0.24;}.cls-93{opacity:0.23;}.cls-94{opacity:0.22;}.cls-95{opacity:0.21;}.cls-96{opacity:0.2;}.cls-97{opacity:0.19;}.cls-98{opacity:0.18;}.cls-99{opacity:0.17;}.cls-100{opacity:0.16;}.cls-101{opacity:0.15;}.cls-102{opacity:0.14;}.cls-103{opacity:0.13;}.cls-104{opacity:0.12;}.cls-105{opacity:0.11;}.cls-106{opacity:0.1;}.cls-107{opacity:0.09;}.cls-108{opacity:0.08;}.cls-109{opacity:0.07;}.cls-110{opacity:0.06;}.cls-111{opacity:0.05;}.cls-112{opacity:0.04;}.cls-113{opacity:0.03;}.cls-114{opacity:0.02;}.cls-115{opacity:0.01;}.cls-116{fill:#fafafa;}.cls-117{fill:url(#linear-gradient-25);stroke:url(#linear-gradient-26);}.cls-118{fill:url(#linear-gradient-27);stroke:url(#linear-gradient-28);}</style><linearGradient id="linear-gradient" x1="733" y1="262.23" x2="799.57" y2="262.23" gradientTransform="matrix(1, 0, 0, -1, 0, 595.89)" gradientUnits="userSpaceOnUse"><stop offset="0" stop-color="#00b1ff"/><stop offset="0.01" stop-color="#05b0ff"/><stop offset="0.11" stop-color="#2ba7fd"/><stop offset="0.21" stop-color="#4ba0fc"/><stop offset="0.31" stop-color="#659afb"/><stop offset="0.43" stop-color="#7a95fa"/><stop offset="0.57" stop-color="#8892f9"/><stop offset="0.73" stop-color="#9090f9"/><stop offset="1" stop-color="#938ff9"/></linearGradient><linearGradient id="linear-gradient-2" x1="732" y1="262.23" x2="800.57" y2="262.23" xlink:href="#linear-gradient"/><linearGradient id="linear-gradient-3" x1="208.1" y1="262.22" x2="277.55" y2="262.22" xlink:href="#linear-gradient"/><linearGradient id="linear-gradient-4" x1="207.1" y1="262.22" x2="278.83" y2="262.22" xlink:href="#linear-gradient"/><linearGradient id="linear-gradient-5" x1="42.36" y1="262.23" x2="110.83" y2="262.23" xlink:href="#linear-gradient"/><linearGradient id="linear-gradient-6" x1="41.36" y1="262.23" x2="111.83" y2="262.23" xlink:href="#linear-gradient"/><linearGradient id="linear-gradient-7" x1="291.72" y1="262.23" x2="360.18" y2="262.23" xlink:href="#linear-gradient"/><linearGradient id="linear-gradient-8" x1="290.72" y1="262.23" x2="361.18" y2="262.23" xlink:href="#linear-gradient"/><linearGradient id="linear-gradient-9" x1="542.81" y1="262.23" x2="547.02" y2="262.23" xlink:href="#linear-gradient"/><linearGradient id="linear-gradient-10" x1="541.81" y1="262.23" x2="548.02" y2="262.23" xlink:href="#linear-gradient"/><linearGradient id="linear-gradient-11" x1="654.84" y1="262.21" x2="714.62" y2="262.21" xlink:href="#linear-gradient"/><linearGradient id="linear-gradient-12" x1="653.46" y1="262.21" x2="715.62" y2="262.21" xlink:href="#linear-gradient"/><linearGradient id="linear-gradient-13" x1="567.8" y1="262.23" x2="635.41" y2="262.23" xlink:href="#linear-gradient"/><linearGradient id="linear-gradient-14" x1="566.8" y1="262.23" x2="636.41" y2="262.23" xlink:href="#linear-gradient"/><linearGradient id="linear-gradient-15" x1="378.89" y1="262.24" x2="439.26" y2="262.24" xlink:href="#linear-gradient"/><linearGradient id="linear-gradient-16" x1="377.89" y1="262.24" x2="440.26" y2="262.24" xlink:href="#linear-gradient"/><linearGradient id="linear-gradient-17" x1="458.5" y1="262.23" x2="525.88" y2="262.23" xlink:href="#linear-gradient"/><linearGradient id="linear-gradient-18" x1="457.5" y1="262.23" x2="526.88" y2="262.23" xlink:href="#linear-gradient"/><linearGradient id="linear-gradient-19" x1="127.06" y1="262.23" x2="192.36" y2="262.23" xlink:href="#linear-gradient"/><linearGradient id="linear-gradient-20" x1="125.67" y1="262.23" x2="193.76" y2="262.23" xlink:href="#linear-gradient"/><linearGradient id="linear-gradient-21" x1="329.63" y1="416.84" x2="512.46" y2="416.84" gradientTransform="translate(0.02 -246.04)" xlink:href="#linear-gradient"/><linearGradient id="linear-gradient-22" x1="328.63" y1="416.84" x2="513.46" y2="416.84" gradientTransform="translate(0.02 -246.04)" xlink:href="#linear-gradient"/><linearGradient id="linear-gradient-23" x1="328.08" y1="478.13" x2="510.98" y2="478.13" gradientTransform="translate(0.02 -246.04)" xlink:href="#linear-gradient"/><linearGradient id="linear-gradient-24" x1="327.08" y1="478.13" x2="511.98" y2="478.13" gradientTransform="translate(0.02 -246.04)" xlink:href="#linear-gradient"/><linearGradient id="linear-gradient-25" x1="329.76" y1="432.07" x2="512.59" y2="432.07" gradientTransform="translate(0 -246)" xlink:href="#linear-gradient"/><linearGradient id="linear-gradient-26" x1="326.97" y1="432.07" x2="514.06" y2="432.07" gradientTransform="translate(0 -246)" xlink:href="#linear-gradient"/><linearGradient id="linear-gradient-27" x1="328.76" y1="495.28" x2="511.67" y2="495.28" gradientTransform="translate(0 -246)" xlink:href="#linear-gradient"/><linearGradient id="linear-gradient-28" x1="326.76" y1="495.28" x2="512.67" y2="495.28" gradientTransform="translate(0 -246)" xlink:href="#linear-gradient"/></defs><title>E_exceptions</title><rect class="cls-1" width="841.9" height="595.3"/><path class="cls-2" d="M742,356.1a9.13,9.13,0,0,1-9-9.1v-2.85h3.9V347a5.23,5.23,0,0,0,5.17,5.17h48.41a5.19,5.19,0,0,0,5.17-5.17v-.87a5.18,5.18,0,0,0-1.14-3.27,5,5,0,0,0-2.94-1.8l-51.4-11a9.16,9.16,0,0,1-7.17-8.89v-.88a9.12,9.12,0,0,1,9.07-9.07h48.41a9.12,9.12,0,0,1,9.09,9.07v2.54h-3.92v-2.54a5.19,5.19,0,0,0-5.17-5.17H742a5.23,5.23,0,0,0-5.17,5.17v.88a5.18,5.18,0,0,0,4.1,5.06l51.39,11a9.13,9.13,0,0,1,7.18,8.9V347a9.13,9.13,0,0,1-9.09,9.08Z" transform="translate(0.02 -0.04)"/><path class="cls-3" d="M233.53,357.38q-10.72,0-17.84-6a21,21,0,0,1-7.58-16.8v-.17a23,23,0,0,1,7.48-17.51A25.22,25.22,0,0,1,233.53,310h20a25.42,25.42,0,0,1,24,17l-3.94,1.36a21.27,21.27,0,0,0-20.06-14.2h-20A21.12,21.12,0,0,0,218.42,320a19.22,19.22,0,0,0-6.14,14.41v.17A17.11,17.11,0,0,0,218.21,348q5.94,5.21,15.32,5.21h20A21.23,21.23,0,0,0,273.61,339l3.94,1.37a25.43,25.43,0,0,1-24,17Z" transform="translate(0.02 -0.04)"/><path class="cls-4" d="M110.59,309.93v4.15H46.48v8.5H99.54v4.13H42.36V309.93ZM99.77,339v4.14H46.71v10.13h64.12v4.12H42.59V339Z" transform="translate(0.02 -0.04)"/><path class="cls-5" d="M360,309.93v4.15H295.84v8.5H348.9v4.13H291.72V309.93ZM349.13,339v4.14H296.07v10.13h64.11v4.12H292V339Z" transform="translate(0.02 -0.04)"/><path class="cls-6" d="M542.81,309.93H547v47.45h-4.21Z" transform="translate(0.02 -0.04)"/><path class="cls-7" d="M711.05,348V311.37h3.57v43.42l-59.78-41.94,2-2.92Zm-54.17-20.22,38.92,26.73-2,2.92-33.34-22.82V356h-3.54Z" transform="translate(0.02 -0.04)"/><path class="cls-8" d="M611.75,309.93a23.66,23.66,0,0,1,23.66,23.66v.14a23.67,23.67,0,0,1-23.66,23.65H591.46a23.67,23.67,0,0,1-23.66-23.65v-.14a23.66,23.66,0,0,1,23.66-23.66Zm-20.29,4.22A19.46,19.46,0,0,0,572,333.59v.14a19.46,19.46,0,0,0,19.44,19.43h20.29a19.46,19.46,0,0,0,19.44-19.43v-.14a19.46,19.46,0,0,0-19.44-19.44Z" transform="translate(0.02 -0.04)"/><path class="cls-9" d="M383.08,357.38h-4.19V323.14h50.58a9.76,9.76,0,0,0,3.75-.54,3.09,3.09,0,0,0,1.84-3.1c0-2.07-.53-3.5-1.58-4.29a6.13,6.13,0,0,0-3.78-1.09H381v-4.19h48.7a9.91,9.91,0,0,1,6.74,2.32q2.81,2.4,2.81,7.25a6.91,6.91,0,0,1-2.73,5.86,11.33,11.33,0,0,1-7,2H383.08Z" transform="translate(0.02 -0.04)"/><path class="cls-10" d="M525.88,309.93v4.19H494.3v43.26h-4.22V314.12H458.5v-4.19Z" transform="translate(0.02 -0.04)"/><path class="cls-11" d="M192.36,313.15l-29.24,20.51,29.24,20.5-2.27,3.22-30.38-21.31-30.4,21.31-2.25-3.22,29.22-20.5-29.22-20.51,2.25-3.22,30.4,21.32,30.38-21.32Z" transform="translate(0.02 -0.04)"/><polygon class="cls-12" points="512.49 150.39 512.49 160.47 340.68 160.47 340.68 181.19 482.9 181.19 482.9 191.21 329.65 191.21 329.65 150.39 512.49 150.39"/><polygon class="cls-13" points="481.42 209.69 481.42 219.77 339.19 219.77 339.19 244.47 511 244.47 511 254.48 328.1 254.48 328.1 209.69 481.42 209.69"/><path class="cls-14" d="M304.43,113.61a13.08,13.08,0,0,1,15.95,0l0,0a8.16,8.16,0,0,1,0,13.13,13.13,13.13,0,0,1-16,0c-4.43-3.62-4.45-9.5,0-13.13Z" transform="translate(0.02 -0.04)"/><path class="cls-15" d="M306.76,115.47a13,13,0,0,1,15.86-.35c4.5,3.5,4.69,9.33.43,13a12.49,12.49,0,0,1-8.34,2.87,12.68,12.68,0,0,1-7.95-2.72,8.08,8.08,0,0,1,0-13Z" transform="translate(0.02 -0.04)"/><path class="cls-16" d="M309.17,117.3a12.91,12.91,0,0,1,15.72.58,8,8,0,0,1,0,12.32,12.91,12.91,0,0,1-15.72.58c-4.54-3.4-4.86-9.17-.71-12.9C308.69,117.68,308.92,117.48,309.17,117.3Z" transform="translate(0.02 -0.04)"/><path class="cls-17" d="M311.3,119.16a12.77,12.77,0,0,1,15.54-.31c4.39,3.44,4.56,9.14.38,12.75l-.38.31a12.77,12.77,0,0,1-15.54.31c-4.39-3.43-4.56-9.14-.38-12.75Z" transform="translate(0.02 -0.04)"/><path class="cls-18" d="M313.53,121a12.59,12.59,0,0,1,15.34-.09l.1.09a7.86,7.86,0,0,1,0,12.65,12.65,12.65,0,0,1-15.41,0h0A7.88,7.88,0,0,1,313.53,121Z" transform="translate(0.02 -0.04)"/><path class="cls-19" d="M315.8,123.05a12.29,12.29,0,0,1,7.63-2.57c5.95-.32,11.09,3.38,11.49,8.26s-4.11,9.1-10.06,9.42a11.37,11.37,0,0,1-1.43,0c-6,0-10.79-4-10.78-8.87A8.14,8.14,0,0,1,315.8,123.05Z" transform="translate(0.02 -0.04)"/><path class="cls-20" d="M318.07,124.72a12.44,12.44,0,0,1,15.14,0,7.71,7.71,0,0,1,0,12.42,12.42,12.42,0,0,1-15.14,0,7.73,7.73,0,0,1,0-12.42Z" transform="translate(0.02 -0.04)"/><path class="cls-21" d="M320.3,126.59a11.79,11.79,0,0,1,7.48-2.57c5.85,0,10.59,3.91,10.61,8.7s-4.77,8.67-10.61,8.67-10.53-3.82-10.56-8.59v-.08A7.91,7.91,0,0,1,320.3,126.59Z" transform="translate(0.02 -0.04)"/><path class="cls-22" d="M322.57,128.41a12.15,12.15,0,0,1,14.81,0,7.55,7.55,0,0,1,0,12.15,12.14,12.14,0,0,1-14.8,0,7.56,7.56,0,0,1,0-12.15Z" transform="translate(0.02 -0.04)"/><path class="cls-23" d="M324.85,130.28a12.09,12.09,0,0,1,14.68,0,7.51,7.51,0,0,1,0,12,12,12,0,0,1-14.68,0A7.47,7.47,0,0,1,324.85,130.28Z" transform="translate(0.02 -0.04)"/><path class="cls-24" d="M327.07,132.14a11.55,11.55,0,0,1,7.3-2.49c5.67,0,10.27,3.79,10.26,8.45s-4.6,8.41-10.26,8.42-10.28-3.77-10.29-8.43A7.76,7.76,0,0,1,327.07,132.14Z" transform="translate(0.02 -0.04)"/><path class="cls-25" d="M329.35,134a11.82,11.82,0,0,1,14.4,0,7.35,7.35,0,0,1,0,11.82,11.81,11.81,0,0,1-14.4,0,7.33,7.33,0,0,1,0-11.81Z" transform="translate(0.02 -0.04)"/><path class="cls-26" d="M331.62,135.83a11.72,11.72,0,0,1,14.27,0,7.58,7.58,0,0,1,2.92,5.78c0,4.57-4.51,8.28-10.09,8.28s-10.08-3.71-10.08-8.28A7.52,7.52,0,0,1,331.62,135.83Z" transform="translate(0.02 -0.04)"/><path class="cls-27" d="M333.85,137.7a11.6,11.6,0,0,1,14.13,0,7.58,7.58,0,0,1,2.92,5.74c.38,4.52-3.78,8.43-9.29,8.74s-10.27-3.09-10.65-7.61a7.11,7.11,0,0,1,0-1.13A7.35,7.35,0,0,1,333.85,137.7Z" transform="translate(0.02 -0.04)"/><path class="cls-28" d="M336.12,139.52a11.51,11.51,0,0,1,14,0,7.14,7.14,0,0,1,0,11.49,11.46,11.46,0,0,1-14,0l0,0A7.14,7.14,0,0,1,336.12,139.52Z" transform="translate(0.02 -0.04)"/><path class="cls-29" d="M338.39,141.39a11.31,11.31,0,0,1,13.78.54,7,7,0,0,1,0,10.77,11.3,11.3,0,0,1-13.78.53c-4-3-4.28-8-.65-11.3C338,141.74,338.16,141.56,338.39,141.39Z" transform="translate(0.02 -0.04)"/><path class="cls-30" d="M340.62,143.22a11.24,11.24,0,0,1,13.69,0,7,7,0,0,1,0,11.23,11.24,11.24,0,0,1-13.69,0A7,7,0,0,1,340.62,143.22Z" transform="translate(0.02 -0.04)"/><path class="cls-31" d="M342.89,145.08a11,11,0,0,1,13.4-.08l.1.08a6.9,6.9,0,0,1,0,11.08,11,11,0,0,1-13.39.2,7,7,0,0,1-.11-11.28Z" transform="translate(0.02 -0.04)"/><path class="cls-32" d="M345.17,147a11,11,0,0,1,13.39,0,6.83,6.83,0,0,1,0,11,11,11,0,0,1-13.39,0,6.82,6.82,0,0,1,0-11Z" transform="translate(0.02 -0.04)"/><path class="cls-33" d="M347.26,149.53a10.15,10.15,0,0,1,6.29-2.09c4.89-.7,9.55,2,10.4,5.95s-2.41,7.79-7.3,8.48a10.73,10.73,0,0,1-3.1,0c-5-.11-8.87-3.48-8.73-7.53A6.68,6.68,0,0,1,347.26,149.53Z" transform="translate(0.02 -0.04)"/><path class="cls-34" d="M349.66,150.64a11,11,0,0,1,13.4-.12,6.83,6.83,0,0,1,.15,11,11,11,0,0,1-13.4.12A7.17,7.17,0,0,1,347,156,7,7,0,0,1,349.66,150.64Z" transform="translate(0.02 -0.04)"/><path class="cls-35" d="M351.8,152.5a10.05,10.05,0,0,1,6.44-2.21c5.05,0,9.14,3.36,9.14,7.5s-4,7.45-8.95,7.5h-.19c-5.05,0-9.14-3.36-9.14-7.5A6.8,6.8,0,0,1,351.8,152.5Z" transform="translate(0.02 -0.04)"/><path class="cls-36" d="M354.16,154.33a10.64,10.64,0,0,1,12.79,0,6.52,6.52,0,0,1,0,10.49,10.49,10.49,0,0,1-12.79,0A6.52,6.52,0,0,1,354.16,154.33Z" transform="translate(0.02 -0.04)"/><path class="cls-37" d="M356.53,156.19a10.47,10.47,0,0,1,12.73-.05,6.5,6.5,0,0,1,.06,10.45,10.46,10.46,0,0,1-12.73,0,6.8,6.8,0,0,1-2.66-5.24A6.69,6.69,0,0,1,356.53,156.19Z" transform="translate(0.02 -0.04)"/><path class="cls-38" d="M358.71,158a10.26,10.26,0,0,1,12.52.1,6.67,6.67,0,0,1,2.54,5c-.36,4-4.6,7-9.48,6.72-4.38-.27-7.86-3.12-8.18-6.72A6.53,6.53,0,0,1,358.71,158Z" transform="translate(0.02 -0.04)"/><path class="cls-39" d="M360.94,159.89a10.17,10.17,0,0,1,12.39,0,6.32,6.32,0,0,1,0,10.17,10.16,10.16,0,0,1-12.39,0,6.31,6.31,0,0,1,0-10.16Z" transform="translate(0.02 -0.04)"/><path class="cls-40" d="M363.21,161.91a10,10,0,0,1,12.12.07,6.19,6.19,0,0,1-.09,10,9.93,9.93,0,0,1-12.12-.08,6.43,6.43,0,0,1-2.47-4.93A6.53,6.53,0,0,1,363.21,161.91Z" transform="translate(0.02 -0.04)"/><path class="cls-41" d="M365.44,163.62a9.73,9.73,0,0,1,6.06-2.06c4.71,0,8.52,3.13,8.52,7s-3.81,7-8.52,7h0a9.79,9.79,0,0,1-6.06-2.06,6.17,6.17,0,0,1,0-9.87Z" transform="translate(0.02 -0.04)"/><path class="cls-42" d="M367.71,165.44a9.78,9.78,0,0,1,11.92,0,6.09,6.09,0,0,1,0,9.79,9.8,9.8,0,0,1-11.91,0A6.11,6.11,0,0,1,367.71,165.44Z" transform="translate(0.02 -0.04)"/><path class="cls-43" d="M370,167.31a9.65,9.65,0,0,1,11.75,0,6,6,0,0,1,0,9.64,9.57,9.57,0,0,1-11.66.07L370,177a6,6,0,0,1-.09-9.57Z" transform="translate(0.02 -0.04)"/><path class="cls-44" d="M372.21,169.17a9.59,9.59,0,0,1,11.65,0,6.08,6.08,0,0,1,2.41,4.74c.08,3.74-3.54,6.82-8.09,6.88a9.17,9.17,0,0,1-6.11-2.1,5.86,5.86,0,0,1,.14-9.52Z" transform="translate(0.02 -0.04)"/><path class="cls-45" d="M374.48,171A9.45,9.45,0,0,1,386,171a5.87,5.87,0,0,1,0,9.45,9.44,9.44,0,0,1-11.52,0h0a6.25,6.25,0,0,1-2.37-4.74A6.18,6.18,0,0,1,374.48,171Z" transform="translate(0.02 -0.04)"/><path class="cls-46" d="M376.75,172.87a9.23,9.23,0,0,1,11.26.06,5.74,5.74,0,0,1-.08,9.23,9.24,9.24,0,0,1-11.25-.06,5.74,5.74,0,0,1,.07-9.23Z" transform="translate(0.02 -0.04)"/><path class="cls-47" d="M379,174.73a8.83,8.83,0,0,1,5.59-1.9c4.37,0,7.91,2.9,7.91,6.49h0a5.89,5.89,0,0,1-2.32,4.58,8.83,8.83,0,0,1-5.59,1.9,9,9,0,0,1-5.59-1.9,5.77,5.77,0,0,1,0-9.17Z" transform="translate(0.02 -0.04)"/><path class="cls-48" d="M381.25,176.56a9.06,9.06,0,0,1,11,0,5.88,5.88,0,0,1,2.27,4.54c-.33,3.53-4.09,6.17-8.4,5.9-3.83-.25-6.88-2.75-7.18-5.9A5.94,5.94,0,0,1,381.25,176.56Z" transform="translate(0.02 -0.04)"/><path class="cls-49" d="M383.53,178.42a8.46,8.46,0,0,1,5.44-1.86c4.27,0,7.72,2.84,7.71,6.34s-3.45,6.32-7.71,6.32a8.46,8.46,0,0,1-5.44-1.86,5.53,5.53,0,0,1,0-8.9l0,0Z" transform="translate(0.02 -0.04)"/><path class="cls-50" d="M385.75,180.29a8.47,8.47,0,0,1,5.4-1.83,8.28,8.28,0,0,1,5.35,1.83,5.42,5.42,0,0,1,.06,8.73l-.06,0a8.28,8.28,0,0,1-5.35,1.83c-4.18,0-7.59-2.76-7.61-6.19A5.71,5.71,0,0,1,385.75,180.29Z" transform="translate(0.02 -0.04)"/><path class="cls-51" d="M388,182.11a8.75,8.75,0,0,1,10.61,0,5.63,5.63,0,0,1,2.17,4.36c0,3.39-3.35,6.14-7.48,6.14s-7.48-2.75-7.48-6.14A5.64,5.64,0,0,1,388,182.11Z" transform="translate(0.02 -0.04)"/><path class="cls-52" d="M390.3,184a8.51,8.51,0,0,1,10.38,0l0,0a5.42,5.42,0,0,1,2.18,4.27c0,3.35-3.3,6.07-7.38,6.08s-7.39-2.71-7.4-6.06v0A5.42,5.42,0,0,1,390.3,184Z" transform="translate(0.02 -0.04)"/><path class="cls-53" d="M392.53,185.84a8.37,8.37,0,0,1,10.32,0,5.26,5.26,0,0,1-.08,8.47,8.46,8.46,0,0,1-10.24,0,5.22,5.22,0,0,1,0-8.41l0,0Z" transform="translate(0.02 -0.04)"/><path class="cls-54" d="M394.78,187.86a8.09,8.09,0,0,1,5-1.68c3.89-.52,7.55,1.62,8.19,4.78s-2,6.14-5.88,6.66a8.93,8.93,0,0,1-2.31,0,8.09,8.09,0,0,1-5-1.68,5.1,5.1,0,0,1,0-8.2Z" transform="translate(0.02 -0.04)"/><path class="cls-55" d="M397.07,189.54a8.13,8.13,0,0,1,9.92.05,5,5,0,0,1-.07,8.13,8.13,8.13,0,0,1-9.91-.05,5.06,5.06,0,0,1,.06-8.13Z" transform="translate(0.02 -0.04)"/><path class="cls-56" d="M399.16,191.4a8.1,8.1,0,0,1,9.87,0,5,5,0,0,1,0,8.1,8.13,8.13,0,0,1-9.9,0,5.32,5.32,0,0,1-2-3.88A5.25,5.25,0,0,1,399.16,191.4Z" transform="translate(0.02 -0.04)"/><path class="cls-57" d="M401.57,193.23a8,8,0,0,1,9.71,0,5,5,0,0,1,0,8,8,8,0,0,1-9.67,0,5.31,5.31,0,0,1-2-3.88A5.2,5.2,0,0,1,401.57,193.23Z" transform="translate(0.02 -0.04)"/><path class="cls-58" d="M403.89,195.09a7.46,7.46,0,0,1,4.74-1.63c3.74,0,6.76,2.51,6.75,5.57s-3,5.53-6.75,5.54a7.4,7.4,0,0,1-4.74-1.63,4.85,4.85,0,0,1,0-7.77Z" transform="translate(0.02 -0.04)"/><path class="cls-59" d="M406.07,196.88a7.61,7.61,0,0,1,4.74-1.59c3.69,0,6.68,2.45,6.68,5.48s-3,5.47-6.68,5.47-6.69-2.43-6.71-5.45A5,5,0,0,1,406.07,196.88Z" transform="translate(0.02 -0.04)"/><path class="cls-60" d="M408.34,198.78a7.71,7.71,0,0,1,9.38-.08l.1.08a5,5,0,0,1,1.94,3.89c0,3-2.95,5.4-6.59,5.4s-6.57-2.42-6.58-5.4A5,5,0,0,1,408.34,198.78Z" transform="translate(0.02 -0.04)"/><path class="cls-61" d="M410.62,200.77a7,7,0,0,1,4.73-1.56c3.57,0,6.47,2.36,6.49,5.29s-2.9,5.32-6.49,5.32-6.44-2.4-6.44-5.32A4.65,4.65,0,0,1,410.62,200.77Z" transform="translate(0.02 -0.04)"/><path class="cls-62" d="M412.84,202.47a7.82,7.82,0,0,1,9.24,0,4.93,4.93,0,0,1,1.89,3.7c-.05,2.88-2.88,5.2-6.39,5.24a7.19,7.19,0,0,1-4.5-1.55,4.82,4.82,0,0,1-.24-7.39Z" transform="translate(0.02 -0.04)"/><path class="cls-63" d="M415.12,204.34a6.91,6.91,0,0,1,4.4-1.52,7.11,7.11,0,0,1,4.45,1.52,4.79,4.79,0,0,1,1.8,3.65c0,2.81-2.73,5.11-6.15,5.13h-.1c-3.44,0-6.22-2.3-6.25-5.13A4.75,4.75,0,0,1,415.12,204.34Z" transform="translate(0.02 -0.04)"/><path class="cls-64" d="M417.39,206.21a7.08,7.08,0,0,1,8.64,0l0,0a4.44,4.44,0,0,1,1.8,3.57c0,2.79-2.76,5.05-6.16,5.05s-6.16-2.26-6.16-5.05A4.51,4.51,0,0,1,417.39,206.21Z" transform="translate(0.02 -0.04)"/><path class="cls-65" d="M419.62,208a7.1,7.1,0,0,1,8.57,0,4.57,4.57,0,0,1,1.75,3.54,4.48,4.48,0,0,1-1.75,3.49,7,7,0,0,1-8.51.06l-.06-.06a4.49,4.49,0,0,1-1.76-3.49A4.55,4.55,0,0,1,419.62,208Z" transform="translate(0.02 -0.04)"/><path class="cls-66" d="M421.89,209.9a6.81,6.81,0,0,1,8.3-.07l.08.07a4.39,4.39,0,0,1,1.76,3.46c.29,2.69-2.14,5.07-5.42,5.31s-6.18-1.75-6.47-4.44a4.22,4.22,0,0,1,0-.87A4.38,4.38,0,0,1,421.89,209.9Z" transform="translate(0.02 -0.04)"/><path class="cls-67" d="M424.16,211.76a6.4,6.4,0,0,1,4.12-1.4c3.22,0,5.84,2.13,5.84,4.77s-2.59,4.79-5.81,4.79h0a6.35,6.35,0,0,1-4.12-1.4,4.14,4.14,0,0,1-.13-6.65l.13-.11Z" transform="translate(0.02 -0.04)"/><path class="cls-68" d="M426.39,213.59a6.75,6.75,0,0,1,8.24-.08,4.2,4.2,0,0,1,.09,6.76,6.75,6.75,0,0,1-8.23.08,4.2,4.2,0,0,1-.1-6.76Z" transform="translate(0.02 -0.04)"/><path class="cls-69" d="M428.66,215.45a6.5,6.5,0,0,1,7.91,0l.05,0a4.31,4.31,0,0,1,1.66,3.27,4.23,4.23,0,0,1-1.66,3.26,6.5,6.5,0,0,1-7.9.05l-.06-.05a4.19,4.19,0,0,1-1.65-3.26A4.27,4.27,0,0,1,428.66,215.45Z" transform="translate(0.02 -0.04)"/><path class="cls-70" d="M430.89,217.32a6.44,6.44,0,0,1,7.84,0,4.16,4.16,0,0,1,1.63,3.21,4.22,4.22,0,0,1-1.61,3.22,6.48,6.48,0,0,1-7.86,0,4.22,4.22,0,0,1-1.61-3.22A4.15,4.15,0,0,1,430.89,217.32Z" transform="translate(0.02 -0.04)"/><path class="cls-71" d="M433.16,219.15a6.11,6.11,0,0,1,3.84-1.29c3-.23,5.65,1.58,5.93,4s-1.92,4.63-4.92,4.86a5.68,5.68,0,0,1-1,0,6.1,6.1,0,0,1-3.84-1.28,4,4,0,0,1,0-6.33Z" transform="translate(0.02 -0.04)"/><path class="cls-72" d="M435.44,221a5.86,5.86,0,0,1,3.74-1.28c2.95,0,5.35,2,5.35,4.39h0a4,4,0,0,1-1.56,3.07,6,6,0,0,1-3.79,1.28c-2.92,0-5.28-2-5.31-4.35A4,4,0,0,1,435.44,221Z" transform="translate(0.02 -0.04)"/><path class="cls-73" d="M437.66,222.88a6.11,6.11,0,0,1,7.44,0,4,4,0,0,1,1.51,3c.28,2.37-1.84,4.47-4.73,4.7s-5.46-1.51-5.73-3.89a2.75,2.75,0,0,1,0-.81A3.9,3.9,0,0,1,437.66,222.88Z" transform="translate(0.02 -0.04)"/><path class="cls-74" d="M439.93,224.7a5.76,5.76,0,0,1,3.65-1.2,5.64,5.64,0,0,1,3.6,1.2,3.92,3.92,0,0,1,1.52,3c0,2.31-2.3,4.18-5.12,4.2a5.81,5.81,0,0,1-3.65-1.24,3.85,3.85,0,0,1-1.51-3A3.9,3.9,0,0,1,439.93,224.7Z" transform="translate(0.02 -0.04)"/><path class="cls-75" d="M442.21,226.57a5.26,5.26,0,0,1,3.55-1.21,5.59,5.59,0,0,1,3.55,1.21,3.62,3.62,0,0,1,0,5.82,5.63,5.63,0,0,1-3.56,1.21c-2.77,0-5-1.84-5-4.12A3.72,3.72,0,0,1,442.21,226.57Z" transform="translate(0.02 -0.04)"/><path class="cls-76" d="M444.43,228.43a5.66,5.66,0,0,1,3.51-1.2c2.55.11,4.59,1.79,4.73,3.88a3.83,3.83,0,0,1-1.46,2.88,5.3,5.3,0,0,1-3.46,1.16c-2.62,0-4.74-1.74-4.74-3.88A3.6,3.6,0,0,1,444.43,228.43Z" transform="translate(0.02 -0.04)"/><path class="cls-77" d="M446.52,230.26a5.48,5.48,0,0,1,6.69-.1l.13.1a3.41,3.41,0,0,1-.13,5.49,5.48,5.48,0,0,1-6.69-.1A3.4,3.4,0,0,1,446.52,230.26Z" transform="translate(0.02 -0.04)"/><path class="cls-78" d="M449,232.12a5.51,5.51,0,0,1,6.63,0,3.62,3.62,0,0,1,1.42,2.72c0,2.15-2.14,3.88-4.75,3.87a5.27,5.27,0,0,1-3.3-1.11,3.53,3.53,0,0,1-1.37-2.76A3.57,3.57,0,0,1,449,232.12Z" transform="translate(0.02 -0.04)"/><path class="cls-79" d="M451.25,234a5.52,5.52,0,0,1,6.54,0,3.36,3.36,0,0,1,1.37,2.64,3.54,3.54,0,0,1-1.37,2.68,5.52,5.52,0,0,1-6.54,0,3.34,3.34,0,0,1,0-5.32Z" transform="translate(0.02 -0.04)"/><path class="cls-80" d="M453.48,235.74a5.23,5.23,0,0,1,6.39,0,3.38,3.38,0,0,1,0,5.24,5.23,5.23,0,0,1-6.39,0A3.38,3.38,0,0,1,453.48,235.74Z" transform="translate(0.02 -0.04)"/><path class="cls-81" d="M456,237.68a4.86,4.86,0,0,1,3.08-1.05c2.4,0,4.38,1.56,4.4,3.54v.07a3.22,3.22,0,0,1-1.28,2.53,5,5,0,0,1-3.12,1.09c-2.36-.13-4.25-1.68-4.41-3.62A3.4,3.4,0,0,1,456,237.68Z" transform="translate(0.02 -0.04)"/><path class="cls-82" d="M458,239.62a5,5,0,0,1,6.09,0,3.27,3.27,0,0,1,1.25,2.46,3.34,3.34,0,0,1-1.23,2.49,5,5,0,0,1-6.1,0h0a3.27,3.27,0,0,1-1.23-2.49A3.2,3.2,0,0,1,458,239.62Z" transform="translate(0.02 -0.04)"/><path class="cls-83" d="M460.25,241.37a4.73,4.73,0,0,1,3-1,4.62,4.62,0,0,1,2.93,1,3.15,3.15,0,0,1,1.23,2.45,3.23,3.23,0,0,1-1.23,2.45,4.62,4.62,0,0,1-2.93,1,4.73,4.73,0,0,1-3-1,3.26,3.26,0,0,1-1.23-2.45A3.18,3.18,0,0,1,460.25,241.37Z" transform="translate(0.02 -0.04)"/><path class="cls-84" d="M462.53,243.24a4.29,4.29,0,0,1,2.88-1c2.25,0,4.08,1.49,4.08,3.34s-1.83,3.34-4.08,3.34a4.35,4.35,0,0,1-2.88-1,2.9,2.9,0,0,1-.09-4.67Z" transform="translate(0.02 -0.04)"/><path class="cls-85" d="M464.75,245.1a4.36,4.36,0,0,1,2.84-1c2.19,0,4,1.47,4,3.26a3,3,0,0,1-1.18,2.34,4.41,4.41,0,0,1-2.8.93c-2.14,0-3.92-1.35-4-3.11a.43.43,0,0,1,0-.16A2.9,2.9,0,0,1,464.75,245.1Z" transform="translate(0.02 -0.04)"/><path class="cls-86" d="M467,246.93a4.49,4.49,0,0,1,5.49,0,2.93,2.93,0,0,1,1.14,2.25,2.87,2.87,0,0,1-1.14,2.26,4.52,4.52,0,0,1-5.49,0h0a2.87,2.87,0,0,1-1.14-2.26A2.93,2.93,0,0,1,467,246.93Z" transform="translate(0.02 -0.04)"/><path class="cls-87" d="M469.3,248.79a4,4,0,0,1,2.65-.93,4.25,4.25,0,0,1,2.7.93,2.85,2.85,0,0,1,1.09,2.18c0,1.69-1.63,3.09-3.69,3.11H472a4.18,4.18,0,0,1-2.65-.9,2.84,2.84,0,0,1-1.14-2.21A2.78,2.78,0,0,1,469.3,248.79Z" transform="translate(0.02 -0.04)"/><path class="cls-88" d="M471.52,250.62a4.4,4.4,0,0,1,5.21,0,2.76,2.76,0,0,1,1.09,2.14,2.68,2.68,0,0,1-1.09,2.13,4.23,4.23,0,0,1-5.15.05l-.06-.05a2.7,2.7,0,0,1-1.08-2.13A2.78,2.78,0,0,1,471.52,250.62Z" transform="translate(0.02 -0.04)"/><path class="cls-89" d="M473.8,252.49a4.09,4.09,0,0,1,2.51-.86c2,0,3.59,1.34,3.58,3a2.74,2.74,0,0,1-1,2,4,4,0,0,1-2.56.86,3.82,3.82,0,0,1-2.51-.86A2.59,2.59,0,0,1,473.8,252.49Z" transform="translate(0.02 -0.04)"/><path class="cls-90" d="M476.07,254.35a3.9,3.9,0,0,1,4.74,0,2.54,2.54,0,0,1,1,2c0,1.57-1.55,2.84-3.46,2.84h-.05a3.8,3.8,0,0,1-2.41-.82,2.4,2.4,0,0,1,.14-4Z" transform="translate(0.02 -0.04)"/><path class="cls-91" d="M478.3,256.18a4.07,4.07,0,0,1,4.73,0,2.43,2.43,0,0,1,.43,3.88,3.87,3.87,0,0,1-4.73.35,2.74,2.74,0,0,1-.43-4.23Z" transform="translate(0.02 -0.04)"/><path class="cls-92" d="M480.57,258a3.71,3.71,0,0,1,2.32-.78,3.83,3.83,0,0,1,2.32.78,2.49,2.49,0,0,1,1,1.91,3,3,0,0,1-3.17,2.68h-.1a3.71,3.71,0,0,1-2.32-.78,2.55,2.55,0,0,1-.95-1.9A2.49,2.49,0,0,1,480.57,258Z" transform="translate(0.02 -0.04)"/><path class="cls-93" d="M482.84,259.91a3.33,3.33,0,0,1,2.23-.78,2.66,2.66,0,1,1,0,5.21,3.38,3.38,0,0,1-2.23-.78,2.22,2.22,0,0,1-.1-3.57l.1-.08Z" transform="translate(0.02 -0.04)"/><path class="cls-94" d="M485.07,261.73a3.57,3.57,0,0,1,4.35,0,2.21,2.21,0,0,1,0,3.57,3.59,3.59,0,0,1-4.36,0,2.36,2.36,0,0,1-.9-1.79A2.43,2.43,0,0,1,485.07,261.73Z" transform="translate(0.02 -0.04)"/><path class="cls-95" d="M487.34,263.6a3.47,3.47,0,0,1,4.17,0,2.12,2.12,0,0,1,.06,3.41l-.06.05a3.47,3.47,0,0,1-4.17,0,2.27,2.27,0,0,1-.85-1.75A2.21,2.21,0,0,1,487.34,263.6Z" transform="translate(0.02 -0.04)"/><path class="cls-96" d="M489.62,265.46a3,3,0,0,1,2-.7,3.16,3.16,0,0,1,2,.7,2,2,0,0,1,.08,3.25l-.08.06a3.16,3.16,0,0,1-2,.7,3,3,0,0,1-2-.7,2,2,0,0,1,0-3.31Z" transform="translate(0.02 -0.04)"/><path class="cls-97" d="M491.84,267.29a3.24,3.24,0,0,1,2-.47,2.54,2.54,0,0,1,2.75,2.26v0a2,2,0,0,1-.81,1.59,3,3,0,0,1-1.94.66,2.54,2.54,0,0,1-2.75-2.25A2.1,2.1,0,0,1,491.84,267.29Z" transform="translate(0.02 -0.04)"/><path class="cls-98" d="M494.12,269.16a2.85,2.85,0,0,1,1.84-.63,2.42,2.42,0,0,1,2.65,2.1.11.11,0,0,1,0,.08,1.9,1.9,0,0,1-.75,1.52,3,3,0,0,1-3.62.1l-.12-.1a1.86,1.86,0,0,1,0-3.07Z" transform="translate(0.02 -0.04)"/><path class="cls-99" d="M496.34,271a2.81,2.81,0,0,1,1.85-.62,2.73,2.73,0,0,1,1.8.62,1.9,1.9,0,0,1,0,3,3,3,0,0,1-3.62,0l0,0a1.9,1.9,0,0,1,0-3Z" transform="translate(0.02 -0.04)"/><path class="cls-100" d="M498.61,272.85a2.75,2.75,0,0,1,1.76-.59,2.7,2.7,0,0,1,1.7.59,1.8,1.8,0,0,1,.71,1.43,1.75,1.75,0,0,1-.71,1.4,2.72,2.72,0,0,1-3.34.09l-.12-.09a1.78,1.78,0,0,1-.71-1.4A1.83,1.83,0,0,1,498.61,272.85Z" transform="translate(0.02 -0.04)"/><path class="cls-101" d="M500.89,274.6a2.63,2.63,0,0,1,1.66-.55,2.77,2.77,0,0,1,1.65.55,1.73,1.73,0,0,1,0,2.72,2.83,2.83,0,0,1-1.65.54,2.69,2.69,0,0,1-1.66-.54,1.64,1.64,0,0,1-.1-2.64A.39.39,0,0,1,500.89,274.6Z" transform="translate(0.02 -0.04)"/><path class="cls-102" d="M503.35,276.58A2.57,2.57,0,0,1,505,276a2.11,2.11,0,0,1,2.23,1.83,1.72,1.72,0,0,1-.67,1.32,2.46,2.46,0,0,1-1.56.51,2,2,0,0,1-2.22-1.67.43.43,0,0,1,0-.16A1.61,1.61,0,0,1,503.35,276.58Z" transform="translate(0.02 -0.04)"/><path class="cls-103" d="M505.39,278.48a2.46,2.46,0,0,1,3,0,1.57,1.57,0,0,1,.63,1.25,1.64,1.64,0,0,1-.61,1.25,2.54,2.54,0,0,1-3,0,1.62,1.62,0,0,1-.62-1.25A1.7,1.7,0,0,1,505.39,278.48Z" transform="translate(0.02 -0.04)"/><path class="cls-104" d="M507.66,280.27a2.25,2.25,0,0,1,2.75-.08l.09.08a1.39,1.39,0,0,1,.62,1.16,1.45,1.45,0,0,1-.62,1.21,2.43,2.43,0,0,1-2.84,0,1.56,1.56,0,0,1-.61-1.21A1.55,1.55,0,0,1,507.66,280.27Z" transform="translate(0.02 -0.04)"/><path class="cls-105" d="M509.89,282.13a2.25,2.25,0,0,1,2.74,0h0a1.37,1.37,0,0,1,0,2.22,2.25,2.25,0,0,1-2.74,0h0a1.37,1.37,0,0,1,0-2.22Z" transform="translate(0.02 -0.04)"/><path class="cls-106" d="M512.16,284a2.08,2.08,0,0,1,1.28-.43,1.69,1.69,0,0,1,1.85,1.44v.08a1.43,1.43,0,0,1-.52,1.05,2.17,2.17,0,0,1-1.33.42,1.66,1.66,0,0,1-1.8-1.47h0A1.44,1.44,0,0,1,512.16,284Z" transform="translate(0.02 -0.04)"/><path class="cls-107" d="M514.43,285.83a1.88,1.88,0,0,1,1.19-.43,1.67,1.67,0,0,1,1.75,1.44,1.23,1.23,0,0,1-.52,1,2,2,0,0,1-2.42,0,1.23,1.23,0,0,1-.52-1A1.28,1.28,0,0,1,514.43,285.83Z" transform="translate(0.02 -0.04)"/><path class="cls-108" d="M516.66,287.69a1.92,1.92,0,0,1,2.32,0,1.16,1.16,0,0,1,0,1.87,2,2,0,0,1-2.32,0A1.16,1.16,0,0,1,516.66,287.69Z" transform="translate(0.02 -0.04)"/><path class="cls-109" d="M518.93,289.52a1.72,1.72,0,0,1,1.09-.35,1.61,1.61,0,0,1,1,.35,1.17,1.17,0,0,1,.48.89,1.2,1.2,0,0,1-.48.89,1.56,1.56,0,0,1-1,.35,1.66,1.66,0,0,1-1.09-.35,1.16,1.16,0,0,1-.42-.89A1.13,1.13,0,0,1,518.93,289.52Z" transform="translate(0.02 -0.04)"/><path class="cls-110" d="M521.21,291.38a1.41,1.41,0,0,1,1-.35,1.56,1.56,0,0,1,1,.35,1,1,0,0,1,0,1.6l0,0a1.5,1.5,0,0,1-1,.35,1.3,1.3,0,0,1-1.4-1.18A1.05,1.05,0,0,1,521.21,291.38Z" transform="translate(0.02 -0.04)"/><path class="cls-111" d="M523.43,293.25a1.31,1.31,0,0,1,1-.35,1.44,1.44,0,0,1,1,.35,1,1,0,0,1,.38.74,1,1,0,0,1-.38.77,1.74,1.74,0,0,1-1,.31,1.2,1.2,0,0,1-1.33-1V294A1,1,0,0,1,523.43,293.25Z" transform="translate(0.02 -0.04)"/><path class="cls-112" d="M525.71,295.07a1.51,1.51,0,0,1,1.7,0,.92.92,0,0,1,.38.7.82.82,0,0,1-.38.7,1.29,1.29,0,0,1-1.6.08.39.39,0,0,1-.1-.08.82.82,0,0,1-.34-.7A.86.86,0,0,1,525.71,295.07Z" transform="translate(0.02 -0.04)"/><path class="cls-113" d="M528,296.94a1.23,1.23,0,0,1,.76-.27,1.31,1.31,0,0,1,.8.27.79.79,0,0,1,0,1.28,1.31,1.31,0,0,1-.8.27,1.23,1.23,0,0,1-.76-.27.75.75,0,0,1-.33-.66A.72.72,0,0,1,528,296.94Z" transform="translate(0.02 -0.04)"/><path class="cls-114" d="M530.2,298.8a1.1,1.1,0,0,1,1.34-.06l.09.06a.69.69,0,0,1,.28.59.66.66,0,0,1-.28.54,1.11,1.11,0,0,1-1.34.07l-.09-.07a.66.66,0,0,1-.28-.54A.71.71,0,0,1,530.2,298.8Z" transform="translate(0.02 -0.04)"/><path class="cls-115" d="M534,301.17a.66.66,0,0,1-.23.51,1,1,0,0,1-.67.23.83.83,0,0,1-.61-.23.73.73,0,0,1-.29-.51.83.83,0,0,1,.29-.54.94.94,0,0,1,.61-.19.78.78,0,0,1,.9.57A.43.43,0,0,1,534,301.17Z" transform="translate(0.02 -0.04)"/><path class="cls-116" d="M308.37,116.75a6.83,6.83,0,0,1,8.31,0,4.23,4.23,0,0,1,0,6.82,6.81,6.81,0,0,1-8.31,0,4.23,4.23,0,0,1,0-6.82Z" transform="translate(0.02 -0.04)"/><path class="cls-117" d="M375.25,181.5c3.78,3.26,8.12,5.94,11.52,9.57H483v-10H374.61A4.3,4.3,0,0,1,375.25,181.5Z" transform="translate(0.02 -0.04)"/><path class="cls-118" d="M436.49,244.27c.41,3.37,1,6.7,1.73,10h73.45v-10Z" transform="translate(0.02 -0.04)"/><polygon class="cls-13" points="481.42 209.69 481.42 219.77 339.19 219.77 339.19 244.47 511 244.47 511 254.48 328.1 254.48 328.1 209.69 481.42 209.69"/><path class="cls-14" d="M304.43,113.61a13.08,13.08,0,0,1,15.95,0l0,0a8.16,8.16,0,0,1,0,13.13,13.13,13.13,0,0,1-16,0c-4.43-3.62-4.45-9.5,0-13.13Z" transform="translate(0.02 -0.04)"/><path class="cls-15" d="M306.76,115.47a13,13,0,0,1,15.86-.35c4.5,3.5,4.69,9.33.43,13a12.49,12.49,0,0,1-8.34,2.87,12.68,12.68,0,0,1-7.95-2.72,8.08,8.08,0,0,1,0-13Z" transform="translate(0.02 -0.04)"/><path class="cls-16" d="M309.17,117.3a12.91,12.91,0,0,1,15.72.58,8,8,0,0,1,0,12.32,12.91,12.91,0,0,1-15.72.58c-4.54-3.4-4.86-9.17-.71-12.9C308.69,117.68,308.92,117.48,309.17,117.3Z" transform="translate(0.02 -0.04)"/><path class="cls-17" d="M311.3,119.16a12.77,12.77,0,0,1,15.54-.31c4.39,3.44,4.56,9.14.38,12.75l-.38.31a12.77,12.77,0,0,1-15.54.31c-4.39-3.43-4.56-9.14-.38-12.75Z" transform="translate(0.02 -0.04)"/><path class="cls-18" d="M313.53,121a12.59,12.59,0,0,1,15.34-.09l.1.09a7.86,7.86,0,0,1,0,12.65,12.65,12.65,0,0,1-15.41,0h0A7.88,7.88,0,0,1,313.53,121Z" transform="translate(0.02 -0.04)"/><path class="cls-19" d="M315.8,123.05a12.29,12.29,0,0,1,7.63-2.57c5.95-.32,11.09,3.38,11.49,8.26s-4.11,9.1-10.06,9.42a11.37,11.37,0,0,1-1.43,0c-6,0-10.79-4-10.78-8.87A8.14,8.14,0,0,1,315.8,123.05Z" transform="translate(0.02 -0.04)"/><path class="cls-20" d="M318.07,124.72a12.44,12.44,0,0,1,15.14,0,7.71,7.71,0,0,1,0,12.42,12.42,12.42,0,0,1-15.14,0,7.73,7.73,0,0,1,0-12.42Z" transform="translate(0.02 -0.04)"/><path class="cls-21" d="M320.3,126.59a11.79,11.79,0,0,1,7.48-2.57c5.85,0,10.59,3.91,10.61,8.7s-4.77,8.67-10.61,8.67-10.53-3.82-10.56-8.59v-.08A7.91,7.91,0,0,1,320.3,126.59Z" transform="translate(0.02 -0.04)"/><path class="cls-22" d="M322.57,128.41a12.15,12.15,0,0,1,14.81,0,7.55,7.55,0,0,1,0,12.15,12.14,12.14,0,0,1-14.8,0,7.56,7.56,0,0,1,0-12.15Z" transform="translate(0.02 -0.04)"/><path class="cls-23" d="M324.85,130.28a12.09,12.09,0,0,1,14.68,0,7.51,7.51,0,0,1,0,12,12,12,0,0,1-14.68,0A7.47,7.47,0,0,1,324.85,130.28Z" transform="translate(0.02 -0.04)"/><path class="cls-24" d="M327.07,132.14a11.55,11.55,0,0,1,7.3-2.49c5.67,0,10.27,3.79,10.26,8.45s-4.6,8.41-10.26,8.42-10.28-3.77-10.29-8.43A7.76,7.76,0,0,1,327.07,132.14Z" transform="translate(0.02 -0.04)"/><path class="cls-25" d="M329.35,134a11.82,11.82,0,0,1,14.4,0,7.35,7.35,0,0,1,0,11.82,11.81,11.81,0,0,1-14.4,0,7.33,7.33,0,0,1,0-11.81Z" transform="translate(0.02 -0.04)"/><path class="cls-26" d="M331.62,135.83a11.72,11.72,0,0,1,14.27,0,7.58,7.58,0,0,1,2.92,5.78c0,4.57-4.51,8.28-10.09,8.28s-10.08-3.71-10.08-8.28A7.52,7.52,0,0,1,331.62,135.83Z" transform="translate(0.02 -0.04)"/><path class="cls-27" d="M333.85,137.7a11.6,11.6,0,0,1,14.13,0,7.58,7.58,0,0,1,2.92,5.74c.38,4.52-3.78,8.43-9.29,8.74s-10.27-3.09-10.65-7.61a7.11,7.11,0,0,1,0-1.13A7.35,7.35,0,0,1,333.85,137.7Z" transform="translate(0.02 -0.04)"/><path class="cls-28" d="M336.12,139.52a11.51,11.51,0,0,1,14,0,7.14,7.14,0,0,1,0,11.49,11.46,11.46,0,0,1-14,0l0,0A7.14,7.14,0,0,1,336.12,139.52Z" transform="translate(0.02 -0.04)"/><path class="cls-29" d="M338.39,141.39a11.31,11.31,0,0,1,13.78.54,7,7,0,0,1,0,10.77,11.3,11.3,0,0,1-13.78.53c-4-3-4.28-8-.65-11.3C338,141.74,338.16,141.56,338.39,141.39Z" transform="translate(0.02 -0.04)"/><path class="cls-30" d="M340.62,143.22a11.24,11.24,0,0,1,13.69,0,7,7,0,0,1,0,11.23,11.24,11.24,0,0,1-13.69,0A7,7,0,0,1,340.62,143.22Z" transform="translate(0.02 -0.04)"/><path class="cls-31" d="M342.89,145.08a11,11,0,0,1,13.4-.08l.1.08a6.9,6.9,0,0,1,0,11.08,11,11,0,0,1-13.39.2,7,7,0,0,1-.11-11.28Z" transform="translate(0.02 -0.04)"/><path class="cls-32" d="M345.17,147a11,11,0,0,1,13.39,0,6.83,6.83,0,0,1,0,11,11,11,0,0,1-13.39,0,6.82,6.82,0,0,1,0-11Z" transform="translate(0.02 -0.04)"/><path class="cls-33" d="M347.26,149.53a10.15,10.15,0,0,1,6.29-2.09c4.89-.7,9.55,2,10.4,5.95s-2.41,7.79-7.3,8.48a10.73,10.73,0,0,1-3.1,0c-5-.11-8.87-3.48-8.73-7.53A6.68,6.68,0,0,1,347.26,149.53Z" transform="translate(0.02 -0.04)"/><path class="cls-34" d="M349.66,150.64a11,11,0,0,1,13.4-.12,6.83,6.83,0,0,1,.15,11,11,11,0,0,1-13.4.12A7.17,7.17,0,0,1,347,156,7,7,0,0,1,349.66,150.64Z" transform="translate(0.02 -0.04)"/><path class="cls-35" d="M351.8,152.5a10.05,10.05,0,0,1,6.44-2.21c5.05,0,9.14,3.36,9.14,7.5s-4,7.45-8.95,7.5h-.19c-5.05,0-9.14-3.36-9.14-7.5A6.8,6.8,0,0,1,351.8,152.5Z" transform="translate(0.02 -0.04)"/><path class="cls-36" d="M354.16,154.33a10.64,10.64,0,0,1,12.79,0,6.52,6.52,0,0,1,0,10.49,10.49,10.49,0,0,1-12.79,0A6.52,6.52,0,0,1,354.16,154.33Z" transform="translate(0.02 -0.04)"/><path class="cls-37" d="M356.53,156.19a10.47,10.47,0,0,1,12.73-.05,6.5,6.5,0,0,1,.06,10.45,10.46,10.46,0,0,1-12.73,0,6.8,6.8,0,0,1-2.66-5.24A6.69,6.69,0,0,1,356.53,156.19Z" transform="translate(0.02 -0.04)"/><path class="cls-38" d="M358.71,158a10.26,10.26,0,0,1,12.52.1,6.67,6.67,0,0,1,2.54,5c-.36,4-4.6,7-9.48,6.72-4.38-.27-7.86-3.12-8.18-6.72A6.53,6.53,0,0,1,358.71,158Z" transform="translate(0.02 -0.04)"/><path class="cls-39" d="M360.94,159.89a10.17,10.17,0,0,1,12.39,0,6.32,6.32,0,0,1,0,10.17,10.16,10.16,0,0,1-12.39,0,6.31,6.31,0,0,1,0-10.16Z" transform="translate(0.02 -0.04)"/><path class="cls-40" d="M363.21,161.91a10,10,0,0,1,12.12.07,6.19,6.19,0,0,1-.09,10,9.93,9.93,0,0,1-12.12-.08,6.43,6.43,0,0,1-2.47-4.93A6.53,6.53,0,0,1,363.21,161.91Z" transform="translate(0.02 -0.04)"/><path class="cls-41" d="M365.44,163.62a9.73,9.73,0,0,1,6.06-2.06c4.71,0,8.52,3.13,8.52,7s-3.81,7-8.52,7h0a9.79,9.79,0,0,1-6.06-2.06,6.17,6.17,0,0,1,0-9.87Z" transform="translate(0.02 -0.04)"/><path class="cls-42" d="M367.71,165.44a9.78,9.78,0,0,1,11.92,0,6.09,6.09,0,0,1,0,9.79,9.8,9.8,0,0,1-11.91,0A6.11,6.11,0,0,1,367.71,165.44Z" transform="translate(0.02 -0.04)"/><path class="cls-43" d="M370,167.31a9.65,9.65,0,0,1,11.75,0,6,6,0,0,1,0,9.64,9.57,9.57,0,0,1-11.66.07L370,177a6,6,0,0,1-.09-9.57Z" transform="translate(0.02 -0.04)"/><path class="cls-44" d="M372.21,169.17a9.59,9.59,0,0,1,11.65,0,6.08,6.08,0,0,1,2.41,4.74c.08,3.74-3.54,6.82-8.09,6.88a9.17,9.17,0,0,1-6.11-2.1,5.86,5.86,0,0,1,.14-9.52Z" transform="translate(0.02 -0.04)"/><path class="cls-45" d="M374.48,171A9.45,9.45,0,0,1,386,171a5.87,5.87,0,0,1,0,9.45,9.44,9.44,0,0,1-11.52,0h0a6.25,6.25,0,0,1-2.37-4.74A6.18,6.18,0,0,1,374.48,171Z" transform="translate(0.02 -0.04)"/><path class="cls-46" d="M376.75,172.87a9.23,9.23,0,0,1,11.26.06,5.74,5.74,0,0,1-.08,9.23,9.24,9.24,0,0,1-11.25-.06,5.74,5.74,0,0,1,.07-9.23Z" transform="translate(0.02 -0.04)"/><path class="cls-47" d="M379,174.73a8.83,8.83,0,0,1,5.59-1.9c4.37,0,7.91,2.9,7.91,6.49h0a5.89,5.89,0,0,1-2.32,4.58,8.83,8.83,0,0,1-5.59,1.9,9,9,0,0,1-5.59-1.9,5.77,5.77,0,0,1,0-9.17Z" transform="translate(0.02 -0.04)"/><path class="cls-48" d="M381.25,176.56a9.06,9.06,0,0,1,11,0,5.88,5.88,0,0,1,2.27,4.54c-.33,3.53-4.09,6.17-8.4,5.9-3.83-.25-6.88-2.75-7.18-5.9A5.94,5.94,0,0,1,381.25,176.56Z" transform="translate(0.02 -0.04)"/><path class="cls-49" d="M383.53,178.42a8.46,8.46,0,0,1,5.44-1.86c4.27,0,7.72,2.84,7.71,6.34s-3.45,6.32-7.71,6.32a8.46,8.46,0,0,1-5.44-1.86,5.53,5.53,0,0,1,0-8.9l0,0Z" transform="translate(0.02 -0.04)"/><path class="cls-50" d="M385.75,180.29a8.47,8.47,0,0,1,5.4-1.83,8.28,8.28,0,0,1,5.35,1.83,5.42,5.42,0,0,1,.06,8.73l-.06,0a8.28,8.28,0,0,1-5.35,1.83c-4.18,0-7.59-2.76-7.61-6.19A5.71,5.71,0,0,1,385.75,180.29Z" transform="translate(0.02 -0.04)"/><path class="cls-51" d="M388,182.11a8.75,8.75,0,0,1,10.61,0,5.63,5.63,0,0,1,2.17,4.36c0,3.39-3.35,6.14-7.48,6.14s-7.48-2.75-7.48-6.14A5.64,5.64,0,0,1,388,182.11Z" transform="translate(0.02 -0.04)"/><path class="cls-52" d="M390.3,184a8.51,8.51,0,0,1,10.38,0l0,0a5.42,5.42,0,0,1,2.18,4.27c0,3.35-3.3,6.07-7.38,6.08s-7.39-2.71-7.4-6.06v0A5.42,5.42,0,0,1,390.3,184Z" transform="translate(0.02 -0.04)"/><path class="cls-53" d="M392.53,185.84a8.37,8.37,0,0,1,10.32,0,5.26,5.26,0,0,1-.08,8.47,8.46,8.46,0,0,1-10.24,0,5.22,5.22,0,0,1,0-8.41l0,0Z" transform="translate(0.02 -0.04)"/><path class="cls-54" d="M394.78,187.86a8.09,8.09,0,0,1,5-1.68c3.89-.52,7.55,1.62,8.19,4.78s-2,6.14-5.88,6.66a8.93,8.93,0,0,1-2.31,0,8.09,8.09,0,0,1-5-1.68,5.1,5.1,0,0,1,0-8.2Z" transform="translate(0.02 -0.04)"/><path class="cls-55" d="M397.07,189.54a8.13,8.13,0,0,1,9.92.05,5,5,0,0,1-.07,8.13,8.13,8.13,0,0,1-9.91-.05,5.06,5.06,0,0,1,.06-8.13Z" transform="translate(0.02 -0.04)"/><path class="cls-56" d="M399.16,191.4a8.1,8.1,0,0,1,9.87,0,5,5,0,0,1,0,8.1,8.13,8.13,0,0,1-9.9,0,5.32,5.32,0,0,1-2-3.88A5.25,5.25,0,0,1,399.16,191.4Z" transform="translate(0.02 -0.04)"/><path class="cls-57" d="M401.57,193.23a8,8,0,0,1,9.71,0,5,5,0,0,1,0,8,8,8,0,0,1-9.67,0,5.31,5.31,0,0,1-2-3.88A5.2,5.2,0,0,1,401.57,193.23Z" transform="translate(0.02 -0.04)"/><path class="cls-58" d="M403.89,195.09a7.46,7.46,0,0,1,4.74-1.63c3.74,0,6.76,2.51,6.75,5.57s-3,5.53-6.75,5.54a7.4,7.4,0,0,1-4.74-1.63,4.85,4.85,0,0,1,0-7.77Z" transform="translate(0.02 -0.04)"/><path class="cls-59" d="M406.07,196.88a7.61,7.61,0,0,1,4.74-1.59c3.69,0,6.68,2.45,6.68,5.48s-3,5.47-6.68,5.47-6.69-2.43-6.71-5.45A5,5,0,0,1,406.07,196.88Z" transform="translate(0.02 -0.04)"/><path class="cls-60" d="M408.34,198.78a7.71,7.71,0,0,1,9.38-.08l.1.08a5,5,0,0,1,1.94,3.89c0,3-2.95,5.4-6.59,5.4s-6.57-2.42-6.58-5.4A5,5,0,0,1,408.34,198.78Z" transform="translate(0.02 -0.04)"/><path class="cls-61" d="M410.62,200.77a7,7,0,0,1,4.73-1.56c3.57,0,6.47,2.36,6.49,5.29s-2.9,5.32-6.49,5.32-6.44-2.4-6.44-5.32A4.65,4.65,0,0,1,410.62,200.77Z" transform="translate(0.02 -0.04)"/><path class="cls-62" d="M412.84,202.47a7.82,7.82,0,0,1,9.24,0,4.93,4.93,0,0,1,1.89,3.7c-.05,2.88-2.88,5.2-6.39,5.24a7.19,7.19,0,0,1-4.5-1.55,4.82,4.82,0,0,1-.24-7.39Z" transform="translate(0.02 -0.04)"/><path class="cls-63" d="M415.12,204.34a6.91,6.91,0,0,1,4.4-1.52,7.11,7.11,0,0,1,4.45,1.52,4.79,4.79,0,0,1,1.8,3.65c0,2.81-2.73,5.11-6.15,5.13h-.1c-3.44,0-6.22-2.3-6.25-5.13A4.75,4.75,0,0,1,415.12,204.34Z" transform="translate(0.02 -0.04)"/><path class="cls-64" d="M417.39,206.21a7.08,7.08,0,0,1,8.64,0l0,0a4.44,4.44,0,0,1,1.8,3.57c0,2.79-2.76,5.05-6.16,5.05s-6.16-2.26-6.16-5.05A4.51,4.51,0,0,1,417.39,206.21Z" transform="translate(0.02 -0.04)"/><path class="cls-65" d="M419.62,208a7.1,7.1,0,0,1,8.57,0,4.57,4.57,0,0,1,1.75,3.54,4.48,4.48,0,0,1-1.75,3.49,7,7,0,0,1-8.51.06l-.06-.06a4.49,4.49,0,0,1-1.76-3.49A4.55,4.55,0,0,1,419.62,208Z" transform="translate(0.02 -0.04)"/><path class="cls-66" d="M421.89,209.9a6.81,6.81,0,0,1,8.3-.07l.08.07a4.39,4.39,0,0,1,1.76,3.46c.29,2.69-2.14,5.07-5.42,5.31s-6.18-1.75-6.47-4.44a4.22,4.22,0,0,1,0-.87A4.38,4.38,0,0,1,421.89,209.9Z" transform="translate(0.02 -0.04)"/><path class="cls-67" d="M424.16,211.76a6.4,6.4,0,0,1,4.12-1.4c3.22,0,5.84,2.13,5.84,4.77s-2.59,4.79-5.81,4.79h0a6.35,6.35,0,0,1-4.12-1.4,4.14,4.14,0,0,1-.13-6.65l.13-.11Z" transform="translate(0.02 -0.04)"/><path class="cls-68" d="M426.39,213.59a6.75,6.75,0,0,1,8.24-.08,4.2,4.2,0,0,1,.09,6.76,6.75,6.75,0,0,1-8.23.08,4.2,4.2,0,0,1-.1-6.76Z" transform="translate(0.02 -0.04)"/><path class="cls-69" d="M428.66,215.45a6.5,6.5,0,0,1,7.91,0l.05,0a4.31,4.31,0,0,1,1.66,3.27,4.23,4.23,0,0,1-1.66,3.26,6.5,6.5,0,0,1-7.9.05l-.06-.05a4.19,4.19,0,0,1-1.65-3.26A4.27,4.27,0,0,1,428.66,215.45Z" transform="translate(0.02 -0.04)"/><path class="cls-70" d="M430.89,217.32a6.44,6.44,0,0,1,7.84,0,4.16,4.16,0,0,1,1.63,3.21,4.22,4.22,0,0,1-1.61,3.22,6.48,6.48,0,0,1-7.86,0,4.22,4.22,0,0,1-1.61-3.22A4.15,4.15,0,0,1,430.89,217.32Z" transform="translate(0.02 -0.04)"/><path class="cls-71" d="M433.16,219.15a6.11,6.11,0,0,1,3.84-1.29c3-.23,5.65,1.58,5.93,4s-1.92,4.63-4.92,4.86a5.68,5.68,0,0,1-1,0,6.1,6.1,0,0,1-3.84-1.28,4,4,0,0,1,0-6.33Z" transform="translate(0.02 -0.04)"/><path class="cls-72" d="M435.44,221a5.86,5.86,0,0,1,3.74-1.28c2.95,0,5.35,2,5.35,4.39h0a4,4,0,0,1-1.56,3.07,6,6,0,0,1-3.79,1.28c-2.92,0-5.28-2-5.31-4.35A4,4,0,0,1,435.44,221Z" transform="translate(0.02 -0.04)"/><path class="cls-73" d="M437.66,222.88a6.11,6.11,0,0,1,7.44,0,4,4,0,0,1,1.51,3c.28,2.37-1.84,4.47-4.73,4.7s-5.46-1.51-5.73-3.89a2.75,2.75,0,0,1,0-.81A3.9,3.9,0,0,1,437.66,222.88Z" transform="translate(0.02 -0.04)"/><path class="cls-74" d="M439.93,224.7a5.76,5.76,0,0,1,3.65-1.2,5.64,5.64,0,0,1,3.6,1.2,3.92,3.92,0,0,1,1.52,3c0,2.31-2.3,4.18-5.12,4.2a5.81,5.81,0,0,1-3.65-1.24,3.85,3.85,0,0,1-1.51-3A3.9,3.9,0,0,1,439.93,224.7Z" transform="translate(0.02 -0.04)"/><path class="cls-75" d="M442.21,226.57a5.26,5.26,0,0,1,3.55-1.21,5.59,5.59,0,0,1,3.55,1.21,3.62,3.62,0,0,1,0,5.82,5.63,5.63,0,0,1-3.56,1.21c-2.77,0-5-1.84-5-4.12A3.72,3.72,0,0,1,442.21,226.57Z" transform="translate(0.02 -0.04)"/><path class="cls-76" d="M444.43,228.43a5.66,5.66,0,0,1,3.51-1.2c2.55.11,4.59,1.79,4.73,3.88a3.83,3.83,0,0,1-1.46,2.88,5.3,5.3,0,0,1-3.46,1.16c-2.62,0-4.74-1.74-4.74-3.88A3.6,3.6,0,0,1,444.43,228.43Z" transform="translate(0.02 -0.04)"/><path class="cls-77" d="M446.52,230.26a5.48,5.48,0,0,1,6.69-.1l.13.1a3.41,3.41,0,0,1-.13,5.49,5.48,5.48,0,0,1-6.69-.1A3.4,3.4,0,0,1,446.52,230.26Z" transform="translate(0.02 -0.04)"/><path class="cls-78" d="M449,232.12a5.51,5.51,0,0,1,6.63,0,3.62,3.62,0,0,1,1.42,2.72c0,2.15-2.14,3.88-4.75,3.87a5.27,5.27,0,0,1-3.3-1.11,3.53,3.53,0,0,1-1.37-2.76A3.57,3.57,0,0,1,449,232.12Z" transform="translate(0.02 -0.04)"/><path class="cls-79" d="M451.25,234a5.52,5.52,0,0,1,6.54,0,3.36,3.36,0,0,1,1.37,2.64,3.54,3.54,0,0,1-1.37,2.68,5.52,5.52,0,0,1-6.54,0,3.34,3.34,0,0,1,0-5.32Z" transform="translate(0.02 -0.04)"/><path class="cls-80" d="M453.48,235.74a5.23,5.23,0,0,1,6.39,0,3.38,3.38,0,0,1,0,5.24,5.23,5.23,0,0,1-6.39,0A3.38,3.38,0,0,1,453.48,235.74Z" transform="translate(0.02 -0.04)"/><path class="cls-81" d="M456,237.68a4.86,4.86,0,0,1,3.08-1.05c2.4,0,4.38,1.56,4.4,3.54v.07a3.22,3.22,0,0,1-1.28,2.53,5,5,0,0,1-3.12,1.09c-2.36-.13-4.25-1.68-4.41-3.62A3.4,3.4,0,0,1,456,237.68Z" transform="translate(0.02 -0.04)"/><path class="cls-82" d="M458,239.62a5,5,0,0,1,6.09,0,3.27,3.27,0,0,1,1.25,2.46,3.34,3.34,0,0,1-1.23,2.49,5,5,0,0,1-6.1,0h0a3.27,3.27,0,0,1-1.23-2.49A3.2,3.2,0,0,1,458,239.62Z" transform="translate(0.02 -0.04)"/><path class="cls-83" d="M460.25,241.37a4.73,4.73,0,0,1,3-1,4.62,4.62,0,0,1,2.93,1,3.15,3.15,0,0,1,1.23,2.45,3.23,3.23,0,0,1-1.23,2.45,4.62,4.62,0,0,1-2.93,1,4.73,4.73,0,0,1-3-1,3.26,3.26,0,0,1-1.23-2.45A3.18,3.18,0,0,1,460.25,241.37Z" transform="translate(0.02 -0.04)"/><path class="cls-84" d="M462.53,243.24a4.29,4.29,0,0,1,2.88-1c2.25,0,4.08,1.49,4.08,3.34s-1.83,3.34-4.08,3.34a4.35,4.35,0,0,1-2.88-1,2.9,2.9,0,0,1-.09-4.67Z" transform="translate(0.02 -0.04)"/><path class="cls-85" d="M464.75,245.1a4.36,4.36,0,0,1,2.84-1c2.19,0,4,1.47,4,3.26a3,3,0,0,1-1.18,2.34,4.41,4.41,0,0,1-2.8.93c-2.14,0-3.92-1.35-4-3.11a.43.43,0,0,1,0-.16A2.9,2.9,0,0,1,464.75,245.1Z" transform="translate(0.02 -0.04)"/><path class="cls-86" d="M467,246.93a4.49,4.49,0,0,1,5.49,0,2.93,2.93,0,0,1,1.14,2.25,2.87,2.87,0,0,1-1.14,2.26,4.52,4.52,0,0,1-5.49,0h0a2.87,2.87,0,0,1-1.14-2.26A2.93,2.93,0,0,1,467,246.93Z" transform="translate(0.02 -0.04)"/><path class="cls-87" d="M469.3,248.79a4,4,0,0,1,2.65-.93,4.25,4.25,0,0,1,2.7.93,2.85,2.85,0,0,1,1.09,2.18c0,1.69-1.63,3.09-3.69,3.11H472a4.18,4.18,0,0,1-2.65-.9,2.84,2.84,0,0,1-1.14-2.21A2.78,2.78,0,0,1,469.3,248.79Z" transform="translate(0.02 -0.04)"/><path class="cls-88" d="M471.52,250.62a4.4,4.4,0,0,1,5.21,0,2.76,2.76,0,0,1,1.09,2.14,2.68,2.68,0,0,1-1.09,2.13,4.23,4.23,0,0,1-5.15.05l-.06-.05a2.7,2.7,0,0,1-1.08-2.13A2.78,2.78,0,0,1,471.52,250.62Z" transform="translate(0.02 -0.04)"/><path class="cls-89" d="M473.8,252.49a4.09,4.09,0,0,1,2.51-.86c2,0,3.59,1.34,3.58,3a2.74,2.74,0,0,1-1,2,4,4,0,0,1-2.56.86,3.82,3.82,0,0,1-2.51-.86A2.59,2.59,0,0,1,473.8,252.49Z" transform="translate(0.02 -0.04)"/><path class="cls-90" d="M476.07,254.35a3.9,3.9,0,0,1,4.74,0,2.54,2.54,0,0,1,1,2c0,1.57-1.55,2.84-3.46,2.84h-.05a3.8,3.8,0,0,1-2.41-.82,2.4,2.4,0,0,1,.14-4Z" transform="translate(0.02 -0.04)"/><path class="cls-91" d="M478.3,256.18a4.07,4.07,0,0,1,4.73,0,2.43,2.43,0,0,1,.43,3.88,3.87,3.87,0,0,1-4.73.35,2.74,2.74,0,0,1-.43-4.23Z" transform="translate(0.02 -0.04)"/><path class="cls-92" d="M480.57,258a3.71,3.71,0,0,1,2.32-.78,3.83,3.83,0,0,1,2.32.78,2.49,2.49,0,0,1,1,1.91,3,3,0,0,1-3.17,2.68h-.1a3.71,3.71,0,0,1-2.32-.78,2.55,2.55,0,0,1-.95-1.9A2.49,2.49,0,0,1,480.57,258Z" transform="translate(0.02 -0.04)"/><path class="cls-93" d="M482.84,259.91a3.33,3.33,0,0,1,2.23-.78,2.66,2.66,0,1,1,0,5.21,3.38,3.38,0,0,1-2.23-.78,2.22,2.22,0,0,1-.1-3.57l.1-.08Z" transform="translate(0.02 -0.04)"/><path class="cls-94" d="M485.07,261.73a3.57,3.57,0,0,1,4.35,0,2.21,2.21,0,0,1,0,3.57,3.59,3.59,0,0,1-4.36,0,2.36,2.36,0,0,1-.9-1.79A2.43,2.43,0,0,1,485.07,261.73Z" transform="translate(0.02 -0.04)"/><path class="cls-95" d="M487.34,263.6a3.47,3.47,0,0,1,4.17,0,2.12,2.12,0,0,1,.06,3.41l-.06.05a3.47,3.47,0,0,1-4.17,0,2.27,2.27,0,0,1-.85-1.75A2.21,2.21,0,0,1,487.34,263.6Z" transform="translate(0.02 -0.04)"/><path class="cls-96" d="M489.62,265.46a3,3,0,0,1,2-.7,3.16,3.16,0,0,1,2,.7,2,2,0,0,1,.08,3.25l-.08.06a3.16,3.16,0,0,1-2,.7,3,3,0,0,1-2-.7,2,2,0,0,1,0-3.31Z" transform="translate(0.02 -0.04)"/><path class="cls-97" d="M491.84,267.29a3.24,3.24,0,0,1,2-.47,2.54,2.54,0,0,1,2.75,2.26v0a2,2,0,0,1-.81,1.59,3,3,0,0,1-1.94.66,2.54,2.54,0,0,1-2.75-2.25A2.1,2.1,0,0,1,491.84,267.29Z" transform="translate(0.02 -0.04)"/><path class="cls-98" d="M494.12,269.16a2.85,2.85,0,0,1,1.84-.63,2.42,2.42,0,0,1,2.65,2.1.11.11,0,0,1,0,.08,1.9,1.9,0,0,1-.75,1.52,3,3,0,0,1-3.62.1l-.12-.1a1.86,1.86,0,0,1,0-3.07Z" transform="translate(0.02 -0.04)"/><path class="cls-99" d="M496.34,271a2.81,2.81,0,0,1,1.85-.62,2.73,2.73,0,0,1,1.8.62,1.9,1.9,0,0,1,0,3,3,3,0,0,1-3.62,0l0,0a1.9,1.9,0,0,1,0-3Z" transform="translate(0.02 -0.04)"/><path class="cls-100" d="M498.61,272.85a2.75,2.75,0,0,1,1.76-.59,2.7,2.7,0,0,1,1.7.59,1.8,1.8,0,0,1,.71,1.43,1.75,1.75,0,0,1-.71,1.4,2.72,2.72,0,0,1-3.34.09l-.12-.09a1.78,1.78,0,0,1-.71-1.4A1.83,1.83,0,0,1,498.61,272.85Z" transform="translate(0.02 -0.04)"/><path class="cls-101" d="M500.89,274.6a2.63,2.63,0,0,1,1.66-.55,2.77,2.77,0,0,1,1.65.55,1.73,1.73,0,0,1,0,2.72,2.83,2.83,0,0,1-1.65.54,2.69,2.69,0,0,1-1.66-.54,1.64,1.64,0,0,1-.1-2.64A.39.39,0,0,1,500.89,274.6Z" transform="translate(0.02 -0.04)"/><path class="cls-102" d="M503.35,276.58A2.57,2.57,0,0,1,505,276a2.11,2.11,0,0,1,2.23,1.83,1.72,1.72,0,0,1-.67,1.32,2.46,2.46,0,0,1-1.56.51,2,2,0,0,1-2.22-1.67.43.43,0,0,1,0-.16A1.61,1.61,0,0,1,503.35,276.58Z" transform="translate(0.02 -0.04)"/><path class="cls-103" d="M505.39,278.48a2.46,2.46,0,0,1,3,0,1.57,1.57,0,0,1,.63,1.25,1.64,1.64,0,0,1-.61,1.25,2.54,2.54,0,0,1-3,0,1.62,1.62,0,0,1-.62-1.25A1.7,1.7,0,0,1,505.39,278.48Z" transform="translate(0.02 -0.04)"/><path class="cls-104" d="M507.66,280.27a2.25,2.25,0,0,1,2.75-.08l.09.08a1.39,1.39,0,0,1,.62,1.16,1.45,1.45,0,0,1-.62,1.21,2.43,2.43,0,0,1-2.84,0,1.56,1.56,0,0,1-.61-1.21A1.55,1.55,0,0,1,507.66,280.27Z" transform="translate(0.02 -0.04)"/><path class="cls-105" d="M509.89,282.13a2.25,2.25,0,0,1,2.74,0h0a1.37,1.37,0,0,1,0,2.22,2.25,2.25,0,0,1-2.74,0h0a1.37,1.37,0,0,1,0-2.22Z" transform="translate(0.02 -0.04)"/><path class="cls-106" d="M512.16,284a2.08,2.08,0,0,1,1.28-.43,1.69,1.69,0,0,1,1.85,1.44v.08a1.43,1.43,0,0,1-.52,1.05,2.17,2.17,0,0,1-1.33.42,1.66,1.66,0,0,1-1.8-1.47h0A1.44,1.44,0,0,1,512.16,284Z" transform="translate(0.02 -0.04)"/><path class="cls-107" d="M514.43,285.83a1.88,1.88,0,0,1,1.19-.43,1.67,1.67,0,0,1,1.75,1.44,1.23,1.23,0,0,1-.52,1,2,2,0,0,1-2.42,0,1.23,1.23,0,0,1-.52-1A1.28,1.28,0,0,1,514.43,285.83Z" transform="translate(0.02 -0.04)"/><path class="cls-108" d="M516.66,287.69a1.92,1.92,0,0,1,2.32,0,1.16,1.16,0,0,1,0,1.87,2,2,0,0,1-2.32,0A1.16,1.16,0,0,1,516.66,287.69Z" transform="translate(0.02 -0.04)"/><path class="cls-109" d="M518.93,289.52a1.72,1.72,0,0,1,1.09-.35,1.61,1.61,0,0,1,1,.35,1.17,1.17,0,0,1,.48.89,1.2,1.2,0,0,1-.48.89,1.56,1.56,0,0,1-1,.35,1.66,1.66,0,0,1-1.09-.35,1.16,1.16,0,0,1-.42-.89A1.13,1.13,0,0,1,518.93,289.52Z" transform="translate(0.02 -0.04)"/><path class="cls-110" d="M521.21,291.38a1.41,1.41,0,0,1,1-.35,1.56,1.56,0,0,1,1,.35,1,1,0,0,1,0,1.6l0,0a1.5,1.5,0,0,1-1,.35,1.3,1.3,0,0,1-1.4-1.18A1.05,1.05,0,0,1,521.21,291.38Z" transform="translate(0.02 -0.04)"/><path class="cls-111" d="M523.43,293.25a1.31,1.31,0,0,1,1-.35,1.44,1.44,0,0,1,1,.35,1,1,0,0,1,.38.74,1,1,0,0,1-.38.77,1.74,1.74,0,0,1-1,.31,1.2,1.2,0,0,1-1.33-1V294A1,1,0,0,1,523.43,293.25Z" transform="translate(0.02 -0.04)"/><path class="cls-112" d="M525.71,295.07a1.51,1.51,0,0,1,1.7,0,.92.92,0,0,1,.38.7.82.82,0,0,1-.38.7,1.29,1.29,0,0,1-1.6.08.39.39,0,0,1-.1-.08.82.82,0,0,1-.34-.7A.86.86,0,0,1,525.71,295.07Z" transform="translate(0.02 -0.04)"/><path class="cls-113" d="M528,296.94a1.23,1.23,0,0,1,.76-.27,1.31,1.31,0,0,1,.8.27.79.79,0,0,1,0,1.28,1.31,1.31,0,0,1-.8.27,1.23,1.23,0,0,1-.76-.27.75.75,0,0,1-.33-.66A.72.72,0,0,1,528,296.94Z" transform="translate(0.02 -0.04)"/><path class="cls-114" d="M530.2,298.8a1.1,1.1,0,0,1,1.34-.06l.09.06a.69.69,0,0,1,.28.59.66.66,0,0,1-.28.54,1.11,1.11,0,0,1-1.34.07l-.09-.07a.66.66,0,0,1-.28-.54A.71.71,0,0,1,530.2,298.8Z" transform="translate(0.02 -0.04)"/><path class="cls-115" d="M534,301.17a.66.66,0,0,1-.23.51,1,1,0,0,1-.67.23.83.83,0,0,1-.61-.23.73.73,0,0,1-.29-.51.83.83,0,0,1,.29-.54.94.94,0,0,1,.61-.19.78.78,0,0,1,.9.57A.43.43,0,0,1,534,301.17Z" transform="translate(0.02 -0.04)"/><path class="cls-116" d="M308.37,116.75a6.83,6.83,0,0,1,8.31,0,4.23,4.23,0,0,1,0,6.82,6.81,6.81,0,0,1-8.31,0,4.23,4.23,0,0,1,0-6.82Z" transform="translate(0.02 -0.04)"/><path class="cls-117" d="M375.25,181.5c3.78,3.26,8.12,5.94,11.52,9.57H483v-10H374.61A4.3,4.3,0,0,1,375.25,181.5Z" transform="translate(0.02 -0.04)"/></svg>