<svg id="Layer_1" data-name="Layer 1" xmlns="http://www.w3.org/2000/svg" xmlns:xlink="http://www.w3.org/1999/xlink" viewBox="0 0 841.89 595.28"><defs><style>.cls-1{fill:#0e1525;}.cls-10,.cls-11,.cls-12,.cls-2,.cls-3,.cls-4,.cls-5,.cls-6,.cls-7,.cls-8,.cls-9{stroke-miterlimit:10;stroke-width:2px;}.cls-2{fill:url(#linear-gradient);stroke:url(#linear-gradient-2);}.cls-3{fill:url(#linear-gradient-3);stroke:url(#linear-gradient-4);}.cls-4{fill:url(#linear-gradient-5);stroke:url(#linear-gradient-6);}.cls-5{fill:url(#linear-gradient-7);stroke:url(#linear-gradient-8);}.cls-6{fill:url(#linear-gradient-9);stroke:url(#linear-gradient-10);}.cls-7{fill:url(#linear-gradient-11);stroke:url(#linear-gradient-12);}.cls-8{fill:url(#linear-gradient-13);stroke:url(#linear-gradient-14);}.cls-9{fill:url(#linear-gradient-15);stroke:url(#linear-gradient-16);}.cls-10{fill:url(#linear-gradient-17);stroke:url(#linear-gradient-18);}.cls-11{fill:url(#linear-gradient-19);stroke:url(#linear-gradient-20);}.cls-12{fill:none;stroke:#a7b8e0;}.cls-13{isolation:isolate;font-size:21px;fill:#a7b8e0;font-family:ArialMT, Arial;letter-spacing:0.57em;}.cls-14{letter-spacing:0.55em;}.cls-15{letter-spacing:0.55em;}.cls-16{letter-spacing:0.57em;}</style><linearGradient id="linear-gradient" x1="733" y1="316.75" x2="799.57" y2="316.75" gradientTransform="matrix(1, 0, 0, -1, 0, 595.89)" gradientUnits="userSpaceOnUse"><stop offset="0" stop-color="#00b1ff"/><stop offset="0.01" stop-color="#05b0ff"/><stop offset="0.11" stop-color="#2ba7fd"/><stop offset="0.21" stop-color="#4ba0fc"/><stop offset="0.31" stop-color="#659afb"/><stop offset="0.43" stop-color="#7a95fa"/><stop offset="0.57" stop-color="#8892f9"/><stop offset="0.73" stop-color="#9090f9"/><stop offset="1" stop-color="#938ff9"/></linearGradient><linearGradient id="linear-gradient-2" x1="732" y1="316.75" x2="800.57" y2="316.75" xlink:href="#linear-gradient"/><linearGradient id="linear-gradient-3" x1="208.1" y1="316.76" x2="277.53" y2="316.76" xlink:href="#linear-gradient"/><linearGradient id="linear-gradient-4" x1="207.1" y1="316.76" x2="278.81" y2="316.76" xlink:href="#linear-gradient"/><linearGradient id="linear-gradient-5" x1="42.36" y1="316.78" x2="110.83" y2="316.78" xlink:href="#linear-gradient"/><linearGradient id="linear-gradient-6" x1="41.36" y1="316.78" x2="111.83" y2="316.78" xlink:href="#linear-gradient"/><linearGradient id="linear-gradient-7" x1="291.72" y1="316.78" x2="360.18" y2="316.78" xlink:href="#linear-gradient"/><linearGradient id="linear-gradient-8" x1="290.72" y1="316.78" x2="361.18" y2="316.78" xlink:href="#linear-gradient"/><linearGradient id="linear-gradient-9" x1="542.81" y1="316.76" x2="547.02" y2="316.76" xlink:href="#linear-gradient"/><linearGradient id="linear-gradient-10" x1="541.81" y1="316.76" x2="548.02" y2="316.76" xlink:href="#linear-gradient"/><linearGradient id="linear-gradient-11" x1="654.84" y1="316.76" x2="714.62" y2="316.76" xlink:href="#linear-gradient"/><linearGradient id="linear-gradient-12" x1="653.46" y1="316.76" x2="715.62" y2="316.76" xlink:href="#linear-gradient"/><linearGradient id="linear-gradient-13" x1="567.8" y1="316.76" x2="635.41" y2="316.76" xlink:href="#linear-gradient"/><linearGradient id="linear-gradient-14" x1="566.8" y1="316.76" x2="636.41" y2="316.76" xlink:href="#linear-gradient"/><linearGradient id="linear-gradient-15" x1="378.89" y1="316.76" x2="439.26" y2="316.76" xlink:href="#linear-gradient"/><linearGradient id="linear-gradient-16" x1="377.89" y1="316.76" x2="440.26" y2="316.76" xlink:href="#linear-gradient"/><linearGradient id="linear-gradient-17" x1="458.5" y1="316.75" x2="525.88" y2="316.75" xlink:href="#linear-gradient"/><linearGradient id="linear-gradient-18" x1="457.5" y1="316.75" x2="526.88" y2="316.75" xlink:href="#linear-gradient"/><linearGradient id="linear-gradient-19" x1="127.06" y1="316.75" x2="192.36" y2="316.75" xlink:href="#linear-gradient"/><linearGradient id="linear-gradient-20" x1="125.67" y1="316.75" x2="193.76" y2="316.75" xlink:href="#linear-gradient"/></defs><title>exception_tagline</title><rect class="cls-1" width="841.89" height="595.28"/><path class="cls-2" d="M742,301.57a9.13,9.13,0,0,1-9-9.07v-2.85h3.9v2.85a5.24,5.24,0,0,0,5.17,5.17h48.41a5.2,5.2,0,0,0,5.17-5.17v-.88a5.08,5.08,0,0,0-1.14-3.26,5,5,0,0,0-2.94-1.8l-51.4-11a9.16,9.16,0,0,1-7.17-8.9v-.88a9.12,9.12,0,0,1,9.07-9.07h48.41a9.13,9.13,0,0,1,9.09,9.07v2.55h-3.92v-2.55a5.2,5.2,0,0,0-5.17-5.17H742a5.24,5.24,0,0,0-5.17,5.17v.88a5.18,5.18,0,0,0,1.16,3.27,5,5,0,0,0,3,1.77l51.39,11a9.06,9.06,0,0,1,5.15,3.18,8.89,8.89,0,0,1,2,5.72v.88a9.12,9.12,0,0,1-9.09,9.07Z" transform="translate(0 0)"/><path class="cls-3" d="M233.53,302.86q-10.72,0-17.84-6.05a21,21,0,0,1-7.58-16.8v-.16a23.07,23.07,0,0,1,7.48-17.52,25.22,25.22,0,0,1,17.94-6.93h20a25.42,25.42,0,0,1,24,17l-3.94,1.37a21.25,21.25,0,0,0-20.06-14.2h-20a21.07,21.07,0,0,0-15.11,5.86,19.18,19.18,0,0,0-6.14,14.41V280a17.12,17.12,0,0,0,5.93,13.46q5.94,5.22,15.32,5.22h20a21.28,21.28,0,0,0,20.06-14.21l3.94,1.37a25.42,25.42,0,0,1-24,17Z" transform="translate(0 0)"/><path class="cls-4" d="M110.59,255.41v4.14H46.48v8.51H99.54v4.12H42.36V255.41Zm-10.82,29v4.15H46.71v10.12h64.12v4.13H42.59v-18.4Z" transform="translate(0 0)"/><path class="cls-5" d="M360,255.41v4.14H295.84v8.51H348.9v4.12H291.72V255.41Zm-10.82,29v4.15H296.07v10.12h64.11v4.13H292v-18.4Z" transform="translate(0 0)"/><path class="cls-6" d="M542.81,255.4H547v47.46h-4.21Z" transform="translate(0 0)"/><path class="cls-7" d="M711.05,293.43V256.84h3.57v43.42l-59.78-41.94,2-2.92ZM656.88,273.2l38.92,26.74-2,2.92L660.42,280v21.39h-3.54Z" transform="translate(0 0)"/><path class="cls-8" d="M611.75,255.4a23.66,23.66,0,0,1,23.66,23.66v.14a23.66,23.66,0,0,1-23.66,23.66H591.46A23.66,23.66,0,0,1,567.8,279.2h0v-.14a23.66,23.66,0,0,1,23.66-23.66Zm-20.29,4.22A19.46,19.46,0,0,0,572,279.06v.14a19.46,19.46,0,0,0,19.44,19.44h20.29a19.46,19.46,0,0,0,19.44-19.44v-.14a19.46,19.46,0,0,0-19.44-19.44Z" transform="translate(0 0)"/><path class="cls-9" d="M383.08,302.86h-4.19V268.61h50.58a9.75,9.75,0,0,0,3.75-.53,3.1,3.1,0,0,0,1.84-3.11c0-2.07-.53-3.5-1.58-4.28a6.05,6.05,0,0,0-3.78-1.09H381v-4.2h48.7a10,10,0,0,1,6.74,2.32c1.87,1.61,2.81,4,2.81,7.25a6.9,6.9,0,0,1-2.73,5.87,11.33,11.33,0,0,1-7,2H383.08Z" transform="translate(0 0)"/><path class="cls-10" d="M525.88,255.41v4.19H494.3v43.26h-4.22V259.6H458.5v-4.19Z" transform="translate(0 0)"/><path class="cls-11" d="M192.36,258.62l-29.24,20.51,29.24,20.51-2.27,3.22-30.38-21.32-30.4,21.32-2.25-3.22,29.22-20.51-29.22-20.51,2.25-3.21,30.4,21.31,30.38-21.31Z" transform="translate(0 0)"/><line class="cls-12" x1="83.96" y1="343.34" x2="38.36" y2="343.34"/><line class="cls-12" x1="811.53" y1="343.34" x2="765.93" y2="343.34"/><text class="cls-13" transform="translate(87.57 350.83)">UNLEASH<tspan class="cls-14" x="182.99" y="0"> </tspan><tspan x="200.41" y="0">THE EXCEPTION IN</tspan><tspan class="cls-15" x="587.96" y="0"> </tspan><tspan class="cls-16" x="605.38" y="0">YOU</tspan></text></svg>