<svg xmlns="http://www.w3.org/2000/svg" version="1.0" width="512.000000pt" height="512.000000pt" viewBox="0 0 512.000000 512.000000" preserveAspectRatio="xMidYMid meet">

<g transform="translate(0.000000,512.000000) scale(0.100000,-0.100000)" fill="#cdab20" stroke="none">
<path d="M167 4516 c-55 -20 -103 -61 -134 -114 l-28 -47 -3 -1774 c-1 -1168 1 -1786 8 -1810 15 -56 63 -116 117 -148 l48 -28 975 -3 c722 -2 982 1 1003 9 49 20 69 81 45 134 -26 57 15 55 -1017 55 -850 0 -951 2 -965 16 -14 14 -16 156 -16 1410 l0 1394 2360 0 2360 0 0 -1394 c0 -1254 -2 -1396 -16 -1410 -14 -14 -116 -16 -970 -16 l-954 0 -32 -29 c-27 -24 -33 -36 -33 -71 0 -35 6 -47 33 -71 l33 -29 982 2 982 3 48 28 c54 32 102 92 117 148 7 24 9 642 8 1810 l-3 1774 -28 47 c-31 53 -79 94 -134 114 -56 20 -4730 20 -4786 0z m4737 -202 c14 -13 16 -51 16 -260 l0 -244 -2360 0 -2360 0 0 244 c0 209 2 247 16 260 14 14 240 16 2344 16 2104 0 2330 -2 2344 -16z" fill="#cdab20"/>
<path d="M449 4155 c-53 -29 -61 -105 -17 -152 43 -46 125 -37 153 18 49 95 -43 185 -136 134z" fill="#cdab20"/>
<path d="M853 4158 c-30 -14 -56 -73 -48 -106 29 -116 194 -98 195 21 0 74 -77 119 -147 85z" fill="#cdab20"/>
<path d="M1240 4143 c-42 -38 -48 -79 -18 -122 57 -85 178 -51 178 49 0 88 -95 131 -160 73z" fill="#cdab20"/>
<path d="M611 3218 c-83 -43 -86 -51 -89 -281 -3 -194 -2 -204 20 -246 39 -76 59 -81 299 -81 197 0 207 1 239 23 44 30 70 81 70 139 l0 48 347 0 c191 0 343 -4 338 -8 -6 -4 -44 -33 -85 -64 -216 -163 -379 -391 -465 -652 -35 -106 -65 -259 -65 -333 0 -39 -3 -44 -35 -57 -54 -23 -130 -100 -156 -159 -31 -70 -32 -182 -2 -248 51 -114 164 -189 284 -189 36 0 86 7 112 16 61 21 141 93 175 158 23 44 27 63 27 136 0 69 -5 94 -24 132 -29 60 -88 121 -142 148 l-42 22 6 71 c15 170 100 400 203 544 131 183 314 326 525 408 83 33 99 32 99 -2 0 -55 72 -133 123 -133 9 0 17 -3 17 -6 0 -4 -67 -136 -150 -294 -108 -206 -150 -297 -150 -321 0 -19 21 -101 47 -184 l47 -150 5 -242 6 -243 28 -27 27 -28 310 0 310 0 27 28 28 27 6 243 5 242 47 150 c26 83 47 165 47 184 0 24 -42 115 -150 321 -82 158 -150 290 -150 294 0 3 8 6 18 6 50 0 122 78 122 133 0 32 9 33 83 8 202 -70 407 -227 541 -414 103 -144 188 -374 203 -544 l6 -71 -42 -22 c-54 -27 -113 -88 -142 -148 -19 -38 -24 -63 -24 -132 0 -73 4 -92 27 -136 34 -65 114 -137 175 -158 26 -9 76 -16 112 -16 120 0 233 75 284 189 29 64 29 178 0 243 -28 61 -94 132 -149 158 -42 21 -44 24 -44 64 0 73 -30 227 -65 332 -86 261 -249 489 -465 652 -41 31 -79 60 -84 64 -6 4 146 8 337 8 l347 0 0 -48 c0 -58 26 -109 70 -139 32 -22 42 -23 239 -23 240 0 260 5 299 81 22 42 23 52 20 246 -3 230 -6 238 -89 281 -42 22 -52 23 -241 20 -180 -3 -199 -5 -224 -24 -50 -37 -67 -70 -72 -134 l-4 -60 -547 2 -546 3 -5 60 c-6 70 -33 115 -82 136 -24 10 -85 14 -233 14 -189 0 -202 -1 -235 -22 -48 -30 -64 -58 -70 -128 l-5 -60 -546 -3 -547 -2 -4 60 c-5 64 -22 97 -72 134 -25 19 -44 21 -224 24 -189 3 -199 2 -241 -20z m339 -293 l0 -115 -115 0 -115 0 0 108 c0 60 3 112 7 115 3 4 55 7 115 7 l108 0 0 -115z m1720 0 l0 -115 -110 0 -110 0 0 115 0 115 110 0 110 0 0 -115z m1728 -2 l3 -113 -116 0 -115 0 0 115 0 116 113 -3 112 -3 3 -112z m-1702 -694 l131 -251 -33 -110 c-18 -61 -35 -117 -38 -124 -8 -20 -384 -20 -392 0 -3 7 -20 63 -38 124 l-33 110 131 251 c72 138 133 251 136 251 3 0 64 -113 136 -251z m-1307 -725 c78 -65 31 -194 -71 -194 -108 0 -155 134 -71 200 38 30 103 27 142 -6z m1341 -84 l0 -110 -170 0 -170 0 0 110 0 110 170 0 170 0 0 -110z m1143 90 c84 -66 37 -200 -71 -200 -102 0 -149 129 -71 194 39 33 104 36 142 6z" fill="#cdab20"/>
<path d="M2495 2077 c-17 -14 -28 -36 -32 -63 -5 -36 -1 -46 25 -75 25 -28 37 -34 72 -34 35 0 47 6 72 34 26 29 30 39 25 75 -7 54 -44 86 -97 86 -26 0 -48 -8 -65 -23z" fill="#cdab20"/>
<path d="M2494 756 c-37 -37 -43 -70 -20 -115 35 -66 137 -66 172 0 18 37 18 65 -3 99 -34 59 -99 66 -149 16z" fill="#cdab20"/>
</g>
</svg>