<svg xmlns="http://www.w3.org/2000/svg" xmlns:xlink="http://www.w3.org/1999/xlink" version="1.1" id="Layer_2" x="0px" y="0px" viewBox="0 0 1080 1080" style="enable-background:new 0 0 1080 1080;" xml:space="preserve">
<style type="text/css">
	.st0{fill:#0C4266;}
	.st1{fill:#B6E7FF;}
	.st2{fill:#F2F2F2;}
	.st3{fill:#FFBE55;}
	.st4{fill:#FFA31D;}
	.st5{fill:#FFCE8D;}
	.st6{fill:#2A94F4;}
	.st7{fill:#FF9912;}
	.st8{fill:#FFFFFF;}
</style>
<g>
	<g>
		<path class="st0" d="M663.16,124.45c-105.16,8.3-209.1,32.23-306.89,71.91c-23.52,9.55-46.69,19.99-69.4,31.33    c-21.26,10.62-44.93,21.51-59.82,40.8c-13.19,17.1-16.73,39.95-4.17,58.38c6.16,9.04,14.48,16.29,21.94,24.2    c8.16,8.64,14.72,18.3,18.41,29.68c6.84,21.14,3.63,44.37-5.16,64.44c-9.48,21.66-25.53,39.04-43.72,53.79    c-37.52,30.4-82.96,49.69-118.4,82.85c-15.52,14.52-29.16,31.63-36.77,51.66c-7.5,19.73-7.98,41.16-2.4,61.43    c12.14,44.08,47.67,78.83,85.55,102.2c80.08,49.4,178.49,56.92,270.2,49.63c50.54-4.02,100.78-12.51,150.33-23.1    c53.18-11.36,105.71-25.79,157.21-43.26c48.42-16.43,96.32-35.19,142.26-57.7c40.59-19.88,79.91-43.19,114.38-72.61    c32.83-28.02,62.13-62.63,78.61-102.92c8.14-19.92,12.2-43.92-0.65-62.85c-9.89-14.56-26.43-22.62-41.78-30.12    c-16.3-7.98-35.01-16.09-44.92-32.19c-14.83-24.1-1.66-52.16,11.02-73.88c11.65-19.96,22.22-39.3,23.54-62.85    c1.15-20.46-3.73-40.95-12.33-59.43c-19.58-42.05-57.89-71.13-100.06-88.31c-47.04-19.16-98.43-24.5-148.8-20.96    C715.2,118.41,689.23,121.99,663.16,124.45c-1.91,0.18-1.92,3.18,0,3c52.77-4.97,105-13.34,157.97-5.35    c46.94,7.08,94.31,24,130,56.22c32.14,29.01,54.74,73.94,47.17,118c-4.22,24.56-19.57,43.83-30.32,65.67    c-9.32,18.96-14.3,42.41-2.59,61.53c18.91,30.87,62.32,31.86,84.44,59.27c16.33,20.24,10.1,47.51,0.18,69.12    c-9.11,19.83-21.06,38.34-34.92,55.18c-58.1,70.56-144.87,112.21-228.06,145.43c-98.43,39.3-201.43,67.05-306.17,83.14    c-90.83,13.95-187.81,18.33-275.87-12.3c-43.3-15.06-85.26-39.05-115.09-74.43c-14.76-17.5-26.71-38.07-31.65-60.6    c-4.76-21.72-1.85-44.07,8.2-63.9c21.17-41.76,63.95-66.62,102.23-90.48c37.22-23.19,77.17-49.19,93.87-91.76    c7.18-18.32,9.8-38.87,4.8-58.09c-2.56-9.81-7.11-19.01-13.33-27.02c-6.66-8.59-14.96-15.68-22.18-23.76    c-8.04-9-14.05-19.29-14-31.7c0.05-12.58,5.75-24.74,13.89-34.12c16.02-18.44,39.95-29.01,61.44-39.6    c92.51-45.59,192.29-76.21,294.2-91.75c25.15-3.84,50.43-6.72,75.79-8.72C665.07,127.3,665.09,124.3,663.16,124.45z"/>
	</g>
</g>
<g>
	<path class="st0" d="M646.86,116.76c-136.89,10.68-270.02,48.23-388.19,109.48c-16.54,8.57-33.14,17.89-44.85,31.64   c-11.7,13.76-17.77,32.93-10.9,49.92c6.51,16.11,22.85,27.07,33.74,41.15c27.4,35.42,15.47,85.47-12.7,118.13   s-69.06,53.17-105.76,77.53c-36.7,24.35-71.73,56.24-78.81,98.13c-8.67,51.32,27.97,103.03,74.04,135.13   c98.24,68.45,230.79,68.35,348.73,50.47c117.78-17.86,232.32-50.32,339.66-96.27c96.14-41.16,191.5-98.28,233.18-188.6   c9.59-20.77,15.72-45.86,3.06-66.09c-19.1-30.54-70.26-33.77-88.29-64.84c-10.04-17.31-6.36-38.36,1.7-55.83   s20.11-33.14,27.01-51.07c17.47-45.44-2.23-99.87-40.19-135.38s-91.13-53.98-143.74-60.24   C741.92,103.76,699.12,111.89,646.86,116.76z"/>
</g>
<g>
	<path class="st1" d="M106.46,879.34c-3.71-41.1-1.11-82.77,7.7-123.1c0.41-1.9,1.28-3.7,2.62-5.1c4.07-4.24,8.88-1.82,12.82,0.49   c13.44,7.87,26.88,15.74,40.32,23.61c3.48-35.5,10.86-70.61,21.96-104.5c2.32-7.09,7.14-15.7,14.94-13.42   c2.33,0.68,4.34,2.2,5.83,4.12l79.8,102.97c11.59,14.95,34.77,12.87,43.5-3.91l7.62-14.63c6.45-12.4,23.39-14.41,32.53-3.84   c19.76,22.85,34.33,50.21,42.06,79.43L106.46,879.34z"/>
</g>
<g>
	<path class="st1" d="M979.8,881.81c-15.8-54.85-29.94-110.17-42.4-165.87c-28.17,2.24-44.21,44.12-72.06,39.33   c-10.16-1.75-18.03-9.65-24.82-17.42c-12.4-14.19-23.73-29.32-33.84-45.22c-6.07-9.54-12.55-20.08-23.23-23.78   c-15.45-5.36-31.32,5.93-43.58,16.76c-40.03,35.34-77.64,73.42-112.46,113.9L979.8,881.81z"/>
</g>
<path class="st2" d="M971.87,924.62H108.13c-41.99,0-64.73-31.96-37.47-52.69c74.98-57.04,256.87-97.29,469.35-97.29  s394.37,40.25,469.35,97.29C1036.61,892.66,1013.87,924.62,971.87,924.62z"/>
<g>
	<g>
		<path class="st3" d="M530.07,621.93c0.75,31.04,3.26,78.14,3.26,89.45c5.14,5.65,5.14,5.65,5.14,5.65l9.25-5.65l6.22-89.45H530.07    z"/>
		<path class="st3" d="M535.3,708.66c-3.13,16.45-11.75,78.34-19.59,86.57c9.01,8.23,26.3,3.13,26.3,3.13    c-1.23-14.89,2.79-96.36,2.79-96.36L535.3,708.66z"/>
		<circle class="st4" cx="539.4" cy="713.59" r="9.15"/>
		<path class="st4" d="M548.55,810.29c0,0-56.87,0-66.26,0c0.05-2.24,0.17-4.25,0.38-6.07c1.98-17.46,11.65-16.51,39.65-16.01    c22.77,0.41,25.63,9.2,25.99,16.01C548.44,806.65,548.26,808.83,548.55,810.29z"/>
		<path class="st3" d="M548.55,810.29c0,0-56.87,0-66.26,0c0.05-2.24,0.17-4.25,0.38-6.07h65.64    C548.44,806.65,548.26,808.83,548.55,810.29z"/>
	</g>
	<g>
		<path class="st3" d="M576.44,621.93c-0.75,31.04-3.26,78.14-3.26,89.45c-5.14,5.65-5.14,5.65-5.14,5.65l-9.25-5.65l-6.22-89.45    H576.44z"/>
		<path class="st3" d="M571.22,708.66c3.13,16.45,11.75,78.34,19.59,86.57c-9.01,8.23-26.3,3.13-26.3,3.13    c1.23-14.89-2.79-96.36-2.79-96.36L571.22,708.66z"/>
		<circle class="st4" cx="567.11" cy="713.59" r="9.15"/>
		<path class="st4" d="M557.96,810.29c0,0,56.87,0,66.26,0c-0.05-2.24-0.17-4.25-0.38-6.07c-1.98-17.46-11.65-16.51-39.65-16.01    c-22.77,0.41-25.63,9.2-25.99,16.01C558.07,806.65,558.25,808.83,557.96,810.29z"/>
		<path class="st3" d="M557.96,810.29c0,0,56.87,0,66.26,0c-0.05-2.24-0.17-4.25-0.38-6.07H558.2    C558.07,806.65,558.25,808.83,557.96,810.29z"/>
	</g>
	<g>
		<path class="st1" d="M521.13,543c-2.78,1.4-5.59,2.63-8.42,3.77c-2.85,1.1-5.71,2.12-8.62,2.98c-5.8,1.78-11.73,3.05-17.72,3.88    c-11.97,1.66-24.29,1.39-36.15-1.26c-11.86-2.62-23.13-7.7-32.96-14.61c-4.89-3.49-9.42-7.42-13.63-11.63    c-4.2-4.22-7.93-8.83-11.47-13.54c-1.23-1.64-0.9-3.98,0.74-5.21c1.59-1.2,3.84-0.92,5.1,0.6l0.08,0.1    c3.54,4.28,7.22,8.43,11.27,12.15c4.06,3.71,8.37,7.1,12.94,10.06c9.19,5.84,19.39,9.86,29.99,11.7    c10.6,1.87,21.54,1.6,32.15-0.36c5.31-0.99,10.55-2.37,15.62-4.18c2.54-0.88,5.03-1.91,7.48-2.98c2.43-1.11,4.81-2.29,7.09-3.57    l0.02-0.01c3.31-1.86,7.49-0.69,9.36,2.61s0.69,7.49-2.61,9.36C521.32,542.9,521.22,542.95,521.13,543z"/>
		<path class="st1" d="M411.31,485.95c-4.38,10.09-3.43,26.84-16.75,28.56c-13.33,1.71-25.03-16.42-28.37-18.99    c-2.98-2.29-7.04-5.19-13.14-3.67c-6.09,1.52-15.85-1.49-13.19-9.16c2.53-7.28,12.04,2.49,14.33,3.83s8.38,3.05,11.8,2.47    c3.08-0.51,6.77-8.09-5.6-20.1c-2.28-2.21-5.11-3.78-8.17-4.64c-6.24-1.74-9.21-9.02-4.69-13.34c5.47-5.22,10.98,2.37,12.15,7.85    c0.33,1.55,1.07,2.97,2.05,4.21c6.11,7.68,17.42,20.23,21.02,16.12c3.6-4.11,5.65-13.25,3.81-23.25    c-0.32-1.75-1.18-3.32-2.34-4.67c-3.26-3.81-3.62-12.44,0.05-13.77c3.87-1.41,9.36,0.63,7.31,12.1c-0.38,2.15-0.44,4.34-0.07,6.5    c1.96,11.35,5.1,23.71,10.27,24.05c5.71,0.38,12.13-0.59,13.71-4.28c1.75-4.08,8.61-8.58,13-5.26c4.24,3.2,1.05,7.53-7.81,9.2    c-2.1,0.4-4.13,1.14-5.88,2.35C411.85,484.11,411.31,485.95,411.31,485.95z"/>
	</g>
	<g>
		<path class="st1" d="M583.85,543c2.78,1.4,5.59,2.63,8.42,3.77c2.85,1.1,5.71,2.12,8.62,2.98c5.8,1.78,11.73,3.05,17.72,3.88    c11.97,1.66,24.29,1.39,36.15-1.26c11.86-2.62,23.13-7.7,32.96-14.61c4.89-3.49,9.42-7.42,13.63-11.63    c4.2-4.22,7.93-8.83,11.47-13.54c1.23-1.64,0.9-3.98-0.74-5.21c-1.59-1.2-3.84-0.92-5.1,0.6l-0.08,0.1    c-3.54,4.28-7.22,8.43-11.27,12.15c-4.06,3.71-8.37,7.1-12.94,10.06c-9.19,5.84-19.39,9.86-29.99,11.7    c-10.6,1.87-21.54,1.6-32.15-0.36c-5.31-0.99-10.55-2.37-15.62-4.18c-2.54-0.88-5.03-1.91-7.48-2.98    c-2.43-1.11-4.81-2.29-7.09-3.57l-0.02-0.01c-3.31-1.86-7.49-0.69-9.36,2.61c-1.86,3.31-0.69,7.49,2.61,9.36    C583.66,542.9,583.77,542.95,583.85,543z"/>
		<path class="st1" d="M693.68,485.95c4.38,10.09,3.43,26.84,16.75,28.56c13.33,1.71,25.03-16.42,28.37-18.99    c2.98-2.29,7.04-5.19,13.14-3.67c6.09,1.52,15.85-1.49,13.19-9.16c-2.53-7.28-12.04,2.49-14.33,3.83    c-2.28,1.33-8.38,3.05-11.8,2.47c-3.08-0.51-6.77-8.09,5.6-20.1c2.28-2.21,5.11-3.78,8.17-4.64c6.24-1.74,9.21-9.02,4.69-13.34    c-5.47-5.22-10.98,2.37-12.15,7.85c-0.33,1.55-1.07,2.97-2.05,4.21c-6.11,7.68-17.42,20.23-21.02,16.12    c-3.6-4.11-5.65-13.25-3.81-23.25c0.32-1.75,1.18-3.32,2.34-4.67c3.26-3.81,3.62-12.44-0.05-13.77c-3.87-1.41-9.36,0.63-7.31,12.1    c0.38,2.15,0.44,4.34,0.07,6.5c-1.96,11.35-5.1,23.71-10.27,24.05c-5.71,0.38-12.13-0.59-13.71-4.28c-1.75-4.08-8.61-8.58-13-5.26    c-4.24,3.2-1.05,7.53,7.81,9.2c2.1,0.4,4.13,1.14,5.88,2.35C693.14,484.11,693.68,485.95,693.68,485.95z"/>
	</g>
	<path class="st5" d="M587.71,539.62c0.33-5.61,1.36-13.25,2.15-18.61c0.17-1.17,1.86-1.14,2,0.03c1.15,9.85,1.81,29.05-7.58,43.23   C586.27,546.53,587.71,539.62,587.71,539.62z"/>
	<polygon class="st3" points="553.94,514.62 517.89,523.21 531.62,621.93 553.94,621.93 576.26,621.93 590,523.21  "/>
	<path class="st1" d="M621.76,375.56c0,30.52-25.65,77.42-50.94,109.53c-8.59,10.9-25.18,10.82-33.71-0.13   c-24.61-31.61-50.98-79.13-50.98-109.41c0-37.45,30.36-67.81,67.81-67.81S621.76,338.11,621.76,375.56z"/>
	<rect x="549.65" y="479.43" class="st1" width="8.58" height="39.49"/>
	<path class="st5" d="M564.24,518.92h-20.6c-2.37,0-4.29-1.92-4.29-4.29l0,0c0-2.37,1.92-4.29,4.29-4.29h20.6   c2.37,0,4.29,1.92,4.29,4.29l0,0C568.54,516.99,566.61,518.92,564.24,518.92z"/>
	<path class="st5" d="M575.79,626.22H532.1c-2.37,0-4.29-1.92-4.29-4.29l0,0c0-2.37,1.92-4.29,4.29-4.29h43.69   c2.37,0,4.29,1.92,4.29,4.29l0,0C580.08,624.3,578.16,626.22,575.79,626.22z"/>
	<path class="st5" d="M520.17,539.62c-0.33-5.61-1.36-13.25-2.15-18.61c-0.17-1.17-1.86-1.14-2,0.03   c-1.15,9.85-1.81,29.05,7.58,43.23C521.62,546.53,520.17,539.62,520.17,539.62z"/>
	<circle class="st4" cx="553.94" cy="621.93" r="9.15"/>
	<g>
		<path class="st6" d="M543.64,421.98h-14.53c-18.12,0-32.81-14.69-32.81-32.81V378.9h14.25c18.28,0,33.09,14.82,33.09,33.09V421.98    z"/>
		<path class="st6" d="M564.24,421.98h14.53c18.12,0,32.81-14.69,32.81-32.81V378.9h-14.25c-18.28,0-33.09,14.82-33.09,33.09V421.98    z"/>
	</g>
</g>
<polygon class="st5" points="553.57,545.77 537.6,573.42 569.54,573.42 "/>
<circle class="st3" cx="302.64" cy="299.44" r="40.72"/>
<path class="st7" d="M256.9,317.09c-0.91,0.11-1.41-1.03-0.71-1.63c0.92-0.78,1.88-1.54,2.87-2.29c1.39-1.04,2.82-2.05,4.3-3.04  c-0.83-3.04-1.3-6.12-1.42-9.17c-2.73,1.36-5.43,2.83-8.11,4.45c-2.35,1.46-4.7,2.98-7.01,4.94c-1.14,1-2.31,2.1-3.47,3.64  c-0.57,0.74-1.17,1.71-1.66,2.98c-0.12,0.32-0.22,0.75-0.31,1.12l-0.13,0.58c-0.02,0.23-0.05,0.48-0.06,0.72  c-0.01,0.5-0.05,0.94,0.05,1.49c0.08,0.54,0.21,1.08,0.38,1.59c0.2,0.51,0.45,1,0.74,1.48c0.28,0.48,0.59,0.79,0.92,1.17  c0.17,0.18,0.35,0.37,0.51,0.52l0.47,0.38c0.32,0.23,0.68,0.5,0.98,0.66c1.19,0.68,2.29,1.07,3.22,1.32  c1.89,0.49,3.52,0.65,5.06,0.73c3.08,0.17,5.9,0.03,8.71-0.21c3.6-0.31,7.12-0.78,10.59-1.37c1.89-0.31,3.77-0.65,5.65-1.02  c10.59-2.13,20.85-5.27,30.81-9.14c9.96-3.89,19.68-8.37,29.1-13.62c1.67-0.93,3.32-1.89,4.97-2.89c3-1.83,5.96-3.77,8.88-5.9  c2.26-1.66,4.48-3.43,6.68-5.6c1.1-1.09,2.2-2.29,3.29-3.93c0.53-0.8,1.1-1.83,1.54-3.13c0.1-0.33,0.2-0.77,0.28-1.16l0.1-0.6  c0.02-0.23,0.04-0.48,0.04-0.72c0-0.51,0.02-0.95-0.09-1.5c-0.09-0.54-0.24-1.08-0.43-1.6c-0.22-0.49-0.47-0.99-0.77-1.45  c-0.3-0.47-0.62-0.78-0.96-1.15c-0.16-0.17-0.34-0.35-0.51-0.49l-0.48-0.35c-0.31-0.22-0.67-0.47-0.98-0.63  c-1.2-0.62-2.29-0.95-3.21-1.12c-1.89-0.38-3.48-0.42-5-0.4c-3.02,0.07-5.79,0.47-8.51,0.92c-3.09,0.53-6.1,1.2-9.05,1.95  c1.94,2.36,3.62,4.97,5.01,7.81c1.76-0.25,3.5-0.45,5.23-0.6l0.07-0.01c1.96-0.16,2.86,2.38,1.24,3.49l-0.28,0.19  c-1.32,0.81-2.68,1.59-4.07,2.34c-2.95,1.62-6.04,3.14-9.14,4.62c-4.56,2.18-9.24,4.17-13.95,6.1c-4.71,1.93-9.47,3.77-14.27,5.51  c-9.58,3.48-19.2,6.88-28.85,9.84c-3.29,1-6.59,1.94-9.88,2.71c-1.54,0.37-3.08,0.7-4.6,0.98L256.9,317.09z"/>
<circle class="st8" cx="875" cy="270.16" r="64.32"/>
<circle class="st2" cx="908.66" cy="237.19" r="15.1"/>
<circle class="st2" cx="895.54" cy="266.04" r="6.69"/>
<circle class="st2" cx="834.58" cy="293.36" r="7.96"/>
<circle class="st2" cx="852.85" cy="306.92" r="5.61"/>
<g>
	<g>
		<circle class="st1" cx="842.54" cy="594.82" r="35.02"/>
	</g>
	<g>
		<path class="st8" d="M823.43,656.84c-0.98-0.38-3.57-1.38,5.57-29.45l2.51,0.39c-5.4,16.59-6.32,22.81-6.22,24.24    c1.16-1.11,5.4-7.53,13.98-27.13c3.37-7.7,6.83-16.13,10.28-25.04c4.04-10.42,7.74-20.69,10.71-29.71    c5.67-17.26,6.63-23.72,6.52-25.19c-0.93,0.9-3.95,5.29-9.99,18.27l-2.08-1.5c10.64-22.88,13.03-21.95,13.94-21.6    c0.9,0.35,3.64,1.41-5.89,30.43c-3.02,9.18-6.78,19.62-10.88,30.2c-3.51,9.05-7.02,17.6-10.45,25.44    C827.37,658.36,824.41,657.21,823.43,656.84z"/>
	</g>
</g>
<circle class="st8" cx="236.04" cy="550.22" r="4.45"/>
<circle class="st8" cx="368.21" cy="568.32" r="4.05"/>
<circle class="st8" cx="399.8" cy="309.69" r="8.38"/>
<circle class="st8" cx="671.24" cy="353.18" r="3.39"/>
<circle class="st8" cx="760.83" cy="366.39" r="4.75"/>
<circle class="st8" cx="789.83" cy="462.89" r="3.46"/>
<circle class="st8" cx="867.81" cy="480.85" r="1.42"/>
<circle class="st8" cx="684.74" cy="598.47" r="3.29"/>
<circle class="st8" cx="590.21" cy="275.03" r="2.3"/>
<circle class="st8" cx="680.69" cy="199.78" r="6.05"/>
<circle class="st8" cx="493.67" cy="224.71" r="2.63"/>
<circle class="st8" cx="432.5" cy="624.07" r="2.15"/>
<circle class="st8" cx="332.61" cy="642.86" r="6.8"/>
<g>
	<g>
		<path class="st1" d="M687.8,1050.15c0.44,0,0.87,0,1.31,0c0.78,0,1.54-0.69,1.5-1.5c-0.04-0.81-0.66-1.5-1.5-1.5    c-0.44,0-0.87,0-1.31,0c-0.78,0-1.54,0.69-1.5,1.5C686.34,1049.46,686.96,1050.15,687.8,1050.15L687.8,1050.15z"/>
	</g>
</g>
</svg>