<svg xmlns="http://www.w3.org/2000/svg" version="1.1" xmlns:xlink="http://www.w3.org/1999/xlink" xmlns:svgjs="http://svgjs.com/svgjs" width="1440" height="560" preserveAspectRatio="none" viewBox="0 0 1440 560"><g mask="url(&quot;#SvgjsMask1000&quot;)" fill="none"><rect width="1440" height="560" x="0" y="0" fill="#0e2a47"></rect><path d="M474 84L473 -84" stroke-width="6" stroke="url(#SvgjsLinearGradient1001)" stroke-linecap="round" class="Down"></path><path d="M542 316L541 547" strokeWidth="6" stroke="url(#SvgjsLinearGradient1002)" strokeLinecap="round" class="Up"></path><path d="M675 489L674 306" strokeWidth="10" stroke="url(#SvgjsLinearGradient1001)" strokeLinecap="round" class="Down"></path><path d="M896 97L895 -155" strokeWidth="8" stroke="url(#SvgjsLinearGradient1002)" stroke-linecap="round" class="Up"></path><path d="M1182 344L1181 589" stroke-width="8" stroke="url(#SvgjsLinearGradient1001)" strokeLinecap="round" class="Down"></path><path d="M921 102L920 -93" strokeWidth="8" stroke="url(#SvgjsLinearGradient1002)" stroke-linecap="round" class="Up"></path><path d="M562 227L561 86" strokeWidth="6" stroke="url(#SvgjsLinearGradient1001)" strokeLinecap="round" 
class="Down"></path><path d="M1250 513L1249 754" strokeWWwidth="6" 
stroke="url(#SvgjsLinearGradient1001)" strokeLinecap="round" class="Down"></path><path d="M465 548L464 297" strokeWidth="6"
 stroke="url(#SvgjsLinearGradient1002)" 
 stroke-linecap="round" class="Up"></path><path d="M1396 156L1395 439" stroke-width="10" 
 stroke="url(#SvgjsLinearGradient1001)" stroke-linecap="round" class="Down"></path><path d="M429 399L428 153" stroke-width="6" 
 stroke="url(#SvgjsLinearGradient1002)" stroke-linecap="round" class="Up"></path><path d="M1236 236L1235 461" stroke-width="8" stroke="url(#SvgjsLinearGradient1001)" stroke-linecap="round" class="Down"></path><path d="M291 555L290 365" stroke-width="10" stroke="url(#SvgjsLinearGradient1002)" stroke-linecap="round" class="Up"></path><path d="M286 555L285 887" stroke-width="6" stroke="url(#SvgjsLinearGradient1001)" stroke-linecap="round" class="Down"></path><path d="M839 278L838 99" stroke-width="8" stroke="url(#SvgjsLinearGradient1001)" stroke-linecap="round" class="Down"></path><path d="M1195 118L1194 296" stroke-width="6" stroke="url(#SvgjsLinearGradient1001)" stroke-linecap="round" class="Down"></path><path d="M226 201L225 590" stroke-width="10" stroke="url(#SvgjsLinearGradient1001)" stroke-linecap="round" class="Down"></path><path d="M1425 144L1424 511" stroke-width="6" stroke="url(#SvgjsLinearGradient1002)" stroke-linecap="round" class="Up"></path><path d="M718 482L717 150" stroke-width="8" stroke="url(#SvgjsLinearGradient1002)" stroke-linecap="round" class="Up"></path><path d="M640 211L639 460" stroke-width="8" stroke="url(#SvgjsLinearGradient1001)" stroke-linecap="round" class="Down"></path><path d="M45 368L44 188" stroke-width="8" stroke="url(#SvgjsLinearGradient1001)" stroke-linecap="round" class="Down"></path><path d="M1075 129L1074 -39" stroke-width="10" stroke="url(#SvgjsLinearGradient1002)" stroke-linecap="round" class="Up"></path><path d="M60 295L59 -44" stroke-width="6" stroke="url(#SvgjsLinearGradient1001)" stroke-linecap="round" class="Down"></path><path d="M1001 272L1000 -7" stroke-width="10" stroke="url(#SvgjsLinearGradient1002)" stroke-linecap="round" class="Up"></path><path d="M771 558L770 922" stroke-width="6" stroke="url(#SvgjsLinearGradient1002)" stroke-linecap="round" class="Up"></path><path d="M1290 233L1289 594" stroke-width="6" stroke="url(#SvgjsLinearGradient1001)" stroke-linecap="round" class="Down"></path><path d="M1005 258L1004 529" stroke-width="8" stroke="url(#SvgjsLinearGradient1001)" stroke-linecap="round" class="Down"></path><path d="M347 175L346 -103" stroke-width="6" stroke="url(#SvgjsLinearGradient1002)" stroke-linecap="round" class="Up"></path><path d="M539 325L538 106" stroke-width="10" stroke="url(#SvgjsLinearGradient1002)" stroke-linecap="round" class="Up"></path><path d="M704 148L703 538" stroke-width="8" stroke="url(#SvgjsLinearGradient1001)" stroke-linecap="round" class="Down"></path><path d="M84 445L83 588" stroke-width="10" stroke="url(#SvgjsLinearGradient1002)" stroke-linecap="round" class="Up"></path><path d="M112 361L111 98" stroke-width="10" stroke="url(#SvgjsLinearGradient1001)" stroke-linecap="round" class="Down"></path><path d="M805 222L804 -113" stroke-width="6" stroke="url(#SvgjsLinearGradient1001)" stroke-linecap="round" class="Down"></path><path d="M1381 558L1380 260" stroke-width="6" stroke="url(#SvgjsLinearGradient1001)" stroke-linecap="round" class="Down"></path><path d="M910 348L909 64" stroke-width="8" stroke="url(#SvgjsLinearGradient1001)" stroke-linecap="round" class="Down"></path><path d="M264 532L263 702" stroke-width="8" stroke="url(#SvgjsLinearGradient1002)" stroke-linecap="round" class="Up"></path></g><defs><mask id="SvgjsMask1000"><rect width="1440" height="560" fill="#ffffff"></rect></mask><linearGradient x1="0%" y1="0%" x2="0%" y2="100%" id="SvgjsLinearGradient1001"><stop stop-color="rgba(28, 83, 142, 0)" offset="0"></stop><stop stop-color="#1c538e" offset="1"></stop></linearGradient><linearGradient x1="0%" y1="100%" x2="0%" y2="0%" id="SvgjsLinearGradient1002"><stop stop-color="rgba(28, 83, 142, 0)" offset="0"></stop><stop stop-color="#1c538e" offset="1"></stop></linearGradient></defs></svg>