<?xml version="1.0"?><!DOCTYPE svg  PUBLIC '-//W3C//DTD SVG 1.1//EN'  'http://www.w3.org/Graphics/SVG/1.1/DTD/svg11.dtd'><svg height="512px" style="enable-background:new 0 0 512 512;" version="1.1" viewBox="0 0 512 512" width="512px" xml:space="preserve" xmlns="http://www.w3.org/2000/svg" xmlns:xlink="http://www.w3.org/1999/xlink"><g id="_x34_9-pepsi"><g><g><path d="M456.158,125.852c4.832,15.727,7.34,32.356,7.34,49.579c0,55.478-27.203,104.25-68.541,134.908     c-72.057,53.174-177.043,53.263-321.933,99.017c43.664,52.544,109.373,85.895,182.919,85.895     c131.766,0,238.6-107.066,238.6-239.189C494.543,208.09,480.383,163.38,456.158,125.852L456.158,125.852z M456.158,125.852" style="fill:#3B4EC4;"/><path d="M255.943,16.75c-131.77,0-238.486,107.122-238.486,239.339c0,52.992,14.588,83.288,38.804,121.986     c162.815-44.382,294.885-153.149,342.811-313.533C359.229,34.543,309.658,16.75,255.943,16.75L255.943,16.75z M255.943,16.75" style="fill:#E53333;"/></g></g></g><g id="Layer_1"/></svg>