<svg xmlns="http://www.w3.org/2000/svg" xmlns:xlink="http://www.w3.org/1999/xlink" version="1.1" id="Layer_2" x="0px" y="0px" viewBox="0 0 1080 1080" style="enable-background:new 0 0 1080 1080;" xml:space="preserve">
<style xmlns="http://www.w3.org/2000/svg" type="text/css">
	.st0{fill:none;stroke:#C1C1C1;stroke-miterlimit:10;stroke-dasharray:11.9518,11.9518;}
	.st1{fill:#F7F7F7;}
	.st2{fill:#F2F2F2;}
	.st3{fill:#82CCF9;}
	.st4{fill:#CCE9FF;}
	.st5{fill:#F7A226;}
	.st6{fill:#b620e1;}
	.st7{fill:#FFCB80;}
	.st8{fill:#072D42;}
	.st9{fill:#073C59;}
	.st10{fill:#0B4870;}
	.st11{fill:#1A85D6;}
	.st12{fill:#2A94F4;}
	.st13{fill:#F7C39F;}
	.st14{fill:#FCD2B1;}
	.st15{fill:#AADBF9;}
	.st16{fill:#0E538C;}
	.st17{fill:#FFE3CA;}
	.st18{fill:#49B0FC;}
	.st19{fill:#B6E7FF;}
	.st20{fill:#85DDFF;}
	.st21{fill:#41AAF7;}
</style>
<g xmlns="http://www.w3.org/2000/svg">
	<circle class="st0" cx="881.9" cy="273.7" r="125.5"/>
</g>
<g xmlns="http://www.w3.org/2000/svg">
	<path class="st1" d="M826.8,252.8c27.7,9.8,55.3,21.7,74.7,40.4c19.4,18.7,29.1,45.6,17.5,68.1c-15.6,30.1-64.8,47.6-65.1,80.2   c-0.2,23.3,26.6,41.2,53.6,49.6c27,8.5,56.9,11.5,81.4,23.9c37,18.7,54.4,54.9,61.5,89.7c7.4,36.1,4.4,77.2-27.3,103.3   C983.8,740.6,918.6,737,862.9,730c-74.4-9.3-148.5-20.1-222.6-31c-162.4-23.8-324.8-47.7-487.2-71.5c-17.4-2.6-35.5-5.4-49.7-13.9   c-28.1-17-30.5-52.1-14.1-77.2c16.3-25.1,46.5-42.1,76.5-56.8c30-14.7,61.7-28.7,84.2-50.5c22.5-21.8,33.7-54,16.6-78.8   c-14.4-21-45.4-32.2-58.9-53.6c-17.8-28.2,2.7-64.1,34.9-82.1S680.2,201.1,826.8,252.8z"/>
</g>
<path xmlns="http://www.w3.org/2000/svg" class="st2" d="M1016.5,868.6h-953c-7.1,0-12.8-5.8-12.8-12.8v-76.3c0-7.1,5.8-12.8,12.8-12.8h953c7.1,0,12.8,5.8,12.8,12.8  v76.3C1029.3,862.8,1023.6,868.6,1016.5,868.6z"/>
<g xmlns="http://www.w3.org/2000/svg">
	<path class="st3" d="M961.7,720.8h-73.8c-15,0-26.6-13.3-24.5-28.2l21-150.2c-11.7-10.9-19.1-26.4-19.1-43.6   c0-32.9,26.6-59.5,59.5-59.5c6,0,11.8,0.9,17.3,2.6c24.4,7.4,42.2,30.1,42.2,56.9c0,17.2-7.4,32.8-19.1,43.6l21,150.2   C988.3,707.5,976.8,720.8,961.7,720.8z"/>
	<path class="st4" d="M961.7,720.8h-39.2c-15,0-26.6-13.3-24.5-28.2l21-150.2C907.3,531.5,900,516,900,498.8   c0-26.8,17.8-49.5,42.2-56.9c24.4,7.4,42.2,30.1,42.2,56.9c0,17.2-7.4,32.8-19.1,43.6l21,150.2   C988.3,707.5,976.8,720.8,961.7,720.8z"/>
	<path class="st5" d="M897.8,595.4V666c0,9.5-7.7,17.2-17.2,17.2h-10.8c-5,0-8.9-4.1-8.9-9.1c0,0,0-0.1,0-0.1   c0-10-5.5-18.7-13.5-23.3c0.4-1.2,0.6-2.4,0.7-3.8c0.3-7.5-5.7-14-13.1-14.4c-8-0.4-14.6,5.9-14.6,13.9c0,1.5,0.2,2.9,0.7,4.3   c-8.1,4.6-13.5,13.3-13.5,23.3c0,0,0,0.1,0,0.1c0,5-3.9,9.1-8.9,9.1h-10.8c-9.5,0-17.2-7.7-17.2-17.2v-70.6H897.8z"/>
	<path class="st6" d="M352.5,533.9h16.2c8.1,0,14.8,6.7,14.8,14.8v77c0,8.1-6.7,14.8-14.8,14.8h-16.2c-8.1,0-14.8-6.7-14.8-14.8v-77   C337.7,540.5,344.4,533.9,352.5,533.9z"/>
	<path class="st7" d="M229.6,424.2c-75.2,0-136.1,73-136.1,163c0,90,60.9,163,136.1,163c75.2,0,136.1-73,136.1-163   C365.7,497.2,304.8,424.2,229.6,424.2z M229.6,707.5c-55.5,0-100.5-53.9-100.5-120.3s45-120.3,100.5-120.3s100.5,53.9,100.5,120.3   S285.1,707.5,229.6,707.5z"/>
	<path class="st8" d="M712.2,808.8c0,0,15.6,8,25.6,13.2c2.1,1.1,1.3,4.3-1.1,4.3c-13.2,0-33.4,0-33.4,0v-17.5H712.2z"/>
	<polygon class="st9" points="736.1,622.7 716.9,811.8 700.7,811.8 700.7,703.2 707.7,620.4  "/>
	<path class="st8" d="M648,802.4c5,6.9,9.6,19.6,15.4,20.7c-2.7,4.2-9.2,3.5-13.4,2.3c-4.2-1.2-16.6-16.5-16.6-16.5l7.4-10.4   L648,802.4z"/>
	<path class="st10" d="M716.9,620.9l-13.5,87.4L652,805.7h-18.7c0,0,37.3-96.6,46.2-100c0.2-14-4.3-89.7-4.3-89.7L716.9,620.9z"/>
	<path class="st11" d="M728,499.4c6.8,4.1,20.2,69.1,50.7,79.5c-11.7,9.4-25.4,3.3-25.4,3.3s-32.1-52-31.6-62.1   C722.1,510,728,499.4,728,499.4z"/>
	<path class="st12" d="M698.9,494c-11.1,1.1-22.4,5-23.8,13.6c-1.4,8.6-4.3,120.1-4.3,120.1h65.4c0,0-1.2-124.2-5.8-127.3   S698.9,494,698.9,494z"/>
	<path class="st13" d="M434.4,699.1c-0.4,1.6-19,108.2-19,108.2h-11.1V699.1H434.4z"/>
	<path class="st14" d="M415.4,702c-7,10.3-81.1,47.7-92.8,51.7c-8.4-6.6-6.2-8.1-6.2-8.1l71.2-55.8L415.4,702z"/>
	<path class="st12" d="M399.3,583.5c-9.8,10.7-13.4,89.9-46.1,102.5c22,25.7,85.5,24.3,120.5,19.2c-8.4-36.9-36.3-113.8-48.1-122.3   C414.4,576.7,399.3,583.5,399.3,583.5z"/>
	<path class="st14" d="M494.8,542.2c4-2.3,18.4-11.7,28.5-7c-4.2,1.6-10.3,1.2-12.5,3.4c2.6,0.9,4.8,1.3,6.8,2.8   c-3.3,0.4-5.6,0.4-9.2,1c-3.6,1.6-12.8,4.6-12.8,4.6L494.8,542.2z"/>
	<path class="st15" d="M426.2,528.5c8.4,3.3,21.7,19.9,31.1,22.1c9.4,2.2,38.5-10.2,40.2-10.4c0.7,1.3,2,6.1,2,6.1   s-30.8,24.7-52.2,17.9c-21.4-6.8-19-11.1-19-11.1L426.2,528.5z"/>
	<path class="st4" d="M410.4,525.5c-9.9,1.5-22.1,6.1-23.6,8.4c-2.7,15.9,3.3,31.4,12.5,49.7c10.9,0.2,18.8,0.3,26.4-0.6   c2.5-6,7.5-20.4,10.4-28.6c0.5-1.5,0.5-3.1,0-4.6c-3-8.2-7.5-21.5-10.7-21.5C421.6,528.1,410.4,525.5,410.4,525.5z"/>
	<path class="st14" d="M421.3,519.1c0,0-2.2,9.8,0,12.5c-1,3.9-2.1,7.2-2.1,7.2l-10.5-9.9l2.4-13.9L421.3,519.1z"/>
	<g>
		<path class="st16" d="M430.6,503.5c3.4-1.1,5.7-4.6,6.2-8.1c0.5-3.6-0.7-7.2-2.4-10.4c-1.9-3.5-4.8-6.9-8.7-7.6    c-1.9-0.4-3.9-0.1-5.8,0.2c-5.8,0.9-11.6,1.8-17.5,2.7c-5.6,0.8-11.6,1.9-15.5,5.9c-5.2,5.3-5.1,14.2-9.8,20    c-3.8,4.8-10.1,6.7-16.1,7.9c-6,1.2-12.3,1.8-17.6,5c-5.3,3.1-9,8.5-11.3,14.3c-1.7,4.1-2.7,8.6-1.7,12.9    c1.7,7.5,9.3,12.6,17,13.7s15.4-0.8,22.9-2.7c3.9-1,8-2.1,10.8-5c2.3-2.4,3.4-5.6,4.7-8.6c7.9-18.8,24.9-33.6,44.6-38.8"/>
	</g>
	<path class="st17" d="M433.3,502.4c0,8.7-2.7,18.8-9.9,18.8c-7.2,0-16-5.3-16-18.8c0-8.7,5.8-15.8,13-15.8   C427.5,486.6,433.3,493.7,433.3,502.4z"/>
	<g>
		<path class="st16" d="M434.3,490.1c-0.7,3.4-3,6.5-6.2,8.1c-2.6,1.3-5.7,1.5-8.6,1.7c-4.9,0.3-9.8,0.6-14.6,0.9    c-0.2,0-0.5,0-0.7-0.2c-0.1-0.2,0-0.5,0.2-0.7c1.9-2.8,3.8-5.6,5.7-8.5c2-3,4.5-6.3,8.1-6.9c2.8-0.5,5.5,0.7,8,2.1    c2.4,1.4,4.8,3,7.6,3.5"/>
	</g>
	
		<ellipse transform="matrix(0.8975 -0.441 0.441 0.8975 -182.0213 231.2375)" class="st17" cx="406.5" cy="507.3" rx="3.5" ry="4.9"/>
	<circle class="st6" cx="408.9" cy="511.6" r="1.5"/>
	<path class="st10" d="M322.6,753.8c0,0-4.5,26.1-4.7,31c-6-7.2-6.9-31.5-9.8-32.9s8.2-6.1,8.2-6.1L322.6,753.8z"/>
	<path class="st10" d="M415.4,807.3c0,0,21,9.8,25.6,11.4c-8.6,3.8-33.2-2.5-35.4-0.1c-2.1,2.4-1.3-12.9-1.3-12.9L415.4,807.3z"/>
	<g>
		<path class="st10" d="M690,452c-5,6.4-2.9,22.2-1.7,24.5c1.2,2.3,1.6,7.1,4.7,9s7.9,2.9,8,1.8c0.1-1.1,0.9-32.2,0.9-32.2L690,452z    "/>
		<path class="st14" d="M709.5,487.7c0,0,2.1,8.5,2.7,10.4c-1.5,2.5-3.1,7.7-3.1,7.7l-12.1-8.6l1-15L709.5,487.7z"/>
		<path class="st17" d="M721.7,471.2c0,8.9-3.3,19.8-11.1,19.8c-14.1,0-17-10.9-17-19.8c0-8.9,6.3-16.1,14.1-16.1    S721.7,462.3,721.7,471.2z"/>
		<g>
			<path class="st10" d="M706.7,465.8c-2.9,0.8-5.7,1.7-8.7,1.7c-2.9,0-6-0.8-8.2-3s-3.5-5.9-2.5-9c1.2-4,5.4-5.9,9.2-5.9     c3.7,0,7.4,1.4,11.1,1.6s8-1.1,9.7-4.9c2.9,2.9,5.7,5.8,8.4,8.9c1.4,1.6,2.9,3.7,2.1,5.8c-0.5,1.3-1.8,1.9-3.1,2     c-1.2,0.1-2.5-0.2-3.7-0.2c-2.3,0-4.6,0.9-6.7,1.9s-3.8,0.8-6.2,0.8L706.7,465.8z"/>
		</g>
		<path class="st10" d="M696.8,465.2c0.5,4.4-0.5,7.3-1.4,8.5c-0.2,2.1,0,5,0,5h-2.2l-1.9-14.3L696.8,465.2z"/>
		
			<ellipse transform="matrix(0.9309 -0.3653 0.3653 0.9309 -125.3983 285.592)" class="st17" cx="692.1" cy="474.2" rx="2.2" ry="4"/>
		<polygon class="st10" points="692.7,469.5 694.1,478.2 695,477.7 694.4,470.4   "/>
	</g>
	<path class="st18" d="M721.7,541.7L721.7,541.7c-4.2,0-7.6-3.4-7.6-7.6V524h15.2v10.2C729.3,538.4,725.9,541.7,721.7,541.7z"/>
	<path class="st6" d="M902.9,609.1H365.7v-43.8h537.2c12.1,0,21.9,9.8,21.9,21.9v0C924.8,599.3,915,609.1,902.9,609.1z"/>
	<path class="st14" d="M753.3,605.3c0,0,7.6,9.6,19.5,8.1c12.1-1.3,12.9-5.3,14.7-6.3c-7.8,0.3-32.4-5.8-32.4-5.8L753.3,605.3z"/>
	<path class="st14" d="M405.2,612.8c3.6,1.7,17,3.8,20.4,3.1c3.5-0.7,10.1-6.1,11.4-5.9c-3.8-0.1-10,3.5-11.3,3s-3-1.1-3-1.1   s4.3-2.5,3.8-4c-1.8,0.8-6.5,3.5-6.5,3.5l-15.6-1.6L405.2,612.8z"/>
	<path class="st4" d="M400.1,528c-10.2,1.5-16.3,6-22.2,19.8c-5.9,13.9-29.1,62.6,40,69.1c0.4-1.9,0.2-6.4,0.2-6.4   s-62.1-7.1-25.1-55.3L400.1,528z"/>
	<path class="st7" d="M520.4,535.9L520.4,535.9c11.5,0,20.9,9.4,20.9,20.9v60.7c0,11.5-9.4,20.9-20.9,20.9l0,0   c-11.5,0-20.9-9.4-20.9-20.9v-60.7C499.5,545.3,508.8,535.9,520.4,535.9z"/>
	<path class="st18" d="M682,498.8c-7.2,9.4-8,24.8-4,29.1c4,4.3,56.2,65,75.5,81.3c2.1-3,4.9-8.2,4.9-8.2L682,498.8z"/>
</g>
<g xmlns="http://www.w3.org/2000/svg">
	<path class="st19" d="M129.2,821.1c17.5,0,24.8-13.9,27.7-28.7c3.3-16.7,0.9-34.4,0.9-34.4h-57.2c0,0-0.1,0.7-0.2,1.9   C99.3,770.3,95.9,821.1,129.2,821.1z"/>
	<path class="st20" d="M100.6,757.9c0,1.2,12.8,2.3,28.6,2.3c15.8,0,28.6-1,28.6-2.3s-12.8-2.3-28.6-2.3   C113.4,755.7,100.6,756.7,100.6,757.9z"/>
	<path class="st12" d="M51.8,599.4c0,0,30.1,45.9,48.2,73.9s22.8,33.8,25,42.9c2.2,9,4.1,42.4,4.1,42.4h1.3c0,0-0.5-28.3-2.1-37.9   c-1.6-9.2,0.1-12.5,1.4-22.2c1.3-9.7,3-25.2-6.8-36c-9.8-10.8-7.2-21.3-10.7-28.4c-3.4-7.1-30.2-15.7-33.6-23   C75.3,603.7,60.2,599.2,51.8,599.4z"/>
	<path class="st21" d="M51.8,599.4c0,0,9.5,10.8,15.9,14.4c6.5,3.7,9.5,0.4,14.4,9.3c5,8.8,5.1,12.7,9.7,17.2   c4.5,4.5,9.9,4.7,10.3,14.6c0.4,9.9-2.2,18.3-2.2,18.3S53.7,601.8,51.8,599.4z"/>
	<path class="st12" d="M126.7,758.6h-1.4c0,0-0.4-9.2-4-13.6c-2.3-2.9-12.3-6.1-22.2-10c-5.4-2.2-10.8-4.5-14.9-7.1   c-11.5-7.3-22.4-30.8-23.3-34.9c-0.3-1.5-0.5-2.3-0.5-2.9v0c0-1.1,0.6-1.3,1.5-2.4c0.5-0.5,1.9-0.4,3.6,0.2   c4.9,1.5,9.1,4.9,11.7,9.4c2.4,4.1,6.2,9.3,10.9,10.6c8.1,2.2,7.4,3.5,10.4,11.7c3,8.2,10.5,9.6,19.9,19.3   C127.9,748.3,126.7,758.6,126.7,758.6z"/>
	<path class="st21" d="M99.1,734.9c-5.4-2.2-10.8-4.5-14.9-7.1c-11.5-7.3-22.4-30.8-23.3-34.9c-0.3-1.5-0.5-2.3-0.5-2.9   c0,0.3,0.6,4,6.5,6.5c6.2,2.6,7.4,2.6,8.2,6.5c0.8,3.9,1.5,8.1,4.7,8.9c3.2,0.8,5.3-2.8,7.8,3.1c2.6,5.9,3.8,8,6.1,8.8   c2.4,0.8,4.1-0.4,4.7,4.2C98.9,730.6,99,733.3,99.1,734.9z"/>
	<path class="st12" d="M136.6,758.6h1.6c0,0,3.1-56.8,7.4-62.1c2.8-3.4,12-9.5,23.6-14.1c6.4-2.6,12.8-5.3,17.6-8.4   c13.6-8.6,26.5-36.4,27.6-41.4c0.4-1.7,0.6-2.8,0.6-3.5v0c0-1.3-0.7-1.5-1.8-2.9c-0.5-0.7-2.2-0.4-4.2,0.2   c-5.9,1.8-10.8,5.8-13.9,11.1c-2.8,4.9-7.4,11-12.9,12.5c-9.6,2.6-8.8,4.2-12.3,13.9c-3.5,9.8-12.4,11.3-23.6,22.8   C135.2,698.3,136.6,758.6,136.6,758.6z"/>
	<path class="st21" d="M169.3,682.4c6.4-2.6,12.8-5.3,17.6-8.4c13.6-8.6,26.5-36.4,27.6-41.4c0.4-1.7,0.6-2.8,0.6-3.5   c0,0.3-0.7,4.7-7.7,7.7c-7.3,3-8.8,3-9.7,7.7c-1,4.6-1.8,9.6-5.6,10.5c-3.8,1-6.2-3.4-9.3,3.7c-3,7-4.5,9.4-7.3,10.4   c-2.8,1-4.9-0.5-5.5,5C169.6,677.3,169.4,680.5,169.3,682.4z"/>
	<g>
		<path class="st4" d="M129.2,821.1c17.5,0,24.8-13.9,27.7-28.7c-17.1-6.5-38.6-16.9-56.5-32.5C99.3,770.3,95.9,821.1,129.2,821.1z"/>
	</g>
</g>
</svg>