<svg xmlns="http://www.w3.org/2000/svg" xmlns:xlink="http://www.w3.org/1999/xlink" version="1.1" id="Layer_1" x="0px" y="0px" viewBox="0 0 2000 2000" enable-background="new 0 0 2000 2000" xml:space="preserve">
<g id="Floor">
	<path fill="#F2F2F2" d="M467.623,1505.553c-18.464-17.801-108.527-104.631-96.357-187.732   c12.757-87.104,125.528-86.078,147.509-159.747c38.682-129.641-280.744-232.709-286.691-409.279   c-7.326-217.524,463.281-482.172,675.686-369.633c83.622,44.305,81.185,122.679,191.523,169.075   c121.496,51.089,187.143-17.575,323.568,6.996c160.632,28.932,338.941,172.632,344.98,314.83   c7.372,173.553-245.544,258.482-214.126,420.939c17.845,92.273,105.965,98.628,102.305,157.415   c-11.689,187.718-916.163,218.746-1109.946,114.514C503.237,1539.89,467.623,1505.554,467.623,1505.553z"/>
	<ellipse fill="#FFBE55" cx="1004.443" cy="1562.569" rx="500.306" ry="59.328"/>
	<g>
		<g opacity="0.5">
			<path fill="#2A94F4" d="M657.55,1525.757c-17.97-1.113-33.201-16.493-33.319-29.461c-0.098-10.712,10.172-13.494,10.522-27.006     c0.302-11.671-7.239-14.261-5.962-24.2c1.341-10.436,11.562-22.423,23.849-22.446c14.122-0.027,23.733,15.76,24.551,28.409     c0.556,8.598-4.702,9.787-4.559,17.887c0.292,16.573,20.979,21.292,20.693,33.67     C693.061,1513.971,675.238,1526.853,657.55,1525.757z"/>
		</g>
		<g>
			<rect x="656.341" y="1440.18" fill="#F7F7F7" width="1.044" height="94.345"/>
		</g>
		<g>
			<path fill="#F7F7F7" d="M656.724,1472.931c-8.73-0.587-9.941-13.397-9.988-13.942l1.04-0.091     c0.011,0.124,1.18,12.463,9.018,12.99L656.724,1472.931z"/>
		</g>
		<g>
			<path fill="#F7F7F7" d="M656.724,1505.899c-6.247-0.42-7.108-9.521-7.142-9.909l1.04-0.09c0.008,0.086,0.816,8.597,6.172,8.957     L656.724,1505.899z"/>
		</g>
		<g>
			<path fill="#F7F7F7" d="M656.4,1492.221l-0.051-1.043c7.319-0.354,8.389-8.54,8.398-8.622l1.037,0.124     C665.773,1482.772,664.59,1491.825,656.4,1492.221z"/>
		</g>
		<g>
			<path fill="#F7F7F7" d="M656.751,1516.421l-0.051-1.043c5.162-0.25,5.914-5.876,5.943-6.116l1.037,0.125     C663.672,1509.455,662.799,1516.128,656.751,1516.421z"/>
		</g>
	</g>
	<ellipse fill="#F7F7F7" cx="1348.1" cy="1567.606" rx="30.784" ry="5.037"/>
	<ellipse fill="#F7F7F7" cx="712.839" cy="1535.073" rx="23.507" ry="3.847"/>
	<ellipse fill="#F7F7F7" cx="689.145" cy="1562.498" rx="13.246" ry="2.168"/>
	<circle opacity="0.5" fill="#FFBE55" cx="642.876" cy="1043.726" r="8.396"/>
	<circle opacity="0.5" fill="#FFBE55" cx="513.025" cy="1324.696" r="8.396"/>
	<circle opacity="0.5" fill="#FFBE55" cx="713.398" cy="1337.01" r="8.396"/>
	<circle opacity="0.5" fill="#FFBE55" cx="650.712" cy="1172.457" r="8.396"/>
	<circle opacity="0.5" fill="#FFBE55" cx="573.473" cy="609.398" r="8.396"/>
	<circle opacity="0.5" fill="#FFBE55" cx="1348.1" cy="654.174" r="8.396"/>
	<circle opacity="0.5" fill="#FFBE55" cx="410.04" cy="867.98" r="8.396"/>
	<circle opacity="0.5" fill="#FFBE55" cx="771.607" cy="431.413" r="8.396"/>
	<circle opacity="0.5" fill="#FFBE55" cx="1409.667" cy="1164.622" r="8.396"/>
	<circle opacity="0.5" fill="#FFBE55" cx="1603.323" cy="1026.935" r="8.396"/>
	<circle opacity="0.5" fill="#FFBE55" cx="1316.756" cy="1213.875" r="8.396"/>
	<circle opacity="0.5" fill="#FFBE55" cx="1430.935" cy="1369.472" r="8.396"/>
	<circle opacity="0.5" fill="#FFBE55" cx="1268.622" cy="1035.89" r="8.396"/>
	<circle opacity="0.5" fill="#FFBE55" cx="1504.816" cy="920.592" r="8.396"/>
	<circle opacity="0.5" fill="#FFBE55" cx="426.831" cy="677.681" r="8.396"/>
</g>
<g id="Spaceship">
	<ellipse fill="#FFBE55" cx="1004.995" cy="915.734" rx="128.216" ry="84.795"/>
	<g>
		<path fill="#0E538C" d="M1430.376,811.94c-83.451,72.17-248.388,135.108-416.936,135.108    c-179.94,0-336.356-54.684-415.923-135.108H1430.376z"/>
	</g>
	<g>
		<path fill="#0E538C" d="M1195.346,729.286c-38.899,59.373-107.843,98.843-186.414,98.843    c-84.179,0-157.321-45.313-194.284-111.862c9.369-14.295,20.474-27.448,33.045-39.145c9.269-8.653,19.343-16.522,30.09-23.507    c35.16-22.847,77.597-36.19,123.28-36.19s88.119,13.343,123.28,36.19c10.746,6.974,20.81,14.843,30.09,23.507    C1170.73,692.301,1184.577,709.898,1195.346,729.286z"/>
	</g>
	<path fill="#0B4870" d="M1430.376,811.94H597.517c-0.296-0.296-0.584-0.584-0.873-0.88   c83.45-72.177,231.359-120.155,399.907-120.155C1177.146,690.905,1351.077,731.03,1430.376,811.94z"/>
	<g>
		<path fill="#FFBE55" d="M927.24,925.218c-0.254,0-0.512-0.034-0.767-0.107c-86.05-24.486-176.274-90.903-177.175-91.572    c-1.241-0.92-1.502-2.673-0.582-3.915c0.921-1.242,2.674-1.501,3.915-0.582c0.893,0.662,90.32,66.482,175.373,90.684    c1.487,0.423,2.349,1.971,1.926,3.458C929.58,924.416,928.459,925.218,927.24,925.218z"/>
	</g>
	<g>
		<path fill="#FFBE55" d="M1072.548,925.218c-1.219,0-2.34-0.802-2.69-2.033c-0.423-1.486,0.438-3.035,1.925-3.457    c85.079-24.21,174.481-90.023,175.375-90.685c1.241-0.92,2.992-0.66,3.915,0.582c0.92,1.242,0.659,2.995-0.583,3.915    c-0.901,0.668-91.125,67.086-177.174,91.572C1073.06,925.184,1072.802,925.218,1072.548,925.218z"/>
	</g>
	<g>
		<path fill="#FFBE55" d="M1000.069,923.458c-1.546,0-2.799-1.253-2.799-2.798v-87.961c0-1.546,1.253-2.799,2.799-2.799    s2.799,1.253,2.799,2.799v87.961C1002.868,922.205,1001.615,923.458,1000.069,923.458z"/>
	</g>
	<rect x="951.271" y="653.614" fill="#FFBE55" width="104.104" height="23.507"/>
	<path fill="#FFBE55" d="M890.824,653.614v23.507h-43.131c9.269-8.653,19.343-16.522,30.09-23.507H890.824z"/>
	<path fill="#FFBE55" d="M1154.432,677.122h-38.608v-23.507h8.519C1135.088,660.588,1145.152,668.458,1154.432,677.122z"/>
</g>
<g id="Sheep">
	<polygon opacity="0.5" fill="#FFBE55" points="1236.719,1545.778 771.048,1545.778 907.615,946.898 1101.271,946.898  "/>
	<path fill="#0B4870" d="M939.626,1291.637c0,0-25.125,63.533-17.747,66.174c7.377,2.641,29.34-62.023,29.34-62.023   L939.626,1291.637z"/>
	<path fill="#0B4870" d="M1035.227,1302.868c0,0-2.239,68.284,5.597,68.284s6.716-68.284,6.716-68.284H1035.227z"/>
	<path fill="#F7F7F7" d="M922.167,1239.062c0,0,3.358-26.866,43.657-14.552c0,0,31.343-21.269,57.09-3.358   c0,0,21.269-11.646,53.731,11.527c0,0,30.224-0.333,32.463,32.129c0,0,7.836,16.791-10.075,32.463c0,0-15.672,27.985-40.298,20.149   c0,0-23.507,16.791-52.612,1.119c0,0-51.492,13.433-58.209-5.597c0,0-22.388-4.478-24.627-25.746   C923.286,1287.196,890.824,1255.853,922.167,1239.062z"/>
	<path fill="#0B4870" d="M963.285,1304.456c0,0,9.776,67.617,17.49,66.242s-5.368-68.403-5.368-68.403L963.285,1304.456z"/>
	<path fill="#0B4870" d="M1060.724,1306.441c0,0,19.12,65.59,26.566,63.152c7.447-2.438-14.864-66.984-14.864-66.984   L1060.724,1306.441z"/>
	<path fill="#0B4870" d="M937.839,1277.121c-7.836,5.597-79.478-6.716-67.164-35.821c2.351-5.552,6.448-8.743,11.541-10.265   c-2.306-3.683-4.388-8.082-2.586-9.884c2.306-2.306,7.254,4.366,10.119,8.765c3.907-0.101,8.093,0.392,12.358,1.276   c3.537-3.201,9.112-7.388,13.343-6.683c3.84,0.638,0,5.295-3.985,9.168c16.735,5.317,31.97,14.34,31.97,14.34   S945.674,1271.525,937.839,1277.121z"/>
</g>
</svg>