<svg version="1.1" id="Layer_1" xmlns="http://www.w3.org/2000/svg" xmlns:xlink="http://www.w3.org/1999/xlink" x="0px" y="0px"
	 width="100%" viewBox="0 0 832 832" enable-background="new 0 0 832 832" xml:space="preserve">
<path fill="#000000" opacity="1.000000" stroke="none" 
	d="
M304.494568,493.867004 
	C311.906494,492.979797 317.441711,495.434845 322.331665,500.515717 
	C332.729523,511.319672 343.572235,521.695618 353.965027,532.504272 
	C358.449524,537.168152 362.245087,542.491150 366.397644,547.478088 
	C375.523254,558.437073 388.271301,565.409729 397.735077,576.054626 
	C403.416809,582.445496 403.776520,584.044189 397.853973,590.078979 
	C387.234802,600.899536 376.598450,611.703369 365.922638,622.468018 
	C359.477142,628.967163 357.357269,628.922974 350.736145,622.326050 
	C341.882904,613.505249 332.849426,604.852234 324.292023,595.752258 
	C318.889435,590.007141 312.582001,586.101379 305.406860,583.088989 
	C291.588318,577.287598 277.764801,571.461792 264.206207,565.086975 
	C248.527969,557.715576 235.627289,546.715149 225.791916,532.442505 
	C221.059250,525.574707 218.653748,517.437683 215.332092,509.820801 
	C202.750977,480.971191 190.549698,451.953674 177.728745,423.212006 
	C172.037354,410.453217 178.918518,402.626923 190.005051,396.181366 
	C196.732773,392.269928 204.028000,395.435394 208.318344,402.545105 
	C220.971527,423.513367 233.678375,444.446899 247.014908,464.990326 
	C252.638657,473.653107 258.391205,482.227905 264.804443,490.340393 
	C270.333374,497.334290 277.835876,500.992371 286.200928,503.339630 
	C289.331696,504.218170 291.342316,502.673035 293.211853,500.689148 
	C296.247559,497.467743 299.675293,494.939972 304.494568,493.867004 
M372.526123,569.013855 
	C367.483093,564.427551 362.109680,560.199707 357.879669,554.754578 
	C354.310089,550.159424 350.816437,545.447754 346.773285,541.289185 
	C336.092560,530.303772 325.164124,519.557922 314.269226,508.782532 
	C308.499512,503.076050 305.567017,503.493347 300.783417,510.681702 
	C305.722443,517.043335 311.574829,522.699402 317.124146,528.628235 
	C323.950348,535.921326 330.762939,543.228455 337.479065,550.622437 
	C339.662048,553.025696 339.893280,555.781616 337.389374,558.183167 
	C334.975494,560.498413 332.310364,560.417725 329.746460,558.339111 
	C328.716583,557.504089 327.782654,556.542175 326.859344,555.585632 
	C316.218842,544.562317 305.425720,533.679504 295.033478,522.426575 
	C290.676056,517.708252 285.870178,514.640015 279.578430,513.177673 
	C270.594788,511.089691 263.014587,506.334747 257.137085,499.090759 
	C243.876694,482.747620 233.170013,464.674316 221.971771,446.944153 
	C214.236984,434.697693 206.853729,422.229462 199.278915,409.881470 
	C198.262054,408.223846 197.402359,406.100250 194.844208,406.556122 
	C190.245499,407.375610 186.684631,414.560974 188.608978,419.032135 
	C201.839157,449.772156 215.552536,480.315826 228.140671,511.316467 
	C236.478607,531.850220 250.923553,545.848755 270.279694,555.205078 
	C282.857269,561.284790 295.852814,566.518494 308.765137,571.880676 
	C317.636261,575.564575 325.682404,580.188599 332.327332,587.356445 
	C339.341400,594.922485 346.920349,601.964417 354.242920,609.244995 
	C356.465607,611.454956 358.558746,612.761963 361.408386,609.878235 
	C369.485138,601.704895 377.677490,593.644714 385.896454,585.613770 
	C387.771271,583.781860 387.555023,582.404785 385.886353,580.571228 
	C382.047546,576.352905 377.637421,572.828857 372.526123,569.013855 
z"/>
<path fill="#000000" opacity="1.000000" stroke="none" 
	d="
M602.206116,545.202026 
	C590.763794,556.558533 577.338623,564.074402 562.897339,570.049683 
	C551.511536,574.760742 540.236145,579.739075 528.916016,584.608582 
	C524.431885,586.537537 520.465576,589.174866 517.010864,592.689636 
	C506.967529,602.907471 496.839752,613.042908 486.693146,623.158508 
	C481.948578,627.888550 479.300354,627.897339 474.474823,623.111084 
	C463.000122,611.729919 451.571198,600.302124 440.183716,588.833679 
	C435.504639,584.121277 435.764771,582.087280 440.140625,577.019531 
	C447.493317,568.504395 456.841156,562.255188 464.933807,554.600220 
	C468.794342,550.948486 472.689758,547.225647 475.920074,543.034546 
	C488.806030,526.316223 504.944519,512.763367 519.620117,497.798798 
	C526.038330,491.254303 537.250549,491.975616 543.888550,499.192352 
	C547.797302,503.441833 551.442444,503.962036 556.627441,502.334106 
	C565.177979,499.649475 571.492371,494.351135 576.569153,487.267303 
	C595.705933,460.564789 612.510681,432.367950 629.572571,404.340240 
	C636.465881,393.016663 646.272644,391.745270 655.760559,401.231598 
	C664.350037,409.819641 665.042603,413.074951 660.219055,424.287994 
	C645.478516,458.554993 630.707581,492.808990 615.884888,527.040527 
	C612.850647,534.047852 607.384827,539.315857 602.206116,545.202026 
M612.597534,507.146301 
	C613.173218,505.763855 613.734314,504.375122 614.326660,502.999847 
	C626.377441,475.022736 638.433289,447.047852 650.481873,419.069763 
	C651.265198,417.250854 652.564026,415.286926 651.099304,413.430939 
	C648.958069,410.717682 646.920898,407.100616 643.427063,406.704803 
	C640.044556,406.321594 639.187805,410.383179 637.474854,412.732910 
	C637.279907,413.000336 637.150330,413.314423 636.976929,413.598633 
	C621.018494,439.758728 604.977173,465.856567 587.629944,491.144196 
	C579.214600,503.411591 568.678162,511.981140 553.826599,514.701050 
	C551.296204,515.164490 549.217590,516.368042 547.438843,518.299988 
	C540.559448,525.772034 533.635193,533.203857 526.648071,540.575195 
	C520.919983,546.618225 515.127197,552.602051 509.264130,558.514038 
	C506.923309,560.874390 504.136444,560.944519 501.635101,558.775330 
	C499.055542,556.538269 499.137573,553.755310 501.089417,551.183105 
	C502.896271,548.802124 504.950684,546.599182 506.994293,544.409546 
	C516.538330,534.183289 526.051514,523.926819 535.723206,513.822266 
	C538.455933,510.967285 537.811890,508.927673 535.047363,506.878723 
	C532.118530,504.708069 529.187317,504.625000 526.445129,507.163116 
	C524.368530,509.085236 522.364929,511.092590 520.414612,513.143616 
	C508.037231,526.160400 494.264374,537.827087 483.335663,552.256897 
	C476.970795,560.660828 468.827850,567.354614 460.482910,573.766785 
	C457.989136,575.682983 455.873871,578.083740 453.485626,580.147278 
	C450.798218,582.469177 451.193268,584.278748 453.689758,586.646240 
	C461.905090,594.437256 469.908813,602.451294 478.012512,610.360474 
	C478.937653,611.263367 479.738434,612.461487 482.134949,612.223755 
	C490.826691,603.463318 500.071167,594.351562 509.062531,584.996521 
	C513.560608,580.316467 518.828674,577.050415 524.717773,574.552856 
	C536.214478,569.677246 547.616089,564.572021 559.173279,559.846069 
	C583.971558,549.705566 603.415527,534.196350 612.597534,507.146301 
z"/>
<path fill="#000000" opacity="1.000000" stroke="none" 
	d="
M445.680450,517.305664 
	C440.398163,516.835938 438.991241,519.940857 438.498779,523.991333 
	C437.236267,534.376038 433.807037,537.356934 423.177917,537.337830 
	C411.115295,537.316162 408.456879,535.087891 406.306244,523.195923 
	C405.273102,517.483093 402.582977,516.074219 397.058929,518.352722 
	C387.431091,522.323975 381.887085,520.510193 376.540039,511.639679 
	C371.485809,503.254822 372.740509,496.414368 380.485718,490.128784 
	C385.912354,485.724823 385.923035,483.882233 380.548737,479.233307 
	C372.125214,471.946747 371.258545,464.599457 377.776794,455.734039 
	C382.412537,449.428955 388.510284,447.725922 395.789581,450.703339 
	C403.231903,453.747437 405.156586,452.655029 406.447449,444.654144 
	C407.970093,435.216553 412.687164,431.570099 423.270599,431.649353 
	C432.934326,431.721680 437.178406,435.461029 438.507690,445.074219 
	C439.483856,452.134094 442.246674,453.747681 448.697906,451.025818 
	C457.058136,447.498535 464.285431,449.690399 468.478394,457.024780 
	C473.359650,465.563019 472.190460,473.220764 465.164398,478.730652 
	C459.693115,483.021301 459.508606,486.354767 464.526611,490.253052 
	C472.157043,496.180695 473.557556,503.524414 468.614014,511.685120 
	C463.447083,520.214478 457.230469,522.149841 447.922424,518.132202 
	C447.311462,517.868469 446.685364,517.639771 445.680450,517.305664 
M419.278778,506.286102 
	C430.154663,507.464600 439.285645,501.996796 443.013977,492.073029 
	C446.506897,482.775848 443.410431,472.956268 435.087921,466.937134 
	C427.357239,461.346069 416.216461,461.836975 408.617310,468.124023 
	C401.533051,473.985138 399.689880,481.751892 401.645599,490.234589 
	C403.664551,498.991760 409.768280,504.108704 419.278778,506.286102 
z"/>
<path fill="#000000" opacity="1.000000" stroke="none" 
	d="
M468.684082,314.341980 
	C463.844574,331.370178 453.880554,343.437836 437.437775,349.359589 
	C408.929016,359.626862 376.483887,344.800964 369.695679,312.216003 
	C366.983887,299.198853 369.265472,286.936096 376.169189,275.743073 
	C388.500885,255.749725 401.131287,235.939697 413.740753,216.119141 
	C417.367310,210.418549 421.357208,210.269348 424.903229,215.853699 
	C437.764862,236.108154 450.591766,256.388245 463.117889,276.850800 
	C470.122070,288.292786 471.516602,300.869995 468.684082,314.341980 
M395.390198,333.131042 
	C407.401123,341.831085 420.682770,343.840912 434.122803,338.089722 
	C458.030609,327.859283 465.524292,302.712708 451.888336,280.318237 
	C442.191284,264.392609 432.176086,248.660614 422.275482,232.859344 
	C421.514587,231.644989 421.041199,230.061935 418.694183,229.711731 
	C417.560486,231.400543 416.232483,233.262115 415.023651,235.198105 
	C405.500427,250.449493 395.911560,265.660950 386.515656,280.990540 
	C375.607544,298.787262 378.926178,318.994202 395.390198,333.131042 
z"/>
<path fill="#000000" opacity="1.000000" stroke="none" 
	d="
M526.457520,455.460938 
	C513.694153,467.358978 498.905365,469.525696 483.519104,463.936066 
	C466.157562,457.628937 458.161438,443.981354 457.566071,425.668762 
	C457.291016,417.209503 459.441620,409.551208 463.733398,402.385620 
	C473.056396,386.819824 482.343353,371.232208 491.738159,355.709839 
	C495.851501,348.913696 500.303131,348.918854 504.440704,355.697510 
	C513.982117,371.329376 523.620789,386.906677 532.862915,402.714935 
	C543.164612,420.335602 540.608582,440.595367 526.457520,455.460938 
M489.325165,454.190338 
	C495.219574,456.237427 501.104828,455.903717 506.944183,454.010254 
	C525.729126,447.919098 533.413147,426.579834 523.070374,408.632874 
	C516.172180,396.663116 508.880432,384.919708 501.726471,373.098236 
	C500.812164,371.587372 500.076965,369.752563 497.831177,369.594269 
	C497.432648,369.896149 496.915558,370.111237 496.671112,370.498413 
	C487.608002,384.852631 478.074127,398.987335 470.667145,414.254456 
	C463.305756,429.427582 472.346802,448.366089 489.325165,454.190338 
z"/>
<path fill="#000000" opacity="1.000000" stroke="none" 
	d="
M370.127380,393.941833 
	C374.055115,400.544891 377.973511,406.705109 380.041138,413.872589 
	C385.498169,432.789459 375.836548,454.490723 358.464020,462.786835 
	C344.157074,469.619019 323.284027,466.988800 312.137177,455.264893 
	C299.942017,442.438446 295.627838,423.198303 303.482208,407.715576 
	C312.975220,389.002716 324.800323,371.596100 335.692413,353.672394 
	C338.564789,348.945648 343.499634,349.781647 346.730957,355.122284 
	C354.489227,367.944855 362.206573,380.792175 370.127380,393.941833 
M311.738617,417.396912 
	C311.505554,418.537201 311.254608,419.674164 311.042114,420.818268 
	C307.135468,441.854980 328.106232,460.677338 348.462311,454.407898 
	C367.908173,448.418823 375.828491,426.721924 365.088013,408.160889 
	C357.923981,395.780518 350.325867,383.651306 342.910706,371.416565 
	C342.319305,370.440765 341.865204,369.299072 339.799622,368.793457 
	C337.617371,372.335480 335.176514,376.027191 333.005371,379.871216 
	C326.062805,392.163025 317.493469,403.524750 311.738617,417.396912 
z"/>
<path fill="#000000" opacity="1.000000" stroke="none" 
	d="
M409.347229,491.235809 
	C405.176697,478.072479 413.408508,467.931641 425.669403,470.544128 
	C432.700897,472.042389 436.875977,476.659393 437.334198,483.443604 
	C437.809967,490.487915 434.010437,496.586334 427.799927,498.746643 
	C421.559296,500.917389 414.348816,498.665436 410.505432,493.322632 
	C410.121033,492.788269 409.856445,492.167664 409.347229,491.235809 
z"/>
<path fill="#000000" opacity="1.000000" stroke="none" 
	d="
M423.616180,327.784058 
	C419.720428,329.781555 416.127594,331.454559 411.970123,331.388885 
	C409.365387,331.347656 407.338776,330.456116 406.640350,327.835785 
	C405.870300,324.946899 406.695679,322.060547 409.511810,321.138916 
	C424.359924,316.279694 432.522552,306.191162 434.467438,290.765564 
	C434.859100,287.659027 437.240784,286.302460 440.329590,286.739227 
	C443.917450,287.246521 445.522217,289.619598 445.240540,293.063324 
	C444.005249,308.165131 437.107758,319.826935 423.616180,327.784058 
z"/>
<path fill="#000000" opacity="1.000000" stroke="none" 
	d="
M488.842957,442.651978 
	C488.125275,437.886475 490.008057,436.019470 494.378082,435.342560 
	C503.719177,433.895721 507.297791,429.927917 508.660156,420.268372 
	C509.135742,416.896606 510.928864,415.019440 514.199463,415.152588 
	C517.409058,415.283264 519.159912,417.141541 519.414978,420.602753 
	C520.438904,434.498535 508.842987,446.832855 495.112305,446.360413 
	C492.451721,446.268860 490.181396,445.712219 488.842957,442.651978 
z"/>
<path fill="#000000" opacity="1.000000" stroke="none" 
	d="
M338.666199,431.854736 
	C343.950012,429.292358 346.351288,425.181671 347.047211,419.861511 
	C347.540039,416.093658 348.831604,412.731506 353.509369,413.397003 
	C358.033325,414.040558 358.529816,417.577789 358.353668,421.362305 
	C357.733887,434.678528 346.332916,445.025360 333.045441,444.414032 
	C329.555298,444.253479 327.115509,442.907349 326.927948,439.263428 
	C326.756256,435.928925 328.797668,434.175690 332.043335,433.590912 
	C334.161102,433.209351 336.226288,432.535919 338.666199,431.854736 
z"/>
</svg>