<svg id="Layer_1" data-name="Layer 1" xmlns="http://www.w3.org/2000/svg" viewBox="0 0 384.62 529.71"><defs><style>.cls-1{fill:#fff;}.cls-2{fill:#0b2775;}.cls-3{fill:#fc0017;}</style></defs><title>pepsi_Logo</title><path class="cls-1" d="M670.29,431.79c-75.08,75.11-196.88,75.09-272,0s-75.11-196.87,0-272,196.88-75.09,271.94,0,75.12,196.86,0,272" transform="translate(-341.99 -103.5)"/><path class="cls-2" d="M686,197.5a126.56,126.56,0,0,1,5.66,37.36c0,42-20.65,78.9-52,102-54.56,40.2-134.11,40.24-244,74.85A180.74,180.74,0,0,0,686,197.5" transform="translate(-341.99 -103.5)"/><path class="cls-3" d="M642.71,151.15a180.78,180.78,0,0,0-253.89,252,375.24,375.24,0,0,0,253.89-252" transform="translate(-341.99 -103.5)"/><path class="cls-1" d="M524.28,577.25v-.13c0-.61-.16-1.63-.29-2.72a34.29,34.29,0,0,0-1.29-5.8c-4.51-14.24-16.57-23.41-30.73-23.41a37.14,37.14,0,0,0-4.32.28c-18.17,2.35-30.51,18.83-28.1,37.49a32.08,32.08,0,0,0,32.35,28.5,30.36,30.36,0,0,0,4.31-.28c8.84-1.09,16.58-4.8,22.4-12a2,2,0,0,0,.42-1.44,1.66,1.66,0,0,0-.73-1.11c-1-.69-4.46-2.38-6.35-3.3-.56-.27-1-.49-1.27-.6a2.71,2.71,0,0,0-1.34-.42,1.67,1.67,0,0,0-1.31.73,21.16,21.16,0,0,1-13.33,7.29,27.28,27.28,0,0,1-2.8.15c-8.83,0-17.74-5.89-20.31-14l-.07-.2.2-.09a25.29,25.29,0,0,1,10.69-2.16c.77,0,1.53,0,2.28.08,1.76.14,3.54.38,5.4.61a80.23,80.23,0,0,0,11.13.92,54.86,54.86,0,0,0,7.65-.53c10.08-1.94,14.08-4.8,14.13-4.81,1.43-.92,1.36-1.68,1.29-3.07m-11.42-4.11a42.47,42.47,0,0,1-6.77,1.33,38.67,38.67,0,0,1-4.61.28c-2.94,0-6.14-.26-9.22-.48h-.12c-2.86-.23-5.58-.44-8.17-.44a36.93,36.93,0,0,0-5.2.34,39.91,39.91,0,0,0-8.69,2.1l0-.36c.94-9.78,9.12-18.09,19.05-19.42a25.53,25.53,0,0,1,2.79-.15c9.33,0,18.38,7.07,21.08,16.49l.07.22Z" transform="translate(-341.99 -103.5)"/><path class="cls-1" d="M676.79,526.2a7.54,7.54,0,1,0,7.55,7.55,7.56,7.56,0,0,0-7.55-7.55" transform="translate(-341.99 -103.5)"/><path class="cls-1" d="M565.78,611.49c.53,0,1.06,0,1.6,0a31.33,31.33,0,0,0,22.49-9.3,33.09,33.09,0,0,0,9.32-23.54c0-18.79-14.46-33.51-32.91-33.51a32.45,32.45,0,0,0-31.6,24.63,76.51,76.51,0,0,0-1.34,15.23v46.61a1.56,1.56,0,0,0,1.54,1.55h8.29a1.56,1.56,0,0,0,1.55-1.55V602.28l.45.44a33.12,33.12,0,0,0,20.62,8.77m.36-55c11.85,0,21.13,9.75,21.13,22.21s-8.81,22-20.49,22a22,22,0,0,1-15.37-6A21.32,21.32,0,0,1,545,579.07c0-12.44,9.49-22.58,21.14-22.58" transform="translate(-341.99 -103.5)"/><path class="cls-1" d="M416.8,611.49c.51,0,1.07,0,1.57,0a31.4,31.4,0,0,0,22.52-9.3,33.26,33.26,0,0,0,9.32-23.54c0-18.79-14.46-33.51-32.94-33.51a32.44,32.44,0,0,0-31.58,24.63c-.68,2.51-1.35,8.86-1.35,15.23v46.61a1.55,1.55,0,0,0,1.53,1.55h8.31a1.57,1.57,0,0,0,1.56-1.55V602.28l.41.44a33.19,33.19,0,0,0,20.65,8.77m.34-55c11.83,0,21.13,9.75,21.13,22.21s-8.81,22-20.49,22a21.93,21.93,0,0,1-15.36-6A21.29,21.29,0,0,1,396,579.07c0-12.44,9.5-22.58,21.14-22.58" transform="translate(-341.99 -103.5)"/><path class="cls-1" d="M607.17,601.06c7.24,6.61,15.1,10.39,25.36,10.39h.32c17.66-.11,25.57-9.78,25.57-19.29,0-13.15-12.44-16.78-16.23-17.56-1.23-.24-2.5-.49-3.79-.72-3.08-.61-6.26-1.22-9.18-2-2-.54-8.66-2.75-8.66-7.71,0-5.46,6.05-8.42,11.74-8.42a20.31,20.31,0,0,1,13.87,4.78,2.68,2.68,0,0,0,1.65.71,2.35,2.35,0,0,0,1.49-.56,57,57,0,0,0,5.72-4.93,1.66,1.66,0,0,0,.55-1.32,2.4,2.4,0,0,0-.83-1.55c-6.84-5.4-13.41-7.6-22.65-7.65h-.05c-13.27,0-23.27,8.52-23.27,19.8,0,9,7.36,15.3,20.68,17.93l8.35,1.59c5.49,1,8.58,3.93,8.47,8s-5,8.12-13,8.12a25.06,25.06,0,0,1-17.12-7l-.07-.09a2,2,0,0,0-1.29-.68,2.06,2.06,0,0,0-1.22.52c-.51.42-6.08,4.84-6.68,5.46a1.13,1.13,0,0,0-.38.93,2,2,0,0,0,.64,1.25" transform="translate(-341.99 -103.5)"/><path class="cls-1" d="M682.51,548.93a1.54,1.54,0,0,0-1.54-1.52H672.6a1.52,1.52,0,0,0-1.51,1.52v59.43a1.52,1.52,0,0,0,1.51,1.54H681a1.54,1.54,0,0,0,1.54-1.54Z" transform="translate(-341.99 -103.5)"/><path class="cls-1" d="M701.42,552.91a6.77,6.77,0,0,1-2.13,5.23,7.61,7.61,0,0,1-9.95,0,6.75,6.75,0,0,1-2.15-5.23,6.87,6.87,0,0,1,2.15-5.24,7.68,7.68,0,0,1,9.95,0A6.9,6.9,0,0,1,701.42,552.91Zm-2,0a5.3,5.3,0,0,0-1.48-3.9,5,5,0,0,0-7.19,0,5.39,5.39,0,0,0-1.46,3.92,5.45,5.45,0,0,0,1.46,3.93,4.71,4.71,0,0,0,3.62,1.51,4.83,4.83,0,0,0,3.57-1.52A5.44,5.44,0,0,0,699.37,552.91Zm-6.24.61v3.2H691.5v-7.63h2.86a4.48,4.48,0,0,1,2.29.49,2,2,0,0,1,.84,1.81,1.79,1.79,0,0,1-1.84,2l2,3.33h-1.93l-1.76-3.2Zm0-1.3h1.45a1.46,1.46,0,0,0,.84-.17.89.89,0,0,0,.32-.8c0-.58-.49-.87-1.46-.87h-1.15Z" transform="translate(-341.99 -103.5)"/></svg>