<svg id="Layer_1" data-name="Layer 1" xmlns="http://www.w3.org/2000/svg" viewBox="0 0 164.09 97.86"><defs><style>.cls-1{fill:#b39a7d;stroke:#b39a7d;stroke-miterlimit:10;}.cls-2{fill:#fff;}</style></defs><title>prachi_speciality_clinic-9</title><path class="cls-1" d="M68.92,5s-5.2,9.41,3.65,16A16.45,16.45,0,0,1,69.83,6.2Z" transform="translate(-2 8.57)"/><path class="cls-1" d="M109,20.74C117.54,13,113,1.55,113,1.55c-8.81-13.1-26.83-9-26.83-9s18.16-1.24,22.72,8.81A24.84,24.84,0,0,1,109,20.74Z" transform="translate(-2 8.57)"/><path class="cls-1" d="M95.59,26.43s-10.86-2.76-16.67-1.8S48.46,30.87,51.05,54.16,87.84,73.49,87.84,73.49s5.93-1.53,6.53-2.42S66.94,80.22,54,57.48c0,0-5.32-16.56,11.78-26.74,0,0,9.87-6,19.07-5S95.59,26.43,95.59,26.43Z" transform="translate(-2 8.57)"/><path class="cls-1" d="M77.81,36.14S88.37,30,92.16,40.71c0,0-4.4-5.75-9-4.71S77.81,36.14,77.81,36.14Z" transform="translate(-2 8.57)"/><path class="cls-1" d="M100.53,40.09s4.41-12.47,19.68-6.1c0,0,10,5.06,2,14.14,0,0-2.27,1.94-3.79,1.94s7.75-9.71,3.64-12-7.75-6.38-14.51-2.78S100.53,40.09,100.53,40.09Z" transform="translate(-2 8.57)"/><path class="cls-1" d="M71.05,64.62S69.37,49.72,88,47.3c0,0,4.4-1,5.78.34a16.06,16.06,0,0,1-3.5.62c-2.89.42-11,1.94-15,7.42S71.05,64.62,71.05,64.62Z" transform="translate(-2 8.57)"/><path class="cls-1" d="M90.73,59.91s15,12.89,28.63-1.52c0,0-6.53,5.06-14.35,4.57A51.24,51.24,0,0,1,90.73,59.91Z" transform="translate(-2 8.57)"/><path class="cls-1" d="M76.75,13.34s.76,8.67,12.38,8.52S107.88,11.32,102.5,4.05c0,0-4.86-5-7.6-3.81l.77.77s15.87,7.34.3,17.59a16.86,16.86,0,0,1-16.34-1.19Z" transform="translate(-2 8.57)"/><path class="cls-2" d="M2,74.57s7.43-1.41,8.72,1S10.12,80.8,6,80.8c0,0-1-.59.18-.8s4.74-2.62.68-5A7.4,7.4,0,0,0,5.2,75c0,.12-.53,10.4-.53,10.4a.83.83,0,0,1-.86.28,5.23,5.23,0,0,1-1-.33l.53-9.87s0-.41-.61-.37-.68-.16-.68-.29A.58.58,0,0,0,2,74.57Z" transform="translate(-2 8.57)"/><path class="cls-2" d="M13.48,78.29l-2.15.5s-.44.46.51.46.35,5.72.35,5.85.43.83,1.81.16l.27-5.51s1.63-.87,1.81-.25a10.78,10.78,0,0,1,.26,1.13l1.55-.84v-1a1.34,1.34,0,0,0-1.9-.33,4.91,4.91,0,0,1-1.81.67s.09-.8-.18-.8Z" transform="translate(-2 8.57)"/><path class="cls-2" d="M31.45,80.38s1.47.08,1.56-.59-.26-2.29-3.2-1.62-4.24,3.5-3.37,5.34c.67,1.69,2.22,2.5,3.64,1.88,1.73-.46,2.85-.88,2.85-.88V83.8s-3.46,1.38-4.5-1,.35-4.13,1.65-3.75S31.45,80.38,31.45,80.38Z" transform="translate(-2 8.57)"/><path class="cls-2" d="M36.89,72.57s0-.25-1.21,0a13.83,13.83,0,0,0-2.07.59,1,1,0,0,0,.86.46c.61,0,.79.29.7.91s-.53,10.86-.53,10.86,1.9.29,1.9-.42.18-5.34.18-5.34,2-1.46,3.28-.08l-.08,5.72s1.63.25,1.81-.17.17-6,.17-6-.6-1.55-3.28-1l-1.9.59Z" transform="translate(-2 8.57)"/><path class="cls-2" d="M46.48,74.5a1.4,1.4,0,0,0-1.82,0c-1,.8.27,2.13,1.39,1.42S46.48,74.5,46.48,74.5Z" transform="translate(-2 8.57)"/><path class="cls-2" d="M43.63,78.5s2.68-.8,2.68-.42-.17,7.14-.17,7.14-1.48.37-1.74-.09.18-6,.18-6H43.45Z" transform="translate(-2 8.57)"/><path class="cls-2" d="M60.91,74.32,61,76.74h-.61a2.23,2.23,0,0,0-2.5-1.92c-2.25.16-2.25,1.71-1.9,2.34a2.78,2.78,0,0,0,1.9,1.42c1,.3,4.49,1.42,3.54,3.74,0,0,.61,2.18-3.36,3.05,0,0-3.2.21-4-.41V82.24a3,3,0,0,0,2.77,2.22c2.24.16,4.4-2.26,2.33-3.13s-5.87-2-5.36-4.39,3-3,4.3-3A11.66,11.66,0,0,1,60.91,74.32Z" transform="translate(-2 8.57)"/><path class="cls-2" d="M84.53,80.21h1.21s1.48-2-1-2.17-4.48,1-4.66,3a3.43,3.43,0,0,0,1.81,3.88c1.3.46,4.49-.57,4.49-.57v-.8s-2.41,1-3.88-.13-1-4-.09-4.25,2-.63,2.16.12S84.53,80.21,84.53,80.21Z" transform="translate(-2 8.57)"/><path class="cls-2" d="M106,74.2a1.36,1.36,0,0,0-1.81,0c-1,.78.25,2.12,1.37,1.41S106,74.2,106,74.2Z" transform="translate(-2 8.57)"/><path class="cls-2" d="M103.1,78.2s2.68-.78,2.68-.41-.18,7.14-.18,7.14-1.46.38-1.72-.08.17-6,.17-6h-1.12Z" transform="translate(-2 8.57)"/><path class="cls-2" d="M108.11,76.39l2.08-.5s.25,7.21.25,7.4a1.83,1.83,0,0,0,1.43.49.57.57,0,0,0,.38-.56s1.3.75,0,1.25-2.72.81-4-.69Z" transform="translate(-2 8.57)"/><rect class="cls-2" x="105.08" y="86.58" width="4.92" height="0.81"/><path class="cls-2" d="M115,77.83l2.07,4.51,2-4.45s1-.68,1.29-.25-4.27,10-4.27,10-1.82,2.06-2.84.75-.14-1.19-.14-1.19,2,.81,2.33-.82a4.5,4.5,0,0,1,1-2.19l-2.72-5.25-1.17-.58Z" transform="translate(-2 8.57)"/><path class="cls-2" d="M98.52,72.82s3-.93,3.11-.31.13,12.27.13,12.27l-1.81.07V73.9s.13-.5-.78-.5S98.52,72.82,98.52,72.82Z" transform="translate(-2 8.57)"/><path class="cls-2" d="M135.84,76.14V73.57s-4.67-1.25-7.92,1.39-1,8.08,2.21,9.32a9.41,9.41,0,0,0,6.86-.62l-.52-.75s-3.76,2.37-6.73-.82-.4-7.32,1.16-7.64a10.58,10.58,0,0,1,3.37,0Z" transform="translate(-2 8.57)"/><path class="cls-2" d="M136.72,72.37s3-.93,3.11-.31.13,12.27.13,12.27h-1.81v-11s.12-.5-.79-.5S136.72,72.37,136.72,72.37Z" transform="translate(-2 8.57)"/><path class="cls-2" d="M143.94,73.56a1.41,1.41,0,0,0-1.81.07c-.9.82.41,2.13,1.48,1.4S143.94,73.56,143.94,73.56Z" transform="translate(-2 8.57)"/><path class="cls-2" d="M141.42,77.64s2.62-.83,2.65-.46.34,7.14.34,7.14-1.43.4-1.73-.06-.26-6-.26-6h-1.13Z" transform="translate(-2 8.57)"/><path class="cls-2" d="M145.92,77.64l.09.63s1.12-.42,1.12.46.43,5.55.43,5.55h1.56l-.18-5.71s2.33-.79,2.68-.09.6,5.73.6,5.73H154s-.09-5.72-.44-6.06a3,3,0,0,0-3.37-.87l-1.55.62s.51-.74-.44-.66A14.07,14.07,0,0,0,145.92,77.64Z" transform="translate(-2 8.57)"/><path class="cls-2" d="M143.94,73.56a1.41,1.41,0,0,0-1.81.07c-.9.82.41,2.13,1.48,1.4S143.94,73.56,143.94,73.56Z" transform="translate(-2 8.57)"/><path class="cls-2" d="M141.42,77.64s2.62-.83,2.65-.46.34,7.14.34,7.14-1.43.4-1.73-.06-.26-6-.26-6h-1.13Z" transform="translate(-2 8.57)"/><path class="cls-2" d="M157.2,73.52a1.38,1.38,0,0,0-1.8.08c-.88.81.44,2.12,1.5,1.38S157.2,73.52,157.2,73.52Z" transform="translate(-2 8.57)"/><path class="cls-2" d="M154.71,77.64s2.6-.85,2.63-.47.45,7.14.45,7.14-1.44.4-1.73,0-.35-6-.35-6h-1.12Z" transform="translate(-2 8.57)"/><path class="cls-2" d="M157.2,73.52a1.38,1.38,0,0,0-1.8.08c-.88.81.44,2.12,1.5,1.38S157.2,73.52,157.2,73.52Z" transform="translate(-2 8.57)"/><path class="cls-2" d="M154.71,77.64s2.6-.85,2.63-.47.45,7.14.45,7.14-1.44.4-1.73,0-.35-6-.35-6h-1.12Z" transform="translate(-2 8.57)"/><path class="cls-2" d="M164.23,79.27h1.21s1.47-2-1-2.16-4.49,1-4.66,3A3.41,3.41,0,0,0,161.6,84c1.3.47,4.49-.57,4.49-.57v-.8s-2.42,1-3.89-.12-1-4-.09-4.26,2-.63,2.16.12S164.23,79.27,164.23,79.27Z" transform="translate(-2 8.57)"/><path class="cls-2" d="M89.91,74.43a1.4,1.4,0,0,0-1.82,0c-1,.8.26,2.14,1.38,1.43S89.91,74.43,89.91,74.43Z" transform="translate(-2 8.57)"/><path class="cls-2" d="M87.06,78.44s2.67-.8,2.67-.42-.17,7.14-.17,7.14-1.47.37-1.73-.09.18-6,.18-6H86.88Z" transform="translate(-2 8.57)"/><path class="cls-2" d="M65.48,79.53s2.4-1,2.91-.23,2.14,4.2-.25,4.82-2.6-.77-2.6-.77V85s3.7.75,4.95-1.54.33-5.94-1.87-5.5a17.32,17.32,0,0,0-3.05.79s.13-.92-.38-.83-2.85.44-2.8.85,1.17.29,1.17.29a.2.2,0,0,1,.25.19.22.22,0,0,1,0,.08c0,.35-.06,10-.06,10l1.68-.09.06-4V82.64Z" transform="translate(-2 8.57)"/><path class="cls-2" d="M21.39,78c2.72-.37,3.06.81,3.06.81v6.71H22.81s.13-3,.05-3.51-1.86,0-1.86,0c-2.12.94-.73,1.8-.22,2.26s2-.18,2-.18v.68a6,6,0,0,1-2.85.75c-1.39-.09-2.76-2.09-1.17-3.35a6.22,6.22,0,0,1,4-1v-.12a1.71,1.71,0,0,0-.51-1.79c-.87-.89-2.69.32-3.16.26s-.13-.7-.13-.7l.26-.18Z" transform="translate(-2 8.57)"/><path class="cls-2" d="M94.43,77.55c2.72-.37,3.06.82,3.06.82v6.76H95.87q.07-1.75,0-3.51c-.09-.52-1.86,0-1.86,0-2.11.94-.73,1.8-.21,2.25s2-.16,2-.16v.66a6.08,6.08,0,0,1-2.85.76c-1.38-.08-2.76-2.09-1.16-3.34a6.08,6.08,0,0,1,4-1V80.7a1.74,1.74,0,0,0-.51-1.8c-.87-.87-2.69.34-3.16.28s-.13-.71-.13-.71l.27-.19Z" transform="translate(-2 8.57)"/><path class="cls-2" d="M74.12,80.8l-.08.54h4.4V79.09s-.17-1.55-3.37-1.09-3.72,4.64-1.73,6.25,5.53.2,5.53.2v-1s-2.16,1-3.62-.07-1.82-2.92-.88-3.93,2.34-.54,2.43.08a10.73,10.73,0,0,1,.08,1.13H74a.66.66,0,0,0,.07.78Z" transform="translate(-2 8.57)"/></svg>