<svg id="Layer_2" data-name="Layer 2" xmlns="http://www.w3.org/2000/svg" viewBox="0 0 525.43 526.43"><defs><style>.cls-1{fill:#949494;opacity:0.31;}.cls-2{fill:#060606;}.cls-3{fill:none;}.cls-4{fill:#8a8a8a;}.cls-5{fill:#423431;}.cls-6{fill:#fff;}.cls-7{fill:#706f6f;}.cls-8{fill:#545353;}.cls-9{fill:#4f4f4e;}.cls-10{fill:#424141;}.cls-11{fill:#493119;}.cls-12{fill:#88741f;}.cls-13{fill:#c4a92d;}.cls-14{fill:#0c0b0c;}.cls-15{fill:#090f1b;}.cls-16{fill:#653333;}.cls-17{fill:#c0b465;}.cls-18{fill:#312b29;}.cls-19{fill:#7e4f4c;}.cls-20{fill:#573a37;}.cls-21{fill:#38372f;}.cls-22{font-size:21px;fill:#2c0506;font-family:ClarendonBT-Black, Clarendon Blk BT;font-weight:800;}</style></defs><title>SRI_LAKSHMI_CONSTRUCTIONS</title><rect class="cls-1" width="473.87" height="499.4"/><path d="M422.68,263c5.06,2.42,12.81,6.2,22.09,11,13.63,7.1,23.46,12.8,28.84,15.91,17.72,10.26,43.27,25,74.91,43.38l.33-3.08S412.07,247.6,413.18,259.41s1.1,10.27,1.1,10.27Z" transform="translate(-73.98 -198)"/><path class="cls-2" d="M405,266.94s-4,4.11-.88,8a33.93,33.93,0,0,0,5.08,5.48l-1.55,50.65s9.72-2.4,10.39,0,3.09.34,3.09.34v-1.54l-3.09-.34s.66-44.32.66-46.89,6-3.76,8.18-7.7,4.19-9.41.88-11.46-13.48-3.43-13.48-3.43Z" transform="translate(-73.98 -198)"/><path class="cls-3" d="M433.28,262.15" transform="translate(-73.98 -198)"/><path class="cls-4" d="M416.05,279.26s-12.82-6.33-10.61-10.27,7.52-9.58,8.18-5.82-3.32,4.45-3.32,4.45-2.43,1-1.54,1.71,6.41,4.28,7.29,7.19S416.05,279.26,416.05,279.26Z" transform="translate(-73.98 -198)"/><path class="cls-4" d="M422.68,263s-8.18-1.88-7.29,2.57,7.95,1.2,7.95.17A10.25,10.25,0,0,0,422.68,263Z" transform="translate(-73.98 -198)"/><path class="cls-4" d="M417.37,269.16s-3.53-.68-3.09.52,3.54,3.42,5.3,5a21.37,21.37,0,0,0,4.42,2.74s-2-4.11.45-5.14,4.86-3.59,2.43-4.1-5.09.17-5.31,1.71,0,3.25-1.54,2.56S417.37,269.16,417.37,269.16Z" transform="translate(-73.98 -198)"/><path d="M442.12,328.37c-3.75-1.2-21.21-18.48-21.21-18.48s9.28,11.63,13.59,15-.66,4.88-.66,4.88l8.28,2.31a23,23,0,0,0-.33,4.36c0,2.82-5,1.8-5,1.8l5,2.31,1.31,6.15c.61.2,1.23.39,1.86.55a33.9,33.9,0,0,1,8.37-2.79c.4-4.2.86-6.81,1.39-7.34,4.64-4.62-1.33-7.18-6.19-10.09s-30.71-32.17-30.71-32.17v4.28s15.69,15.4,21.87,22.07S445.88,329.57,442.12,328.37Z" transform="translate(-73.98 -198)"/><path class="cls-5" d="M412.73,280.63s2.21-.17,2.21.85.45,44.49-.66,46.72-1.55.17-1.55.17-1.1-31.66-.88-38.67S412.73,280.63,412.73,280.63Z" transform="translate(-73.98 -198)"/><path class="cls-5" d="M420.58,338.72s-.66-11,3-7.44.33,7.7.33,7.7Z" transform="translate(-73.98 -198)"/><path class="cls-5" d="M430.52,332.56s-3.64-1.54-3.64,2.05,1.65,4.62,3.64,3.85S430.52,332.56,430.52,332.56Z" transform="translate(-73.98 -198)"/><path class="cls-5" d="M403.67,333.59a6,6,0,0,0-5,3.08c-1.65,3.08.67,5.9.67,5.9s9.28-1.8,13.92-2.82l4.64-1s2.65-6.93-3-6.93A42.59,42.59,0,0,0,403.67,333.59Z" transform="translate(-73.98 -198)"/><polygon points="383.39 142 391.35 116.85 392.01 143.03 383.39 142"/><polygon points="392.23 142 474.43 142 473.99 136.53 390.46 136.53 392.23 142"/><polygon class="cls-6" points="273.35 158.94 345.94 143.03 473.55 139.95 473.99 377.45 390.02 380.7 341.3 381.22 247.83 343.74 246.17 247.24 265.39 244.67 273.35 158.94"/><path d="M407.65,331.11s-11.6-.6-12.59,3-1,10.27-1,10.27v1.28s21.22-3.08,22.54-3.08,3.32-1.54,3.32-1.54l13.59-.26,2-2,1.66,1.8,7,.25-1-3.33-6.3.77,5.3-6.16-4.31-4.11-4,1.8-19.23.51Z" transform="translate(-73.98 -198)"/><path d="M393.73,343.08l-50.05,11.81-3.64,86-21.88,1.8-.66,99.07-58.67-.25v2.56l59.33-.25,97.12,35.42h51.37l-1.33-2.57-14.58-1.54-6.3,1.8-27.84,1.28-4-3.59S408,573.83,408,572a21.92,21.92,0,0,0-.66-4.36s-5.63,6.41-6,2.31-.33-8-.33-8-2.32,7.19-4.64,7.19-8.28-.52-8.28-3.85v-5.14s.33,5.14-6.3,3.85-60-22.33-60-22.33,0-93.94,2-95,2.32.25,2.32,4.87,1,28,1,28,1-37.47,4-34.91,2,53.13,2,53.13,2.65-63.65,5.63-52.87S340,485.53,340,485.53s3.64-58.52,3.64-64.42S347,363.62,347,363.62l2.32,27.46,1-34.91,66.29-13.6Z" transform="translate(-73.98 -198)"/><path class="cls-7" d="M377.16,366s-1.55-2.91-2.21,1.71S373.62,390,373.62,392s3.1-1.2,3.1-7.36S377.16,366,377.16,366Z" transform="translate(-73.98 -198)"/><path class="cls-8" d="M380.64,382.61c0,1.49,1.74-.86,1.74-5.31s.25-13.48.25-13.48" transform="translate(-73.98 -198)"/><path d="M360.14,369.61s.89,17.28-.44,16.94S360.14,369.61,360.14,369.61Z" transform="translate(-73.98 -198)"/><path d="M353.74,364.64s.88,22.42-.23,16.43-.44-17.62-.44-17.62Z" transform="translate(-73.98 -198)"/><path class="cls-7" d="M403.07,530.75s-1.14-1.6-1.63.94-1,12.18-1,13.31,2.29-.66,2.29-4S403.07,530.75,403.07,530.75Z" transform="translate(-73.98 -198)"/><path class="cls-9" d="M412.54,549.65s-.87-2.1-1.24,1.24-.75,16.08-.75,17.56,1.74-.86,1.74-5.32S412.54,549.65,412.54,549.65Z" transform="translate(-73.98 -198)"/><path d="M280.82,548.93s45.29-.86,46,.68S280.82,548.93,280.82,548.93Z" transform="translate(-73.98 -198)"/><path d="M336.94,555.77s-25.63-2.9-28.94,0S336.94,555.77,336.94,555.77Z" transform="translate(-73.98 -198)"/><path d="M408.76,579.56H403v.85s7.29.86,7.29.35S408.76,579.56,408.76,579.56Z" transform="translate(-73.98 -198)"/><polygon points="363.73 383.1 351.79 384.47 360.41 382.93 363.73 383.1"/><polygon points="376.1 382.76 371.02 382.76 371.24 383.44 376.54 383.61 376.1 382.76"/><polygon points="396.65 380.88 473.99 380.88 473.99 377.45 396.65 380.88"/><path d="M445,347.22l-.85,38s3.32-22.59,3.32-29.26,5.9-11.49,5.9-11.49Z" transform="translate(-73.98 -198)"/><path class="cls-10" d="M448.09,576.65s-5.3-28.75-5.3-40,1.65,40.3,1.65,40.3Z" transform="translate(-73.98 -198)"/><path d="M262.64,424.66s-1.87-3.06-2.73,1.19a33.26,33.26,0,0,0-.34,8.85s2.39-2,2.56-3.74S262.64,424.66,262.64,424.66Z" transform="translate(-73.98 -198)"/><path d="M261.79,410.19s.34,6.64-.34,9.19-.51-9.87-.51-9.87Z" transform="translate(-73.98 -198)"/><path d="M260.43,438.62s-1.71,88.17-.52,103,1.54-73.37,1.37-84.77S260.43,438.62,260.43,438.62Z" transform="translate(-73.98 -198)"/><polygon points="187.13 140.53 187.98 191.77 187.81 138.66 187.13 140.53"/><path d="M262.81,282.36a123.24,123.24,0,0,0-.68,31.32s.34-22.64.68-26A21,21,0,0,0,262.81,282.36Z" transform="translate(-73.98 -198)"/><path class="cls-6" d="M141.62,591.64l-3.32-3.58s7.15-10.72,10.34-3.7,7,8.3,7,8.3l-5.11,4.08-9.1.17-1.36-2.72Z" transform="translate(-73.98 -198)"/><path class="cls-11" d="M145.19,675.13c1,1.78,6.9,0,6.9,0l.76-2.56-5.11-1S144.17,673.34,145.19,675.13Z" transform="translate(-73.98 -198)"/><path class="cls-12" d="M167.66,626.11s1.28,9.44,1.53,10.72,11,24,12.77,26.3-8.17,2.81-8.17,2.81-10.73-25-15.07-22.22-8.42,12.94-8.42,12.94l2.3,14.13-6.39-.51-3.06-19.15,5.62-13.28,2.55-7.15.51-3.32Z" transform="translate(-73.98 -198)"/><path class="cls-13" d="M148.77,602.36s-1.28-4.59,1.78-5.62a11.47,11.47,0,0,0,5.11-4.08s7.4.85,10.47,17.87-3.58,14.81-3.58,14.81l-9.19,1.7-2.55-10.38s-2.3,4.34-8.17,2.55-6.64-8.42-6.64-8.42l6.57-2.56Z" transform="translate(-73.98 -198)"/><path d="M251.66,608.49s-3.32-312,4.34-329.87,33.19-10.22,35.74,2.55,1.54,322.72,1.54,322.72v7.66l-28.6,11.24C254.47,615.64,251.66,608.49,251.66,608.49Z" transform="translate(-73.98 -198)"/><path class="cls-4" d="M273.11,276.57s.76-5.61-4.34-4.34-7.92,2.3-8.43,13.54S255,607.21,255,607.21s-4.09,1-2,4.85,11.23,5.62,13.53,5.62,15.06-.25,15.83-.51,2.81-2.81,3.83-.26.51,3.32.51,3.32l-2.3-.51s.77,3.07,3.06,3.32,1.28-4.34,4.86-3.32-2.3-3.32-1.54-6.89-.51-4.34-2.55-2.81-2,2.55-3.57,2.55a1.71,1.71,0,0,0-1.79,1.28s-15.83,1-17.11.51.77-1.53.77-1.53l-9.7-2.3S255.49,575,258.55,574s1.54,30.64,1.54,30.64v4.85s7.4,2.55,10.21,2,2-332.17,2-332.17l1.53,3.83L272.6,607.47s.25,6.38,2,3.32,4.85-336.51,4.85-336.51L277.7,607.21s.26,6.64,2,3.07,1.79-110,1.79-110l1-161.61,1,3.06-.25,264s-.77,7.41,1.28.77,1.53-296.17,1.53-296.17-.51,24.76-1.79,25-1.28-35-1.28-35l.51-23.49s-2.55-6.64-7.91-2.81S273.11,276.57,273.11,276.57Z" transform="translate(-73.98 -198)"/><path class="cls-14" d="M139.06,609.51s-4.08-10.72-8.17.51a4.84,4.84,0,0,0,4.43,3.75,30.24,30.24,0,0,0,3.69,3.8c2.8,2.39,6.63,4.58,9.42,2,4.93-4.59,4.76-9.19,7.66-11.91,0,0-6.13,3.91-7.49,10s-10.73-3.4-10.73-4.42.34-3.41,2.9-2.73,4.93,4.09,6.8-2.21,5.62-3.58,4.26-5.79-3.74-2-2.38-3.57a3.17,3.17,0,0,1,2.89-1.19s2.21-5.79,4.77-3.58,2.21,2.38,4.08,6.13,7.83,20.25,1.7,23-9,1.7-9,1.7-3.23-5.11-.34-10.55l2.9-5.45-8.69,12.09h2.56l-.68,6.12s1.53.68,5.27.34,14.3,0,14.3,0,1.53-25.19-11.74-35.23c0,0-3.92-1.87-4.43-4.09s2.38-8.68-5.11-8.85-13.61,9.36-13.61,9.36,4.76.86,5.61.35,1.37-3.07,4.6-3.58,3.06,2.21,3.92,3.23,4.08,1.54,4.25,2.39.34,3.74-3.74,3.74-8.34,1-7.66-.85a3,3,0,0,1,2.38-2l-2.21-1.87-2.39-.17s-2,5.1,2.39,7,6.29,1,6.29,1l-.51,2.55s-3.91,2-4.76,3.06-7.32-3.4-10.21,1-2.9,5.79-1,7.83,2.05,2.73,2.05,2.73-5.11,3.57-3.58,12.59,3.75,7.15,3.75,7.15-2.39-18.89,1-18.38,3.74,1.36,3.74,1.36L137,611.72Z" transform="translate(-73.98 -198)"/><path class="cls-15" d="M156.6,598.28s2.55.85,3.74,4.59c0,0-.08.77-.6.19s-2-3.51-2.42-3.76a11.07,11.07,0,0,1-1.21-1.21Z" transform="translate(-73.98 -198)"/><path class="cls-16" d="M136.26,607.34s-3.13.06-3.32,2.81,3.44,2,3.95.51A4.55,4.55,0,0,0,136.26,607.34Z" transform="translate(-73.98 -198)"/><path class="cls-17" d="M150.43,584.11s-4.09-4.85-9.39.19c0,0-.51,1.15.9,1.15s5.29-1.09,6.7-1.09A3.83,3.83,0,0,0,150.43,584.11Z" transform="translate(-73.98 -198)"/><path class="cls-16" d="M144.36,607.4s-1.66-1.72-1.79.83,2.69,2.68,2.62,1.28A3.16,3.16,0,0,0,144.36,607.4Z" transform="translate(-73.98 -198)"/><path d="M151.83,624.15s-1.7,5.79-5.28,14.64-5.44,13.1-5.44,15.49,2.72,16.85,4.25,17.7,6.64.51,6.64.51-1.36,2.72-3.23,2.72-7.49,2.56-6.64.68,1.87-1.7,1.87-1.7-8.68-1.19-7.49,1.7,3.92,3.07,6.64,3.07,11.57-2.05,11.57-4.6-3.23-15.15-2.38-16.85,4.77-10,6.13-11.74,2.55-1,3.06-.17,9.87,18,10.56,20.25-1.2,4.26-1.2,4.26-5.1,3.74-4.25,5.44,3.4,1.19,3.4.34.34-1,2.56-1a25.61,25.61,0,0,1,6.12,1.36s-4.42-1.7-1.19-2.89,9-7.15,5.28-11.23-12.26-19.58-14.13-33.71-2.72-4.59-2.72-4.59,3.4,9.7-.85,13.28S162,642.36,163.4,643s3.75-.34,3.75-.34-4.6-2.72-1.53-3.91S170,643,170,643s9.53,18.05,9.53,20.09-3.74,1.36-3.74,1.36a33,33,0,0,1-6.64-9.7,59.8,59.8,0,0,0-8-12.09s2.72-6,4.77-8-6.64,4.77-9.87,10.9-5.79,9-5.79,11.06,2.55,12.77,1,13.45-4.6.17-5.62-3.58-2.21-14-.17-18.72,5.28-12.6,5.62-15.49-.17-4.77,2.21-5.28l2.38-.51Z" transform="translate(-73.98 -198)"/><path d="M150.3,677.43s.17,2.38-1.36,2.72-5.79.68-5.79.68a26.42,26.42,0,0,0,9,2.55l4.26.17s-5.45-2.72-3.24-3.06l2.21-.34s-4.08-1.36-2.38-3.58S150.3,677.43,150.3,677.43Z" transform="translate(-73.98 -198)"/><path d="M172.6,674.87l6.46,2s-4.76-2.89-2-4.76S172.6,674.87,172.6,674.87Z" transform="translate(-73.98 -198)"/><path d="M172.94,679.3s7.83-2.21,10.38,1.87c0,0-4.43-1.7-4.26.85s6.13,2.38,6.13,2.38l-10.38.17s.51-3.74-.34-4.25S172.94,679.3,172.94,679.3Z" transform="translate(-73.98 -198)"/><path d="M162.55,691.72s-6.46-.51-6.46.85a4.11,4.11,0,0,0,.85,2.39s5.27.68,6.12-1.19S162.55,691.72,162.55,691.72Z" transform="translate(-73.98 -198)"/><path d="M156.94,685.26h-6.13s-.17,1.19,1.36,1.36a21,21,0,0,0,4.94-.68Z" transform="translate(-73.98 -198)"/><path d="M186.6,686.66h-6.13s-.17,1.19,1.36,1.36a21,21,0,0,0,4.94-.68Z" transform="translate(-73.98 -198)"/><path d="M160.55,688.53h-6.12s-.17,1.19,1.36,1.36a20.84,20.84,0,0,0,4.93-.68Z" transform="translate(-73.98 -198)"/><path d="M185.23,689.93h-4.59s-.13.94,1,1.07a14.59,14.59,0,0,0,3.7-.54Z" transform="translate(-73.98 -198)"/><polygon points="80.15 391.6 177.17 267 176.4 272.11 82.45 393.13 80.15 391.6"/><path class="cls-18" d="M266,680s-23.75.51-27.83-9.19-.77-39.58,3.06-44.94,6.38-12.25,8.43-14.81l2-2.55s.51,5.11,4.6,7.66,24.76,1,24.76,1,5.11-2.81,6.13,2.3l-2.81.25s1.28,3.32,3.06,3.32,2.3-4.08,4.86-3.32-1.28-4.85-1.28-4.85.76-7.66-2.81-4.85-3.06,3.58-5.36,3.83-20.43.26-24.26-1.79-3.32-7.15-3.32-7.15,2-30.89,3.32-30.89,1.79,6.38,1.79,6.38-3.57,27.58.77,29.37,10.72,6.12,19.66.51,14.29-6.64,15.83-4.09,4.59,7.41,8.93,18.9,3.07,41.61,1.28,43.91-9.45,9.19-29.62,11a3.31,3.31,0,0,0-3.32,3.06c-.25,3.07-7.4-.51-7.4-.51Z" transform="translate(-73.98 -198)"/><path class="cls-19" d="M283.06,622a43.62,43.62,0,0,0-12.25-1.28,100.6,100.6,0,0,1-13.53-.51s1.27-2.55-1.54-2.55-8.17-4.34-7.65.77,14.29,7.91,19.4,7.91,15.06-.51,15.83-2A1.75,1.75,0,0,0,283.06,622Z" transform="translate(-73.98 -198)"/><path class="cls-20" d="M246,623s-6.38,7.66-5.61,10.22,6.89,4.59,6.89,4.59,30.64,7.41,43.4,0c0,0-1.78-6.64-3.06-8.17s1.53,0,1.53,0,6.38-.77,7.41,33.45c0,0,0,6.64-1.28,5.36s-3.06-23.75-3.06-23.75v28.09s1.27,3.83,2,.26,2-1.79,2-1.79l2,2s.51-31.66-3.06-39.06-5.87-8.43-8.17-7.92-3.32,1.53-2.55,4.09,4.85,4.34,3.31,8.17-2.8-12-7.65-10.22-.77,8.94-.77,8.94-.26-9.45-6.64-9.45-13.79,1.79-15.57,1-1.79-4.34-4.6-1.27l-2,5.36s-1.28-4.6.76-6.38-3.83.76-4.85,2-3.57,3.83-3.57,3.83,3.83-6.64,3.83-7.4A5.6,5.6,0,0,0,246,623Z" transform="translate(-73.98 -198)"/><path class="cls-5" d="M247.57,675.13s.77-34-1.78-34.73-1.28,28.09-1.28,28.09-1-31.4-3.57-29.11,0,30.9,0,30.9,3.83,5.1,4.85,5.1A6.28,6.28,0,0,0,247.57,675.13Z" transform="translate(-73.98 -198)"/><path class="cls-5" d="M255,673.09s-.51-31.41-3.07-31.41-1.53,32.17-1.53,32.17a7.92,7.92,0,0,0,4.6,3.83c3.06.77,27.83.77,27.83.77s3.32-33.19-1-34.73-.26,27.07-1.79,27.58-3.06-.26-2.81-5.62-.25-21.19-.25-21.19l-13,.25s1.28,19.41-.76,17.88-3.32-21.71-5.11-19.41-2.3,18.9-2.3,18.9Z" transform="translate(-73.98 -198)"/><path class="cls-5" d="M286.64,643.47s2.81-5.36,3.06,1.53.26,32.43-1.27,31.66-2.3-31.92-2.3-31.92Z" transform="translate(-73.98 -198)"/><path class="cls-21" d="M293.28,623s-.51.26,1,2.81,1.27-3.06,1.27-3.06,2.3,1.78,2.3,7.91v6.13s-4.59-10.72-5.1-11.49S293.28,623,293.28,623Z" transform="translate(-73.98 -198)"/><path class="cls-21" d="M304.77,637.6s-.51,27.57.76,30.38,2-17.87,1.28-23.24S304.77,637.6,304.77,637.6Z" transform="translate(-73.98 -198)"/><polygon class="cls-21" points="225.68 430.92 227.98 433.21 227.21 468.96 225.68 440.11 225.68 430.92"/><path class="cls-21" d="M297.87,617.68s3.07,6.64,4.09,10-4.09-7.41-4.09-7.41Z" transform="translate(-73.98 -198)"/><path class="cls-21" d="M293.28,614.36s3.57-1.27,3.57.26a11.12,11.12,0,0,1-.51,3.06Z" transform="translate(-73.98 -198)"/><path class="cls-5" d="M289.45,287s.76-6.13,2.29,0-2.29,317.36-2.29,317.36-.77,4.86-1.79,0,.77-133.78.77-133.78l1.27-168.26Z" transform="translate(-73.98 -198)"/><path d="M288.68,614.87s-3.32-.51-1.28,1.79,2.81,0,2.81,0Z" transform="translate(-73.98 -198)"/><path class="cls-21" d="M256.51,287.3,254,593.94s.25-286,.25-290.3S256.51,287.3,256.51,287.3Z" transform="translate(-73.98 -198)"/><path d="M422.57,263.81a5.35,5.35,0,0,1,.26-1.66c-2-1.5-2.82-2.31-4.62-2.77a10.3,10.3,0,0,0-5.78.34,13.94,13.94,0,0,0-6.81,5.62c-3.65,5.4-49.06,62.34-112.34,141.45l-.51,6.64L405.62,268.91s2.55-6.12,6.47-6.12c2.24,0,3.36-.51,4.88-.39a9.86,9.86,0,0,1,4.65,1.75c.31.19.64.36,1,.55C422.58,264.4,422.57,264.1,422.57,263.81Z" transform="translate(-73.98 -198)"/><text class="cls-22" transform="translate(271.13 246.39)">SRI LAKSHMI <tspan x="0" y="24">CONSTRUCTIONS</tspan></text></svg>