<svg id="Layer_1" data-name="Layer 1" xmlns="http://www.w3.org/2000/svg" viewBox="0 0 1749.72 1495.15"><defs><style>.cls-1{fill:#cfcbd2;}.cls-2{fill:#6f6f6f;}.cls-14,.cls-2{fill-rule:evenodd;}.cls-3{fill:none;stroke:#bfbfbf;stroke-miterlimit:10;stroke-width:75px;}.cls-4{font-size:201.86px;fill:#fff;font-family:Broadway;}.cls-5{letter-spacing:0.02em;}.cls-6{letter-spacing:0em;}.cls-7{letter-spacing:-0.01em;}.cls-8{font-size:96.89px;}.cls-9{letter-spacing:0em;}.cls-10{letter-spacing:-0.03em;}.cls-11{letter-spacing:0em;}.cls-12{letter-spacing:-0.01em;}.cls-13{letter-spacing:0em;}.cls-14{fill:#a9a9a9;}</style></defs><title>sri_laxmi_construction_svg</title><g id="SVGRepo_iconCarrier" data-name="SVGRepo iconCarrier"><polygon class="cls-1" points="558.45 89.62 558.45 34.86 558.45 0 604.91 44.81 558.45 89.62"/><polygon class="cls-1" points="516.68 29.43 547.19 0 547.19 29.43 516.68 29.43"/><polygon class="cls-1" points="657.82 190 623.78 157.16 657.82 128.13 657.82 190"/><polygon class="cls-1" points="613.93 147.2 561.23 102.63 668.56 7.03 791.12 7.03 613.93 147.2"/></g><path class="cls-2" d="M436.11,1075.22a6.45,6.45,0,0,1,2-.27c49.38.63,98.35-6.5,147.3-12.19,21.43-2.49,43-5.31,64.63-5s42.86,3.11,64.21,5.55c43.58,5,87.24,3.72,131,3.4q83.76-.62,167.52-.59V567.67c0-34.1,0-63.47-3.33-87-3.57-25.21-11.62-49.38-32.27-69s-46.11-27.24-72.67-30.63c-24.79-3.17-55.74-3.16-91.66-3.16H564.4c-35.92,0-66.87,0-91.65,3.16-26.56,3.39-52,11-72.67,30.63s-28.71,43.77-32.28,69c-3.33,23.53-3.33,52.9-3.33,87V1069c23.27,2,46.39,5.82,69.79,6A6.71,6.71,0,0,1,436.11,1075.22Zm333.55-505h40.52c22.38,0,40.52,17.22,40.52,38.46s-18.14,38.46-40.52,38.46H769.66c-22.38,0-40.52-17.22-40.52-38.46S747.28,570.2,769.66,570.2Zm0,153.84h40.52c22.38,0,40.52,17.22,40.52,38.46S832.56,801,810.18,801H769.66c-22.38,0-40.52-17.22-40.52-38.47S747.28,724,769.66,724Zm0,153.85h40.52c22.38,0,40.52,17.22,40.52,38.46s-18.14,38.46-40.52,38.46H769.66c-22.38,0-40.52-17.22-40.52-38.46S747.28,877.89,769.66,877.89ZM567.07,570.2h40.51c22.38,0,40.52,17.22,40.52,38.46S630,647.12,607.58,647.12H567.07c-22.38,0-40.52-17.22-40.52-38.46S544.69,570.2,567.07,570.2Zm0,153.84h40.51c22.38,0,40.52,17.22,40.52,38.46S630,801,607.58,801H567.07c-22.38,0-40.52-17.22-40.52-38.47S544.69,724,567.07,724Zm0,153.85h40.51c22.38,0,40.52,17.22,40.52,38.46S630,954.81,607.58,954.81H567.07c-22.38,0-40.52-17.22-40.52-38.46S544.69,877.89,567.07,877.89Z" transform="translate(-204.93 -9.12)"/><line class="cls-3" x1="0.14" y1="1143.63" x2="1749.58" y2="1137.28"/><text class="cls-4" transform="translate(152.95 1354.84) scale(1.05 1)">SRI <tspan class="cls-5" x="408.65" y="0">L</tspan><tspan class="cls-6" x="548.81" y="0">A</tspan><tspan class="cls-7" x="706.42" y="0">K</tspan><tspan x="852.1" y="0">SHMI</tspan><tspan class="cls-8" x="1400.42" y="0"> </tspan><tspan class="cls-8"><tspan class="cls-9" x="270.67" y="116.27">C</tspan><tspan x="338.66" y="116.27">ON</tspan><tspan class="cls-10" x="483.48" y="116.27">S</tspan><tspan class="cls-11" x="538.64" y="116.27">T</tspan><tspan class="cls-12" x="605.54" y="116.27">R</tspan><tspan class="cls-13" x="679.01" y="116.27">UCTIONS </tspan></tspan></text><path class="cls-14" d="M1144.26,1068.82a6.5,6.5,0,0,1,2.26-.36c56.33.83,112.18-8.59,168-16.11,24.44-3.29,49.08-7,73.72-6.6s48.89,4.12,73.24,7.34c49.72,6.58,99.52,4.92,149.46,4.49q95.55-.81,191.09-.78V397.85c0-45.08,0-83.91-3.79-115-4.08-33.33-13.26-65.28-36.82-91.19s-52.6-36-82.9-40.5C1650.28,147,1615,147,1574,147H1290.6c-41,0-76.28,0-104.55,4.18-30.3,4.48-59.34,14.58-82.9,40.5s-32.74,57.86-36.81,91.19c-3.8,31.1-3.8,69.93-3.8,115v662.74c26.54,2.61,52.91,7.7,79.6,7.87A6.72,6.72,0,0,1,1144.26,1068.82Zm380.48-667.63H1571c25.53,0,46.22,22.77,46.22,50.85s-20.69,50.84-46.22,50.84h-46.22c-25.52,0-46.22-22.76-46.22-50.84S1499.22,401.19,1524.74,401.19Zm0,203.38H1571c25.53,0,46.22,22.76,46.22,50.84s-20.69,50.85-46.22,50.85h-46.22c-25.52,0-46.22-22.76-46.22-50.85S1499.22,604.57,1524.74,604.57Zm0,203.38H1571c25.53,0,46.22,22.76,46.22,50.84s-20.69,50.85-46.22,50.85h-46.22c-25.52,0-46.22-22.77-46.22-50.85S1499.22,808,1524.74,808Zm-231.1-406.76h46.22c25.53,0,46.22,22.77,46.22,50.85s-20.69,50.84-46.22,50.84h-46.22c-25.52,0-46.22-22.76-46.22-50.84S1268.12,401.19,1293.64,401.19Zm0,203.38h46.22c25.53,0,46.22,22.76,46.22,50.84s-20.69,50.85-46.22,50.85h-46.22c-25.52,0-46.22-22.76-46.22-50.85S1268.12,604.57,1293.64,604.57Zm0,203.38h46.22c25.53,0,46.22,22.76,46.22,50.84s-20.69,50.85-46.22,50.85h-46.22c-25.52,0-46.22-22.77-46.22-50.85S1268.12,808,1293.64,808Z" transform="translate(-204.93 -9.12)"/></svg>