<svg id="SvgjsSvg1001" width="288" height="288" xmlns="http://www.w3.org/2000/svg" version="1.1" xmlns:xlink="http://www.w3.org/1999/xlink" xmlns:svgjs="http://svgjs.com/svgjs"><defs id="SvgjsDefs1002"></defs><g id="SvgjsG1008"><svg xmlns="http://www.w3.org/2000/svg" enable-background="new 0 0 1024 720" viewBox="0 0 1024 720" width="288" height="288"><path d="M592.313904 298.005615C592.303467 331.165192 592.298706 363.825897 592.27478 396.486572 592.269958 403.061798 592.160095 403.171631 585.540039 403.173615 543.714417 403.186157 501.888794 403.188446 460.063171 403.17807 452.748077 403.176239 452.713531 403.141144 452.711487 396.092804 452.701447 361.599121 452.707153 327.105408 452.723785 292.611725 452.724915 290.280914 452.693146 287.930542 452.962219 285.622559 454.979889 268.317322 463.836182 260.437103 481.344757 259.678436 499.81073 258.878296 517.750366 262.412567 535.771545 265.539734 540.662476 266.388428 545.599731 267.320862 550.655945 266.597015 556.217224 265.800812 561.486023 268.103821 566.97467 268.385773 569.671509 268.524323 571.620117 268.483368 573.308838 265.834564 575.397156 262.558929 578.625305 263.725037 581.308594 265.16333 587.414185 268.436005 589.826843 274.216583 591.251892 280.588104 592.501404 286.175262 592.266968 291.848053 592.313904 298.005615M533.692505 376.329346C529.670837 382.672394 533.253174 388.743439 539.370972 389.499573 542.650146 389.904877 546.061401 389.916626 549.336975 389.503052 553.347839 388.996582 556.055481 386.463013 556.566528 382.342255 557.057312 378.385376 555.062805 375.002289 551.439575 374.156677 545.699219 372.816956 539.624023 371.76532 533.692505 376.329346M554.971558 351.422272C557.721008 345.934448 556.638428 341.302734 551.713501 339.447327 546.94043 337.64917 541.883728 337.716461 537.073914 339.437866 533.855652 340.58963 532.076233 343.154327 532.03656 346.740112 531.999512 350.084412 533.364624 353.116882 536.478455 353.80545 542.543396 355.146545 548.895203 356.593903 554.971558 351.422272M512.832764 383.065338C513.536987 378.172089 511.467651 374.816803 506.764923 373.683014 502.895996 372.750275 498.769806 372.846741 494.879486 373.592712 488.694885 374.778564 486.402008 382.320923 490.600677 386.847198 495.503113 392.132141 509.302032 390.255524 512.832764 383.065338M510.832916 352.297516C514.521973 346.313782 513.190002 341.040253 507.187286 339.150421 502.697083 337.736786 498.012299 337.832397 493.530518 339.457794 490.239838 340.651184 488.506287 343.282288 488.426178 346.711823 488.344147 350.221588 490.254089 353.23465 493.453552 353.934875 499.026398 355.154572 504.864105 356.179962 510.832916 352.297516M548.122925 320.39093C554.283386 318.809357 557.11853 315.730316 556.59314 311.192169 556.064209 306.62323 552.513794 304.158417 546.253479 304.0802 543.929626 304.051147 541.590637 303.986694 539.282593 304.199066 534.841431 304.607666 532.362061 307.158539 532.068237 311.610992 531.771851 316.101074 534.347534 319.278625 538.884521 319.882812 541.672791 320.254089 544.513733 320.228851 548.122925 320.39093M505.839203 304.217621C502.522949 304.196106 499.193634 303.979919 495.893616 304.200897 491.503937 304.494843 488.466614 307.812439 488.366302 311.983795 488.266602 316.129028 491.186249 319.426666 495.721741 319.89917 498.515167 320.190216 501.355896 320.11618 504.173126 320.069702 508.594757 319.996826 512.050537 318.363037 512.817993 313.563629 513.589966 308.736053 511.521759 305.546539 505.839203 304.217621zM437.193237 324.009338C437.189178 349.485168 437.194336 374.463013 437.165894 399.440857 437.158844 405.637817 436.721863 405.65033 430.606171 405.603821 401.140625 405.379608 371.672699 404.92688 342.208008 405.764709 337.38266 405.901917 332.552582 405.864197 327.725586 405.95578 324.251526 406.021729 322.67041 404.642273 322.684937 400.905151 322.79892 371.598358 322.552612 342.288666 322.869446 312.984741 323.046295 296.627716 329.208588 290.307617 345.39975 288.212708 345.89505 288.148651 346.391083 288.036285 346.886719 288.036591 370.34967 288.0513 393.832489 286.845032 417.266205 288.71228 428.524963 289.609406 434.896484 296.313812 436.378754 307.571411 437.077606 312.878845 437.187622 318.184784 437.193237 324.009338M389.860779 326.165466C386.454193 330.962311 387.265564 335.282684 392.076263 336.919312 395.437469 338.062805 399.003448 338.069122 402.412048 337.119019 405.616638 336.2258 407.611816 333.843048 407.46698 330.495758 407.318329 327.060303 404.85968 324.934998 401.661926 324.569916 397.927612 324.143585 394.000671 323.509979 389.860779 326.165466M354.772278 335.835724C358.348633 338.265717 362.383057 337.960327 366.2659 337.315643 369.640228 336.755341 371.890167 334.582245 371.862122 330.810944 371.833679 326.983154 369.440125 325.129639 366.05423 324.533783 363.967163 324.166473 361.76651 324.238251 359.633789 324.375732 353.019592 324.802094 350.695221 329.558105 354.772278 335.835724M356.506683 381.520752C353.06015 382.959961 351.652435 385.639618 352.557953 389.144867 353.492249 392.761688 356.360046 393.916992 359.882355 393.792908 362.043427 393.716766 364.231354 393.901611 366.363922 393.629761 370.045654 393.1604 371.99295 390.921082 371.859894 387.166718 371.735199 383.64859 369.777924 381.549591 366.296997 381.307434 363.321411 381.100433 360.316254 381.318542 356.506683 381.520752M387.525909 358.718689C387.639648 362.347809 389.516968 365.024414 392.987549 365.377991 397.2883 365.816101 402.040039 367.122437 405.719116 363.382294 408.244171 360.815247 407.950745 356.83902 405.298584 354.532227 400.990723 350.785431 390.387604 352.884796 387.525909 358.718689M398.366821 381.15863C396.869354 381.18222 395.364258 381.117767 393.875885 381.24649 389.96109 381.585083 387.539337 383.915436 387.629761 387.682861 387.71347 391.171478 390.080658 393.418976 393.771484 393.721619 395.425903 393.857269 397.098267 393.808228 398.761902 393.790405 404.178101 393.732391 407.359314 391.520905 407.54248 387.718018 407.723328 383.963074 404.669403 381.553436 398.366821 381.15863M354.076477 363.49762C358.108093 367.012787 362.900299 366.044952 367.334503 365.163391 370.446564 364.544678 372.194336 361.795319 371.801208 358.313599 371.426605 354.995941 369.343842 353.34436 366.155365 353.107941 363.846497 352.936737 361.510162 352.866608 359.201874 353.00824 353.070221 353.384613 351.060547 356.993622 354.076477 363.49762zM424.078979 432.121857C426.109375 428.301605 428.686859 425.17807 429.967163 421.255188 427.937073 419.685822 425.701935 420.385803 423.655182 420.382416 371.675934 420.296143 319.696533 420.269653 267.717194 420.222839 260.255859 420.216095 257.596008 416.356934 259.93924 409.132111 260.88623 406.21228 263.284851 406.840515 265.331146 406.837646 282.992615 406.812958 300.654175 406.849884 318.315704 406.869141 355.804047 406.910034 393.292572 406.89447 430.780731 407.004669 503.391113 407.218079 576.001221 407.527649 648.611633 407.695801 653.068787 407.706146 655.447144 408.634979 655.166138 413.787415 654.784119 420.792175 654.755737 421.207062 648.363159 421.204254 613.209351 421.188751 578.055603 421.123688 542.901855 421.150879 540.742188 421.152527 537.675964 419.996002 536.742432 422.886505 535.786682 425.845978 535.998413 429.138184 536.701172 432.25531 536.897217 433.124786 537.77301 433.485291 538.650818 433.547394 539.646667 433.617859 540.646851 433.639282 541.64563 433.655273 550.729065 433.80069 550.727295 433.798798 551.685913 424.887299 551.77356 424.072113 551.818115 423.21524 552.783691 422.866638 554.732483 425.60907 555.133545 450.491394 553.298645 455.582367 551.543274 455.501495 551.787415 454.086334 551.728088 453.036133 551.615479 451.042419 551.693481 449.038696 551.654236 447.039886 551.416931 434.964172 553.757568 436.481689 540.0401 436.310699 537.18042 436.275116 536.232056 437.622131 536.289368 440.288391 536.378906 444.451874 536.224487 448.621124 536.340698 452.783295 536.416016 455.478516 535.348389 456.866852 532.617981 456.883148 532.451599 456.884125 532.285034 456.896332 532.11908 456.90976 520.281921 457.865692 519.189209 456.765381 520.309814 444.888641 520.702454 440.726929 520.649719 436.5849 520.242554 432.421753 519.250244 422.275238 519.489014 422.036957 529.401489 421.013489 526.130798 421.013489 522.860046 421.013489 519.589355 421.013489 516.112915 421.013489 512.636414 421.013489 508.724365 421.013489 510.259613 423.28476 513.976013 423.129517 513.394104 426.759521 509.422058 426.998657 506.378174 421.505798 502.049744 424.798706 502.071991 427.443909 503.922363 428.79187 505.290802 430.395996 507.992004 433.562439 510.942719 436.536072 513.437012 439.854889 518.925171 447.157135 516.493469 454.38028 507.637115 456.693573 502.061005 458.150024 496.389465 458.219757 491.334686 454.629303 490.044769 453.713043 488.274353 453.018738 489.190521 450.332031 493.601776 451.118896 496.745361 456.900177 502.078217 454.141144 502.996155 451.863586 501.157532 450.719604 500.07959 449.41272 497.855652 446.7164 495.323456 444.272797 493.122253 441.55957 485.951141 432.720367 487.093018 426.975311 498.138702 421.00647 475.754181 421.00647 454.541077 421.00647 432.497589 421.00647 438.876373 432.593658 445.084595 443.871033 451.28598 455.135956 445.657288 458.300812 436.233948 457.450287 431.772858 453.627563 428.685181 450.981689 416.610413 452.018494 413.892334 455.264862 412.851227 456.508392 411.902283 457.035004 410.136322 457.002319 401.317047 456.838989 392.490356 456.82074 383.671448 457.002777 379.606873 457.08667 377.73996 455.627258 378.176086 451.458374 379.027863 443.316345 378.701294 435.142059 378.538879 426.987213 378.46106 423.081146 379.864319 421.669098 383.756409 421.736115 396.034851 421.947601 394.248566 420.535706 394.325897 431.894928 394.364471 437.559753 394.486511 443.230103 394.290375 448.888184 394.167572 452.431091 395.335968 453.63327 399.039673 454.105316 407.523254 455.186615 413.635773 453.31424 416.861877 444.50119 418.437286 440.19751 421.49884 436.437866 424.078979 432.121857M422.406006 440.540161C420.959015 443.395538 418.393036 445.751465 418.204895 449.5271 421.900543 449.615631 425.314728 450.20401 428.926758 449.081085 428.761658 445.90036 426.651459 443.7883 425.471649 441.314545 425.049927 440.430298 424.650848 438.234009 422.406006 440.540161zM437.85907 228.173187C426.587067 228.885162 426.635834 228.871399 423.575348 218.031357 420.05838 205.574493 416.411041 193.154404 412.904663 180.694595 412.340546 178.689865 411.216949 176.693329 412.171997 173.490189 416.253357 176.276764 419.776154 179.257111 423.77713 181.301743 434.210022 186.633347 440.029022 194.66037 440.797302 206.54921 441.082153 210.957214 442.71167 215.282867 443.772766 219.635162 445.494476 226.697235 445.510071 226.693436 437.85907 228.173187z" fill="#adb4c5" class="color000 svgShape"></path><path d="M597.008789 431.186462C599.454712 439.511902 601.774658 447.459381 604.18512 455.716888 599.495117 457.542633 595.037781 456.912689 590.636902 456.628387 588.647888 456.499847 588.055176 454.90213 587.580383 453.19104 586.484924 449.243042 585.261169 445.330688 583.969727 441.002716 579.782043 445.181213 578.024109 450.470215 573.905029 454.14679 569.745422 450.62735 567.897034 445.765503 564.034729 442.059296 560.857239 446.244568 562.437988 452.409851 557.640198 455.766113 559.230286 444.1633 563.209167 433.254181 566.822754 420.606659 571.898987 427.644287 576.018677 433.355896 580.460327 439.513763 585.545593 434.093567 588.074829 427.205627 593.316101 422.002563 595.728271 424.685608 595.764343 427.979156 597.008789 431.186462zM305.695129 444.967224C305.698059 438.489075 305.805206 432.503906 305.655151 426.525208 305.569855 423.126404 306.879333 421.651703 310.320557 421.790161 316.938934 422.056427 323.656921 421.00473 330.144043 422.945435 336.687286 424.902893 340.652252 429.919281 341.076385 436.283386 341.430756 441.600952 337.672272 447.156219 331.898163 449.860535 331.309753 450.136108 330.738098 450.447418 329.853516 450.8974 331.965973 454.194305 336.33548 453.50827 338.850067 456.385895 335.321564 458.74173 332.72171 456.34201 330.151794 455.105316 327.520081 453.838867 325.128815 452.072784 322.597076 450.503571 321.221497 452.612396 322.954193 456.049591 319.710815 456.540985 315.453461 457.185974 311.067871 457.514587 306.921478 455.959839 305.249817 455.333038 305.767578 453.375519 305.71048 451.943085 305.624481 449.786224 305.690369 447.623291 305.695129 444.967224M327.149719 448.10257C334.712585 446.598511 338.322113 442.421082 337.931793 435.624237 337.593933 429.740021 332.99762 425.741028 326.137665 424.957031 323.264221 424.628632 322.12149 425.543549 322.120911 428.364532 322.119904 433.186127 321.957794 438.007721 321.954712 442.829346 321.95285 445.79184 322.903473 448.100494 327.149719 448.10257zM464.677551 456.868713C450.03714 456.955383 453.051483 457.090027 452.840515 445.378265 452.738556 439.71933 452.814972 434.057373 452.784821 428.396912 452.750183 421.903656 452.815125 421.827759 459.538544 421.768494 467.934082 421.694489 467.934082 421.694489 470.13089 429.138947 475.762604 428.442871 479.101868 422.174713 485.646606 422.056793 484.916962 425.870605 482.134674 426.348602 480.070618 427.288544 476.248199 429.029236 475.166565 431.062225 477.551147 434.953857 480.849365 440.336609 483.700104 445.994141 486.722656 451.54483 487.410522 452.808014 488.546509 454.013306 487.019714 456.516785 482.606537 453.73819 481.865509 448.746704 479.671204 444.896088 477.301819 440.738129 475.31424 436.362518 473.194275 432.149719 469.646545 432.411713 469.154388 434.538818 469.167816 437.064575 469.194366 442.059326 469.104065 447.057556 469.267029 452.047638 469.366089 455.081116 468.409393 456.875397 464.677551 456.868713zM288.221832 424.733307C288.141754 428.199738 290.786499 429.76709 292.579132 431.821136 295.749329 435.453735 299.179962 438.86264 301.316895 443.279297 303.249451 447.273621 302.371246 450.712891 299.244537 453.666748 293.795837 458.814209 281.478729 458.824066 276.128448 453.712158 275.397491 453.013702 274.709625 452.276276 275.29361 450.387268 279.542664 451.397461 282.773376 456.923157 288.081512 454.102203 288.91748 451.546539 286.721588 450.290344 285.472504 448.726837 282.673828 445.223694 279.386261 442.073059 276.878326 438.384186 272.391693 431.784882 274.634491 425.300262 282.044861 422.285767 289.22464 419.365082 296.706604 421.037933 299.716187 426.490448 295.542755 427.50885 292.659332 421.490417 288.221832 424.733307zM361.051392 452.620087C361.110168 455.567383 359.759094 456.506409 357.418304 456.850922 345.895294 458.546875 344.669342 457.511871 344.706146 445.84668 344.726044 439.540558 344.871643 433.227173 344.620575 426.930603 344.461395 422.939453 346.118561 421.707642 349.885162 421.747345 362.909943 421.884644 361.030762 420.450073 360.999878 432.745544 360.983612 439.21701 361.040802 445.688721 361.051392 452.620087zM622.372681 439.032654C622.449341 443.842682 622.38324 448.173157 622.64856 452.483246 622.8349 455.510925 621.549133 456.580383 618.695984 456.881195 607.653198 458.045441 606.634277 457.214203 606.660278 446.477966 606.676392 439.826508 606.782043 433.17215 606.618835 426.524719 606.534668 423.096405 607.857056 421.738342 611.273926 421.773071 623.641296 421.898865 623.441711 420.275879 622.419861 432.559845 622.254944 434.542297 622.38031 436.548889 622.372681 439.032654zM441.251709 481.547852C438.954865 483.188904 441.747772 484.282196 441.315033 485.662872 438.859039 487.003601 437.424377 484.539337 435.213837 484.053619 433.257385 486.353455 430.505676 486.868256 427.786224 485.615051 425.137726 484.394562 426.061371 481.591003 425.922974 479.357971 425.809906 477.533325 425.888641 475.697357 425.800995 473.870331 425.727509 472.338623 425.002716 471.324066 423.309204 471.438599 421.839813 471.537994 421.37204 472.576782 421.338318 473.851532 421.276703 476.180206 421.19809 478.512939 421.269897 480.839539 421.36026 483.767487 421.111572 486.114227 417.199677 486.152466 413.077576 486.192719 412.618713 483.765961 412.78949 480.600006 412.852173 479.437927 412.837158 478.269592 412.810486 477.105194 412.742554 474.141968 413.607361 470.695892 409.086487 470.508575 409.379364 468.434357 410.59079 468.717041 411.479156 468.712341 419.2995 468.671082 427.120148 468.681122 434.940704 468.686401 442.549988 468.691528 446.196167 475.93573 441.251709 481.547852M435.073425 471.94165C433.782532 473.718872 434.460327 475.753326 434.353699 477.677643 434.27774 479.048828 434.572998 480.407196 436.05127 480.914581 437.609344 481.449402 438.966217 480.756134 440.080383 479.696014 441.353485 478.484772 442.067596 476.918854 441.421204 475.229767 440.450378 472.692963 438.579285 471.264496 435.073425 471.94165zM383.267212 480.984924C378.291016 477.705353 380.111755 483.537079 377.570282 484.639862 376.288971 479.443298 376.767334 474.553345 377.339111 469.259705 382.695312 469.893494 386.149506 473.863953 390.707886 474.921875 392.403473 473.699402 391.102539 471.562958 393.314667 469.437225 394.634155 475.187134 393.779327 480.186737 393.818268 485.422028 389.481537 485.370758 386.8284 482.520477 383.267212 480.984924zM525.31366 470.749023C526.800659 468.059204 528.276489 469.689392 529.611877 470.362427 532.68042 471.909088 535.686401 473.579987 538.410217 475.036072 540.489868 474.046082 539.173767 471.760803 541.573242 470.865082 542.86438 475.740936 541.925354 480.477753 541.997131 485.592651 536.379395 484.968475 532.928833 480.619202 528.223694 479.687256 526.561646 481.279114 528.322693 483.522095 526.101624 485.497955 524.267517 480.528107 525.733704 475.711304 525.31366 470.749023zM362.452606 484.926086C357.808167 480.519012 357.000763 476.477234 359.643585 472.394318 361.969849 468.800476 367.143311 467.287537 371.116394 469.039154 374.988739 470.746429 377.114502 475.468506 376.013214 479.916656 374.669434 485.344269 369.238647 487.485779 362.452606 484.926086M373.61557 480.116638C375.10672 474.440887 373.182922 471.600952 367.274628 471.37326 367.122833 475.522705 366.178741 479.666107 367.722809 483.726837 370.546478 484.036316 372.021484 482.557892 373.61557 480.116638zM518.139526 468.684662C523.818604 471.823456 525.431519 474.920715 524.098816 480.127106 523.117371 483.961334 520.251465 485.833984 516.494324 486.256042 511.197052 486.851105 506.38739 482.764374 506.237152 477.721558 506.064972 471.942047 510.963684 468.064087 518.139526 468.684662M522.273315 475.287231C520.990479 472.591156 519.184143 470.769684 515.882385 471.218292 514.782959 473.969818 515.264526 476.628235 515.247498 479.220673 515.237488 480.745514 514.618713 482.834015 516.738647 483.455627 518.773315 484.052277 520.127991 482.540955 521.2276 481.071289 522.340576 479.583801 522.94104 477.887756 522.273315 475.287231zM451.592224 469.165588C454.715912 473.91394 451.670044 479.217896 454.08316 484.427277 462.276123 482.18927 458.339844 474.847107 460.137085 470.091278 462.315582 472.840729 462.040314 481.666931 459.796783 484.185547 457.66568 486.577942 450.738037 487.21579 447.617401 485.311737 445.757202 484.176636 444.878815 482.451233 444.76358 480.346741 444.663818 478.52475 444.690308 476.695099 444.68576 474.868805 444.670197 468.60672 444.742584 468.544708 451.592224 469.165588zM408.565186 480.403564C406.837891 487.095154 400.545563 488.344482 395.400543 483.240875 397.399628 482.122894 398.741547 484.558655 400.930573 483.916473 400.246735 481.703552 398.473816 480.243042 397.123291 478.53241 394.997406 475.839539 393.734985 473.076599 396.73761 470.207092 399.404602 467.658295 403.72403 467.886261 406.706726 470.618835 405.647827 472.131378 404.244171 470.284332 402.626923 471.280121 404.256836 474.387665 407.614655 476.477478 408.565186 480.403564zM552.182983 468.486267C553.724365 468.9328 555.249329 468.962677 555.100098 470.791565 553.790894 472.386078 552.248352 469.908112 550.967285 471.124908 551.939575 475.824921 561.226746 478.414337 554.645386 484.845032 551.736023 487.687775 546.946533 486.639679 543.955078 483.16217 545.813416 482.423798 547.173828 484.822083 549.132507 483.994019 548.187927 479.392731 541.109924 477.234039 543.955383 471.504578 545.424194 468.547028 548.689758 468.14325 552.182983 468.486267z" fill="#adb4c5" class="color000 svgShape"></path><path d="M344.429993 470.339966C351.027527 467.152039 353.914825 467.687622 357.137299 472.600555 354.603912 473.363129 353.137054 470.010529 350.116028 471.310852 349.685486 475.301392 348.973877 479.559204 349.958527 483.743256 353.21936 484.5047 354.743591 481.556763 357.754059 481.500519 356.281158 485.193878 353.582581 486.224579 350.296936 486.301971 346.359558 486.394745 343.592682 484.425537 341.974091 480.99942 340.121704 477.078491 341.009308 473.553894 344.429993 470.339966zM444.792816 214.128067C442.861877 208.888443 445.082153 206.991852 449.695251 206.716309 452.949768 206.521912 456.075806 204.898178 460.560608 205.946274 456.2966 212.07309 452.338226 217.760727 448.120026 223.821747 444.922974 220.850754 446.018646 217.306915 444.792816 214.128067zM479.020203 471.031403C479.398041 470.127991 479.642334 468.933716 480.823944 468.915131 485.656677 468.839111 490.491302 468.883423 495.61087 469.345459 490.493774 472.324463 492.233307 476.96283 492.091003 480.989441 491.984375 484.00824 491.397949 486.195435 487.7034 486.104584 485.113495 486.040863 483.61618 485.156433 483.684235 482.342834 483.740173 480.029846 483.551514 477.705994 483.698486 475.401398 483.882874 472.510773 482.771393 470.996887 479.398376 471.030579 479.004913 471.008545 479.020203 471.031403 479.020203 471.031403zM478.997437 470.998169C476.880188 475.441864 474.595428 469.46994 471.70636 471.957153 470.475372 474.434143 471.374542 478.083832 471.398163 481.605438 471.411987 483.664978 473.006592 483.986359 474.612976 483.326569 475.953979 482.775787 477.154999 481.884216 478.588104 481.043823 477.769409 484.870514 475.457794 486.46463 471.307129 486.310638 466.877472 486.146332 463.234741 482.992035 462.75882 478.786102 462.333557 475.028381 463.523376 471.879852 466.775909 469.779266 470.837494 467.156097 474.675903 468.260468 478.693359 470.875336 479.020203 471.031403 479.004913 471.008545 478.997437 470.998169zM496.723724 478.922821C496.72702 476.616974 496.778137 474.787811 496.721863 472.961945 496.633667 470.100616 497.807404 468.742798 500.83075 468.680267 504.076477 468.613159 505.372009 469.986603 505.262817 473.121155 505.176086 475.610016 505.190948 478.107727 505.289062 480.596436 505.413513 483.753082 505.005035 486.204498 500.891815 486.153015 497.101654 486.10553 496.543549 483.892761 496.721069 480.896118 496.750488 480.399414 496.72403 479.899445 496.723724 478.922821zM423.196716 224.955383C423.427307 230.438995 421.259491 231.668198 412.461334 230.943176 414.52774 226.60379 416.842773 222.885513 420.390045 219.978287 422.590118 220.94545 422.472839 222.993149 423.196716 224.955383zM463.812378 209.928925C464.217926 212.19574 464.690491 214.125992 464.115143 216.328598 461.604523 216.55159 459.86969 215.261887 459.153595 213.197586 458.504883 211.327423 459.961823 209.701035 461.27121 208.470703 462.634125 207.190033 463.231171 208.46228 463.812378 209.928925z" fill="#adb4c5" class="color000 svgShape"></path></svg></g></svg>