<svg version="1.2" xmlns="http://www.w3.org/2000/svg" viewBox="0 0 1596 1403" width="1596" height="1403">
	<title>VBL-AR-2021-1-pdf-svg</title>
	<defs>
		<clipPath clipPathUnits="userSpaceOnUse" id="cp1">
			<path d="m-7267.8-785.31h9545.79v12726h-9545.79z"/>
		</clipPath>
	</defs>
	<style>
		.s0 { fill: #ffffff } 
	</style>
	<g id="Clip-Path: Page 1" clip-path="url(#cp1)">
		<g id="Page 1">
			<path id="Path 2" fill-rule="evenodd" class="s0" d="m1546 0.4l-968.3 1402h-187.2l-14.4-35.4c-2.4 2.4-5.7 4-8.9 4-7.2 0-12-5.6-12-12.8 0-6.4 4.8-12.1 12-12.1l-8.8-20.9c7.2-2.4 12.8-8.8 12.8-17.6 0-9.7-8-16.9-17.6-16.9q-4.9 0-8.9 2.4l-7.2-18.5c-4.8 2.4-9.6 4.1-15.3 4.1-19.3 0-35.3-16.1-35.3-35.4 0-15.3 10.4-28.1 24.1-32.9l-8.9-20.9q-4 1.6-8 1.6c-10.4 0-19.3-8.1-19.3-19.3 0-8 5.6-14.5 12.9-17.7l-6.5-15.2c10.5-6.5 17.7-18.5 17.7-31.4 0-20.1-16-36.9-36.1-36.9q-4.9 0-9.7 1.6l-9.6-24.1q-0.8 0-1.6 0c-7.3 0-12.9-5.7-12.9-12.1 0-4.8 2.4-8 5.6-10.4l-11.2-26.5c8.8-4.9 15.3-13.7 15.3-24.9 0-15.3-12.9-28.2-29-28.2q-4 0-8 0.8l-18.5-45.8c14.5-4.8 25.7-19.2 25.7-36.1 0-20.9-16.8-37.8-38.5-37.8-5.7 0-11.3 1.6-16.9 4.1l-10.5-25.8c-1.6 1.6-3.2 2.5-6.4 2.5-4 0-8-4.1-8-8.1 0-4.8 4-8.8 8-8.8q0.8 0 0.8 0l-9.6-23.3q-4 2.4-8.9 2.4c-8.8 0-16-7.2-16-16.9 0-7.2 4.8-13.6 12-15.2l-8.8-22.5c10.4-6.5 17.7-18.5 17.7-32.2 0-20.1-16.9-36.9-37.8-36.9q-4 0-8 0.8l-5.7-13.7q-4.8 3.2-10.4 3.2c-10.5 0-18.5-8-18.5-18.5 0-8.8 6.4-16.8 14.5-18.4l-7.3-16.9h225l208.1 536.7zm-1315.7 1171.3c-4.7 0-8.5-3.7-8.5-8.4 0-4.7 3.8-8.4 8.5-8.4 4.6 0 8.4 3.7 8.4 8.4 0 4.7-3.8 8.4-8.4 8.4zm-110.1-266.7c-6.9 0-12.5-5.6-12.5-12.4 0-6.9 5.6-12.5 12.5-12.5 6.9 0 12.4 5.6 12.4 12.5 0 6.8-5.5 12.4-12.4 12.4zm64.7 195.2c-4.9 0-8.9-3.9-8.9-8.8 0-4.9 4-8.8 8.9-8.8 4.9 0 8.8 3.9 8.8 8.8 0 4.9-3.9 8.8-8.8 8.8zm59.4-269.1c0-7.6-6.1-13.7-13.6-13.7-7.6 0-13.7 6.1-13.7 13.7 0 7.6 6.1 13.7 13.7 13.7 7.5 0 13.6-6.1 13.6-13.7zm82.8 325.8c0-6.5-5.2-11.7-11.7-11.7-6.4 0-11.6 5.2-11.6 11.7 0 6.4 5.2 11.6 11.6 11.6 6.5 0 11.7-5.2 11.7-11.6zm-40.2-185.6c0-6.4-5.2-11.7-11.6-11.7-6.5 0-11.7 5.3-11.7 11.7 0 6.4 5.2 11.6 11.7 11.6 6.4 0 11.6-5.2 11.6-11.6zm-110.1-219.3c0-6.5-5.2-11.7-11.6-11.7-6.5 0-11.7 5.2-11.7 11.7 0 6.4 5.2 11.6 11.7 11.6 6.4 0 11.6-5.2 11.6-11.6zm1412.6 324.9c0 118.1-93.2 213.8-208.1 213.8h-604.2l101.2-147.1h503c36.2 0 65.1-29.7 65.1-66.7 0-36.9-28.9-66.6-65.1-66.6h-410.6l101.3-147.1h286.8c36.2 0 65.1-29.7 65.1-66.6 0-37-28.9-66.7-65.1-66.7h-194.4l101.2-147.1h93.2c114.9 0 208.9 96.5 208.9 213.8 0 47.4-15.2 91.5-40.9 127.7 38.5 38.6 62.6 92.4 62.6 152.6zm-1311.7 144.7c-4.7 0-8.5-3.8-8.5-8.5 0-4.6 3.8-8.4 8.5-8.4 4.6 0 8.4 3.8 8.4 8.4 0 4.7-3.8 8.5-8.4 8.5zm28.5 102.8c-5.8 0-10.4-4.7-10.4-10.5 0-5.7 4.6-10.4 10.4-10.4 5.8 0 10.5 4.7 10.5 10.4 0 5.8-4.7 10.5-10.5 10.5zm-102-278.8c-4.9 0-8.1-3.2-8.1-8 0-4 3.2-8.1 8.1-8.1 4 0 8 4.1 8 8.1 0 4.8-4 8-8 8zm-192.1-410.5c-6.6 0-12-5.2-12-11.7 0-6.4 5.4-11.6 12-11.6 6.7 0 12.1 5.2 12.1 11.6 0 6.5-5.4 11.7-12.1 11.7zm132.6 326.2c-7.6 0-13.7-6.2-13.7-13.7 0-7.6 6.1-13.7 13.7-13.7 7.6 0 13.7 6.1 13.7 13.7 0 7.5-6.1 13.7-13.7 13.7zm-84-269.2c-9.1 0-16.4-7.4-16.4-16.5 0-9.1 7.3-16.4 16.4-16.4 9.1 0 16.5 7.3 16.5 16.4 0 9.1-7.4 16.5-16.5 16.5zm-0.4 61.1c-6.2 0-11.2-5.2-11.2-11.7 0-6.4 5-11.6 11.2-11.6 6.3 0 11.3 5.2 11.3 11.6 0 6.5-5 11.7-11.3 11.7zm182.4 347.8c-6.6 0-12-5.3-12-12 0-6.7 5.4-12.1 12-12.1 6.7 0 12.1 5.4 12.1 12.1 0 6.7-5.4 12-12.1 12zm-75.9-209.6c-9.1 0-16.5-7.4-16.5-16.5 0-9.1 7.4-16.5 16.5-16.5 9.1 0 16.5 7.4 16.5 16.5 0 9.1-7.4 16.5-16.5 16.5zm28.1 112.4c-11.3 0-20.5-9.1-20.5-20.5 0-11.3 9.2-20.4 20.5-20.4 11.4 0 20.5 9.1 20.5 20.4 0 11.4-9.1 20.5-20.5 20.5zm56.3 279.6c-6.9 0-12.5-5.5-12.5-12.4 0-6.9 5.6-12.5 12.5-12.5 6.9 0 12.4 5.6 12.4 12.5 0 6.9-5.5 12.4-12.4 12.4zm-159.1-445.1c-4.7 0-8.5-3.7-8.5-8.4 0-4.7 3.8-8.4 8.5-8.4 4.6 0 8.4 3.7 8.4 8.4 0 4.7-3.8 8.4-8.4 8.4zm313.7 441.9c-4 0-7.2 3.2-7.2 7.2 0 4.1 3.2 7.3 7.2 7.3 3.3 0 6.5-3.2 6.5-7.3 0-4-3.2-7.2-6.5-7.2zm-28.9-73.1c0-6.2-5.2-11.3-11.6-11.3-6.5 0-11.7 5.1-11.7 11.3 0 6.2 5.2 11.2 11.7 11.2 6.4 0 11.6-5 11.6-11.2zm-207.3-541.1c0-9.1-7.4-16.5-16.5-16.5-9.1 0-16.4 7.4-16.4 16.5 0 9.1 7.3 16.5 16.4 16.5 9.1 0 16.5-7.4 16.5-16.5zm161.5 402.1c-4 0-7.2 3.2-7.2 7.2 0 4.1 3.2 7.3 7.2 7.3 3.2 0 6.4-3.2 6.4-7.3 0-4-3.2-7.2-6.4-7.2zm-63.5-179.2c-4 0-6.4 3.3-6.4 6.5 0 4 2.4 7.2 6.4 7.2 4.1 0 7.3-3.2 7.3-7.2 0-3.2-3.2-6.5-7.3-6.5zm542.4 510.2q0 0.8-0.8 0.8 0 0.8-0.8 0.8-0.8 0.8-2.4 0.8-1.6 0-4 0-2.4 0-4 0-0.8 0-2.5 0-0.8-0.8-1.6-0.8 0 0-0.8 0 0-0.8-0.8-0.8 0-0.8 0-1.6l-19.2-57q-0.9-1.6-0.9-2.4 0-0.8 0.9-1.7 0-0.8 1.6-0.8 1.6 0 4.8 0 1.6 0 3.2 0 1.6 0 1.6 0 0.8 0.8 1.6 0.8 0 0.9 0 1.7l16.1 49.8 15.2-49.8q0-0.8 0.8-0.8 0-0.9 0.9-0.9 0.8-0.8 1.6-0.8 1.6 0 4 0 2.4 0 3.2 0 1.6 0 2.4 0.8 0 0.9 0 1.7 0 0.8-0.8 2.4z"/>
			<path id="Path 3" fill-rule="evenodd" class="s0" d="m885.5 1395.9q0.8 1.7 0.8 3.3 0 0.8-0.8 1.6 0 0-1.6 0-1.6 0-4 0-2.4 0-4 0-0.9 0-1.7 0-0.8 0-1.6-0.8 0 0 0-0.8l-4-12.9h-24.9l-4 12.1q0 0.8 0 1.6-0.8 0.8-1.6 0.8-0.8 0-1.6 0-1.6 0-4 0-1.6 0-3.3 0-1.6 0-1.6-0.8-0.8 0-0.8-1.6 0.8-0.8 0.8-2.5l20.1-57q0-0.8 0.8-1.6 0-0.8 0.8-0.8 0.8 0 2.4 0 1.7 0 4.1 0 3.2 0 4.8 0 1.6 0 3.2 0 0.8 0 0.8 0.8 0.8 0.8 0.8 1.6zm-28.9-47.4h-0.8l-8.9 27.3h18.5zm86 50.6q0 0.8 0 0.8 0 0.8-0.8 0.8-0.8 0-2.4 0-1.6 0.8-4 0.8-1.6 0-3.3-0.8-1.6 0-1.6 0-0.8 0-1.6-0.8 0 0 0-0.8l-6.4-14.4q-0.8-2.4-1.6-4.8-0.8-1.7-2.4-2.5-0.8-1.6-2.4-2.4-1.6-0.8-4-0.8h-4.1c0 0.6 0 25.7 0 25.7q-0.8 0.8-1.6 0.8-0.8 0-1.6 0-1.6 0.8-3.2 0.8-2.4 0-3.2-0.8-1.6 0-2.4 0-0.8 0-0.8-0.8c0 0 0-58.9 0-59.4q0-2.4 0.8-3.2 1.6-0.8 3.2-0.8c1.6 0 19.3 0 20.9 0q1.6 0 2.4 0 4 0.8 7.2 2.4 3.3 0.8 4.9 3.2 2.4 2.4 4 5.6 0.8 2.4 0.8 6.4 0 3.3-0.8 5.7-0.8 3.2-2.4 4.8-1.6 2.4-4.1 4-2.4 1.6-5.6 2.4 1.6 0.8 3.2 1.6 0.8 0.8 2.4 2.4 0.9 1.6 1.7 3.2 1.6 1.7 2.4 4.1l5.6 12.8q0.8 1.6 0.8 2.4 0 0.8 0 1.6zm-16.9-43.3q0-3.3-1.6-5.7-0.8-2.4-4.8-3.2-0.8 0-1.6 0-1.6-0.8-4-0.8h-5.7v18.5h6.5q3.2 0 4.8-0.8 2.4-0.8 4-1.6 0.8-1.6 1.6-3.2 0.8-1.6 0.8-3.2zm78.8 20.8q0 6.5-1.6 10.5-1.6 4.8-4.9 8-3.2 3.2-8.8 4.8-4.8 2.4-11.3 2.4-5.6 0-10.4-1.6-4.8-1.6-8-4.8-4-3.2-5.7-8-1.6-4-1.6-10.5c0 0 0-39.6 0-40.1q0.8 0 1.6-0.8 0.8 0 1.7 0 1.6 0 3.2 0 1.6 0 3.2 0 1.6 0 1.6 0 0.8 0.8 1.6 0.8c0 0.5 0 39.3 0 39.3q0 3.3 0.8 6.5 1.6 2.4 3.2 4.8 1.6 1.6 4 2.4 2.4 0.8 5.7 0.8 3.2 0 5.6-0.8 2.4-0.8 4-2.4 1.6-2.4 2.4-4.8 0.8-2.4 0.8-6.5v-38.5q0 0 0.8-0.8 0 0 0.8-0.8 0.8 0 1.6 0 1.6 0 3.2 0 2.4 0 3.3 0 1.6 0 2.4 0 0.8 0.8 0.8 0.8c0 0.5 0 39.3 0 39.3zm67.5 19.3q0 1.6-0.8 2.4 0 0.8-0.8 1.6-0.8 0.8-1.7 0.8-0.8 0-1.6 0c-1 0-7.7 0-8.8 0q-1.6-0.8-2.4-1.6-0.8-0.8-1.6-2.4-1.6-1.6-2.4-4l-16.1-29.7q-1.6-3.2-3.2-6.4-0.8-2.5-2.4-5.7 0 3.2 0 7.3 0.8 3.2 0.8 7.2v33.7q0 0-0.8 0.8 0 0-0.8 0.8-0.8 0-1.6 0-1.6 0-3.2 0-1.7 0-3.3 0-0.8 0-1.6 0-0.8-0.8-0.8-0.8c0-0.5 0-58.6 0-58.6q0-2.4 1.6-4 0.8-0.8 3.2-0.8c1.7 0 9.2 0 9.7 0q1.6 0.8 2.4 1.6 1.6 0.8 2.4 1.6 0.8 1.6 1.6 3.2l12.9 24.1q0.8 1.6 1.6 4 1.6 1.6 2.4 4 0.8 2.4 1.6 4.1 0.8 2.4 1.6 4h0.8q-0.8-3.2-0.8-7.3c0-2.6 0-35.6 0-37.7q0 0 0.8-0.8 0 0 0.8-0.8 0.8 0 1.6 0 1.6 0 3.2 0 1.6 0 2.4 0 1.7 0 1.7 0 0.8 0.8 1.6 0.8c0 0.5 0 58.6 0 58.6zm83.5-14.4q0 3.2-0.8 6.4-0.8 2.4-3.2 4.8-1.6 2.4-3.2 4-2.4 0.8-5.6 2.4-2.4 0.8-5.7 1.6c-2.1 0-21.4 0-24.1 0q-1.6 0-3.2-0.8-0.8-0.8-0.8-3.2v-56.2q0-2.4 0.8-3.2 1.6-0.8 3.2-0.8h16.1q5.6 0 9.7 0.8 4 1.6 7.2 3.2 2.4 1.6 4 4.8 1.6 3.2 1.6 7.2 0 2.4-0.8 4.9 0 1.6-1.6 4-0.8 1.6-2.4 2.4-1.6 1.6-4 2.4 2.4 0 4.8 1.6 2.4 1.6 4 3.2 1.6 1.6 3.2 4.8 0.8 2.4 0.8 5.7zm-16.8-27.4q0-1.6-0.9-3.2-0.8-1.6-1.6-2.4-1.6-0.8-3.2-1.6-1.6-0.8-4.8-0.8h-6.4v16.9h7.2q3.2 0 4.8-0.8 1.6-0.8 2.4-1.6 0.8-1.6 1.6-3.2 0.9-0.8 0.9-3.3zm3.2 28.2q0-2.4-0.8-4.1-0.8-2.4-2.4-3.2-0.9-0.8-3.3-1.6-2.4-0.8-5.6-0.8h-8v18.5h9.6q2.4 0 4-0.8 2.4-0.8 3.3-1.6 1.6-1.6 2.4-3.2 0.8-1.6 0.8-3.2zm61.8 13.6q0 1.6 0 2.4 0 0.8 0 1.6-0.8 0-0.8 0.8 0 0-0.8 0h-32.1q-1.6 0-3.2-0.8-0.8-0.8-0.8-3.2v-56.2q0-2.4 0.8-3.2 1.6-0.8 3.2-0.8c0 0 32.4 0 32.9 0q0 0.8 0.8 0.8 0 0.8 0 1.6 0 1.6 0 2.4 0 1.6 0 2.4 0 1.6 0 1.6-0.8 0.8-0.8 0.8-0.8 0.8-0.8 0.8h-23.3v15.3h19.3q0.8 0 0.8 0.8 0.8 0 0.8 0.8 0 0 0.8 1.6 0 0.8 0 2.4 0 0.8 0 2.4-0.8 0.8-0.8 0.8 0 0.8-0.8 0.8 0 0.8-0.8 0.8h-19.3v17.7h23.3q0.8 0 0.8 0.8 0 0 0.8 0.8 0 0 0 1.6 0 0.8 0 2.4zm44.2 2.4q-0.8 0.8-0.8 1.6-0.8 0.8-1.6 0.8-0.8 0-2.4 0-1.6 0.8-4 0.8-1.6 0-3.2-0.8-1.6 0-2.4 0-0.8 0-1.6 0-0.8 0-0.8-0.8-0.8 0-0.8-0.8 0 0-0.8-0.8l-18.5-57q-0.8-1.6-0.8-2.4 0-1.6 0-1.6 0.8-0.8 2.4-0.8 1.6 0 4 0 2.4 0 4 0 0.8 0 1.6 0 0.8 0.8 0.8 0.8 0.8 0.8 0.8 1.6l15.3 49 16.1-49q0-0.8 0-1.6 0.8 0 0.8-0.8 0.8 0 2.4 0 1.6 0 4 0 1.6 0 3.2 0 1.6 0 1.6 0.8 0.8 0 0.8 1.6-0.8 0.8-0.8 2.4zm65.9-2.4q0 0.8 0 2.4 0 0.8 0 1.6-0.8 0-0.8 0.8-0.8 0-0.8 0h-32.1q-1.7 0-3.3-0.8-0.8-0.8-0.8-3.2v-56.3q0-2.4 0.8-3.2 1.6-0.8 3.3-0.8c0 0 32.4 0 32.9 0q0 0.8 0 0.8 0.8 0.8 0.8 1.6 0 1.6 0 2.4 0 1.7 0 2.5 0 1.6-0.8 1.6 0 0.8 0 0.8-0.8 0.8-0.8 0.8h-23.3v15.2h19.3q0.8 0 0.8 0.8 0.8 0 0.8 0.8 0 0 0 1.7 0 0.8 0 1.6 0 1.6 0 2.4 0 1.6 0 1.6 0 0.8-0.8 0.8 0 0.8-0.8 0.8h-19.3v17.7h23.3q0 0 0.8 0.8 0 0 0.8 0.8 0 0 0 1.6 0 0.8 0 2.4zm59.5 3.2q0 0.8 0 0.8 0 0.8-0.8 0.8-0.8 0-2.4 0-1.7 0-4.1 0-2.4 0-3.2 0-1.6 0-2.4 0 0-0.8-0.8-0.8 0-0.8 0-0.8l-6.4-14.5q-0.8-2.4-1.6-4.8-0.8-1.6-2.4-3.2-1.6-0.8-3.3-1.6-1.6-0.8-3.2-0.8h-4v24.9q0 0-0.8 0.8 0 0-0.8 0.8-0.8 0-1.6 0-1.6 0-3.2 0-2.4 0-3.2 0-1.6 0-2.4 0-0.8-0.8-0.8-0.8 0-0.8 0-0.8v-58.7q0-2.4 0.8-3.2 0.8-0.8 2.4-0.8c1.6 0 19.8 0 20.9 0q1.6 0 3.2 0 4 0.8 7.2 2.4 3.2 0.8 4.8 3.3 2.4 2.4 3.2 4.8 1.7 3.2 1.7 7.2 0 3.2-0.9 5.6-0.8 3.2-2.4 4.8-1.6 2.5-4 4.1-2.4 1.6-5.6 2.4 1.6 0.8 3.2 1.6 0.8 0.8 2.4 2.4 0.8 1.6 1.6 3.2 1.6 1.6 2.4 4l4.9 12.9q0.8 1.6 1.6 2.4 0 0.8 0 1.6zm-16.9-43.4q0-3.2-1.6-5.6-1.6-2.4-4.8-3.2-0.8 0-2.4 0-0.9-0.8-3.3-0.8h-5.6v18.4h6.4q3.3 0 4.9-0.8 2.4-0.8 3.2-1.6 1.6-1.6 2.4-3.2 0.8-1.6 0.8-3.2zm79.5 40.2q0 1.6 0 2.4 0.8 1.6 0 1.6-0.8 0.8-1.6 0.8-1.6 0-4 0-2.4 0-4 0-1.6 0-2.4 0-0.8 0-0.8-0.8-0.8 0-0.8-0.8l-4-12.9h-24.1l-4.1 12.1q-0.8 0.8-0.8 1.6 0 0-0.8 0.8-0.8 0-2.4 0-0.8 0-3.2 0-2.4 0-4 0-0.8 0-1.6-0.8 0 0 0-1.6 0-0.8 0.8-2.4l19.3-57.1q0.8-0.8 0.8-1.6 0.8-0.8 1.6-0.8 0.8 0 2.4 0 1.6 0 4 0 3.2 0 4.8 0 1.6 0 2.4 0 0.8 0 1.6 0.8 0 0.8 0.9 1.6zm-29.8-47.4l-8.8 27.4h17.7zm89.1-2.5q0 1.6 0 3.3 0 0.8-0.8 1.6 0 0 0 0.8-0.8 0-0.8 0-0.8 0-2.4-0.8-1.6-0.8-4-2.4-2.4-0.9-5.6-1.7-3.2-0.8-7.2-0.8-4.9 0-8.9 1.6-4 1.7-6.4 4.9-2.4 2.4-4 6.4-1.6 4.8-1.6 9.6 0 5.7 1.6 9.7 1.6 4 4 7.2 2.4 2.4 6.4 4 4 1.6 8.1 1.6 2.4 0 4.8-0.8 1.6 0 4-1.6v-14.4h-12.9q-0.8 0-0.8-1.6-0.8-0.8-0.8-3.3 0-1.6 0-2.4 0-0.8 0.8-1.6 0-0.8 0-0.8 0.8-0.8 0.8-0.8h21.7q0.8 0 1.6 0.8 0.8 0 1.6 0.8 0 0 0 0.8 0.8 0.8 0.8 2.4v25.7q0 0.9-0.8 2.5 0 0.8-2.4 1.6-1.6 0.8-3.2 1.6-2.4 0.8-5.6 0.8-2.4 0.8-4.8 0.8-2.4 0-5.6 0-7.3 0-13.7-1.6-5.6-2.4-10.5-6.5-4-4.8-6.4-10.4-2.4-6.4-2.4-13.7 0.8-8 2.4-14.4 2.4-6.4 7.2-10.5 4.1-4.8 10.5-6.4 6.4-2.4 13.7-2.4 4 0 8 0 3.2 0.8 5.6 1.6 2.4 0.8 4 1.6 2.4 0.8 2.4 1.6 0.8 0.8 1.6 2.4 0 0.8 0 3.2zm51.5 49.9q0 0.8 0 2.4 0 0.8-0.8 1.6 0 0-0.8 0.8 0 0-0.8 0h-32.2q-1.6 0-2.4-0.8-1.6-0.8-1.6-3.2v-56.3q0-2.4 1.6-3.2 0.8-0.8 2.4-0.8c0.6 0 33 0 33 0q0.8 0.8 0.8 0.8 0 0.8 0 1.6 0.8 1.6 0.8 2.4 0 1.6-0.8 2.4 0 1.6 0 1.6 0 0.8-0.8 0.8 0 0.8-0.8 0.8h-22.5v15.3h19.3q0 0 0.8 0.8 0 0 0.8 0.8 0 0 0 1.6 0 0.8 0 2.4 0 0.8 0 2.4 0 0.8 0 0.8-0.8 0.9-0.8 0.9-0.8 0.8-0.8 0.8h-19.3v17.6h22.5q0.8 0 0.8 0.8 0.8 0 0.8 0.8 0.8 0 0.8 1.6 0 0.8 0 2.5zm49-14.5q0 4.8-2.4 8.8-1.6 4-4.8 6.5-3.3 2.4-8.1 4-4 0.8-8.8 0.8-3.2 0-6.4 0-2.5-0.8-4.9-1.6-2.4-0.8-4-1.6-1.6-0.8-1.6-1.6-0.8-0.8-0.8-1.6-0.8-1.7-0.8-3.3 0-1.6 0-3.2 0-0.8 0.8-1.6 0-0.8 0-0.8 0.8 0 1.6 0 0 0 1.6 0.8 1.6 0.8 3.2 1.6 2.4 0.8 4.9 1.6 2.4 0.8 6.4 0.8 2.4 0 4 0 2.4-0.8 3.2-1.6 1.6-1.6 2.4-3.2 0.8-0.8 0.8-3.2 0-2.4-1.6-4-0.8-0.8-3.2-2.4-1.6-0.8-4-2.4-2.4-0.8-4.8-2.4-3.2-0.9-5.7-2.5-2.4-1.6-4-4-1.6-1.6-3.2-4.8-0.8-2.4-0.8-6.4 0-4.8 1.6-8.1 1.6-4 4-6.4 3.2-2.4 7.3-3.2 4-0.8 8-0.8 2.4 0 4.8 0 2.4 0 4 0.8 2.5 0.8 4.1 1.6 1.6 0.8 1.6 0.8 0.8 0.8 0.8 0.8 0 0.8 0.8 1.6 0 0 0 0.8 0 0.8 0 2.4 0 1.6 0 2.4 0 0.8-0.8 1.7 0 0.8 0 0.8-0.8 0.8-0.8 0.8-0.8 0-1.6-0.8-1.6-0.8-3.3-1.7-1.6-0.8-4-1.6-2.4-0.8-4.8-0.8-2.4 0-4 0.8-1.6 0.8-2.4 1.6-1.6 0.9-1.6 1.7-0.8 1.6-0.8 3.2 0 2.4 1.6 3.2 0.8 1.6 2.4 3.2 2.4 0.8 4.8 2.4 2.4 0.8 4.8 2.4 3.2 0.8 5.7 2.4 2.4 1.6 4 3.2 2.4 2.5 3.2 5.7 1.6 2.4 1.6 6.4z"/>
		</g>
	</g>
</svg>